<!-- Generator: Adobe Illustrator 19.0.0, SVG Export Plug-In . SVG Version: 6.00 Build 0)  -->
<svg xmlns="http://www.w3.org/2000/svg" xmlns:xlink="http://www.w3.org/1999/xlink" width="50px" height="50px" viewBox="0 0 50 50" version="1.1">
<g id="surface1">
<path style=" stroke:none;fill-rule:nonzero;fill:rgb(86.27451%,0%,0%);fill-opacity:1;" d="M 20.941406 35.226562 L 14.027344 43.644531 C 13.054688 44.832031 13.519531 46.621094 14.949219 47.179688 L 21.707031 49.839844 C 23.164062 50.414062 24.75 49.367188 24.789062 47.800781 L 25.082031 36.773438 C 25.140625 34.546875 22.355469 33.507812 20.941406 35.226562 Z M 20.941406 35.226562 "/>
<path style=" stroke:none;fill-rule:nonzero;fill:rgb(86.27451%,0%,0%);fill-opacity:1;" d="M 19.792969 26.859375 L 9.539062 23.179688 C 8.097656 22.660156 6.570312 23.699219 6.519531 25.230469 L 6.289062 32.492188 C 6.238281 34.054688 7.757812 35.195312 9.246094 34.710938 L 19.730469 31.277344 C 21.84375 30.585938 21.886719 27.609375 19.792969 26.859375 Z M 19.792969 26.859375 "/>
<path style=" stroke:none;fill-rule:nonzero;fill:rgb(86.27451%,0%,0%);fill-opacity:1;" d="M 31.542969 28.039062 L 42.046875 25.144531 C 43.523438 24.738281 44.175781 23.007812 43.332031 21.726562 L 39.34375 15.660156 C 38.480469 14.347656 36.582031 14.292969 35.644531 15.550781 L 29.050781 24.390625 C 27.722656 26.175781 29.398438 28.632812 31.542969 28.039062 Z M 31.542969 28.039062 "/>
<path style=" stroke:none;fill-rule:nonzero;fill:rgb(86.27451%,0%,0%);fill-opacity:1;" d="M 23.9375 2.804688 C 24.023438 0.988281 22.308594 -0.382812 20.554688 0.0976562 L 12.242188 2.367188 C 10.449219 2.855469 9.6875 4.980469 10.761719 6.496094 L 20.300781 23.023438 C 20.378906 23.160156 20.464844 23.289062 20.5625 23.40625 C 21.976562 25.066406 24.628906 24.453125 25.28125 22.507812 C 25.398438 22.160156 25.433594 21.785156 25.402344 21.417969 Z M 23.9375 2.804688 "/>
<path style=" stroke:none;fill-rule:nonzero;fill:rgb(86.27451%,0%,0%);fill-opacity:1;" d="M 42.117188 35.59375 L 31.570312 32.355469 C 29.445312 31.703125 27.695312 34.109375 28.972656 35.929688 L 35.230469 44.847656 C 36.109375 46.101562 37.957031 46.136719 38.882812 44.910156 L 43.257812 39.113281 C 44.199219 37.863281 43.617188 36.054688 42.117188 35.59375 Z M 42.117188 35.59375 "/>
</g>
</svg>
