<!-- Generator: Adobe Illustrator 19.0.0, SVG Export Plug-In . SVG Version: 6.00 Build 0)  -->
<svg xmlns="http://www.w3.org/2000/svg" xmlns:xlink="http://www.w3.org/1999/xlink" width="50px" height="50px" viewBox="0 0 50 50" version="1.1">
<g id="surface1">
<path style=" stroke:none;fill-rule:nonzero;fill:rgb(47.843137%,81.568627%,42.745098%);fill-opacity:1;" d="M 23.789062 0.0273438 C 10.582031 0.65625 0.164062 11.65625 0.203125 24.875 C 0.214844 28.902344 1.1875 32.703125 2.902344 36.058594 L 0.269531 48.839844 C 0.125 49.53125 0.75 50.136719 1.4375 49.972656 L 13.957031 47.007812 C 17.175781 48.609375 20.789062 49.535156 24.613281 49.59375 C 38.109375 49.800781 49.363281 39.082031 49.785156 25.589844 C 50.238281 11.128906 38.300781 -0.664062 23.789062 0.0273438 Z M 38.730469 38.527344 C 35.0625 42.195312 30.1875 44.214844 25 44.214844 C 21.964844 44.214844 19.054688 43.535156 16.359375 42.191406 L 14.613281 41.320312 L 6.9375 43.140625 L 8.554688 35.296875 L 7.695312 33.613281 C 6.292969 30.871094 5.582031 27.902344 5.582031 24.796875 C 5.582031 19.613281 7.601562 14.734375 11.269531 11.066406 C 14.90625 7.433594 19.859375 5.382812 25 5.382812 C 30.1875 5.382812 35.0625 7.402344 38.730469 11.066406 C 42.398438 14.734375 44.417969 19.609375 44.417969 24.796875 C 44.417969 29.9375 42.363281 34.894531 38.730469 38.527344 Z M 38.730469 38.527344 "/>
<path style=" stroke:none;fill-rule:nonzero;fill:rgb(47.843137%,81.568627%,42.745098%);fill-opacity:1;" d="M 37.035156 30.175781 L 32.230469 28.796875 C 31.601562 28.617188 30.921875 28.792969 30.460938 29.261719 L 29.285156 30.460938 C 28.789062 30.964844 28.039062 31.125 27.382812 30.863281 C 25.109375 29.941406 20.332031 25.691406 19.109375 23.566406 C 18.757812 22.953125 18.816406 22.1875 19.25 21.628906 L 20.273438 20.300781 C 20.675781 19.78125 20.761719 19.082031 20.496094 18.480469 L 18.472656 13.910156 C 17.988281 12.816406 16.589844 12.496094 15.675781 13.269531 C 14.335938 14.40625 12.746094 16.128906 12.550781 18.035156 C 12.210938 21.402344 13.65625 25.644531 19.113281 30.738281 C 25.417969 36.625 30.46875 37.402344 33.753906 36.605469 C 35.621094 36.152344 37.109375 34.34375 38.050781 32.859375 C 38.691406 31.847656 38.183594 30.507812 37.035156 30.175781 Z M 37.035156 30.175781 "/>
</g>
</svg>
