<!-- Generator: Adobe Illustrator 19.0.0, SVG Export Plug-In . SVG Version: 6.00 Build 0)  -->
<svg xmlns="http://www.w3.org/2000/svg" xmlns:xlink="http://www.w3.org/1999/xlink" width="50px" height="50px" viewBox="0 0 50 50" version="1.1">
<g id="surface1">
<path style=" stroke:none;fill-rule:nonzero;fill:rgb(1.568627%,69.019608%,52.54902%);fill-opacity:1;" d="M 48.597656 24.566406 C 48.488281 23.804688 47.796875 23.269531 47.035156 23.355469 C 46.457031 23.417969 45.871094 23.460938 45.304688 23.460938 C 41.585938 23.460938 36.273438 23.179688 32.988281 20.988281 C 32.703125 20.792969 32.433594 20.582031 32.175781 20.363281 C 29.710938 18.242188 29.175781 15.632812 29.164062 13.816406 C 29.144531 11.414062 29.710938 9.640625 30.855469 8.546875 C 31.871094 7.578125 33.109375 7.375 33.550781 7.375 C 33.574219 7.375 33.59375 7.375 33.613281 7.378906 C 33.75 7.382812 34.984375 7.488281 35.890625 8.8125 C 36.589844 9.839844 37.449219 12.164062 36.367188 16.933594 C 36.25 17.445312 36.53125 17.960938 37.023438 18.140625 C 38.726562 18.773438 40.871094 19.03125 42.53125 19.128906 C 43.042969 19.160156 43.503906 18.816406 43.609375 18.316406 C 44.109375 16.015625 44.320312 13.882812 44.230469 11.949219 C 44.101562 9.105469 43.34375 6.648438 41.980469 4.65625 C 40.113281 1.914062 37.128906 0.179688 34.007812 0.0117188 C 31.765625 -0.109375 28.421875 0.671875 25.757812 3.214844 C 23.921875 4.972656 21.742188 8.246094 21.785156 13.878906 C 21.824219 18.605469 23.808594 22.894531 27.367188 25.953125 C 28.453125 26.890625 29.847656 27.847656 31.613281 28.667969 C 29.695312 32.066406 27.613281 34.898438 25.886719 37.003906 C 24.269531 38.976562 22.777344 40.542969 21.664062 41.640625 C 16.0625 37.191406 12.746094 28.863281 10.902344 22.296875 C 9.101562 15.875 8.363281 9.960938 8.113281 7.484375 C 8.042969 6.800781 7.441406 6.296875 6.757812 6.34375 L 4.320312 6.507812 L 8 6.261719 L 1.9375 6.667969 C 1.21875 6.714844 0.683594 7.347656 0.753906 8.0625 C 1.015625 10.722656 1.792969 17.082031 3.765625 24.15625 C 5.285156 29.605469 7.210938 34.363281 9.480469 38.289062 C 12.46875 43.453125 16.089844 47.238281 20.25 49.539062 C 20.808594 49.847656 21.421875 50 22.035156 50 C 22.871094 50 23.703125 49.714844 24.378906 49.160156 C 24.511719 49.050781 27.667969 46.4375 31.460938 41.839844 C 33.675781 39.15625 35.667969 36.328125 37.386719 33.433594 C 37.921875 32.527344 38.433594 31.613281 38.917969 30.695312 C 41.507812 31.019531 44.515625 31.058594 47.996094 30.664062 C 48.789062 30.574219 49.351562 29.839844 49.238281 29.050781 Z M 48.597656 24.566406 "/>
</g>
</svg>
