<!-- Generator: Adobe Illustrator 19.0.0, SVG Export Plug-In . SVG Version: 6.00 Build 0)  -->
<svg xmlns="http://www.w3.org/2000/svg" xmlns:xlink="http://www.w3.org/1999/xlink" width="50px" height="50px" viewBox="0 0 50 50" version="1.1">
<g id="surface1">
<path style=" stroke:none;fill-rule:nonzero;fill:rgb(41.176471%,70.588235%,89.803922%);fill-opacity:1;" d="M 47.929688 6.023438 C 46.71875 4.71875 44.96875 4.023438 42.722656 3.957031 C 36.382812 3.75 31.902344 7.125 29.398438 13.976562 C 29.265625 14.335938 29.347656 14.734375 29.609375 15.019531 C 29.867188 15.300781 30.253906 15.410156 30.621094 15.3125 C 31.34375 15.113281 32.054688 15.011719 32.742188 15.011719 C 33.667969 15.011719 34.898438 15.183594 35.507812 15.992188 C 35.980469 16.613281 36.042969 17.542969 35.699219 18.757812 C 35.410156 19.785156 33.917969 22.527344 32.070312 25.433594 C 29.816406 28.96875 28.574219 30.554688 28.214844 30.554688 C 27.027344 30.554688 22.734375 11.527344 22.617188 11.109375 C 21.386719 6.746094 20.769531 4.558594 16.765625 4.558594 C 13.714844 4.558594 6.910156 10.128906 1.324219 14.984375 C 0.980469 15.28125 0.691406 15.53125 0.464844 15.722656 C -0.0742188 16.1875 -0.15625 16.988281 0.28125 17.550781 L 1.320312 18.890625 C 1.761719 19.457031 2.558594 19.574219 3.144531 19.160156 L 3.199219 19.121094 C 5.007812 17.832031 6.714844 16.617188 8.003906 16.550781 C 9.40625 16.484375 10.621094 18.671875 12.070312 23.878906 C 14.832031 33.996094 19.023438 46.050781 23.328125 46.050781 C 27.824219 46.050781 33.1875 42.242188 40.125 33.214844 C 46.398438 25.046875 49.761719 18.570312 49.976562 13.855469 C 50.140625 10.296875 49.449219 7.660156 47.929688 6.023438 Z M 47.929688 6.023438 "/>
</g>
</svg>
