<!-- Generator: Adobe Illustrator 19.0.0, SVG Export Plug-In . SVG Version: 6.00 Build 0)  -->
<svg xmlns="http://www.w3.org/2000/svg" xmlns:xlink="http://www.w3.org/1999/xlink" width="50px" height="50px" viewBox="0 0 50 50" version="1.1">
<g id="surface1">
<path style=" stroke:none;fill-rule:nonzero;fill:rgb(46.27451%,66.27451%,91.764706%);fill-opacity:1;" d="M 49.203125 9.042969 C 48.09375 9.535156 46.941406 9.925781 45.757812 10.207031 C 47.0625 8.964844 48.042969 7.417969 48.59375 5.6875 C 48.753906 5.191406 48.214844 4.765625 47.769531 5.03125 C 46.125 6.007812 44.351562 6.738281 42.5 7.207031 C 42.390625 7.234375 42.28125 7.25 42.171875 7.25 C 41.832031 7.25 41.503906 7.125 41.246094 6.894531 C 39.277344 5.160156 36.746094 4.203125 34.113281 4.203125 C 32.976562 4.203125 31.828125 4.382812 30.699219 4.730469 C 27.203125 5.816406 24.507812 8.699219 23.660156 12.257812 C 23.34375 13.589844 23.257812 14.925781 23.40625 16.226562 C 23.421875 16.375 23.351562 16.480469 23.308594 16.527344 C 23.234375 16.613281 23.125 16.664062 23.011719 16.664062 C 23 16.664062 22.984375 16.664062 22.972656 16.660156 C 15.320312 15.949219 8.421875 12.265625 3.546875 6.28125 C 3.296875 5.976562 2.820312 6.015625 2.621094 6.355469 C 1.667969 7.992188 1.164062 9.867188 1.164062 11.773438 C 1.164062 14.695312 2.335938 17.449219 4.375 19.457031 C 3.519531 19.253906 2.6875 18.933594 1.917969 18.503906 C 1.542969 18.296875 1.085938 18.566406 1.082031 18.992188 C 1.027344 23.332031 3.570312 27.195312 7.375 28.933594 C 7.300781 28.9375 7.222656 28.9375 7.144531 28.9375 C 6.542969 28.9375 5.929688 28.878906 5.328125 28.765625 C 4.910156 28.683594 4.558594 29.082031 4.6875 29.488281 C 5.921875 33.347656 9.246094 36.191406 13.222656 36.839844 C 9.921875 39.054688 6.078125 40.222656 2.078125 40.222656 L 0.832031 40.222656 C 0.449219 40.222656 0.125 40.472656 0.0273438 40.84375 C -0.0703125 41.210938 0.105469 41.597656 0.433594 41.785156 C 4.941406 44.410156 10.082031 45.796875 15.300781 45.796875 C 19.871094 45.796875 24.144531 44.886719 28.007812 43.101562 C 31.546875 41.460938 34.671875 39.117188 37.300781 36.132812 C 39.75 33.355469 41.667969 30.148438 42.996094 26.601562 C 44.261719 23.21875 44.929688 19.613281 44.929688 16.167969 L 44.929688 16.003906 C 44.929688 15.449219 45.179688 14.929688 45.617188 14.574219 C 47.273438 13.230469 48.714844 11.648438 49.902344 9.871094 C 50.214844 9.402344 49.722656 8.8125 49.203125 9.042969 Z M 49.203125 9.042969 "/>
</g>
</svg>
