<!-- Generator: Adobe Illustrator 19.0.0, SVG Export Plug-In . SVG Version: 6.00 Build 0)  -->
<svg xmlns="http://www.w3.org/2000/svg" xmlns:xlink="http://www.w3.org/1999/xlink" width="50px" height="50px" viewBox="0 0 50 50" version="1.1">
<g id="surface1">
<path style=" stroke:none;fill-rule:nonzero;fill:rgb(16.470588%,26.666667%,36.470588%);fill-opacity:1;" d="M 36.804688 39.761719 C 36.804688 39.761719 35.320312 41.46875 32.5 41.46875 C 29.683594 41.46875 28.421875 39.761719 28.421875 37.242188 C 28.421875 36.226562 28.421875 30.015625 28.421875 22.949219 L 37.535156 22.949219 L 37.535156 14.285156 L 28.421875 14.285156 C 28.421875 6.617188 28.421875 0 28.421875 0 L 21.558594 0 C 20.484375 6.410156 16.257812 11.75 10.523438 14.371094 L 10.523438 22.949219 L 17.21875 22.949219 C 17.21875 31.285156 17.21875 38.832031 17.21875 39.40625 C 17.21875 41.691406 19.371094 50 30.351562 50 C 36.804688 50 39.476562 45.847656 39.476562 45.847656 Z M 36.804688 39.761719 "/>
</g>
</svg>
