<!-- Generator: Adobe Illustrator 19.0.0, SVG Export Plug-In . SVG Version: 6.00 Build 0)  -->
<svg xmlns="http://www.w3.org/2000/svg" xmlns:xlink="http://www.w3.org/1999/xlink" width="50px" height="50px" viewBox="0 0 50 50" version="1.1">
<g id="surface1">
<path style=" stroke:none;fill-rule:nonzero;fill:rgb(100%,26.666667%,1.176471%);fill-opacity:1;" d="M 42.136719 26.773438 L 42.136719 32.238281 C 42.136719 34.078125 40.632812 35.644531 38.792969 35.613281 C 37.003906 35.585938 35.558594 34.121094 35.558594 32.328125 L 35.558594 27.058594 C 35.558594 26.402344 34.90625 25.945312 34.289062 26.171875 L 31.386719 27.246094 C 31.171875 27.328125 30.929688 27.324219 30.714844 27.238281 L 28.988281 26.558594 C 28.367188 26.3125 27.695312 26.769531 27.695312 27.433594 L 27.695312 32.15625 C 27.695312 38.277344 32.554688 43.382812 38.675781 43.476562 C 44.902344 43.570312 50 38.535156 50 32.328125 L 50 26.773438 C 50 26.304688 49.617188 25.921875 49.148438 25.921875 L 42.988281 25.921875 C 42.519531 25.921875 42.136719 26.304688 42.136719 26.773438 Z M 42.136719 26.773438 "/>
<path style=" stroke:none;fill-rule:nonzero;fill:rgb(100%,26.666667%,1.176471%);fill-opacity:1;" d="M 27.695312 17.160156 L 27.695312 19.769531 C 27.695312 20.160156 27.933594 20.507812 28.292969 20.648438 L 30.773438 21.628906 C 30.992188 21.710938 31.230469 21.714844 31.449219 21.636719 L 34.945312 20.34375 C 35.3125 20.207031 35.558594 19.851562 35.558594 19.457031 L 35.558594 17.242188 C 35.558594 11.445312 30.957031 6.609375 25.164062 6.523438 C 19.265625 6.433594 14.441406 11.203125 14.441406 17.082031 L 14.441406 32.238281 C 14.441406 34.078125 12.933594 35.644531 11.09375 35.613281 C 9.308594 35.585938 7.863281 34.121094 7.863281 32.328125 L 7.863281 26.773438 C 7.863281 26.304688 7.480469 25.921875 7.011719 25.921875 L 0.851562 25.921875 C 0.382812 25.921875 0 26.304688 0 26.773438 L 0 32.15625 C 0 38.277344 4.859375 43.382812 10.976562 43.476562 C 17.207031 43.574219 22.304688 38.535156 22.304688 32.328125 L 22.304688 17.082031 C 22.304688 15.550781 23.585938 14.3125 25.136719 14.386719 C 26.585938 14.460938 27.695312 15.710938 27.695312 17.160156 Z M 27.695312 17.160156 "/>
</g>
</svg>
