<!-- Generator: Adobe Illustrator 19.0.0, SVG Export Plug-In . SVG Version: 6.00 Build 0)  -->
<svg xmlns="http://www.w3.org/2000/svg" xmlns:xlink="http://www.w3.org/1999/xlink" width="50px" height="50px" viewBox="0 0 50 50" version="1.1">
<g id="surface1">
<path style=" stroke:none;fill-rule:nonzero;fill:rgb(0%,85.098039%,37.254902%);fill-opacity:1;" d="M 25 0 C 11.191406 0 0 11.191406 0 25 C 0 38.808594 11.191406 50 25 50 C 38.808594 50 50 38.808594 50 25 C 50 11.191406 38.808594 0 25 0 Z M 35.878906 36.28125 C 35.5625 36.824219 34.992188 37.128906 34.402344 37.128906 C 34.109375 37.128906 33.8125 37.054688 33.542969 36.894531 C 29.050781 34.269531 23.859375 33.847656 20.296875 33.957031 C 16.347656 34.078125 13.453125 34.855469 13.425781 34.863281 C 12.515625 35.113281 11.574219 34.578125 11.324219 33.667969 C 11.074219 32.757812 11.609375 31.816406 12.519531 31.566406 C 12.648438 31.53125 15.765625 30.683594 20.09375 30.542969 C 22.648438 30.457031 25.105469 30.636719 27.394531 31.070312 C 30.296875 31.621094 32.945312 32.585938 35.265625 33.945312 C 36.082031 34.417969 36.355469 35.46875 35.878906 36.28125 Z M 39.058594 29.679688 C 38.683594 30.324219 38.003906 30.683594 37.308594 30.683594 C 36.960938 30.683594 36.609375 30.59375 36.289062 30.40625 C 30.96875 27.296875 24.820312 26.796875 20.597656 26.925781 C 15.921875 27.070312 12.492188 27.992188 12.460938 28 C 11.382812 28.292969 10.265625 27.660156 9.972656 26.582031 C 9.675781 25.503906 10.308594 24.390625 11.386719 24.09375 C 11.539062 24.054688 15.230469 23.050781 20.359375 22.882812 C 23.382812 22.78125 26.292969 22.992188 29.007812 23.507812 C 32.449219 24.160156 35.585938 25.304688 38.332031 26.910156 C 39.296875 27.476562 39.621094 28.714844 39.058594 29.679688 Z M 41.011719 23.679688 C 40.585938 23.679688 40.15625 23.570312 39.761719 23.339844 C 27.109375 15.945312 10.699219 20.339844 10.535156 20.386719 C 9.210938 20.75 7.84375 19.972656 7.480469 18.652344 C 7.117188 17.328125 7.894531 15.960938 9.214844 15.597656 C 9.40625 15.542969 13.929688 14.316406 20.226562 14.109375 C 23.933594 13.984375 27.5 14.242188 30.832031 14.875 C 35.050781 15.675781 38.898438 17.082031 42.269531 19.050781 C 43.453125 19.742188 43.851562 21.261719 43.160156 22.449219 C 42.699219 23.238281 41.867188 23.679688 41.011719 23.679688 Z M 41.011719 23.679688 "/>
</g>
</svg>
