<!-- Generator: Adobe Illustrator 19.0.0, SVG Export Plug-In . SVG Version: 6.00 Build 0)  -->
<svg xmlns="http://www.w3.org/2000/svg" xmlns:xlink="http://www.w3.org/1999/xlink" width="50px" height="50px" viewBox="0 0 50 50" version="1.1">
<g id="surface1">
<path style=" stroke:none;fill-rule:nonzero;fill:rgb(1.960784%,1.960784%,1.960784%);fill-opacity:1;" d="M 24.976562 3.601562 C 31.6875 3.601562 37.277344 9.1875 37.285156 15.917969 C 37.289062 17.492188 37.335938 18.941406 37.425781 20.277344 C 37.480469 21.105469 38.167969 21.714844 38.953125 21.714844 C 39.070312 21.714844 39.1875 21.703125 39.304688 21.675781 L 41.40625 21.179688 C 41.496094 21.160156 41.585938 21.148438 41.675781 21.148438 C 42.210938 21.148438 42.699219 21.515625 42.820312 22.054688 C 42.992188 22.820312 42.5625 23.589844 41.824219 23.847656 L 38.632812 25.136719 C 37.824219 25.464844 37.394531 26.339844 37.621094 27.179688 C 40.179688 36.644531 47.332031 35.660156 47.332031 36.890625 C 47.332031 38.441406 41.941406 38.660156 41.453125 39.144531 C 40.96875 39.632812 41.433594 41.996094 40.34375 42.453125 C 40.140625 42.539062 39.847656 42.570312 39.492188 42.570312 C 38.675781 42.570312 37.515625 42.410156 36.292969 42.410156 C 35.234375 42.410156 34.128906 42.53125 33.152344 42.980469 C 30.574219 44.171875 28.085938 46.398438 25 46.398438 C 21.914062 46.398438 19.425781 44.171875 16.847656 42.980469 C 15.871094 42.53125 14.765625 42.410156 13.707031 42.410156 C 12.484375 42.410156 11.324219 42.570312 10.507812 42.570312 C 10.152344 42.570312 9.859375 42.539062 9.65625 42.453125 C 8.566406 41.996094 9.03125 39.632812 8.546875 39.144531 C 8.058594 38.660156 2.667969 38.441406 2.667969 36.890625 C 2.667969 35.660156 9.820312 36.644531 12.378906 27.179688 C 12.605469 26.339844 12.175781 25.464844 11.367188 25.136719 L 8.175781 23.847656 C 7.4375 23.589844 7.007812 22.820312 7.179688 22.054688 C 7.300781 21.515625 7.789062 21.148438 8.324219 21.148438 C 8.414062 21.148438 8.503906 21.160156 8.59375 21.179688 L 10.695312 21.675781 C 10.8125 21.703125 10.929688 21.714844 11.046875 21.714844 C 11.832031 21.714844 12.519531 21.105469 12.574219 20.277344 C 12.664062 18.941406 12.710938 17.492188 12.714844 15.917969 C 12.722656 9.1875 18.265625 3.601562 24.976562 3.601562 M 24.980469 0.929688 L 24.976562 0.929688 C 22.972656 0.933594 21.023438 1.335938 19.175781 2.128906 C 17.40625 2.890625 15.8125 3.972656 14.441406 5.355469 C 13.070312 6.730469 11.992188 8.332031 11.234375 10.109375 C 10.445312 11.957031 10.046875 13.910156 10.042969 15.914062 C 10.042969 16.898438 10.023438 17.851562 9.984375 18.765625 L 9.203125 18.582031 C 8.914062 18.515625 8.621094 18.480469 8.324219 18.480469 C 7.472656 18.480469 6.632812 18.769531 5.960938 19.289062 C 5.257812 19.835938 4.765625 20.613281 4.574219 21.476562 C 4.117188 23.535156 5.253906 25.613281 7.222656 26.34375 L 9.5625 27.289062 C 8.011719 32.046875 5.152344 32.960938 3.226562 33.574219 C 2.714844 33.738281 2.273438 33.878906 1.855469 34.085938 C 0.179688 34.917969 0 36.324219 0 36.890625 C 0 37.976562 0.515625 38.96875 1.445312 39.679688 C 1.910156 40.035156 2.488281 40.328125 3.207031 40.578125 C 4.1875 40.914062 5.320312 41.128906 6.246094 41.300781 C 6.289062 41.640625 6.355469 42.007812 6.464844 42.378906 C 6.925781 43.917969 7.890625 44.609375 8.621094 44.914062 C 9.3125 45.207031 10.027344 45.238281 10.507812 45.238281 C 10.972656 45.238281 11.46875 45.203125 11.992188 45.164062 C 12.554688 45.121094 13.132812 45.078125 13.707031 45.078125 C 14.59375 45.078125 15.253906 45.183594 15.726562 45.402344 C 16.375 45.703125 17.0625 46.105469 17.789062 46.53125 C 19.8125 47.722656 22.105469 49.070312 25 49.070312 C 27.894531 49.070312 30.1875 47.722656 32.210938 46.53125 C 32.9375 46.105469 33.625 45.703125 34.273438 45.402344 C 34.746094 45.183594 35.40625 45.078125 36.292969 45.078125 C 36.867188 45.078125 37.445312 45.121094 38.007812 45.164062 C 38.53125 45.203125 39.027344 45.238281 39.492188 45.238281 C 39.972656 45.238281 40.6875 45.207031 41.378906 44.914062 C 42.109375 44.609375 43.074219 43.917969 43.535156 42.378906 C 43.644531 42.007812 43.710938 41.640625 43.753906 41.300781 C 44.679688 41.128906 45.8125 40.914062 46.792969 40.578125 C 47.511719 40.328125 48.089844 40.035156 48.554688 39.679688 C 49.484375 38.96875 50 37.976562 50 36.890625 C 50 36.324219 49.820312 34.917969 48.144531 34.085938 C 47.722656 33.878906 47.28125 33.738281 46.773438 33.574219 C 44.847656 32.960938 41.988281 32.046875 40.4375 27.289062 L 42.777344 26.34375 C 44.746094 25.613281 45.882812 23.535156 45.425781 21.476562 C 45.234375 20.613281 44.742188 19.835938 44.039062 19.289062 C 43.367188 18.769531 42.527344 18.480469 41.675781 18.480469 C 41.378906 18.480469 41.085938 18.515625 40.796875 18.582031 L 40.015625 18.765625 C 39.976562 17.851562 39.957031 16.898438 39.957031 15.914062 C 39.953125 13.90625 39.550781 11.953125 38.757812 10.101562 C 37.996094 8.328125 36.910156 6.726562 35.53125 5.347656 C 34.15625 3.972656 32.558594 2.886719 30.78125 2.125 C 28.933594 1.335938 26.980469 0.933594 24.980469 0.929688 Z M 24.980469 0.929688 "/>
</g>
</svg>
