<!-- Generator: Adobe Illustrator 19.0.0, SVG Export Plug-In . SVG Version: 6.00 Build 0)  -->
<svg xmlns="http://www.w3.org/2000/svg" xmlns:xlink="http://www.w3.org/1999/xlink" width="50px" height="50px" viewBox="0 0 50 50" version="1.1">
<g id="surface1">
<path style=" stroke:none;fill-rule:nonzero;fill:rgb(0%,66.666667%,94.901961%);fill-opacity:1;" d="M 47.984375 28.8125 C 47.191406 27.714844 46.824219 26.378906 46.824219 25.023438 C 46.824219 25.015625 46.824219 25.007812 46.824219 25 C 46.824219 12.945312 37.054688 3.175781 25 3.175781 C 22.363281 3.175781 19.835938 3.644531 17.496094 4.503906 C 16.230469 4.96875 14.84375 5.054688 13.546875 4.691406 C 12.402344 4.367188 11.175781 4.230469 9.910156 4.320312 C 4.582031 4.683594 0.289062 9.050781 0.015625 14.386719 C -0.117188 16.933594 0.644531 19.292969 2.015625 21.1875 C 2.808594 22.285156 3.175781 23.621094 3.175781 24.976562 C 3.175781 24.984375 3.175781 24.992188 3.175781 25 C 3.175781 37.054688 12.945312 46.824219 25 46.824219 C 27.636719 46.824219 30.164062 46.355469 32.503906 45.496094 C 33.769531 45.03125 35.15625 44.945312 36.453125 45.308594 C 37.597656 45.632812 38.824219 45.769531 40.089844 45.679688 C 45.417969 45.316406 49.710938 40.949219 49.984375 35.613281 C 50.117188 33.070312 49.355469 30.707031 47.984375 28.8125 Z M 25.800781 21.085938 C 30.199219 22.132812 36.847656 23.714844 36.847656 31.039062 C 36.847656 34.648438 35.074219 37.402344 31.84375 38.789062 C 29.542969 39.78125 26.9375 39.917969 24.691406 39.917969 C 17.789062 39.917969 13.429688 34.550781 13.25 34.320312 C 12.121094 32.902344 12.351562 30.839844 13.769531 29.707031 C 15.1875 28.578125 17.253906 28.8125 18.382812 30.226562 C 18.390625 30.242188 21 33.234375 24.691406 33.351562 C 29.136719 33.492188 30.152344 32.167969 30.285156 31.039062 C 30.445312 29.660156 29.21875 28.648438 24.28125 27.472656 C 20.09375 26.480469 13.769531 24.976562 13.769531 18.230469 C 13.769531 16.128906 14.621094 9.273438 25.617188 9.273438 C 32.558594 9.273438 36.65625 14.738281 36.828125 14.972656 C 37.902344 16.433594 37.589844 18.488281 36.128906 19.5625 C 34.675781 20.628906 32.632812 20.324219 31.554688 18.882812 C 31.476562 18.78125 29.132812 16.171875 25.617188 15.839844 C 22.957031 15.585938 20.332031 16.546875 20.332031 17.960938 C 20.332031 19.460938 21.085938 19.96875 25.800781 21.085938 Z M 25.800781 21.085938 "/>
</g>
</svg>
