<!-- Generator: Adobe Illustrator 19.0.0, SVG Export Plug-In . SVG Version: 6.00 Build 0)  -->
<svg xmlns="http://www.w3.org/2000/svg" xmlns:xlink="http://www.w3.org/1999/xlink" width="50px" height="50px" viewBox="0 0 50 50" version="1.1">
<g id="surface1">
<path style=" stroke:none;fill-rule:nonzero;fill:rgb(100%,10.196078%,1.176471%);fill-opacity:1;" d="M 0 2.851562 L 0 47.148438 C 0 48.722656 1.277344 50 2.851562 50 L 47.148438 50 C 48.722656 50 50 48.722656 50 47.148438 L 50 2.851562 C 50 1.277344 48.722656 0 47.148438 0 L 2.851562 0 C 1.277344 0 0 1.277344 0 2.851562 Z M 22.796875 13.632812 L 14.949219 13.632812 C 14.160156 13.632812 13.519531 14.273438 13.519531 15.0625 L 13.519531 22.609375 L 6.972656 22.609375 L 6.972656 15.0625 C 6.972656 10.664062 10.550781 7.085938 14.949219 7.085938 L 22.796875 7.085938 Z M 43.027344 34.9375 C 43.027344 39.335938 39.449219 42.914062 35.050781 42.914062 L 27.203125 42.914062 L 27.203125 36.367188 L 35.050781 36.367188 C 35.839844 36.367188 36.480469 35.726562 36.480469 34.9375 L 36.480469 27.390625 L 43.027344 27.390625 Z M 43.027344 34.9375 "/>
</g>
</svg>
