<!-- Generator: Adobe Illustrator 19.0.0, SVG Export Plug-In . SVG Version: 6.00 Build 0)  -->
<svg xmlns="http://www.w3.org/2000/svg" xmlns:xlink="http://www.w3.org/1999/xlink" width="50px" height="50px" viewBox="0 0 50 50" version="1.1">
<g id="surface1">
<path style=" stroke:none;fill-rule:nonzero;fill:rgb(0%,53.333333%,76.470588%);fill-opacity:1;" d="M 17.347656 33.785156 C 12.617188 31.792969 7.722656 29.734375 3.714844 26.628906 C 2.289062 25.523438 1.050781 24.332031 0 23.070312 L 0 37.984375 C 0.375 37.9375 0.753906 37.910156 1.140625 37.910156 C 6.058594 37.910156 10.046875 41.898438 10.046875 46.816406 C 10.046875 47.9375 9.839844 49.011719 9.460938 50 L 24.902344 50 C 26.316406 49.554688 27.601562 48.933594 28.558594 48.070312 C 29.367188 47.34375 30.292969 46.164062 30.292969 43.507812 C 30.292969 39.65625 26.148438 37.488281 17.347656 33.785156 Z M 17.347656 33.785156 "/>
<path style=" stroke:none;fill-rule:nonzero;fill:rgb(0%,53.333333%,76.470588%);fill-opacity:1;" d="M 44.828125 0 L 39.570312 0 C 39.816406 0.246094 40.027344 0.464844 40.210938 0.660156 C 42.222656 2.292969 43.507812 4.785156 43.507812 7.578125 C 43.507812 12.496094 39.519531 16.484375 34.601562 16.484375 C 29.679688 16.484375 25.695312 12.496094 25.695312 7.578125 C 25.695312 6.808594 25.789062 6.066406 25.972656 5.355469 C 23.820312 3.933594 21.347656 2.765625 19.0625 2.765625 C 17.191406 2.765625 14.152344 3.316406 11.757812 4.863281 C 9.484375 6.332031 8.46875 8.199219 8.46875 10.921875 C 8.46875 15.621094 12.90625 18.003906 22.320312 21.96875 C 26.851562 23.875 31.539062 25.847656 35.335938 28.730469 C 40.5 32.648438 43.117188 37.621094 43.117188 43.507812 C 43.117188 45.820312 42.777344 47.996094 42.109375 50 L 44.828125 50 C 47.683594 50 50 47.683594 50 44.828125 L 50 5.171875 C 50 2.316406 47.683594 0 44.828125 0 Z M 44.828125 0 "/>
</g>
</svg>
