<!-- Generator: Adobe Illustrator 19.0.0, SVG Export Plug-In . SVG Version: 6.00 Build 0)  -->
<svg xmlns="http://www.w3.org/2000/svg" xmlns:xlink="http://www.w3.org/1999/xlink" width="50px" height="50px" viewBox="0 0 50 50" version="1.1">
<g id="surface1">
<path style=" stroke:none;fill-rule:nonzero;fill:rgb(9.411765%,10.196078%,10.980392%);fill-opacity:1;" d="M 50 22.878906 C 50 19.410156 47.1875 16.597656 43.722656 16.597656 C 41.984375 16.597656 40.414062 17.308594 39.277344 18.445312 C 35.765625 16.183594 31.28125 14.738281 26.355469 14.515625 C 26.359375 12.421875 27.292969 10.472656 28.925781 9.164062 C 30.5625 7.851562 32.671875 7.359375 34.71875 7.816406 L 35 7.875 C 34.996094 7.945312 34.988281 8.015625 34.988281 8.085938 C 34.988281 10.980469 37.335938 13.328125 40.230469 13.328125 C 43.125 13.328125 45.472656 10.980469 45.472656 8.085938 C 45.472656 5.191406 43.125 2.847656 40.230469 2.847656 C 38.367188 2.847656 36.738281 3.820312 35.808594 5.28125 L 35.304688 5.167969 C 32.453125 4.535156 29.511719 5.222656 27.230469 7.050781 C 24.953125 8.875 23.648438 11.597656 23.644531 14.515625 C 18.71875 14.738281 14.234375 16.179688 10.722656 18.445312 C 9.585938 17.304688 8.015625 16.597656 6.277344 16.597656 C 2.8125 16.597656 0 19.410156 0 22.878906 C 0 25.292969 1.367188 27.386719 3.367188 28.4375 C 3.214844 29.214844 3.136719 30.007812 3.136719 30.816406 C 3.136719 39.839844 12.925781 47.152344 25 47.152344 C 37.074219 47.152344 46.863281 39.839844 46.863281 30.816406 C 46.863281 30.007812 46.785156 29.214844 46.632812 28.4375 C 48.632812 27.386719 50 25.292969 50 22.878906 Z M 40.230469 5.554688 C 41.625 5.554688 42.761719 6.691406 42.761719 8.085938 C 42.761719 9.484375 41.625 10.621094 40.230469 10.621094 C 38.832031 10.621094 37.699219 9.484375 37.699219 8.085938 C 37.699219 6.691406 38.835938 5.554688 40.230469 5.554688 Z M 2.710938 22.878906 C 2.710938 20.910156 4.3125 19.308594 6.277344 19.308594 C 7.121094 19.308594 7.894531 19.605469 8.507812 20.09375 C 6.597656 21.734375 5.117188 23.660156 4.199219 25.773438 C 3.296875 25.125 2.710938 24.070312 2.710938 22.878906 Z M 38.839844 40.199219 C 35.175781 42.9375 30.257812 44.445312 25 44.445312 C 19.742188 44.445312 14.824219 42.9375 11.160156 40.199219 C 7.734375 37.636719 5.84375 34.304688 5.84375 30.816406 C 5.84375 27.328125 7.734375 24 11.160156 21.4375 C 14.824219 18.699219 19.742188 17.191406 25 17.191406 C 30.257812 17.191406 35.175781 18.699219 38.839844 21.4375 C 42.265625 24 44.15625 27.328125 44.15625 30.816406 C 44.15625 34.304688 42.265625 37.636719 38.839844 40.199219 Z M 45.800781 25.773438 C 44.878906 23.65625 43.402344 21.730469 41.492188 20.09375 C 42.105469 19.601562 42.878906 19.308594 43.722656 19.308594 C 45.6875 19.308594 47.289062 20.910156 47.289062 22.878906 C 47.289062 24.070312 46.699219 25.125 45.800781 25.773438 Z M 45.800781 25.773438 "/>
<path style=" stroke:none;fill-rule:nonzero;fill:rgb(84.705882%,0%,0%);fill-opacity:1;" d="M 19.871094 27.003906 C 19.871094 28.582031 18.59375 29.863281 17.015625 29.863281 C 15.433594 29.863281 14.15625 28.582031 14.15625 27.003906 C 14.15625 25.425781 15.433594 24.144531 17.015625 24.144531 C 18.59375 24.144531 19.871094 25.425781 19.871094 27.003906 Z M 19.871094 27.003906 "/>
<path style=" stroke:none;fill-rule:nonzero;fill:rgb(84.705882%,0%,0%);fill-opacity:1;" d="M 35.84375 27.003906 C 35.84375 28.582031 34.5625 29.863281 32.984375 29.863281 C 31.40625 29.863281 30.125 28.582031 30.125 27.003906 C 30.125 25.425781 31.40625 24.144531 32.984375 24.144531 C 34.5625 24.144531 35.84375 25.425781 35.84375 27.003906 Z M 35.84375 27.003906 "/>
<path style=" stroke:none;fill-rule:nonzero;fill:rgb(9.411765%,10.196078%,10.980392%);fill-opacity:1;" d="M 31.773438 33.949219 C 29.757812 35.785156 27.148438 36.796875 24.417969 36.796875 C 21.355469 36.796875 18.515625 35.5625 16.425781 33.320312 C 15.914062 32.773438 15.058594 32.742188 14.511719 33.253906 C 13.964844 33.761719 13.933594 34.621094 14.445312 35.167969 C 17.015625 37.925781 20.648438 39.507812 24.417969 39.507812 C 27.824219 39.507812 31.085938 38.246094 33.597656 35.953125 C 34.152344 35.449219 34.191406 34.59375 33.6875 34.039062 C 33.183594 33.488281 32.328125 33.445312 31.773438 33.949219 Z M 31.773438 33.949219 "/>
</g>
</svg>
