<!-- Generator: Adobe Illustrator 19.0.0, SVG Export Plug-In . SVG Version: 6.00 Build 0)  -->
<svg xmlns="http://www.w3.org/2000/svg" xmlns:xlink="http://www.w3.org/1999/xlink" width="50px" height="50px" viewBox="0 0 50 50" version="1.1">
<g id="surface1">
<path style=" stroke:none;fill-rule:nonzero;fill:rgb(0%,16.078431%,52.941176%);fill-opacity:1;" d="M 41.882812 12.917969 C 41.96875 12.230469 42.011719 11.53125 42.011719 10.820312 C 42.011719 4.84375 37.167969 0 31.191406 0 L 13.113281 0 C 11.976562 0 11.003906 0.820312 10.816406 1.941406 L 4.152344 41.539062 C 3.914062 42.960938 5.007812 44.253906 6.449219 44.253906 L 13.0625 44.253906 C 14.199219 44.253906 15.1875 43.433594 15.378906 42.3125 C 15.378906 42.3125 15.390625 42.246094 15.410156 42.128906 L 14.488281 47.605469 C 14.277344 48.859375 15.242188 50 16.511719 50 L 22.296875 50 C 23.300781 50 24.15625 49.277344 24.320312 48.289062 L 25.964844 38.519531 C 26.25 36.835938 27.707031 35.601562 29.414062 35.601562 L 30.933594 35.601562 C 39.1875 35.601562 45.878906 28.910156 45.878906 20.65625 C 45.878906 17.460938 44.300781 14.640625 41.882812 12.917969 Z M 41.882812 12.917969 "/>
<path style=" stroke:none;fill-rule:nonzero;fill:rgb(0%,52.156863%,80%);fill-opacity:1;" d="M 41.882812 12.917969 C 40.847656 21.332031 33.675781 27.851562 24.980469 27.851562 L 19.933594 27.851562 C 18.796875 27.851562 17.8125 28.609375 17.503906 29.679688 L 14.488281 47.605469 C 14.277344 48.859375 15.242188 50 16.511719 50 L 22.296875 50 C 23.300781 50 24.15625 49.277344 24.320312 48.289062 L 25.964844 38.519531 C 26.25 36.835938 27.707031 35.601562 29.414062 35.601562 L 30.933594 35.601562 C 39.1875 35.601562 45.878906 28.910156 45.878906 20.65625 C 45.878906 17.460938 44.300781 14.640625 41.882812 12.917969 Z M 41.882812 12.917969 "/>
<path style=" stroke:none;fill-rule:nonzero;fill:rgb(0%,9.411765%,41.568627%);fill-opacity:1;" d="M 19.933594 27.851562 L 24.980469 27.851562 C 33.675781 27.851562 40.847656 21.332031 41.882812 12.917969 C 40.332031 11.8125 38.433594 11.164062 36.386719 11.164062 L 23.214844 11.164062 C 21.71875 11.164062 20.4375 12.246094 20.1875 13.722656 L 17.503906 29.679688 C 17.8125 28.609375 18.796875 27.851562 19.933594 27.851562 Z M 19.933594 27.851562 "/>
</g>
</svg>
