<!-- Generator: Adobe Illustrator 19.0.0, SVG Export Plug-In . SVG Version: 6.00 Build 0)  -->
<svg xmlns="http://www.w3.org/2000/svg" xmlns:xlink="http://www.w3.org/1999/xlink" width="50px" height="50px" viewBox="0 0 50 50" version="1.1">
<g id="surface1">
<path style=" stroke:none;fill-rule:nonzero;fill:rgb(92.156863%,26.666667%,15.294118%);fill-opacity:1;" d="M 40.703125 4.984375 C 36.40625 1.769531 30.75 0 24.773438 0 C 18.808594 0 13.210938 1.8125 9.007812 5.097656 C 4.585938 8.5625 2.148438 13.253906 2.148438 18.308594 C 2.148438 22.992188 2.886719 26.613281 6.511719 30.785156 C 6.945312 31.289062 7.707031 31.328125 8.191406 30.871094 L 11.75 27.492188 C 12.199219 27.066406 12.234375 26.367188 11.832031 25.894531 C 9.632812 23.304688 9.375 21.414062 9.375 18.308594 C 9.375 12.195312 16.28125 7.226562 24.773438 7.226562 C 29.199219 7.226562 33.316406 8.484375 36.375 10.769531 C 39.117188 12.820312 40.625 15.453125 40.625 18.175781 C 40.625 20.785156 40.046875 24.363281 37.292969 26.574219 C 34.699219 28.660156 30.558594 29.214844 25.628906 28.136719 L 25.628906 14.878906 C 25.628906 14.238281 25.109375 13.71875 24.464844 13.71875 L 19.324219 13.71875 C 18.683594 13.71875 18.164062 14.238281 18.164062 14.878906 L 18.164062 41.917969 C 18.125 42.195312 17.953125 42.355469 17.878906 42.414062 C 17.675781 42.570312 17.507812 42.535156 17.449219 42.527344 L 13.175781 41.65625 C 12.550781 41.527344 11.9375 41.933594 11.808594 42.558594 L 10.78125 47.601562 C 10.652344 48.226562 11.058594 48.839844 11.6875 48.96875 L 15.960938 49.839844 C 16.484375 49.949219 17.015625 50 17.542969 50 C 19.296875 50 21.019531 49.417969 22.441406 48.324219 C 24.332031 46.863281 25.492188 44.65625 25.621094 42.269531 L 25.628906 42.164062 L 25.628906 35.496094 C 27.214844 35.761719 28.753906 35.894531 30.234375 35.894531 C 34.792969 35.894531 38.785156 34.644531 41.816406 32.207031 C 45.765625 29.039062 47.851562 24.183594 47.851562 18.175781 C 47.851562 13.117188 45.3125 8.433594 40.703125 4.984375 Z M 40.703125 4.984375 "/>
</g>
</svg>
