<!-- Generator: Adobe Illustrator 19.0.0, SVG Export Plug-In . SVG Version: 6.00 Build 0)  -->
<svg xmlns="http://www.w3.org/2000/svg" xmlns:xlink="http://www.w3.org/1999/xlink" width="50px" height="50px" viewBox="0 0 50 50" version="1.1">
<g id="surface1">
<path style=" stroke:none;fill-rule:nonzero;fill:rgb(13.333333%,16.470588%,18.823529%);fill-opacity:1;" d="M 13.527344 22.183594 C 13.527344 25.742188 10.644531 28.625 7.089844 28.625 C 3.53125 28.625 0.648438 25.742188 0.648438 22.183594 C 0.648438 18.628906 3.53125 15.742188 7.089844 15.742188 C 10.644531 15.742188 13.527344 18.628906 13.527344 22.183594 Z M 13.527344 22.183594 "/>
<path style=" stroke:none;fill-rule:nonzero;fill:rgb(13.333333%,16.470588%,18.823529%);fill-opacity:1;" d="M 7 30.308594 C 3.101562 30.355469 0 33.609375 0 37.507812 L 0 39.324219 C 0 39.742188 0.339844 40.082031 0.761719 40.082031 L 13.417969 40.082031 C 13.835938 40.082031 14.175781 39.742188 14.175781 39.324219 L 14.175781 37.398438 C 14.175781 33.453125 10.957031 30.261719 7 30.308594 Z M 7 30.308594 "/>
<path style=" stroke:none;fill-rule:nonzero;fill:rgb(13.333333%,16.470588%,18.823529%);fill-opacity:1;" d="M 30.371094 20.714844 C 30.371094 24.5625 27.25 27.683594 23.402344 27.683594 C 19.550781 27.683594 16.429688 24.5625 16.429688 20.714844 C 16.429688 16.863281 19.550781 13.742188 23.402344 13.742188 C 27.25 13.742188 30.371094 16.863281 30.371094 20.714844 Z M 30.371094 20.714844 "/>
<path style=" stroke:none;fill-rule:nonzero;fill:rgb(13.333333%,16.470588%,18.823529%);fill-opacity:1;" d="M 23.308594 29.503906 C 19.085938 29.554688 15.730469 33.078125 15.730469 37.296875 L 15.730469 39.324219 C 15.730469 39.742188 16.070312 40.082031 16.492188 40.082031 L 30.3125 40.082031 C 30.730469 40.082031 31.074219 39.742188 31.074219 39.324219 L 31.074219 37.175781 C 31.074219 32.90625 27.585938 29.453125 23.308594 29.503906 Z M 23.308594 29.503906 "/>
<path style=" stroke:none;fill-rule:nonzero;fill:rgb(13.333333%,16.470588%,18.823529%);fill-opacity:1;" d="M 41.214844 25.882812 C 45.625 25.882812 49.199219 22.308594 49.199219 17.898438 C 49.199219 13.492188 45.625 9.917969 41.214844 9.917969 C 36.804688 9.917969 33.230469 13.492188 33.230469 17.898438 C 33.230469 22.308594 36.804688 25.882812 41.214844 25.882812 Z M 41.214844 25.882812 "/>
<path style=" stroke:none;fill-rule:nonzero;fill:rgb(13.333333%,16.470588%,18.823529%);fill-opacity:1;" d="M 41.214844 27.96875 C 36.363281 27.96875 32.429688 31.902344 32.429688 36.753906 L 32.429688 39.324219 C 32.429688 39.742188 32.769531 40.082031 33.191406 40.082031 L 49.238281 40.082031 C 49.660156 40.082031 50 39.742188 50 39.324219 L 50 36.753906 C 50 31.902344 46.066406 27.96875 41.214844 27.96875 Z M 41.214844 27.96875 "/>
</g>
</svg>
