<!-- Generator: Adobe Illustrator 19.0.0, SVG Export Plug-In . SVG Version: 6.00 Build 0)  -->
<svg xmlns="http://www.w3.org/2000/svg" xmlns:xlink="http://www.w3.org/1999/xlink" width="50px" height="50px" viewBox="0 0 50 50" version="1.1">
<g id="surface1">
<path style=" stroke:none;fill-rule:nonzero;fill:rgb(0%,99.215686%,55.294118%);fill-opacity:1;" d="M 48.792969 46.128906 L 33.394531 38.726562 L 33.277344 5.167969 C 33.277344 4.386719 34.09375 3.867188 34.800781 4.207031 L 49.398438 11.230469 C 49.765625 11.40625 50 11.777344 50 12.183594 L 50 45.371094 C 50 45.992188 49.351562 46.398438 48.792969 46.128906 Z M 48.792969 46.128906 "/>
<path style=" stroke:none;fill-rule:nonzero;fill:rgb(0%,89.411765%,43.921569%);fill-opacity:1;" d="M 33.394531 38.726562 L 16.726562 30.714844 L 32.773438 4.296875 C 33.054688 3.828125 33.648438 3.65625 34.140625 3.890625 L 48.941406 11.007812 C 49.507812 11.28125 49.714844 11.984375 49.390625 12.519531 Z M 33.394531 38.726562 "/>
<path style=" stroke:none;fill-rule:nonzero;fill:rgb(0%,78.823529%,40.392157%);fill-opacity:1;" d="M 33.394531 38.726562 L 16.726562 30.714844 L 1.449219 5.835938 C 1.027344 5.144531 1.765625 4.324219 2.5 4.675781 L 16.726562 11.519531 Z M 33.394531 38.726562 "/>
<path style=" stroke:none;fill-rule:nonzero;fill:rgb(0%,67.843137%,42.352941%);fill-opacity:1;" d="M 15.519531 46.128906 L 0.476562 38.894531 C 0.183594 38.753906 0 38.460938 0 38.136719 L 0 4.769531 C 0 4.171875 0.628906 3.777344 1.167969 4.035156 L 16.726562 11.519531 L 16.726562 45.371094 C 16.726562 45.992188 16.078125 46.398438 15.519531 46.128906 Z M 15.519531 46.128906 "/>
</g>
</svg>
