<!-- Generator: Adobe Illustrator 19.0.0, SVG Export Plug-In . SVG Version: 6.00 Build 0)  -->
<svg xmlns="http://www.w3.org/2000/svg" xmlns:xlink="http://www.w3.org/1999/xlink" width="50px" height="50px" viewBox="0 0 50 50" version="1.1">
<g id="surface1">
<path style=" stroke:none;fill-rule:nonzero;fill:rgb(0%,46.666667%,71.764706%);fill-opacity:1;" d="M 45.476562 0 L 4.523438 0 C 2.023438 0 0 2.023438 0 4.523438 L 0 45.476562 C 0 47.976562 2.023438 50 4.523438 50 L 45.476562 50 C 47.976562 50 50 47.976562 50 45.476562 L 50 4.523438 C 50 2.023438 47.976562 0 45.476562 0 Z M 15.472656 43.171875 C 15.472656 43.898438 14.882812 44.488281 14.15625 44.488281 L 8.554688 44.488281 C 7.824219 44.488281 7.238281 43.898438 7.238281 43.171875 L 7.238281 19.6875 C 7.238281 18.960938 7.824219 18.371094 8.554688 18.371094 L 14.15625 18.371094 C 14.882812 18.371094 15.472656 18.960938 15.472656 19.6875 Z M 11.355469 16.15625 C 8.414062 16.15625 6.03125 13.773438 6.03125 10.832031 C 6.03125 7.894531 8.414062 5.511719 11.355469 5.511719 C 14.292969 5.511719 16.675781 7.894531 16.675781 10.832031 C 16.675781 13.773438 14.292969 16.15625 11.355469 16.15625 Z M 44.753906 43.28125 C 44.753906 43.949219 44.210938 44.488281 43.542969 44.488281 L 37.53125 44.488281 C 36.863281 44.488281 36.320312 43.949219 36.320312 43.28125 L 36.320312 32.261719 C 36.320312 30.617188 36.800781 25.0625 32.023438 25.0625 C 28.320312 25.0625 27.566406 28.867188 27.417969 30.574219 L 27.417969 43.28125 C 27.417969 43.949219 26.875 44.488281 26.207031 44.488281 L 20.390625 44.488281 C 19.722656 44.488281 19.183594 43.949219 19.183594 43.28125 L 19.183594 19.582031 C 19.183594 18.910156 19.722656 18.371094 20.390625 18.371094 L 26.207031 18.371094 C 26.875 18.371094 27.417969 18.910156 27.417969 19.582031 L 27.417969 21.628906 C 28.792969 19.566406 30.832031 17.976562 35.179688 17.976562 C 44.808594 17.976562 44.753906 26.96875 44.753906 31.910156 Z M 44.753906 43.28125 "/>
</g>
</svg>
