<!-- Generator: Adobe Illustrator 19.0.0, SVG Export Plug-In . SVG Version: 6.00 Build 0)  -->
<svg xmlns="http://www.w3.org/2000/svg" xmlns:xlink="http://www.w3.org/1999/xlink" width="50px" height="50px" viewBox="0 0 50 50" version="1.1">
<g id="surface1">
<path style=" stroke:none;fill-rule:nonzero;fill:rgb(20%,24.705882%,25.098039%);fill-opacity:1;" d="M 48.460938 22.003906 L 48.460938 13.488281 L 32.527344 13.488281 L 31.011719 21.09375 L 31.011719 14.730469 L 21.757812 14.730469 L 21.757812 18.988281 L 19.175781 18.988281 L 19.175781 20.683594 C 19.128906 20.628906 19.085938 20.578125 19.039062 20.527344 C 18.101562 19.519531 16.820312 18.988281 15.335938 18.988281 C 14.078125 18.988281 12.902344 19.292969 11.835938 19.898438 L 11.835938 13.488281 L 0 13.488281 L 0 20.925781 L 1.914062 20.925781 L 1.914062 28.464844 L 0 28.464844 L 0 35.902344 L 32.0625 35.902344 L 32.0625 34.203125 C 32.246094 34.339844 32.441406 34.472656 32.640625 34.59375 C 34.71875 35.867188 37.3125 36.511719 40.34375 36.511719 C 41.699219 36.511719 43.847656 36.089844 45.816406 34.902344 C 48.160156 33.492188 49.566406 31.425781 49.882812 28.925781 C 50.246094 26.054688 49.757812 23.671875 48.460938 22.003906 Z M 48.460938 22.003906 "/>
<path style=" stroke:none;fill-rule:nonzero;fill:rgb(100%,100%,100%);fill-opacity:1;" d="M 30.402344 30.128906 L 29.347656 30.128906 L 29.347656 20.648438 L 20.839844 20.648438 L 20.839844 24.761719 L 22.75 24.761719 L 22.75 30.128906 L 20.839844 30.128906 L 20.839844 34.238281 L 30.402344 34.238281 Z M 30.402344 30.128906 "/>
<path style=" stroke:none;fill-rule:nonzero;fill:rgb(100%,100%,100%);fill-opacity:1;" d="M 23.417969 16.394531 L 29.351562 16.394531 L 29.351562 19.835938 L 23.417969 19.835938 Z M 23.417969 16.394531 "/>
<path style=" stroke:none;fill-rule:nonzero;fill:rgb(100%,100%,100%);fill-opacity:1;" d="M 19.089844 26.195312 C 19.089844 26.195312 19.496094 20.648438 15.335938 20.648438 C 12.574219 20.648438 10.953125 22.566406 10.171875 23.855469 L 10.171875 15.148438 L 1.664062 15.148438 L 1.664062 19.261719 L 3.574219 19.261719 L 3.574219 30.128906 L 1.664062 30.128906 L 1.664062 34.238281 L 11.226562 34.238281 L 11.226562 30.128906 L 10.171875 30.128906 L 10.171875 28.203125 C 10.171875 28.203125 9.941406 24.636719 11.65625 24.636719 C 12.339844 24.636719 12.613281 25.21875 12.613281 25.722656 C 12.613281 27.164062 12.613281 30.128906 12.613281 30.128906 L 11.65625 30.128906 L 11.65625 34.238281 L 20.40625 34.238281 L 20.40625 30.128906 L 19.089844 30.128906 Z M 19.089844 26.195312 "/>
<path style=" stroke:none;fill-rule:nonzero;fill:rgb(100%,58.039216%,7.843137%);fill-opacity:1;" d="M 42.402344 21.078125 C 40.269531 21.078125 38.710938 21.625 37.644531 22.21875 L 38.015625 20.363281 L 46.800781 20.363281 L 46.800781 15.148438 L 33.890625 15.148438 L 31.976562 24.761719 L 36.996094 25.476562 C 36.996094 25.476562 37.808594 24.636719 39.054688 24.636719 C 40.296875 24.636719 40.679688 26.539062 40.488281 27.964844 C 40.300781 29.359375 39.578125 30.59375 38.144531 30.640625 C 37.476562 30.664062 37.039062 30.3125 36.757812 29.933594 C 36.941406 29.546875 37.046875 29.117188 37.046875 28.664062 C 37.046875 27.023438 35.714844 25.695312 34.074219 25.695312 C 32.433594 25.695312 31.15625 27.023438 31.105469 28.664062 C 31.066406 29.941406 31.371094 31.867188 33.507812 33.175781 C 35.863281 34.621094 38.585938 34.851562 40.34375 34.851562 C 42.703125 34.851562 47.660156 33.242188 48.234375 28.71875 C 48.804688 24.222656 47.085938 21.078125 42.402344 21.078125 Z M 42.402344 21.078125 "/>
</g>
</svg>
