<!-- Generator: Adobe Illustrator 19.0.0, SVG Export Plug-In . SVG Version: 6.00 Build 0)  -->
<svg xmlns="http://www.w3.org/2000/svg" xmlns:xlink="http://www.w3.org/1999/xlink" width="50px" height="50px" viewBox="0 0 50 50" version="1.1">
<g id="surface1">
<path style=" stroke:none;fill-rule:nonzero;fill:rgb(100%,25.490196%,45.882353%);fill-opacity:1;" d="M 41.5625 1.929688 C 40.515625 0.703125 38.992188 0 37.378906 0 L 12.621094 0 C 9.585938 0 7.121094 2.46875 7.121094 5.5 L 7.121094 47.484375 C 7.121094 48.527344 7.765625 49.464844 8.742188 49.835938 C 9.035156 49.945312 9.335938 50 9.636719 50 C 10.339844 50 11.03125 49.703125 11.519531 49.152344 L 24.796875 34.183594 L 33.707031 34.183594 C 36.429688 34.183594 38.714844 32.234375 39.140625 29.542969 L 42.8125 6.363281 C 43.0625 4.769531 42.609375 3.152344 41.5625 1.929688 Z M 35.410156 14.042969 L 23.640625 14.042969 C 22.230469 14.042969 21.042969 15.195312 21.070312 16.609375 C 21.09375 17.976562 22.210938 19.074219 23.585938 19.074219 L 34.230469 19.074219 C 35.003906 19.074219 35.59375 19.765625 35.472656 20.53125 L 34.28125 28.09375 C 34.183594 28.707031 33.65625 29.15625 33.035156 29.15625 L 23.664062 29.152344 C 22.945312 29.152344 22.261719 29.460938 21.78125 30 L 12.152344 40.855469 L 12.152344 5.5 C 12.152344 5.242188 12.363281 5.03125 12.621094 5.03125 L 36.351562 5.03125 C 37.117188 5.03125 37.707031 5.714844 37.597656 6.472656 L 36.65625 12.964844 C 36.566406 13.582031 36.035156 14.042969 35.410156 14.042969 Z M 35.410156 14.042969 "/>
</g>
</svg>
