<!-- Generator: Adobe Illustrator 19.0.0, SVG Export Plug-In . SVG Version: 6.00 Build 0)  -->
<svg xmlns="http://www.w3.org/2000/svg" xmlns:xlink="http://www.w3.org/1999/xlink" width="50px" height="50px" viewBox="0 0 50 50" version="1.1">
<g id="surface1">
<path style=" stroke:none;fill-rule:nonzero;fill:rgb(8.235294%,52.941176%,91.764706%);fill-opacity:1;" d="M 23.203125 28.136719 L 10.386719 19.875 C 9.96875 19.605469 9.429688 19.632812 9.042969 19.945312 L 0.429688 26.875 C -0.183594 27.367188 -0.132812 28.3125 0.527344 28.738281 L 13.339844 37 C 13.757812 37.269531 14.296875 37.242188 14.683594 36.929688 L 23.300781 29.996094 C 23.910156 29.507812 23.859375 28.5625 23.203125 28.136719 Z M 23.203125 28.136719 "/>
<path style=" stroke:none;fill-rule:nonzero;fill:rgb(8.235294%,52.941176%,91.764706%);fill-opacity:1;" d="M 26.703125 29.996094 L 35.316406 36.929688 C 35.703125 37.242188 36.242188 37.269531 36.660156 37 L 49.472656 28.738281 C 50.132812 28.3125 50.183594 27.367188 49.570312 26.875 L 40.957031 19.945312 C 40.570312 19.632812 40.03125 19.605469 39.613281 19.875 L 26.800781 28.136719 C 26.140625 28.5625 26.089844 29.507812 26.703125 29.996094 Z M 26.703125 29.996094 "/>
<path style=" stroke:none;fill-rule:nonzero;fill:rgb(8.235294%,52.941176%,91.764706%);fill-opacity:1;" d="M 23.300781 8.296875 L 14.683594 1.363281 C 14.296875 1.050781 13.757812 1.023438 13.339844 1.292969 L 0.527344 9.554688 C -0.132812 9.980469 -0.183594 10.925781 0.429688 11.414062 L 9.042969 18.347656 C 9.429688 18.660156 9.96875 18.6875 10.386719 18.417969 L 23.203125 10.15625 C 23.859375 9.730469 23.910156 8.785156 23.300781 8.296875 Z M 23.300781 8.296875 "/>
<path style=" stroke:none;fill-rule:nonzero;fill:rgb(8.235294%,52.941176%,91.764706%);fill-opacity:1;" d="M 49.472656 9.554688 L 36.660156 1.292969 C 36.242188 1.023438 35.703125 1.050781 35.316406 1.363281 L 26.703125 8.296875 C 26.089844 8.785156 26.140625 9.730469 26.800781 10.15625 L 39.613281 18.417969 C 40.03125 18.6875 40.570312 18.660156 40.957031 18.347656 L 49.570312 11.414062 C 50.183594 10.925781 50.132812 9.980469 49.472656 9.554688 Z M 49.472656 9.554688 "/>
<path style=" stroke:none;fill-rule:nonzero;fill:rgb(8.235294%,52.941176%,91.764706%);fill-opacity:1;" d="M 24.371094 31.214844 L 14.722656 38.910156 C 14.375 39.191406 13.886719 39.214844 13.507812 38.972656 L 11.132812 37.4375 C 10.4375 36.992188 9.523438 37.488281 9.523438 38.3125 L 9.523438 39.144531 C 9.523438 39.507812 9.714844 39.84375 10.027344 40.035156 L 24.390625 48.742188 C 24.722656 48.941406 25.140625 48.941406 25.472656 48.742188 L 39.835938 40.035156 C 40.148438 39.84375 40.335938 39.507812 40.335938 39.144531 L 40.335938 38.402344 C 40.335938 37.578125 39.421875 37.082031 38.730469 37.527344 L 36.492188 38.972656 C 36.117188 39.214844 35.625 39.1875 35.277344 38.910156 L 25.671875 31.214844 C 25.292969 30.910156 24.753906 30.910156 24.371094 31.214844 Z M 24.371094 31.214844 "/>
</g>
</svg>
