<!-- Generator: Adobe Illustrator 19.0.0, SVG Export Plug-In . SVG Version: 6.00 Build 0)  -->
<svg xmlns="http://www.w3.org/2000/svg" xmlns:xlink="http://www.w3.org/1999/xlink" width="50px" height="50px" viewBox="0 0 50 50" version="1.1">
<g id="surface1">
<path style=" stroke:none;fill-rule:nonzero;fill:rgb(0%,68.235294%,94.117647%);fill-opacity:1;" d="M 25.4375 19.871094 C 21.761719 19.871094 18.589844 22.097656 17.207031 25.273438 C 15.824219 22.097656 12.652344 19.871094 8.976562 19.871094 C 7.257812 19.871094 5.65625 20.355469 4.289062 21.195312 L 4.289062 13.8125 C 4.289062 12.625 3.328125 11.667969 2.144531 11.667969 C 0.960938 11.667969 0 12.625 0 13.8125 L 0 28.847656 C 0 33.796875 4.027344 37.824219 8.976562 37.824219 C 12.652344 37.824219 15.824219 35.597656 17.207031 32.425781 C 18.589844 35.597656 21.761719 37.824219 25.4375 37.824219 C 30.386719 37.824219 34.414062 33.796875 34.414062 28.847656 C 34.414062 23.898438 30.386719 19.871094 25.4375 19.871094 Z M 8.976562 33.535156 C 6.390625 33.535156 4.289062 31.433594 4.289062 28.847656 C 4.289062 26.265625 6.390625 24.164062 8.976562 24.164062 C 11.558594 24.164062 13.660156 26.265625 13.660156 28.847656 C 13.660156 31.433594 11.558594 33.535156 8.976562 33.535156 Z M 25.4375 33.535156 C 22.855469 33.535156 20.753906 31.433594 20.753906 28.847656 C 20.753906 26.265625 22.855469 24.164062 25.4375 24.164062 C 28.023438 24.164062 30.125 26.265625 30.125 28.847656 C 30.125 31.433594 28.023438 33.535156 25.4375 33.535156 Z M 25.4375 33.535156 "/>
<path style=" stroke:none;fill-rule:nonzero;fill:rgb(0%,68.235294%,94.117647%);fill-opacity:1;" d="M 44.207031 28.757812 L 49.46875 22.742188 C 50.25 21.851562 50.160156 20.496094 49.265625 19.714844 C 48.375 18.933594 47.019531 19.027344 46.242188 19.917969 L 41.359375 25.5 L 36.476562 19.917969 C 35.699219 19.027344 34.34375 18.933594 33.453125 19.714844 C 32.558594 20.496094 32.46875 21.851562 33.25 22.742188 L 38.511719 28.757812 L 33.25 34.777344 C 32.46875 35.667969 32.558594 37.023438 33.453125 37.804688 C 33.859375 38.160156 34.359375 38.332031 34.863281 38.332031 C 35.460938 38.332031 36.054688 38.085938 36.476562 37.601562 L 41.359375 32.019531 L 46.242188 37.601562 C 46.664062 38.085938 47.257812 38.332031 47.855469 38.332031 C 48.355469 38.332031 48.859375 38.160156 49.265625 37.804688 C 50.160156 37.023438 50.25 35.667969 49.46875 34.777344 Z M 44.207031 28.757812 "/>
</g>
</svg>
