<!-- Generator: Adobe Illustrator 19.0.0, SVG Export Plug-In . SVG Version: 6.00 Build 0)  -->
<svg xmlns="http://www.w3.org/2000/svg" xmlns:xlink="http://www.w3.org/1999/xlink" width="50px" height="50px" viewBox="0 0 50 50" version="1.1">
<g id="surface1">
<path style=" stroke:none;fill-rule:nonzero;fill:rgb(66.666667%,75.686275%,28.235294%);fill-opacity:1;" d="M 37.683594 16.507812 L 12.316406 16.507812 C 11.753906 16.507812 11.296875 16.964844 11.296875 17.527344 L 11.296875 38.800781 C 11.296875 39.363281 11.753906 39.820312 12.316406 39.820312 L 16.839844 39.820312 L 16.839844 46.988281 C 16.839844 48.652344 18.1875 50 19.851562 50 C 21.515625 50 22.863281 48.652344 22.863281 46.988281 L 22.863281 39.820312 L 27.074219 39.820312 L 27.074219 46.988281 C 27.074219 48.652344 28.421875 50 30.085938 50 C 31.75 50 33.097656 48.652344 33.097656 46.988281 L 33.097656 39.820312 L 37.683594 39.820312 C 38.246094 39.820312 38.703125 39.363281 38.703125 38.800781 L 38.703125 17.527344 C 38.703125 16.964844 38.246094 16.507812 37.683594 16.507812 Z M 37.683594 16.507812 "/>
<path style=" stroke:none;fill-rule:nonzero;fill:rgb(66.666667%,75.686275%,28.235294%);fill-opacity:1;" d="M 7.003906 16.503906 C 5.339844 16.503906 3.992188 17.851562 3.992188 19.515625 L 3.992188 31.746094 C 3.992188 33.410156 5.339844 34.757812 7.003906 34.757812 C 8.664062 34.757812 10.011719 33.410156 10.011719 31.746094 L 10.011719 19.515625 C 10.011719 17.851562 8.664062 16.503906 7.003906 16.503906 Z M 7.003906 16.503906 "/>
<path style=" stroke:none;fill-rule:nonzero;fill:rgb(66.666667%,75.686275%,28.235294%);fill-opacity:1;" d="M 42.996094 16.503906 C 41.335938 16.503906 39.988281 17.851562 39.988281 19.515625 L 39.988281 31.746094 C 39.988281 33.410156 41.335938 34.757812 42.996094 34.757812 C 44.660156 34.757812 46.007812 33.410156 46.007812 31.746094 L 46.007812 19.515625 C 46.007812 17.851562 44.660156 16.503906 42.996094 16.503906 Z M 42.996094 16.503906 "/>
<path style=" stroke:none;fill-rule:nonzero;fill:rgb(66.666667%,75.686275%,28.235294%);fill-opacity:1;" d="M 12.523438 15.015625 L 37.417969 15.015625 C 38.066406 15.015625 38.550781 14.417969 38.417969 13.78125 C 37.59375 9.855469 35.09375 6.550781 31.703125 4.640625 L 33.832031 0.800781 C 33.976562 0.539062 33.882812 0.210938 33.621094 0.0664062 C 33.363281 -0.078125 33.035156 0.015625 32.890625 0.277344 L 30.746094 4.144531 C 28.992188 3.332031 27.035156 2.875 24.96875 2.875 C 22.90625 2.875 20.949219 3.332031 19.191406 4.144531 L 17.046875 0.277344 C 16.90625 0.015625 16.578125 -0.078125 16.316406 0.0664062 C 16.058594 0.210938 15.964844 0.539062 16.105469 0.800781 L 18.234375 4.640625 C 14.84375 6.550781 12.347656 9.855469 11.523438 13.78125 C 11.390625 14.417969 11.875 15.015625 12.523438 15.015625 Z M 32.398438 9.292969 C 32.398438 9.933594 31.878906 10.449219 31.242188 10.449219 C 30.601562 10.449219 30.082031 9.933594 30.082031 9.292969 C 30.082031 8.652344 30.601562 8.136719 31.242188 8.136719 C 31.878906 8.136719 32.398438 8.652344 32.398438 9.292969 Z M 18.699219 8.136719 C 19.339844 8.136719 19.855469 8.652344 19.855469 9.292969 C 19.855469 9.933594 19.339844 10.449219 18.699219 10.449219 C 18.058594 10.449219 17.542969 9.933594 17.542969 9.292969 C 17.542969 8.652344 18.058594 8.136719 18.699219 8.136719 Z M 18.699219 8.136719 "/>
</g>
</svg>
