<!-- Generator: Adobe Illustrator 19.0.0, SVG Export Plug-In . SVG Version: 6.00 Build 0)  -->
<svg xmlns="http://www.w3.org/2000/svg" xmlns:xlink="http://www.w3.org/1999/xlink" width="50px" height="50px" viewBox="0 0 50 50" version="1.1">
<g id="surface1">
<path style=" stroke:none;fill-rule:nonzero;fill:rgb(9.019608%,9.019608%,8.235294%);fill-opacity:1;" d="M 37.953125 29.773438 L 36.464844 27.472656 C 36.003906 26.761719 35.761719 25.9375 35.761719 25.089844 L 35.761719 15.417969 C 35.761719 11.558594 36.039062 3.332031 25.019531 3.332031 C 16.050781 3.332031 13.277344 8.109375 12.421875 11.066406 C 12.078125 12.242188 12.878906 13.433594 14.09375 13.5625 L 17.570312 13.917969 C 18.390625 14.003906 19.171875 13.570312 19.527344 12.828125 C 20.203125 11.417969 21.375 9.320312 25 9.320312 C 26.402344 9.320312 28.378906 9.914062 28.378906 11.648438 C 28.378906 14.167969 28.375 15.363281 28.375 15.363281 C 28.382812 15.886719 27.960938 16.320312 27.433594 16.320312 L 24.039062 16.320312 C 21.476562 16.320312 11.734375 17.632812 11.734375 27.375 C 11.734375 37.113281 22.070312 35.992188 22.757812 35.832031 C 24.035156 35.53125 26.433594 34.65625 28.691406 32.507812 C 29.066406 32.144531 29.671875 32.175781 30 32.585938 L 31.820312 34.835938 C 32.53125 35.710938 33.832031 35.804688 34.65625 35.039062 L 37.648438 32.25 C 38.335938 31.609375 38.464844 30.566406 37.953125 29.773438 Z M 23.011719 29.234375 C 19.550781 29.234375 19.652344 26.105469 20.449219 24.617188 C 21.195312 23.230469 23.171875 20.765625 28.46875 20.597656 L 28.515625 23.183594 C 28.550781 25.105469 27.664062 26.949219 26.09375 28.054688 C 25.121094 28.742188 24.058594 29.234375 23.011719 29.234375 Z M 23.011719 29.234375 "/>
<path style=" stroke:none;fill-rule:nonzero;fill:rgb(100%,67.45098%,20.784314%);fill-opacity:1;" d="M 0.207031 38.125 C -0.320312 37.652344 0.253906 36.808594 0.890625 37.121094 C 5.359375 39.324219 13.777344 42.730469 23.082031 42.730469 C 32.589844 42.730469 40.542969 40.457031 44.546875 39.058594 C 45.199219 38.828125 45.667969 39.679688 45.132812 40.113281 C 41.957031 42.6875 35.132812 46.667969 23.332031 46.667969 C 11.574219 46.667969 3.933594 41.496094 0.207031 38.125 Z M 0.207031 38.125 "/>
<path style=" stroke:none;fill-rule:nonzero;fill:rgb(100%,67.45098%,20.784314%);fill-opacity:1;" d="M 40.359375 36.738281 C 41.597656 35.820312 44.679688 34.238281 49.285156 35.621094 C 49.707031 35.75 49.996094 36.140625 50 36.582031 C 50.011719 38.09375 49.683594 41.640625 46.726562 44.589844 C 46.523438 44.792969 46.175781 44.59375 46.253906 44.3125 C 46.757812 42.453125 47.785156 38.464844 47.457031 37.90625 C 47.085938 37.269531 42.417969 37.238281 40.527344 37.253906 C 40.25 37.253906 40.136719 36.902344 40.359375 36.738281 Z M 40.359375 36.738281 "/>
</g>
</svg>
