<?xml version="1.0" encoding="UTF-8"?>
<svg xmlns="http://www.w3.org/2000/svg" xmlns:xlink="http://www.w3.org/1999/xlink" width="50pt" height="50pt" viewBox="0 0 50 50" version="1.1">
<g id="surface1">
<path style=" stroke:none;fill-rule:nonzero;fill:rgb(0%,0%,0%);fill-opacity:1;" d="M 7.957031 48.554688 C 7.449219 48.046875 7.292969 47.726562 7.292969 47.191406 C 7.292969 46.398438 11.769531 35.664062 12.328125 35.125 C 12.511719 34.945312 14.199219 34.21875 16.074219 33.511719 C 17.949219 32.800781 19.546875 32.15625 19.621094 32.078125 C 19.957031 31.722656 21.191406 27.246094 21.121094 26.636719 C 21.078125 26.273438 21.066406 25.976562 21.097656 25.976562 C 21.125 25.976562 21.992188 26.425781 23.023438 26.976562 C 25.027344 28.046875 25.097656 28.058594 27.605469 27.59375 C 28.257812 27.472656 28.265625 27.460938 27.800781 27.328125 C 27.53125 27.25 26.886719 27.179688 26.367188 27.167969 C 25.558594 27.152344 24.773438 26.808594 20.898438 24.785156 C 18.410156 23.488281 16.226562 22.292969 16.042969 22.128906 C 15.289062 21.457031 15.449219 19.816406 16.347656 18.96875 C 16.925781 18.425781 19.546875 18.046875 21.355469 18.246094 C 22.570312 18.378906 22.644531 18.421875 23.113281 19.167969 C 23.382812 19.601562 24.144531 20.472656 24.804688 21.109375 C 25.46875 21.746094 25.949219 22.265625 25.878906 22.261719 C 25.808594 22.261719 25.050781 22.042969 24.199219 21.777344 C 23.347656 21.511719 22.621094 21.324219 22.589844 21.359375 C 22.554688 21.390625 23.410156 21.882812 24.488281 22.445312 L 26.449219 23.472656 L 31.15625 24.21875 C 34.972656 24.828125 35.941406 25.042969 36.257812 25.363281 C 36.792969 25.898438 36.75 26.9375 36.171875 27.40625 C 35.777344 27.726562 35.480469 27.75 33.375 27.640625 C 32.082031 27.570312 30.792969 27.472656 30.507812 27.417969 L 29.996094 27.324219 L 29.914062 30.507812 C 29.820312 34.253906 29.664062 34.742188 28.484375 35.09375 C 28.054688 35.222656 24.925781 35.996094 21.53125 36.816406 L 15.359375 38.304688 L 13.332031 43.125 C 11.070312 48.503906 10.601562 49.21875 9.34375 49.21875 C 8.78125 49.21875 8.472656 49.070312 7.957031 48.554688 Z M 29.9375 48.570312 C 26.628906 46.554688 21.378906 43.058594 20.914062 42.5625 C 20.238281 41.835938 20.222656 41.078125 20.847656 39.539062 L 21.316406 38.390625 L 24.214844 37.65625 C 25.8125 37.253906 27.273438 36.921875 27.464844 36.917969 C 27.730469 36.914062 27.539062 37.316406 26.613281 38.691406 C 25.71875 40.027344 25.476562 40.527344 25.644531 40.695312 C 25.765625 40.816406 27.507812 41.980469 29.519531 43.277344 C 32.871094 45.445312 33.195312 45.703125 33.449219 46.425781 C 33.800781 47.421875 33.492188 48.308594 32.601562 48.851562 C 31.746094 49.371094 31.148438 49.308594 29.9375 48.570312 Z M 32 22.921875 C 28.304688 22.363281 24.953125 19.957031 23.453125 16.796875 C 18.910156 7.207031 28.707031 -2.601562 38.269531 1.960938 C 40.234375 2.898438 42.21875 4.886719 43.199219 6.894531 C 44.105469 8.753906 44.402344 10.011719 44.402344 11.980469 C 44.402344 17.765625 39.847656 22.558594 34.011719 22.921875 C 33.226562 22.972656 32.320312 22.96875 32 22.921875 Z M 29.289062 18.285156 C 29.800781 17.640625 29.832031 17.628906 30.460938 17.894531 C 31.285156 18.238281 32.707031 18.242188 33.523438 17.898438 C 34.375 17.542969 35.355469 16.386719 35.613281 15.433594 C 35.894531 14.390625 35.609375 13.367188 34.714844 12.195312 L 34.023438 11.289062 L 35.953125 8.367188 L 36.152344 8.9375 C 36.261719 9.253906 36.308594 9.910156 36.253906 10.398438 C 36.164062 11.199219 36.203125 11.324219 36.671875 11.628906 C 37.414062 12.117188 38.066406 11.78125 38.339844 10.773438 C 38.453125 10.347656 38.507812 9.882812 38.464844 9.738281 C 38.417969 9.59375 38.328125 9.234375 38.261719 8.9375 C 38.199219 8.644531 37.867188 8.089844 37.53125 7.703125 C 36.917969 7.003906 36.914062 7 37.257812 6.421875 C 37.890625 5.351562 37.082031 4.800781 36.304688 5.769531 C 35.910156 6.261719 35.894531 6.265625 35.050781 5.964844 C 33.910156 5.5625 33.359375 5.585938 32.347656 6.074219 C 31.726562 6.375 31.335938 6.761719 30.90625 7.492188 C 30.136719 8.8125 30.210938 9.75 31.207031 11.253906 L 31.929688 12.339844 L 30.902344 13.902344 C 29.953125 15.351562 29.855469 15.441406 29.601562 15.105469 C 29.398438 14.835938 29.359375 14.394531 29.449219 13.339844 C 29.566406 11.992188 29.550781 11.917969 29.085938 11.613281 C 28.46875 11.210938 28.035156 11.296875 27.570312 11.917969 C 26.726562 13.050781 26.964844 14.9375 28.117188 16.210938 L 28.800781 16.96875 L 28.351562 17.765625 C 27.957031 18.453125 27.9375 18.585938 28.191406 18.75 C 28.632812 19.035156 28.71875 19 29.289062 18.285156 Z M 30.980469 16.277344 C 30.820312 16.214844 31.070312 15.691406 31.71875 14.730469 C 32.253906 13.933594 32.734375 13.28125 32.78125 13.28125 C 32.957031 13.28125 33.464844 14.445312 33.464844 14.847656 C 33.464844 15.46875 32.433594 16.410156 31.769531 16.390625 C 31.46875 16.382812 31.109375 16.332031 30.980469 16.277344 Z M 32.910156 9.855469 C 32.585938 9.140625 32.628906 8.714844 33.089844 8.132812 C 33.386719 7.753906 33.671875 7.617188 34.164062 7.617188 C 34.53125 7.617188 34.832031 7.710938 34.832031 7.824219 C 34.832031 8.019531 33.320312 10.351562 33.195312 10.351562 C 33.164062 10.351562 33.035156 10.128906 32.910156 9.855469 Z M 10.15625 20.808594 C 7.273438 19.78125 6.804688 15.828125 9.355469 14.082031 C 10.335938 13.410156 11.921875 13.320312 13.058594 13.871094 C 15.429688 15.015625 15.863281 18.3125 13.871094 20.0625 C 13.183594 20.664062 12.089844 21.097656 11.296875 21.085938 C 11.082031 21.078125 10.566406 20.957031 10.15625 20.808594 Z M 10.15625 20.808594 "/>
</g>
</svg>
