<!-- Generator: Adobe Illustrator 16.0.0, SVG Export Plug-In . SVG Version: 6.00 Build 0)  -->
<svg xmlns="http://www.w3.org/2000/svg" xmlns:xlink="http://www.w3.org/1999/xlink" width="50px" height="50px" viewBox="0 0 50 50" version="1.1">
<g id="surface1">
<path style=" stroke:none;fill-rule:nonzero;fill:rgb(0%,0%,0%);fill-opacity:1;" d="M 50 46.875 L 50 50 L 0 50 L 0 0 L 3.125 0 L 3.125 46.875 Z M 44.738281 29.332031 L 40.332031 17.675781 L 37.375 21.289062 L 11.351562 0 L 9.375 2.421875 L 35.394531 23.710938 L 32.4375 27.324219 Z M 9.375 6.457031 L 9.375 43.75 L 15.625 43.75 L 15.625 11.570312 Z M 18.75 14.128906 L 18.75 43.75 L 25 43.75 L 25 19.242188 Z M 28.125 29.785156 L 28.125 43.75 L 34.375 43.75 L 34.375 30.808594 Z M 37.5 31.316406 L 37.5 43.75 L 43.75 43.75 L 43.75 32.335938 Z M 37.5 31.316406 "/>
</g>
</svg>
