<!-- Generator: Adobe Illustrator 19.0.0, SVG Export Plug-In . SVG Version: 6.00 Build 0)  -->
<svg xmlns="http://www.w3.org/2000/svg" xmlns:xlink="http://www.w3.org/1999/xlink" width="50px" height="50px" viewBox="0 0 50 50" version="1.1">
<g id="surface1">
<path style=" stroke:none;fill-rule:nonzero;fill:rgb(0%,0%,0%);fill-opacity:1;" d="M 0.0195312 5.484375 L 0.0195312 38.269531 L 20.316406 38.269531 L 20.316406 5.484375 Z M 1.582031 36.707031 L 1.582031 7.046875 L 18.753906 7.046875 L 18.753906 36.707031 Z M 1.582031 36.707031 "/>
<path style=" stroke:none;fill-rule:nonzero;fill:rgb(0%,0%,0%);fill-opacity:1;" d="M 12.117188 0 L 12.117188 4.734375 L 13.660156 4.734375 L 13.660156 1.542969 L 41.027344 1.542969 L 41.027344 48.457031 L 13.660156 48.457031 L 13.660156 39.09375 L 12.117188 39.09375 L 12.117188 50 L 42.570312 50 L 42.570312 0 Z M 12.117188 0 "/>
<path style=" stroke:none;fill-rule:nonzero;fill:rgb(0%,0%,0%);fill-opacity:1;" d="M 32.386719 3.910156 L 38.660156 3.910156 L 38.660156 5.453125 L 32.386719 5.453125 Z M 32.386719 3.910156 "/>
<path style=" stroke:none;fill-rule:nonzero;fill:rgb(0%,0%,0%);fill-opacity:1;" d="M 23.023438 11.007812 L 24.566406 11.007812 L 24.566406 12.550781 L 23.023438 12.550781 Z M 23.023438 11.007812 "/>
<path style=" stroke:none;fill-rule:nonzero;fill:rgb(0%,0%,0%);fill-opacity:1;" d="M 26.214844 11.007812 L 38.660156 11.007812 L 38.660156 12.550781 L 26.214844 12.550781 Z M 26.214844 11.007812 "/>
<path style=" stroke:none;fill-rule:nonzero;fill:rgb(0%,0%,0%);fill-opacity:1;" d="M 23.023438 14.09375 L 24.566406 14.09375 L 24.566406 15.636719 L 23.023438 15.636719 Z M 23.023438 14.09375 "/>
<path style=" stroke:none;fill-rule:nonzero;fill:rgb(0%,0%,0%);fill-opacity:1;" d="M 26.214844 14.09375 L 38.660156 14.09375 L 38.660156 15.636719 L 26.214844 15.636719 Z M 26.214844 14.09375 "/>
<path style=" stroke:none;fill-rule:nonzero;fill:rgb(0%,0%,0%);fill-opacity:1;" d="M 23.023438 17.179688 L 24.566406 17.179688 L 24.566406 18.722656 L 23.023438 18.722656 Z M 23.023438 17.179688 "/>
<path style=" stroke:none;fill-rule:nonzero;fill:rgb(0%,0%,0%);fill-opacity:1;" d="M 26.214844 17.179688 L 38.660156 17.179688 L 38.660156 18.722656 L 26.214844 18.722656 Z M 26.214844 17.179688 "/>
<path style=" stroke:none;fill-rule:nonzero;fill:rgb(0%,0%,0%);fill-opacity:1;" d="M 23.023438 20.371094 L 24.566406 20.371094 L 24.566406 21.914062 L 23.023438 21.914062 Z M 23.023438 20.371094 "/>
<path style=" stroke:none;fill-rule:nonzero;fill:rgb(0%,0%,0%);fill-opacity:1;" d="M 26.214844 20.371094 L 38.660156 20.371094 L 38.660156 21.914062 L 26.214844 21.914062 Z M 26.214844 20.371094 "/>
<path style=" stroke:none;fill-rule:nonzero;fill:rgb(0%,0%,0%);fill-opacity:1;" d="M 23.023438 23.457031 L 24.566406 23.457031 L 24.566406 25 L 23.023438 25 Z M 23.023438 23.457031 "/>
<path style=" stroke:none;fill-rule:nonzero;fill:rgb(0%,0%,0%);fill-opacity:1;" d="M 26.214844 23.457031 L 38.660156 23.457031 L 38.660156 25 L 26.214844 25 Z M 26.214844 23.457031 "/>
<path style=" stroke:none;fill-rule:nonzero;fill:rgb(0%,0%,0%);fill-opacity:1;" d="M 23.023438 26.542969 L 24.566406 26.542969 L 24.566406 28.085938 L 23.023438 28.085938 Z M 23.023438 26.542969 "/>
<path style=" stroke:none;fill-rule:nonzero;fill:rgb(0%,0%,0%);fill-opacity:1;" d="M 26.214844 26.542969 L 38.660156 26.542969 L 38.660156 28.085938 L 26.214844 28.085938 Z M 26.214844 26.542969 "/>
<path style=" stroke:none;fill-rule:nonzero;fill:rgb(0%,0%,0%);fill-opacity:1;" d="M 23.023438 29.734375 L 24.566406 29.734375 L 24.566406 31.277344 L 23.023438 31.277344 Z M 23.023438 29.734375 "/>
<path style=" stroke:none;fill-rule:nonzero;fill:rgb(0%,0%,0%);fill-opacity:1;" d="M 26.214844 29.734375 L 38.660156 29.734375 L 38.660156 31.277344 L 26.214844 31.277344 Z M 26.214844 29.734375 "/>
<path style=" stroke:none;fill-rule:nonzero;fill:rgb(0%,0%,0%);fill-opacity:1;" d="M 23.023438 32.820312 L 24.566406 32.820312 L 24.566406 34.363281 L 23.023438 34.363281 Z M 23.023438 32.820312 "/>
<path style=" stroke:none;fill-rule:nonzero;fill:rgb(0%,0%,0%);fill-opacity:1;" d="M 26.214844 32.820312 L 38.660156 32.820312 L 38.660156 34.363281 L 26.214844 34.363281 Z M 26.214844 32.820312 "/>
<path style=" stroke:none;fill-rule:nonzero;fill:rgb(0%,0%,0%);fill-opacity:1;" d="M 28.476562 36.726562 L 30.84375 36.726562 L 30.84375 38.273438 L 28.476562 38.273438 Z M 28.476562 36.726562 "/>
<path style=" stroke:none;fill-rule:nonzero;fill:rgb(0%,0%,0%);fill-opacity:1;" d="M 32.386719 36.726562 L 38.660156 36.726562 L 38.660156 38.273438 L 32.386719 38.273438 Z M 32.386719 36.726562 "/>
<path style=" stroke:none;fill-rule:nonzero;fill:rgb(0%,0%,0%);fill-opacity:1;" d="M 28.476562 39.09375 L 30.84375 39.09375 L 30.84375 40.636719 L 28.476562 40.636719 Z M 28.476562 39.09375 "/>
<path style=" stroke:none;fill-rule:nonzero;fill:rgb(0%,0%,0%);fill-opacity:1;" d="M 32.386719 39.09375 L 38.660156 39.09375 L 38.660156 40.636719 L 32.386719 40.636719 Z M 32.386719 39.09375 "/>
<path style=" stroke:none;fill-rule:nonzero;fill:rgb(0%,0%,0%);fill-opacity:1;" d="M 32.386719 41.359375 L 38.660156 41.359375 L 38.660156 42.902344 L 32.386719 42.902344 Z M 32.386719 41.359375 "/>
<path style=" stroke:none;fill-rule:nonzero;fill:rgb(0%,0%,0%);fill-opacity:1;" d="M 16.027344 45.265625 L 24.566406 45.265625 L 24.566406 46.8125 L 16.027344 46.8125 Z M 16.027344 45.265625 "/>
<path style=" stroke:none;fill-rule:nonzero;fill:rgb(0%,0%,0%);fill-opacity:1;" d="M 43.394531 13.265625 L 43.394531 21.089844 L 44.9375 21.089844 L 44.9375 14.820312 L 46.074219 14.824219 L 46.074219 38.269531 L 49.980469 38.269531 L 49.980469 13.292969 Z M 48.417969 36.707031 L 47.636719 36.707031 L 47.636719 14.851562 L 48.417969 14.851562 Z M 48.417969 36.707031 "/>
<path style=" stroke:none;fill-rule:nonzero;fill:rgb(0%,0%,0%);fill-opacity:1;" d="M 46.070312 8.640625 L 46.070312 12.550781 L 47.613281 12.550781 L 47.613281 10.183594 L 48.4375 10.183594 L 48.4375 12.550781 L 49.980469 12.550781 L 49.980469 8.640625 Z M 46.070312 8.640625 "/>
<path style=" stroke:none;fill-rule:nonzero;fill:rgb(0%,0%,0%);fill-opacity:1;" d="M 48.4375 41.359375 L 48.4375 42.84375 L 48.085938 44.054688 L 47.613281 42.8125 L 47.613281 41.359375 L 46.070312 41.359375 L 46.070312 43.09375 L 47.207031 46.089844 L 49.101562 46.089844 L 49.980469 43.0625 L 49.980469 41.359375 Z M 48.4375 41.359375 "/>
<path style=" stroke:none;fill-rule:nonzero;fill:rgb(0%,0%,0%);fill-opacity:1;" d="M 46.070312 39.09375 L 49.976562 39.09375 L 49.976562 40.636719 L 46.070312 40.636719 Z M 46.070312 39.09375 "/>
<path style=" stroke:none;fill-rule:nonzero;fill:rgb(0%,0%,0%);fill-opacity:1;" d="M 2.363281 7.828125 L 2.363281 25 L 17.976562 25 L 17.976562 7.828125 Z M 16.414062 23.4375 L 3.925781 23.4375 L 3.925781 9.386719 L 16.414062 9.386719 Z M 16.414062 23.4375 "/>
<path style=" stroke:none;fill-rule:nonzero;fill:rgb(0%,0%,0%);fill-opacity:1;" d="M 2.757812 26.542969 L 4.300781 26.542969 L 4.300781 28.085938 L 2.757812 28.085938 Z M 2.757812 26.542969 "/>
<path style=" stroke:none;fill-rule:nonzero;fill:rgb(0%,0%,0%);fill-opacity:1;" d="M 5.84375 26.542969 L 7.386719 26.542969 L 7.386719 28.085938 L 5.84375 28.085938 Z M 5.84375 26.542969 "/>
<path style=" stroke:none;fill-rule:nonzero;fill:rgb(0%,0%,0%);fill-opacity:1;" d="M 9.03125 26.542969 L 10.574219 26.542969 L 10.574219 28.085938 L 9.03125 28.085938 Z M 9.03125 26.542969 "/>
<path style=" stroke:none;fill-rule:nonzero;fill:rgb(0%,0%,0%);fill-opacity:1;" d="M 12.117188 26.542969 L 13.660156 26.542969 L 13.660156 28.085938 L 12.117188 28.085938 Z M 12.117188 26.542969 "/>
<path style=" stroke:none;fill-rule:nonzero;fill:rgb(0%,0%,0%);fill-opacity:1;" d="M 2.757812 28.910156 L 4.300781 28.910156 L 4.300781 30.453125 L 2.757812 30.453125 Z M 2.757812 28.910156 "/>
<path style=" stroke:none;fill-rule:nonzero;fill:rgb(0%,0%,0%);fill-opacity:1;" d="M 5.84375 28.910156 L 7.386719 28.910156 L 7.386719 30.453125 L 5.84375 30.453125 Z M 5.84375 28.910156 "/>
<path style=" stroke:none;fill-rule:nonzero;fill:rgb(0%,0%,0%);fill-opacity:1;" d="M 9.03125 28.910156 L 10.574219 28.910156 L 10.574219 30.453125 L 9.03125 30.453125 Z M 9.03125 28.910156 "/>
<path style=" stroke:none;fill-rule:nonzero;fill:rgb(0%,0%,0%);fill-opacity:1;" d="M 12.117188 28.910156 L 13.660156 28.910156 L 13.660156 30.453125 L 12.117188 30.453125 Z M 12.117188 28.910156 "/>
<path style=" stroke:none;fill-rule:nonzero;fill:rgb(0%,0%,0%);fill-opacity:1;" d="M 2.757812 31.277344 L 4.300781 31.277344 L 4.300781 32.820312 L 2.757812 32.820312 Z M 2.757812 31.277344 "/>
<path style=" stroke:none;fill-rule:nonzero;fill:rgb(0%,0%,0%);fill-opacity:1;" d="M 5.84375 31.277344 L 7.386719 31.277344 L 7.386719 32.820312 L 5.84375 32.820312 Z M 5.84375 31.277344 "/>
<path style=" stroke:none;fill-rule:nonzero;fill:rgb(0%,0%,0%);fill-opacity:1;" d="M 9.03125 31.277344 L 10.574219 31.277344 L 10.574219 32.820312 L 9.03125 32.820312 Z M 9.03125 31.277344 "/>
<path style=" stroke:none;fill-rule:nonzero;fill:rgb(0%,0%,0%);fill-opacity:1;" d="M 12.117188 31.277344 L 13.660156 31.277344 L 13.660156 32.820312 L 12.117188 32.820312 Z M 12.117188 31.277344 "/>
<path style=" stroke:none;fill-rule:nonzero;fill:rgb(0%,0%,0%);fill-opacity:1;" d="M 2.757812 33.640625 L 4.300781 33.640625 L 4.300781 35.183594 L 2.757812 35.183594 Z M 2.757812 33.640625 "/>
<path style=" stroke:none;fill-rule:nonzero;fill:rgb(0%,0%,0%);fill-opacity:1;" d="M 5.84375 33.640625 L 7.386719 33.640625 L 7.386719 35.183594 L 5.84375 35.183594 Z M 5.84375 33.640625 "/>
<path style=" stroke:none;fill-rule:nonzero;fill:rgb(0%,0%,0%);fill-opacity:1;" d="M 9.03125 33.640625 L 10.574219 33.640625 L 10.574219 35.183594 L 9.03125 35.183594 Z M 9.03125 33.640625 "/>
<path style=" stroke:none;fill-rule:nonzero;fill:rgb(0%,0%,0%);fill-opacity:1;" d="M 12.117188 33.640625 L 13.660156 33.640625 L 13.660156 35.183594 L 12.117188 35.183594 Z M 12.117188 33.640625 "/>
<path style=" stroke:none;fill-rule:nonzero;fill:rgb(0%,0%,0%);fill-opacity:1;" d="M 15.203125 26.542969 L 16.746094 26.542969 L 16.746094 30.453125 L 15.203125 30.453125 Z M 15.203125 26.542969 "/>
<path style=" stroke:none;fill-rule:nonzero;fill:rgb(0%,0%,0%);fill-opacity:1;" d="M 15.203125 31.277344 L 16.746094 31.277344 L 16.746094 35.183594 L 15.203125 35.183594 Z M 15.203125 31.277344 "/>
<path style=" stroke:none;fill-rule:nonzero;fill:rgb(0%,0%,0%);fill-opacity:1;" d="M 9.03125 10.183594 L 10.574219 10.183594 L 10.574219 11.726562 L 9.03125 11.726562 Z M 9.03125 10.183594 "/>
<path style=" stroke:none;fill-rule:nonzero;fill:rgb(0%,0%,0%);fill-opacity:1;" d="M 11.296875 10.183594 L 12.941406 10.183594 L 12.941406 11.726562 L 11.296875 11.726562 Z M 11.296875 10.183594 "/>
<path style=" stroke:none;fill-rule:nonzero;fill:rgb(0%,0%,0%);fill-opacity:1;" d="M 13.660156 10.183594 L 15.203125 10.183594 L 15.203125 11.726562 L 13.660156 11.726562 Z M 13.660156 10.183594 "/>
</g>
</svg>
