<!-- Generator: Adobe Illustrator 19.0.0, SVG Export Plug-In . SVG Version: 6.00 Build 0)  -->
<svg xmlns="http://www.w3.org/2000/svg" xmlns:xlink="http://www.w3.org/1999/xlink" width="50px" height="50px" viewBox="0 0 50 50" version="1.1">
<g id="surface1">
<path style=" stroke:none;fill-rule:nonzero;fill:rgb(0%,0%,0%);fill-opacity:1;" d="M 22.238281 20.382812 L 21.550781 20.382812 L 21.550781 18.152344 L 23.300781 18.152344 C 23.742188 18.152344 24.097656 17.796875 24.097656 17.355469 C 24.097656 16.917969 23.742188 16.558594 23.300781 16.558594 L 21.550781 16.558594 L 21.550781 15.65625 C 21.550781 15.21875 21.195312 14.863281 20.753906 14.863281 C 20.3125 14.863281 19.957031 15.21875 19.957031 15.65625 L 19.957031 16.558594 L 19.265625 16.558594 C 18.242188 16.558594 17.410156 17.394531 17.410156 18.417969 L 17.410156 20.117188 C 17.410156 21.140625 18.242188 21.972656 19.265625 21.972656 L 19.957031 21.972656 L 19.957031 24.203125 L 18.207031 24.203125 C 17.765625 24.203125 17.410156 24.558594 17.410156 25 C 17.410156 25.441406 17.765625 25.796875 18.207031 25.796875 L 19.957031 25.796875 L 19.957031 26.699219 C 19.957031 27.136719 20.3125 27.496094 20.753906 27.496094 C 21.195312 27.496094 21.550781 27.136719 21.550781 26.699219 L 21.550781 25.796875 L 22.238281 25.796875 C 23.265625 25.796875 24.097656 24.960938 24.097656 23.9375 L 24.097656 22.238281 C 24.097656 21.214844 23.265625 20.382812 22.238281 20.382812 Z M 19.957031 20.382812 L 19.265625 20.382812 C 19.121094 20.382812 19.003906 20.261719 19.003906 20.117188 L 19.003906 18.417969 C 19.003906 18.273438 19.121094 18.152344 19.265625 18.152344 L 19.957031 18.152344 Z M 22.503906 23.9375 C 22.503906 24.085938 22.386719 24.203125 22.238281 24.203125 L 21.550781 24.203125 L 21.550781 21.976562 L 22.238281 21.976562 C 22.386719 21.976562 22.503906 22.09375 22.503906 22.238281 Z M 22.503906 23.9375 "/>
<path style=" stroke:none;fill-rule:nonzero;fill:rgb(0%,0%,0%);fill-opacity:1;" d="M 49.765625 21.148438 L 46.164062 17.546875 C 45.851562 17.234375 45.347656 17.234375 45.039062 17.546875 L 41.507812 21.078125 L 41.507812 0.796875 C 41.507812 0.355469 41.152344 0 40.710938 0 L 0.796875 0 C 0.355469 0 0 0.355469 0 0.796875 L 0 39.4375 C 0 39.878906 0.355469 40.234375 0.796875 40.234375 C 1.234375 40.234375 1.59375 39.878906 1.59375 39.4375 L 1.59375 1.59375 L 39.914062 1.59375 L 39.914062 22.671875 L 34.136719 28.449219 L 32.164062 28.449219 L 32.164062 13.90625 L 34.765625 13.90625 C 35.207031 13.90625 35.5625 13.550781 35.5625 13.109375 L 35.5625 10.5625 C 35.5625 10.121094 35.207031 9.765625 34.765625 9.765625 L 31.601562 9.765625 L 21.183594 3.097656 C 20.921875 2.929688 20.585938 2.929688 20.324219 3.097656 L 9.90625 9.765625 L 6.742188 9.765625 C 6.300781 9.765625 5.945312 10.121094 5.945312 10.5625 L 5.945312 13.109375 C 5.945312 13.550781 6.300781 13.90625 6.742188 13.90625 L 9.34375 13.90625 L 9.34375 28.449219 L 6.742188 28.449219 C 6.300781 28.449219 5.945312 28.804688 5.945312 29.246094 L 5.945312 31.792969 C 5.945312 32.234375 6.300781 32.589844 6.742188 32.589844 L 29.996094 32.589844 L 24.042969 38.539062 C 24.042969 38.542969 24.042969 38.542969 24.039062 38.546875 C 23.945312 38.632812 23.871094 38.746094 23.828125 38.875 L 22.027344 44.28125 C 21.824219 44.890625 22.421875 45.492188 23.03125 45.289062 L 28.4375 43.488281 C 28.570312 43.441406 28.679688 43.367188 28.769531 43.273438 C 28.773438 43.269531 28.777344 43.265625 28.777344 43.265625 L 33.652344 38.296875 C 33.960938 37.984375 33.957031 37.476562 33.640625 37.171875 C 33.328125 36.863281 32.824219 36.867188 32.515625 37.179688 L 28.207031 41.574219 L 25.734375 39.105469 L 42.574219 22.265625 L 45.050781 24.742188 L 36.011719 33.777344 C 35.703125 34.089844 35.703125 34.59375 36.011719 34.90625 C 36.324219 35.214844 36.828125 35.214844 37.136719 34.90625 L 39.914062 32.128906 L 39.914062 40.765625 L 33.066406 40.765625 C 32.628906 40.765625 32.273438 41.121094 32.273438 41.5625 L 32.273438 48.40625 L 1.59375 48.40625 L 1.59375 43.683594 C 1.59375 43.242188 1.234375 42.886719 0.796875 42.886719 C 0.355469 42.886719 0 43.242188 0 43.683594 L 0 49.203125 C 0 49.644531 0.355469 50 0.796875 50 L 33.066406 50 C 33.277344 50 33.484375 49.914062 33.632812 49.765625 L 41.273438 42.125 C 41.421875 41.976562 41.507812 41.769531 41.507812 41.558594 L 41.507812 30.535156 L 49.765625 22.277344 C 50.078125 21.964844 50.078125 21.460938 49.765625 21.148438 Z M 26.75 42.371094 L 24.039062 43.273438 L 24.941406 40.566406 Z M 20.753906 4.714844 L 28.648438 9.765625 L 12.859375 9.765625 Z M 7.539062 12.3125 L 7.539062 11.359375 L 33.96875 11.359375 L 33.96875 12.3125 Z M 30.574219 13.90625 L 30.574219 28.449219 L 27.917969 28.449219 L 27.917969 13.90625 Z M 26.328125 13.90625 L 26.328125 28.449219 L 15.179688 28.449219 L 15.179688 13.90625 Z M 13.589844 13.90625 L 13.589844 28.449219 L 10.933594 28.449219 L 10.933594 13.90625 Z M 31.585938 30.996094 L 7.539062 30.996094 L 7.539062 30.042969 L 32.542969 30.042969 Z M 33.863281 47.28125 L 33.863281 42.355469 L 38.789062 42.355469 Z M 46.175781 23.613281 L 43.699219 21.136719 L 45.601562 19.234375 L 48.078125 21.714844 Z M 46.175781 23.613281 "/>
<path style=" stroke:none;fill-rule:nonzero;fill:rgb(0%,0%,0%);fill-opacity:1;" d="M 20.328125 39.492188 L 10.136719 39.492188 C 9.699219 39.492188 9.34375 39.847656 9.34375 40.285156 C 9.34375 40.726562 9.699219 41.082031 10.136719 41.082031 L 20.328125 41.082031 C 20.769531 41.082031 21.125 40.726562 21.125 40.285156 C 21.125 39.847656 20.769531 39.492188 20.328125 39.492188 Z M 20.328125 39.492188 "/>
<path style=" stroke:none;fill-rule:nonzero;fill:rgb(0%,0%,0%);fill-opacity:1;" d="M 21.179688 43.738281 L 10.136719 43.738281 C 9.699219 43.738281 9.34375 44.09375 9.34375 44.53125 C 9.34375 44.972656 9.699219 45.328125 10.136719 45.328125 L 21.179688 45.328125 C 21.617188 45.328125 21.972656 44.972656 21.972656 44.53125 C 21.972656 44.09375 21.617188 43.738281 21.179688 43.738281 Z M 21.179688 43.738281 "/>
<path style=" stroke:none;fill-rule:nonzero;fill:rgb(0%,0%,0%);fill-opacity:1;" d="M 20.328125 35.242188 L 10.136719 35.242188 C 9.699219 35.242188 9.34375 35.601562 9.34375 36.039062 C 9.34375 36.480469 9.699219 36.835938 10.136719 36.835938 L 20.328125 36.835938 C 20.769531 36.835938 21.125 36.480469 21.125 36.039062 C 21.125 35.601562 20.769531 35.242188 20.328125 35.242188 Z M 20.328125 35.242188 "/>
</g>
</svg>
