<!-- Generator: Adobe Illustrator 19.0.0, SVG Export Plug-In . SVG Version: 6.00 Build 0)  -->
<svg xmlns="http://www.w3.org/2000/svg" xmlns:xlink="http://www.w3.org/1999/xlink" width="50px" height="50px" viewBox="0 0 50 50" version="1.1">
<g id="surface1">
<path style=" stroke:none;fill-rule:nonzero;fill:rgb(0%,0%,0%);fill-opacity:1;" d="M 17.085938 14.441406 L 17.085938 15.960938 L 20.03125 15.960938 L 20.03125 17.277344 L 17.085938 17.277344 L 17.085938 19.695312 L 15.417969 19.695312 L 15.417969 13.128906 L 20.285156 13.128906 L 20.285156 14.441406 Z M 17.085938 14.441406 "/>
<path style=" stroke:none;fill-rule:nonzero;fill:rgb(0%,0%,0%);fill-opacity:1;" d="M 27.988281 16.402344 C 27.988281 18.316406 26.46875 19.773438 24.433594 19.773438 C 22.40625 19.773438 20.886719 18.328125 20.886719 16.402344 C 20.886719 14.488281 22.40625 13.074219 24.433594 13.074219 C 26.46875 13.074219 27.988281 14.5 27.988281 16.402344 Z M 22.59375 16.414062 C 22.59375 17.519531 23.449219 18.375 24.453125 18.375 C 25.464844 18.375 26.269531 17.519531 26.269531 16.414062 C 26.269531 15.304688 25.464844 14.472656 24.453125 14.472656 C 23.4375 14.472656 22.59375 15.304688 22.59375 16.414062 Z M 22.59375 16.414062 "/>
<path style=" stroke:none;fill-rule:nonzero;fill:rgb(0%,0%,0%);fill-opacity:1;" d="M 32.085938 17.847656 L 30.773438 17.847656 L 30.773438 19.695312 L 29.105469 19.695312 L 29.105469 13.128906 L 32.039062 13.128906 C 33.777344 13.128906 34.769531 13.953125 34.769531 15.417969 C 34.769531 16.421875 34.347656 17.144531 33.578125 17.53125 L 34.957031 19.695312 L 33.0625 19.695312 Z M 32.039062 16.535156 C 32.761719 16.535156 33.183594 16.167969 33.183594 15.476562 C 33.183594 14.789062 32.761719 14.441406 32.039062 14.441406 L 30.773438 14.441406 L 30.773438 16.535156 Z M 32.039062 16.535156 "/>
<path style=" stroke:none;fill-rule:nonzero;fill:rgb(0%,0%,0%);fill-opacity:1;" d="M 15.179688 26.199219 L 13.863281 26.199219 L 13.863281 28.046875 L 12.195312 28.046875 L 12.195312 21.480469 L 15.132812 21.480469 C 16.867188 21.480469 17.859375 22.304688 17.859375 23.769531 C 17.859375 24.773438 17.4375 25.496094 16.667969 25.878906 L 18.046875 28.046875 L 16.152344 28.046875 Z M 15.132812 24.886719 C 15.851562 24.886719 16.277344 24.519531 16.277344 23.824219 C 16.277344 23.140625 15.851562 22.792969 15.132812 22.792969 L 13.863281 22.792969 L 13.863281 24.886719 Z M 15.132812 24.886719 "/>
<path style=" stroke:none;fill-rule:nonzero;fill:rgb(0%,0%,0%);fill-opacity:1;" d="M 20.890625 22.792969 L 20.890625 24.097656 L 24.023438 24.097656 L 24.023438 25.410156 L 20.890625 25.410156 L 20.890625 26.734375 L 24.464844 26.734375 L 24.464844 28.046875 L 19.222656 28.046875 L 19.222656 21.480469 L 24.363281 21.480469 L 24.363281 22.792969 Z M 20.890625 22.792969 "/>
<path style=" stroke:none;fill-rule:nonzero;fill:rgb(0%,0%,0%);fill-opacity:1;" d="M 30.367188 28.046875 L 27.34375 24.003906 L 27.34375 28.046875 L 25.777344 28.046875 L 25.777344 21.480469 L 27.25 21.480469 L 30.28125 25.53125 L 30.28125 21.480469 L 31.839844 21.480469 L 31.839844 28.046875 Z M 30.367188 28.046875 "/>
<path style=" stroke:none;fill-rule:nonzero;fill:rgb(0%,0%,0%);fill-opacity:1;" d="M 36.425781 22.820312 L 36.425781 28.046875 L 34.757812 28.046875 L 34.757812 22.820312 L 32.796875 22.820312 L 32.796875 21.46875 L 38.40625 21.46875 L 38.40625 22.820312 Z M 36.425781 22.820312 "/>
<path style=" stroke:none;fill-rule:nonzero;fill:rgb(0%,0%,0%);fill-opacity:1;" d="M 50 6.1875 L 30.511719 6.1875 L 30.511719 0 L 19.488281 0 L 19.488281 6.1875 L 0 6.1875 L 0 34.9375 L 19.488281 34.9375 L 19.488281 50 L 30.511719 50 L 30.511719 34.9375 L 50 34.9375 Z M 22.582031 3.09375 L 27.417969 3.09375 L 27.417969 6.1875 L 22.582031 6.1875 Z M 27.417969 46.90625 L 22.582031 46.90625 L 22.582031 34.9375 L 27.417969 34.9375 Z M 46.90625 31.84375 L 3.09375 31.84375 L 3.09375 9.277344 L 46.90625 9.277344 Z M 46.90625 31.84375 "/>
</g>
</svg>
