<!-- Generator: Adobe Illustrator 18.1.1, SVG Export Plug-In . SVG Version: 6.00 Build 0)  -->
<svg xmlns="http://www.w3.org/2000/svg" xmlns:xlink="http://www.w3.org/1999/xlink" width="50px" height="50px" viewBox="0 0 50 50" version="1.1">
<g id="surface1">
<path style=" stroke:none;fill-rule:nonzero;fill:rgb(0%,0%,0%);fill-opacity:1;" d="M 37.40625 15.375 C 35.914062 14.773438 35.480469 14.414062 35.480469 13.757812 C 35.480469 13.234375 35.878906 12.625 36.996094 12.625 C 37.984375 12.625 38.742188 13.015625 38.75 13.015625 C 38.828125 13.058594 38.917969 13.082031 39.007812 13.082031 C 39.222656 13.082031 39.414062 12.953125 39.496094 12.75 L 39.765625 12.054688 C 39.859375 11.800781 39.71875 11.582031 39.535156 11.503906 C 38.925781 11.238281 37.734375 11.03125 37.722656 11.03125 C 37.703125 11.027344 37.636719 11.011719 37.636719 10.933594 L 37.632812 9.925781 C 37.632812 9.625 37.382812 9.378906 37.070312 9.378906 L 36.582031 9.378906 C 36.273438 9.378906 36.019531 9.625 36.019531 9.925781 L 36.019531 10.984375 C 36.019531 11.066406 35.933594 11.101562 35.902344 11.109375 C 34.398438 11.46875 33.460938 12.566406 33.460938 13.957031 C 33.460938 15.683594 34.890625 16.464844 36.433594 17.054688 C 37.667969 17.539062 38.171875 18.027344 38.171875 18.75 C 38.171875 19.535156 37.457031 20.082031 36.4375 20.082031 C 35.566406 20.082031 34.382812 19.527344 34.371094 19.523438 C 34.296875 19.488281 34.21875 19.46875 34.136719 19.46875 C 33.910156 19.46875 33.714844 19.605469 33.636719 19.816406 L 33.378906 20.515625 C 33.285156 20.777344 33.425781 20.992188 33.609375 21.085938 C 34.332031 21.464844 35.734375 21.6875 35.796875 21.695312 C 35.816406 21.699219 35.902344 21.726562 35.902344 21.804688 L 35.902344 22.859375 C 35.902344 23.164062 36.152344 23.410156 36.464844 23.410156 L 36.96875 23.410156 C 37.28125 23.410156 37.53125 23.164062 37.53125 22.859375 L 37.53125 21.75 C 37.53125 21.648438 37.609375 21.636719 37.625 21.632812 C 39.226562 21.273438 40.210938 20.105469 40.210938 18.632812 C 40.210938 17.125 39.371094 16.148438 37.40625 15.375 Z M 37.40625 15.375 "/>
<path style=" stroke:none;fill-rule:nonzero;fill:rgb(0%,0%,0%);fill-opacity:1;" d="M 36.777344 3.171875 C 29.476562 3.171875 23.558594 9.089844 23.558594 16.394531 C 23.558594 23.695312 29.476562 29.613281 36.777344 29.613281 C 44.082031 29.613281 50 23.695312 50 16.394531 C 50 9.089844 44.082031 3.171875 36.777344 3.171875 Z M 36.777344 26.550781 C 31.167969 26.550781 26.621094 22.003906 26.621094 16.394531 C 26.621094 10.785156 31.167969 6.238281 36.777344 6.238281 C 42.386719 6.238281 46.9375 10.785156 46.9375 16.394531 C 46.9375 22.003906 42.386719 26.550781 36.777344 26.550781 Z M 36.777344 26.550781 "/>
<path style=" stroke:none;fill-rule:nonzero;fill:rgb(0%,0%,0%);fill-opacity:1;" d="M 47.3125 36.023438 C 44.503906 37.574219 40.636719 39.007812 36.777344 39.613281 C 33.347656 40.152344 26.894531 38.855469 26.894531 37.320312 C 26.894531 36.742188 32.554688 38.753906 35.980469 37.839844 C 38.605469 37.136719 38.230469 34.683594 36.804688 34.359375 C 35.382812 34.035156 27.0625 30.988281 23.511719 30.882812 C 21.835938 30.832031 17.703125 31.464844 15.703125 31.789062 C 15.019531 31.902344 14.589844 31.890625 14.546875 32.546875 C 14.347656 35.59375 13.957031 41.824219 13.742188 45.078125 C 13.738281 45.144531 13.832031 46.070312 14.597656 45.421875 C 15.429688 44.707031 16.601562 43.917969 17.6875 44.164062 C 19.386719 44.550781 34.09375 47.246094 36.121094 46.773438 C 39.023438 46.097656 47.238281 41.230469 48.816406 39.714844 C 51.257812 37.371094 49.359375 34.894531 47.3125 36.023438 Z M 47.3125 36.023438 "/>
<path style=" stroke:none;fill-rule:nonzero;fill:rgb(0%,0%,0%);fill-opacity:1;" d="M 10.488281 31.671875 L 2.785156 31.292969 C 2.1875 31.261719 1.582031 31.710938 1.433594 32.289062 L 0.03125 45.007812 C -0.113281 45.585938 0.25 46.074219 0.847656 46.097656 L 9.386719 46.097656 C 9.980469 46.121094 10.503906 45.652344 10.550781 45.058594 L 11.488281 32.804688 C 11.53125 32.210938 11.082031 31.699219 10.488281 31.671875 Z M 5.953125 44.414062 C 4.777344 44.414062 3.824219 43.457031 3.824219 42.28125 C 3.824219 41.105469 4.777344 40.152344 5.953125 40.152344 C 7.128906 40.152344 8.082031 41.105469 8.082031 42.28125 C 8.082031 43.457031 7.128906 44.414062 5.953125 44.414062 Z M 5.953125 44.414062 "/>
</g>
</svg>
