<!-- Generator: Adobe Illustrator 19.0.0, SVG Export Plug-In . SVG Version: 6.00 Build 0)  -->
<svg xmlns="http://www.w3.org/2000/svg" xmlns:xlink="http://www.w3.org/1999/xlink" width="50px" height="50px" viewBox="0 0 50 50" version="1.1">
<defs>
<linearGradient id="linear0" gradientUnits="userSpaceOnUse" x1="275.517" y1="4.57" x2="275.517" y2="549.72" gradientTransform="matrix(0.0907385,0,0,-0.0907385,0,50.26913)">
<stop offset="0" style="stop-color:rgb(87.843137%,60.784314%,23.921569%);stop-opacity:1;"/>
<stop offset="0.3" style="stop-color:rgb(78.039216%,29.803922%,30.196078%);stop-opacity:1;"/>
<stop offset="0.6" style="stop-color:rgb(76.078431%,9.803922%,45.882353%);stop-opacity:1;"/>
<stop offset="1" style="stop-color:rgb(43.921569%,14.117647%,76.862745%);stop-opacity:1;"/>
</linearGradient>
<linearGradient id="linear1" gradientUnits="userSpaceOnUse" x1="275.517" y1="4.57" x2="275.517" y2="549.72" gradientTransform="matrix(0.0907385,0,0,-0.0907385,0,50.26913)">
<stop offset="0" style="stop-color:rgb(87.843137%,60.784314%,23.921569%);stop-opacity:1;"/>
<stop offset="0.3" style="stop-color:rgb(78.039216%,29.803922%,30.196078%);stop-opacity:1;"/>
<stop offset="0.6" style="stop-color:rgb(76.078431%,9.803922%,45.882353%);stop-opacity:1;"/>
<stop offset="1" style="stop-color:rgb(43.921569%,14.117647%,76.862745%);stop-opacity:1;"/>
</linearGradient>
<linearGradient id="linear2" gradientUnits="userSpaceOnUse" x1="418.31" y1="4.57" x2="418.31" y2="549.72" gradientTransform="matrix(0.0907385,0,0,-0.0907385,0,50.26913)">
<stop offset="0" style="stop-color:rgb(87.843137%,60.784314%,23.921569%);stop-opacity:1;"/>
<stop offset="0.3" style="stop-color:rgb(78.039216%,29.803922%,30.196078%);stop-opacity:1;"/>
<stop offset="0.6" style="stop-color:rgb(76.078431%,9.803922%,45.882353%);stop-opacity:1;"/>
<stop offset="1" style="stop-color:rgb(43.921569%,14.117647%,76.862745%);stop-opacity:1;"/>
</linearGradient>
</defs>
<g id="surface1">
<path style=" stroke:none;fill-rule:nonzero;fill:url(#linear0);" d="M 35.105469 0 L 14.894531 0 C 6.683594 0 0 6.683594 0 14.894531 L 0 35.105469 C 0 43.316406 6.683594 50 14.894531 50 L 35.105469 50 C 43.316406 50 50 43.316406 50 35.105469 L 50 14.894531 C 50 6.683594 43.316406 0 35.105469 0 Z M 44.96875 35.105469 C 44.96875 40.554688 40.554688 44.96875 35.105469 44.96875 L 14.894531 44.96875 C 9.445312 44.96875 5.03125 40.554688 5.03125 35.105469 L 5.03125 14.894531 C 5.03125 9.445312 9.445312 5.03125 14.894531 5.03125 L 35.105469 5.03125 C 40.554688 5.03125 44.96875 9.445312 44.96875 14.894531 Z M 44.96875 35.105469 "/>
<path style=" stroke:none;fill-rule:nonzero;fill:url(#linear1);" d="M 25 12.066406 C 17.871094 12.066406 12.066406 17.871094 12.066406 25 C 12.066406 32.128906 17.871094 37.933594 25 37.933594 C 32.128906 37.933594 37.933594 32.128906 37.933594 25 C 37.933594 17.871094 32.128906 12.066406 25 12.066406 Z M 25 32.902344 C 20.636719 32.902344 17.097656 29.363281 17.097656 25 C 17.097656 20.636719 20.636719 17.097656 25 17.097656 C 29.363281 17.097656 32.902344 20.636719 32.902344 25 C 32.902344 29.363281 29.363281 32.902344 25 32.902344 Z M 25 32.902344 "/>
<path style=" stroke:none;fill-rule:nonzero;fill:url(#linear2);" d="M 41.054688 12.164062 C 41.054688 13.875 39.667969 15.265625 37.957031 15.265625 C 36.246094 15.265625 34.859375 13.875 34.859375 12.164062 C 34.859375 10.453125 36.246094 9.066406 37.957031 9.066406 C 39.667969 9.066406 41.054688 10.453125 41.054688 12.164062 Z M 41.054688 12.164062 "/>
</g>
</svg>
