<!-- Generator: Adobe Illustrator 19.0.0, SVG Export Plug-In . SVG Version: 6.00 Build 0)  -->
<svg xmlns="http://www.w3.org/2000/svg" xmlns:xlink="http://www.w3.org/1999/xlink" width="50px" height="50px" viewBox="0 0 50 50" version="1.1">
<g id="surface1">
<path style=" stroke:none;fill-rule:nonzero;fill:rgb(0%,0%,0%);fill-opacity:1;" d="M 13.320312 5.472656 L 22.023438 5.472656 C 22.460938 5.472656 22.816406 5.121094 22.816406 4.683594 C 22.816406 4.25 22.460938 3.894531 22.023438 3.894531 L 13.320312 3.894531 C 12.882812 3.894531 12.527344 4.25 12.527344 4.683594 C 12.527344 5.121094 12.882812 5.472656 13.320312 5.472656 Z M 13.320312 5.472656 "/>
<path style=" stroke:none;fill-rule:nonzero;fill:rgb(0%,0%,0%);fill-opacity:1;" d="M 13.320312 8.957031 L 30.730469 8.957031 C 31.167969 8.957031 31.519531 8.605469 31.519531 8.167969 C 31.519531 7.734375 31.167969 7.378906 30.730469 7.378906 L 13.320312 7.378906 C 12.882812 7.378906 12.527344 7.734375 12.527344 8.167969 C 12.527344 8.605469 12.882812 8.957031 13.320312 8.957031 Z M 13.320312 8.957031 "/>
<path style=" stroke:none;fill-rule:nonzero;fill:rgb(0%,0%,0%);fill-opacity:1;" d="M 13.320312 19.8125 L 22.023438 19.8125 C 22.460938 19.8125 22.816406 19.460938 22.816406 19.023438 C 22.816406 18.585938 22.460938 18.234375 22.023438 18.234375 L 13.320312 18.234375 C 12.882812 18.234375 12.527344 18.585938 12.527344 19.023438 C 12.527344 19.460938 12.882812 19.8125 13.320312 19.8125 Z M 13.320312 19.8125 "/>
<path style=" stroke:none;fill-rule:nonzero;fill:rgb(0%,0%,0%);fill-opacity:1;" d="M 13.320312 23.296875 L 30.539062 23.296875 C 30.976562 23.296875 31.328125 22.945312 31.328125 22.507812 C 31.328125 22.070312 30.976562 21.71875 30.539062 21.71875 L 13.320312 21.71875 C 12.882812 21.71875 12.527344 22.070312 12.527344 22.507812 C 12.527344 22.945312 12.882812 23.296875 13.320312 23.296875 Z M 13.320312 23.296875 "/>
<path style=" stroke:none;fill-rule:nonzero;fill:rgb(0%,0%,0%);fill-opacity:1;" d="M 13.320312 34.152344 L 22.023438 34.152344 C 22.460938 34.152344 22.816406 33.796875 22.816406 33.363281 C 22.816406 32.925781 22.460938 32.574219 22.023438 32.574219 L 13.320312 32.574219 C 12.882812 32.574219 12.527344 32.925781 12.527344 33.363281 C 12.527344 33.796875 12.882812 34.152344 13.320312 34.152344 Z M 13.320312 34.152344 "/>
<path style=" stroke:none;fill-rule:nonzero;fill:rgb(0%,0%,0%);fill-opacity:1;" d="M 30.417969 36.058594 L 13.320312 36.058594 C 12.882812 36.058594 12.527344 36.410156 12.527344 36.847656 C 12.527344 37.28125 12.882812 37.636719 13.320312 37.636719 L 30.417969 37.636719 C 30.851562 37.636719 31.207031 37.28125 31.207031 36.847656 C 31.207031 36.410156 30.851562 36.058594 30.417969 36.058594 Z M 30.417969 36.058594 "/>
<path style=" stroke:none;fill-rule:nonzero;fill:rgb(0%,0%,0%);fill-opacity:1;" d="M 46.257812 39.53125 L 41.671875 37.695312 L 41.671875 36.6875 C 42.933594 36 43.894531 34.820312 44.292969 33.410156 C 45.824219 33.402344 47.070312 32.15625 47.070312 30.621094 C 47.070312 29.699219 46.621094 28.878906 45.929688 28.371094 L 45.929688 26.273438 C 45.929688 22.371094 42.753906 19.199219 38.851562 19.199219 L 38.328125 19.199219 C 37.742188 19.199219 37.175781 19.269531 36.632812 19.40625 L 36.632812 15.128906 C 36.632812 14.691406 36.277344 14.339844 35.84375 14.339844 L 33.496094 14.339844 C 33.0625 14.339844 32.707031 14.691406 32.707031 15.128906 C 32.707031 15.566406 33.0625 15.917969 33.496094 15.917969 L 35.050781 15.917969 L 35.050781 20.003906 C 32.980469 21.089844 31.511719 23.175781 31.285156 25.613281 L 1.578125 25.613281 L 1.578125 15.917969 L 30.855469 15.917969 C 31.289062 15.917969 31.644531 15.566406 31.644531 15.128906 C 31.644531 14.691406 31.289062 14.339844 30.855469 14.339844 L 0.789062 14.339844 C 0.351562 14.339844 0 14.691406 0 15.128906 L 0 26.402344 C 0 26.839844 0.351562 27.191406 0.789062 27.191406 L 31.253906 27.191406 L 31.253906 28.363281 C 31.121094 28.457031 31 28.5625 30.886719 28.679688 L 0.789062 28.679688 C 0.351562 28.679688 0 29.03125 0 29.46875 L 0 40.742188 C 0 41.179688 0.351562 41.53125 0.789062 41.53125 L 28.25 41.53125 C 27.582031 42.449219 27.082031 43.683594 27.082031 45.285156 L 27.082031 49.210938 C 27.082031 49.644531 27.4375 50 27.871094 50 L 30.855469 50 C 31.292969 50 31.644531 49.644531 31.644531 49.210938 C 31.644531 48.773438 31.292969 48.421875 30.855469 48.421875 L 28.664062 48.421875 L 28.664062 45.285156 C 28.664062 42 31.246094 41.058594 31.351562 41.023438 C 31.363281 41.019531 31.375 41.011719 31.386719 41.007812 L 35.710938 39.316406 C 35.730469 39.339844 35.75 39.363281 35.773438 39.386719 L 38.039062 41.59375 C 38.1875 41.738281 38.382812 41.820312 38.589844 41.820312 C 38.59375 41.820312 38.597656 41.820312 38.601562 41.816406 C 38.8125 41.816406 39.011719 41.726562 39.160156 41.578125 L 41.375 39.277344 L 45.691406 41.007812 C 45.699219 41.011719 45.714844 41.015625 45.726562 41.019531 C 45.835938 41.058594 48.421875 42 48.421875 45.285156 L 48.421875 48.421875 L 33.382812 48.421875 C 32.945312 48.421875 32.589844 48.773438 32.589844 49.210938 C 32.589844 49.648438 32.945312 50 33.382812 50 L 49.210938 50 C 49.648438 50 50 49.640625 50 49.203125 L 50 45.285156 C 50 41.75 47.566406 39.984375 46.257812 39.53125 Z M 44.496094 29.429688 C 45.0625 29.53125 45.492188 30.027344 45.492188 30.621094 C 45.492188 31.214844 45.0625 31.707031 44.496094 31.8125 Z M 32.832031 26.273438 C 32.832031 23.242188 35.296875 20.777344 38.328125 20.777344 L 38.851562 20.777344 C 41.882812 20.777344 44.351562 23.242188 44.351562 26.273438 L 44.351562 27.5625 C 44.347656 27.5625 44.347656 27.558594 44.347656 27.558594 C 44.339844 27.550781 44.332031 27.539062 44.324219 27.527344 C 44.316406 27.519531 44.308594 27.511719 44.300781 27.5 C 44.292969 27.492188 44.28125 27.480469 44.273438 27.472656 C 44.265625 27.464844 44.257812 27.457031 44.25 27.449219 C 44.238281 27.4375 44.226562 27.429688 44.21875 27.417969 C 44.210938 27.414062 44.199219 27.40625 44.191406 27.398438 C 44.179688 27.390625 44.167969 27.382812 44.15625 27.371094 C 44.148438 27.367188 44.140625 27.359375 44.128906 27.355469 C 44.117188 27.347656 44.105469 27.339844 44.09375 27.332031 C 44.082031 27.328125 44.070312 27.320312 44.058594 27.316406 C 44.046875 27.308594 44.035156 27.304688 44.023438 27.296875 C 44.011719 27.292969 43.996094 27.289062 43.984375 27.28125 C 43.972656 27.277344 43.964844 27.273438 43.953125 27.269531 C 43.9375 27.265625 43.921875 27.261719 43.90625 27.257812 C 43.898438 27.253906 43.890625 27.253906 43.882812 27.25 C 42.164062 26.859375 41.628906 24.640625 41.621094 24.621094 C 41.554688 24.316406 41.316406 24.082031 41.011719 24.019531 C 40.707031 23.957031 40.394531 24.078125 40.210938 24.332031 C 38.136719 27.203125 33.5625 27.230469 33.5 27.230469 C 33.5 27.230469 33.5 27.230469 33.496094 27.230469 C 33.46875 27.230469 33.441406 27.234375 33.417969 27.234375 C 33.410156 27.238281 33.402344 27.238281 33.390625 27.238281 C 33.375 27.242188 33.355469 27.246094 33.339844 27.246094 C 33.328125 27.25 33.316406 27.253906 33.304688 27.257812 C 33.289062 27.261719 33.277344 27.261719 33.261719 27.265625 C 33.25 27.269531 33.238281 27.277344 33.226562 27.28125 C 33.214844 27.285156 33.203125 27.289062 33.191406 27.292969 C 33.175781 27.300781 33.164062 27.308594 33.148438 27.3125 C 33.140625 27.316406 33.128906 27.320312 33.121094 27.328125 C 33.109375 27.335938 33.09375 27.34375 33.082031 27.351562 C 33.074219 27.355469 33.066406 27.359375 33.058594 27.367188 C 33.042969 27.375 33.03125 27.382812 33.019531 27.394531 C 33.011719 27.398438 33.003906 27.40625 32.996094 27.410156 C 32.984375 27.421875 32.972656 27.429688 32.964844 27.441406 C 32.957031 27.449219 32.949219 27.453125 32.941406 27.460938 C 32.929688 27.472656 32.921875 27.480469 32.910156 27.492188 C 32.902344 27.5 32.894531 27.507812 32.890625 27.519531 C 32.878906 27.527344 32.871094 27.539062 32.867188 27.550781 C 32.859375 27.558594 32.851562 27.570312 32.84375 27.578125 C 32.839844 27.585938 32.835938 27.59375 32.832031 27.597656 Z M 32.707031 29.421875 L 32.707031 31.816406 C 32.125 31.730469 31.679688 31.226562 31.679688 30.621094 C 31.679688 30.015625 32.125 29.511719 32.707031 29.421875 Z M 35.535156 37.6875 L 30.828125 39.53125 C 30.566406 39.621094 30.257812 39.765625 29.933594 39.964844 C 29.890625 39.957031 29.847656 39.953125 29.800781 39.953125 L 1.578125 39.953125 L 1.578125 30.257812 L 30.125 30.257812 C 30.109375 30.375 30.097656 30.496094 30.097656 30.621094 C 30.097656 32.160156 31.351562 33.414062 32.890625 33.414062 C 32.898438 33.414062 32.90625 33.410156 32.914062 33.410156 C 33.3125 34.820312 34.269531 36 35.535156 36.6875 Z M 40.09375 38.242188 L 40.09375 38.332031 L 38.574219 39.910156 L 37.113281 38.488281 L 37.113281 37.246094 C 37.433594 37.304688 37.765625 37.339844 38.101562 37.339844 L 39.101562 37.339844 C 39.441406 37.339844 39.769531 37.304688 40.09375 37.246094 Z M 39.101562 35.757812 L 38.101562 35.757812 C 36 35.757812 34.285156 34.046875 34.285156 31.945312 L 34.285156 28.769531 C 35.664062 28.652344 38.535156 28.179688 40.578125 26.285156 C 40.996094 27.109375 41.726562 28.105469 42.917969 28.59375 L 42.917969 31.945312 C 42.917969 34.046875 41.207031 35.757812 39.101562 35.757812 Z M 39.101562 35.757812 "/>
<path style=" stroke:none;fill-rule:nonzero;fill:rgb(0%,0%,0%);fill-opacity:1;" d="M 8.066406 4.601562 C 8.5 4.601562 8.855469 4.246094 8.855469 3.8125 C 8.855469 3.375 8.5 3.019531 8.066406 3.019531 L 4.082031 3.019531 C 3.648438 3.019531 3.292969 3.375 3.292969 3.8125 L 3.292969 9.042969 C 3.292969 9.480469 3.648438 9.832031 4.082031 9.832031 L 9.574219 9.832031 C 10.007812 9.832031 10.363281 9.480469 10.363281 9.042969 L 10.363281 7.632812 C 10.363281 7.195312 10.007812 6.84375 9.574219 6.84375 C 9.136719 6.84375 8.78125 7.195312 8.78125 7.632812 L 8.78125 8.253906 L 4.871094 8.253906 L 4.871094 4.601562 Z M 8.066406 4.601562 "/>
<path style=" stroke:none;fill-rule:nonzero;fill:rgb(0%,0%,0%);fill-opacity:1;" d="M 11.117188 3.234375 C 10.796875 2.9375 10.296875 2.953125 10 3.269531 L 7.378906 6.050781 L 6.566406 5.167969 C 6.273438 4.847656 5.773438 4.828125 5.453125 5.121094 C 5.128906 5.414062 5.109375 5.914062 5.402344 6.238281 L 6.789062 7.746094 C 6.9375 7.90625 7.144531 8 7.363281 8 C 7.367188 8 7.367188 8 7.371094 8 C 7.585938 8 7.796875 7.910156 7.945312 7.753906 L 11.148438 4.351562 C 11.449219 4.035156 11.433594 3.535156 11.117188 3.234375 Z M 11.117188 3.234375 "/>
<path style=" stroke:none;fill-rule:nonzero;fill:rgb(0%,0%,0%);fill-opacity:1;" d="M 8.066406 18.9375 C 8.5 18.9375 8.855469 18.585938 8.855469 18.148438 C 8.855469 17.714844 8.5 17.359375 8.066406 17.359375 L 4.082031 17.359375 C 3.648438 17.359375 3.292969 17.714844 3.292969 18.148438 L 3.292969 23.382812 C 3.292969 23.816406 3.648438 24.171875 4.082031 24.171875 L 9.574219 24.171875 C 10.007812 24.171875 10.363281 23.816406 10.363281 23.382812 L 10.363281 21.96875 C 10.363281 21.535156 10.007812 21.179688 9.574219 21.179688 C 9.136719 21.179688 8.78125 21.535156 8.78125 21.96875 L 8.78125 22.59375 L 4.871094 22.59375 L 4.871094 18.9375 Z M 8.066406 18.9375 "/>
<path style=" stroke:none;fill-rule:nonzero;fill:rgb(0%,0%,0%);fill-opacity:1;" d="M 11.117188 17.574219 C 10.796875 17.277344 10.296875 17.289062 10 17.609375 L 7.378906 20.390625 L 6.566406 19.507812 C 6.273438 19.1875 5.773438 19.164062 5.453125 19.460938 C 5.128906 19.753906 5.109375 20.253906 5.402344 20.574219 L 6.789062 22.082031 C 6.9375 22.246094 7.144531 22.335938 7.363281 22.339844 C 7.367188 22.339844 7.367188 22.339844 7.371094 22.339844 C 7.585938 22.339844 7.796875 22.25 7.945312 22.089844 L 11.148438 18.691406 C 11.449219 18.375 11.433594 17.875 11.117188 17.574219 Z M 11.117188 17.574219 "/>
<path style=" stroke:none;fill-rule:nonzero;fill:rgb(0%,0%,0%);fill-opacity:1;" d="M 9.574219 35.519531 C 9.136719 35.519531 8.78125 35.875 8.78125 36.308594 L 8.78125 36.929688 L 4.871094 36.929688 L 4.871094 33.277344 L 8.066406 33.277344 C 8.5 33.277344 8.855469 32.925781 8.855469 32.488281 C 8.855469 32.050781 8.5 31.699219 8.066406 31.699219 L 4.082031 31.699219 C 3.648438 31.699219 3.292969 32.050781 3.292969 32.488281 L 3.292969 37.722656 C 3.292969 38.15625 3.648438 38.511719 4.082031 38.511719 L 9.574219 38.511719 C 10.007812 38.511719 10.363281 38.15625 10.363281 37.722656 L 10.363281 36.308594 C 10.363281 35.875 10.007812 35.519531 9.574219 35.519531 Z M 9.574219 35.519531 "/>
<path style=" stroke:none;fill-rule:nonzero;fill:rgb(0%,0%,0%);fill-opacity:1;" d="M 10 31.945312 L 7.378906 34.730469 L 6.566406 33.847656 C 6.273438 33.523438 5.773438 33.503906 5.453125 33.796875 C 5.128906 34.09375 5.109375 34.59375 5.402344 34.914062 L 6.789062 36.421875 C 6.9375 36.585938 7.144531 36.675781 7.363281 36.679688 C 7.367188 36.679688 7.367188 36.679688 7.371094 36.679688 C 7.585938 36.679688 7.796875 36.589844 7.945312 36.429688 L 11.148438 33.03125 C 11.449219 32.710938 11.433594 32.214844 11.117188 31.914062 C 10.796875 31.613281 10.296875 31.628906 10 31.945312 Z M 10 31.945312 "/>
<path style=" stroke:none;fill-rule:nonzero;fill:rgb(0%,0%,0%);fill-opacity:1;" d="M 0.789062 12.855469 L 35.84375 12.855469 C 36.277344 12.855469 36.632812 12.5 36.632812 12.066406 L 36.632812 0.789062 C 36.632812 0.351562 36.277344 0 35.84375 0 L 33.496094 0 C 33.0625 0 32.707031 0.351562 32.707031 0.789062 C 32.707031 1.226562 33.0625 1.578125 33.496094 1.578125 L 35.050781 1.578125 L 35.050781 11.273438 L 1.578125 11.273438 L 1.578125 1.578125 L 30.855469 1.578125 C 31.289062 1.578125 31.644531 1.226562 31.644531 0.789062 C 31.644531 0.351562 31.289062 0 30.855469 0 L 0.789062 0 C 0.351562 0 0 0.351562 0 0.789062 L 0 12.0625 C 0 12.5 0.351562 12.855469 0.789062 12.855469 Z M 0.789062 12.855469 "/>
</g>
</svg>
