<!-- Generator: Adobe Illustrator 19.0.0, SVG Export Plug-In . SVG Version: 6.00 Build 0)  -->
<svg xmlns="http://www.w3.org/2000/svg" xmlns:xlink="http://www.w3.org/1999/xlink" width="50px" height="50px" viewBox="0 0 50 50" version="1.1">
<g id="surface1">
<path style=" stroke:none;fill-rule:nonzero;fill:rgb(0%,0%,0%);fill-opacity:1;" d="M 41.261719 26.425781 C 40.859375 26.425781 40.53125 26.753906 40.53125 27.15625 C 40.53125 27.664062 40.117188 28.078125 39.609375 28.078125 C 39.097656 28.078125 38.683594 27.664062 38.683594 27.15625 C 38.683594 26.753906 38.359375 26.425781 37.957031 26.425781 C 37.554688 26.425781 37.230469 26.753906 37.230469 27.15625 C 37.230469 28.464844 38.296875 29.535156 39.609375 29.535156 C 40.921875 29.535156 41.988281 28.464844 41.988281 27.15625 C 41.988281 26.753906 41.660156 26.425781 41.261719 26.425781 Z M 41.261719 26.425781 "/>
<path style=" stroke:none;fill-rule:nonzero;fill:rgb(0%,0%,0%);fill-opacity:1;" d="M 48.089844 26.546875 L 46.042969 25.890625 C 45.78125 25.804688 45.574219 25.597656 45.488281 25.328125 C 45.058594 23.957031 44.40625 22.667969 43.554688 21.5 C 43.164062 20.96875 42.730469 20.457031 42.261719 19.972656 C 42.5625 18.648438 42.726562 17.148438 42.703125 15.851562 C 42.675781 14 42.304688 12.910156 41.574219 12.527344 C 41.179688 12.320312 39.980469 11.695312 33.488281 14.664062 C 33.335938 14.734375 33.191406 14.820312 33.058594 14.921875 C 32.621094 14.804688 32.171875 14.695312 31.722656 14.597656 C 31.667969 14.585938 31.613281 14.574219 31.558594 14.5625 C 32.085938 13.414062 32.390625 12.167969 32.449219 10.878906 C 32.46875 10.476562 32.15625 10.136719 31.753906 10.117188 C 31.355469 10.097656 31.011719 10.410156 30.996094 10.8125 C 30.902344 12.929688 30.023438 14.925781 28.519531 16.425781 C 27.625 17.320312 26.574219 17.972656 25.457031 18.382812 C 23.515625 18.109375 21.539062 18.109375 19.597656 18.382812 C 18.480469 17.972656 17.429688 17.320312 16.535156 16.425781 C 14.933594 14.824219 14.050781 12.695312 14.050781 10.429688 C 14.050781 8.167969 14.933594 6.039062 16.535156 4.4375 C 18.136719 2.835938 20.261719 1.953125 22.527344 1.953125 C 24.792969 1.953125 26.921875 2.835938 28.519531 4.4375 C 29.164062 5.082031 29.695312 5.816406 30.101562 6.621094 C 30.28125 6.980469 30.71875 7.125 31.078125 6.941406 C 31.4375 6.761719 31.582031 6.324219 31.402344 5.964844 C 30.925781 5.023438 30.304688 4.160156 29.550781 3.410156 C 27.675781 1.53125 25.179688 0.5 22.527344 0.5 C 19.875 0.5 17.378906 1.53125 15.503906 3.410156 C 13.628906 5.285156 12.597656 7.777344 12.597656 10.429688 C 12.597656 13.085938 13.628906 15.578125 15.503906 17.453125 C 16.046875 17.996094 16.632812 18.460938 17.257812 18.851562 C 16.804688 18.96875 16.355469 19.101562 15.914062 19.25 C 15.53125 19.375 15.324219 19.789062 15.453125 20.167969 C 15.582031 20.550781 15.992188 20.757812 16.375 20.628906 C 20.34375 19.300781 24.714844 19.300781 28.679688 20.628906 C 28.757812 20.65625 28.835938 20.667969 28.914062 20.667969 C 29.214844 20.667969 29.5 20.472656 29.601562 20.167969 C 29.730469 19.789062 29.523438 19.375 29.144531 19.25 C 28.699219 19.101562 28.25 18.96875 27.796875 18.851562 C 28.421875 18.460938 29.007812 17.996094 29.550781 17.453125 C 30.027344 16.976562 30.453125 16.453125 30.820312 15.898438 C 31.019531 15.9375 31.21875 15.976562 31.414062 16.019531 C 31.675781 16.078125 31.9375 16.136719 32.195312 16.203125 C 32.1875 16.234375 32.175781 16.265625 32.171875 16.296875 C 31.816406 17.980469 31.839844 19.46875 32.238281 20.722656 C 32.597656 21.851562 33.25 22.761719 34.167969 23.4375 C 35.253906 24.230469 36.5625 24.574219 37.75 24.574219 C 38.644531 24.574219 39.46875 24.378906 40.070312 24.035156 C 40.753906 23.648438 41.328125 22.832031 41.78125 21.605469 C 41.992188 21.851562 42.191406 22.101562 42.378906 22.359375 C 43.136719 23.398438 43.71875 24.546875 44.101562 25.765625 C 44.328125 26.484375 44.886719 27.046875 45.597656 27.277344 L 47.648438 27.933594 C 48.183594 28.105469 48.546875 28.597656 48.546875 29.164062 L 48.546875 32.558594 C 48.546875 33.125 48.183594 33.617188 47.648438 33.789062 L 44.347656 34.847656 C 43.820312 35.015625 43.371094 35.378906 43.089844 35.867188 C 41.792969 38.109375 39.753906 39.964844 37.03125 41.378906 C 36.714844 41.542969 36.496094 41.835938 36.433594 42.183594 L 35.375 47.777344 C 35.347656 47.933594 35.210938 48.046875 35.054688 48.046875 L 31.617188 48.046875 C 31.460938 48.046875 31.324219 47.933594 31.296875 47.777344 L 30.710938 44.6875 C 30.597656 44.078125 30.027344 43.671875 29.410156 43.765625 C 27.929688 43.992188 26.40625 44.105469 24.878906 44.105469 C 23.742188 44.105469 22.621094 44.039062 21.542969 43.914062 C 20.949219 43.847656 20.394531 44.253906 20.28125 44.839844 L 19.726562 47.777344 C 19.695312 47.933594 19.5625 48.046875 19.40625 48.046875 L 15.96875 48.046875 C 15.8125 48.046875 15.675781 47.933594 15.648438 47.777344 L 14.628906 42.492188 C 14.5625 42.152344 14.351562 41.859375 14.042969 41.695312 C 9.398438 39.21875 6.945312 35.078125 6.945312 29.722656 C 6.945312 27.015625 7.539062 24.625 8.703125 22.609375 C 9.792969 20.730469 11.386719 19.179688 13.433594 17.992188 C 13.78125 17.792969 13.902344 17.347656 13.699219 17 C 13.5 16.652344 13.054688 16.53125 12.707031 16.734375 C 8.734375 19.03125 6.335938 22.578125 5.675781 27.078125 C 5.605469 27.074219 5.539062 27.066406 5.46875 27.058594 C 5.480469 26.574219 5.390625 26.082031 5.199219 25.609375 C 4.777344 24.558594 3.910156 23.800781 2.992188 23.679688 C 2.265625 23.582031 1.578125 23.886719 1.097656 24.519531 C 0.402344 25.4375 0.515625 26.164062 0.734375 26.613281 C 1.101562 27.367188 2.042969 27.902344 3.605469 28.238281 C 3.5625 28.300781 3.515625 28.367188 3.464844 28.429688 C 2.539062 29.589844 1.453125 29.847656 0.746094 29.871094 C 0.332031 29.882812 0 30.214844 0 30.628906 L 0 30.632812 C 0 31.042969 0.320312 31.375 0.730469 31.394531 C 0.78125 31.394531 0.835938 31.398438 0.894531 31.398438 C 1.789062 31.398438 3.222656 31.066406 4.601562 29.339844 C 4.820312 29.066406 4.996094 28.777344 5.132812 28.480469 C 5.269531 28.496094 5.402344 28.507812 5.527344 28.519531 C 5.503906 28.914062 5.488281 29.316406 5.488281 29.722656 C 5.488281 32.75 6.210938 35.453125 7.636719 37.753906 C 8.949219 39.871094 10.832031 41.605469 13.226562 42.910156 L 14.21875 48.050781 C 14.375 48.890625 15.113281 49.5 15.96875 49.5 L 19.40625 49.5 C 20.261719 49.5 20.996094 48.890625 21.15625 48.050781 L 21.660156 45.390625 C 22.703125 45.503906 23.785156 45.558594 24.878906 45.558594 C 26.378906 45.558594 27.875 45.453125 29.335938 45.25 L 29.867188 48.050781 C 30.027344 48.890625 30.761719 49.5 31.617188 49.5 L 35.054688 49.5 C 35.910156 49.5 36.644531 48.890625 36.804688 48.050781 L 37.835938 42.601562 C 40.742188 41.0625 42.933594 39.042969 44.347656 36.597656 C 44.449219 36.421875 44.609375 36.292969 44.789062 36.234375 L 48.089844 35.175781 C 49.234375 34.808594 50 33.757812 50 32.558594 L 50 29.164062 C 50 27.964844 49.234375 26.910156 48.089844 26.546875 Z M 41.140625 17.898438 C 40.859375 20.292969 40.109375 22.339844 39.355469 22.769531 C 38.496094 23.253906 36.515625 23.347656 35.027344 22.261719 C 33.539062 21.171875 33.042969 19.214844 33.59375 16.597656 C 33.648438 16.332031 33.835938 16.105469 34.09375 15.988281 C 37.738281 14.320312 39.835938 13.777344 40.617188 13.777344 C 40.734375 13.777344 40.824219 13.789062 40.882812 13.8125 C 41.117188 14.0625 41.421875 15.480469 41.140625 17.898438 Z M 2.042969 25.976562 C 1.96875 25.820312 2.144531 25.546875 2.257812 25.398438 C 2.4375 25.164062 2.601562 25.113281 2.726562 25.113281 C 2.75 25.113281 2.777344 25.117188 2.800781 25.121094 C 3.132812 25.164062 3.601562 25.53125 3.851562 26.152344 C 3.910156 26.296875 3.984375 26.535156 4.003906 26.835938 C 2.996094 26.628906 2.210938 26.328125 2.042969 25.976562 Z M 2.042969 25.976562 "/>
<path style=" stroke:none;fill-rule:nonzero;fill:rgb(0%,0%,0%);fill-opacity:1;" d="M 23.234375 9.597656 L 23.234375 6.992188 C 24.132812 7.058594 24.464844 7.46875 24.773438 7.46875 C 25.160156 7.46875 25.339844 6.980469 25.339844 6.738281 C 25.339844 6.109375 24.105469 5.839844 23.234375 5.8125 L 23.234375 5.46875 C 23.234375 5.3125 23.042969 5.171875 22.847656 5.171875 C 22.632812 5.171875 22.476562 5.3125 22.476562 5.46875 L 22.476562 5.839844 C 21.257812 5.96875 20.039062 6.609375 20.039062 8.226562 C 20.039062 9.867188 21.324219 10.328125 22.476562 10.738281 L 22.476562 13.753906 C 21.167969 13.652344 20.824219 12.753906 20.398438 12.753906 C 20.078125 12.753906 19.808594 13.175781 19.808594 13.484375 C 19.808594 14.113281 20.886719 14.972656 22.476562 14.996094 L 22.476562 15.394531 C 22.476562 15.550781 22.632812 15.691406 22.847656 15.691406 C 23.042969 15.691406 23.234375 15.550781 23.234375 15.394531 L 23.234375 14.960938 C 24.621094 14.765625 25.570312 13.894531 25.570312 12.316406 C 25.570312 10.574219 24.351562 10.007812 23.234375 9.597656 Z M 22.554688 9.355469 C 21.875 9.097656 21.324219 8.828125 21.324219 8.097656 C 21.324219 7.429688 21.835938 7.109375 22.554688 7.019531 Z M 23.15625 13.726562 L 23.15625 11.019531 C 23.785156 11.289062 24.285156 11.648438 24.285156 12.457031 C 24.285156 13.1875 23.851562 13.601562 23.15625 13.726562 Z M 23.15625 13.726562 "/>
</g>
</svg>
