<?xml version="1.0" encoding="UTF-8"?>
<svg xmlns="http://www.w3.org/2000/svg" xmlns:xlink="http://www.w3.org/1999/xlink" width="50pt" height="50pt" viewBox="0 0 50 50" version="1.1">
<g id="surface1">
<path style=" stroke:none;fill-rule:nonzero;fill:rgb(0%,0%,0%);fill-opacity:1;" d="M 43.285156 49.816406 C 43.035156 49.742188 42.527344 49.59375 42.152344 49.480469 C 40.246094 48.914062 37.996094 47.964844 36.773438 47.207031 C 35.992188 46.722656 36.140625 46.730469 34.609375 47.089844 C 33.863281 47.265625 33.414062 47.304688 32.042969 47.3125 C 30.296875 47.320312 29.734375 47.25 28.449219 46.84375 C 25.472656 45.898438 22.996094 43.792969 21.445312 40.882812 C 20.703125 39.496094 20.136719 37.75 19.929688 36.222656 C 19.804688 35.304688 19.804688 33.40625 19.929688 32.472656 C 20.222656 30.292969 21.132812 28.023438 22.40625 26.300781 C 25.386719 22.273438 30.269531 20.488281 34.964844 21.710938 C 38.914062 22.734375 42.253906 25.996094 43.566406 30.105469 C 44.46875 32.925781 44.4375 36.09375 43.476562 38.933594 C 43.21875 39.695312 42.789062 40.632812 42.296875 41.503906 C 42.132812 41.796875 42.117188 41.902344 42.15625 42.371094 C 42.324219 44.261719 42.757812 46.09375 43.605469 48.480469 C 44.140625 49.980469 44.136719 49.972656 43.917969 49.960938 C 43.820312 49.957031 43.535156 49.890625 43.285156 49.816406 Z M 27.84375 36.492188 C 28.441406 36.257812 28.910156 35.40625 28.910156 34.539062 C 28.910156 33.21875 27.894531 32.152344 26.941406 32.472656 C 25.847656 32.835938 25.324219 34.226562 25.808594 35.476562 C 26.019531 36.03125 26.382812 36.40625 26.859375 36.566406 C 27.214844 36.683594 27.375 36.671875 27.84375 36.492188 Z M 33.191406 36.292969 C 33.519531 36.011719 33.886719 35.308594 33.90625 34.929688 C 33.964844 33.589844 33.523438 32.761719 32.597656 32.46875 C 32.089844 32.308594 31.523438 32.53125 31.113281 33.054688 C 30.734375 33.539062 30.621094 33.949219 30.660156 34.730469 C 30.695312 35.394531 30.878906 35.804688 31.359375 36.269531 C 31.828125 36.726562 32.671875 36.738281 33.191406 36.292969 Z M 37.867188 36.449219 C 38.4375 36.191406 38.871094 35.363281 38.871094 34.539062 C 38.871094 33.367188 38.128906 32.429688 37.203125 32.4375 C 35.882812 32.449219 35.09375 34.386719 35.859375 35.734375 C 36.125 36.207031 36.367188 36.414062 36.824219 36.566406 C 37.199219 36.691406 37.371094 36.671875 37.867188 36.449219 Z M 4.964844 41.8125 C 4.941406 41.769531 5.140625 41.152344 5.402344 40.445312 C 6.761719 36.785156 7.636719 33.226562 7.757812 30.859375 L 7.804688 29.910156 L 7.375 29.164062 C 5.148438 25.328125 4.292969 20.480469 5.03125 15.886719 C 6.273438 8.179688 11.84375 2.125 19.140625 0.554688 C 21.933594 -0.046875 24.792969 0.113281 27.628906 1.03125 C 32.128906 2.484375 35.898438 5.765625 38.152344 10.195312 C 39.046875 11.949219 39.777344 14.308594 40.050781 16.335938 C 40.199219 17.417969 40.242188 19.554688 40.117188 19.519531 C 40.074219 19.511719 39.613281 19.265625 39.089844 18.972656 C 38.566406 18.683594 37.855469 18.328125 37.503906 18.1875 C 37.15625 18.042969 36.835938 17.878906 36.789062 17.820312 C 36.746094 17.761719 36.667969 17.414062 36.617188 17.050781 C 36.390625 15.421875 35.730469 13.460938 34.894531 11.960938 C 34.335938 10.957031 32.898438 9.128906 32.089844 8.398438 C 30.0625 6.558594 27.648438 5.339844 24.988281 4.824219 C 23.914062 4.613281 21.265625 4.585938 20.308594 4.769531 C 17.824219 5.253906 16.046875 6.007812 14.199219 7.359375 C 11.175781 9.566406 9.105469 12.945312 8.414062 16.816406 C 8.257812 17.695312 8.234375 20.59375 8.375 21.464844 C 8.746094 23.691406 9.53125 25.617188 10.851562 27.503906 C 11.820312 28.890625 11.734375 28.601562 11.554688 29.875 C 11.355469 31.320312 10.867188 33.835938 10.578125 34.917969 C 10.453125 35.390625 10.378906 35.8125 10.410156 35.855469 C 10.558594 36.042969 13.269531 34.691406 15.097656 33.511719 C 15.824219 33.046875 16.429688 32.683594 16.445312 32.707031 C 16.464844 32.730469 16.488281 33.476562 16.496094 34.363281 C 16.503906 35.253906 16.539062 36.246094 16.574219 36.574219 L 16.632812 37.167969 L 15.859375 37.660156 C 14.320312 38.644531 11.871094 39.777344 9.671875 40.515625 C 8.195312 41.015625 7.453125 41.242188 6.339844 41.546875 C 4.917969 41.9375 5.015625 41.917969 4.964844 41.8125 Z M 4.964844 41.8125 "/>
</g>
</svg>
