<?xml version="1.0" encoding="iso-8859-1"?>
<!-- Generator: Adobe Illustrator 19.0.0, SVG Export Plug-In . SVG Version: 6.00 Build 0)  -->
<svg version="1.1" id="Capa_1" xmlns="http://www.w3.org/2000/svg" xmlns:xlink="http://www.w3.org/1999/xlink" x="0px" y="0px"
	 viewBox="0 0 512 512" style="enable-background:new 0 0 512 512;" xml:space="preserve">
<g>
	<g>
		<path d="M472.778,257.849h-7.402l-12.596-39.828c-10.869-34.366-42.388-57.456-78.432-57.456h-39.224V74.568
			c0-5.523-4.477-10-10-10H48.973C21.969,64.568,0,86.538,0,113.542V397.07c0,5.523,4.477,10,10,10h76.307
			c4.651,22.995,25.015,40.361,49.361,40.361s44.709-17.366,49.361-40.361l140.091,0.001h15.729
			c4.651,22.995,25.015,40.361,49.361,40.361s44.71-17.366,49.361-40.361H502c5.523,0,10-4.477,10-10v-40.362v-59.637
			C512,275.444,494.405,257.849,472.778,257.849z M335.124,180.565h39.224c27.281,0,51.137,17.476,59.363,43.487l10.689,33.797
			H335.124V180.565z M20,113.541c0-15.976,12.998-28.973,28.973-28.973h266.151L315.12,302.91h-56.301v-70.825
			c3.616,1.241,7.783,0.348,10.561-2.628c3.768-4.038,3.55-10.365-0.487-14.134l-75.836-70.783h52.964c5.523,0,10-4.477,10-10
			c0-5.523-4.477-10-10-10H20V113.541z M176.029,236.569c-18.934,0-34.338,15.404-34.338,34.338v32.003H113.24v-88.299
			l62.789-58.606l62.789,58.606v88.299h-28.451v-32.003C210.368,251.974,194.963,236.569,176.029,236.569z M190.367,302.911h-28.676
			v-32.003c0-7.906,6.432-14.338,14.338-14.338s14.338,6.432,14.338,14.338V302.911z M95.43,366.823
			c-0.525,0.696-1.035,1.405-1.523,2.129c-0.054,0.08-0.103,0.163-0.156,0.243c-0.431,0.646-0.849,1.301-1.25,1.967
			c-0.157,0.26-0.302,0.526-0.454,0.789c-0.287,0.496-0.571,0.994-0.841,1.501c-0.164,0.308-0.32,0.62-0.478,0.932
			c-0.241,0.476-0.477,0.954-0.704,1.439c-0.154,0.329-0.302,0.659-0.449,0.992c-0.214,0.485-0.419,0.973-0.618,1.466
			c-0.135,0.334-0.27,0.668-0.397,1.006c-0.195,0.516-0.378,1.038-0.557,1.562c-0.109,0.32-0.223,0.638-0.326,0.961
			c-0.194,0.609-0.37,1.225-0.541,1.844c-0.068,0.244-0.144,0.484-0.208,0.729c-0.226,0.866-0.43,1.74-0.61,2.624
			c-0.004,0.022-0.011,0.043-0.015,0.065H20v-20.364h75.512C95.483,366.746,95.458,366.785,95.43,366.823z M135.668,427.432
			c-16.742,0-30.362-13.62-30.362-30.361c0-16.742,13.62-30.362,30.362-30.362c16.741,0,30.361,13.62,30.361,30.362
			C166.029,413.811,152.409,427.432,135.668,427.432z M20,346.709V144.541h139.002l-75.835,70.783
			c-4.038,3.769-4.255,10.097-0.487,14.134c1.969,2.11,4.638,3.177,7.313,3.177c1.098,0,2.196-0.19,3.249-0.552v70.828H76.947
			c-5.523,0-10,4.477-10,10s4.477,10,10,10H315.12v23.798H20z M349.973,366.819c-0.526,0.698-1.037,1.408-1.526,2.133
			c-0.049,0.073-0.094,0.149-0.143,0.222c-0.436,0.653-0.858,1.315-1.263,1.989c-0.155,0.257-0.299,0.52-0.449,0.78
			c-0.289,0.499-0.574,1-0.846,1.51c-0.163,0.305-0.317,0.615-0.474,0.924c-0.243,0.479-0.481,0.961-0.708,1.448
			c-0.152,0.326-0.3,0.655-0.446,0.984c-0.215,0.487-0.421,0.978-0.621,1.474c-0.134,0.332-0.268,0.663-0.395,0.999
			c-0.197,0.519-0.38,1.044-0.56,1.572c-0.108,0.317-0.221,0.631-0.322,0.951c-0.196,0.614-0.373,1.235-0.546,1.859
			c-0.066,0.239-0.141,0.474-0.203,0.715c-0.226,0.867-0.43,1.743-0.611,2.628c-0.004,0.021-0.01,0.041-0.014,0.062l-155.814,0.001
			c-0.004-0.021-0.01-0.042-0.015-0.064c-0.18-0.884-0.384-1.758-0.61-2.625c-0.064-0.245-0.14-0.484-0.207-0.727
			c-0.172-0.62-0.348-1.237-0.542-1.847c-0.102-0.321-0.215-0.637-0.324-0.956c-0.179-0.526-0.362-1.049-0.559-1.567
			c-0.128-0.336-0.261-0.669-0.396-1.002c-0.199-0.494-0.405-0.984-0.62-1.471c-0.146-0.331-0.294-0.66-0.447-0.986
			c-0.227-0.487-0.465-0.968-0.707-1.446c-0.157-0.31-0.312-0.62-0.475-0.926c-0.272-0.509-0.557-1.01-0.845-1.509
			c-0.15-0.26-0.294-0.524-0.449-0.781c-0.406-0.674-0.828-1.336-1.264-1.989c-0.049-0.073-0.093-0.149-0.143-0.222
			c-0.49-0.725-1.001-1.435-1.526-2.133c-0.028-0.037-0.053-0.076-0.081-0.113H325.12h0.004h24.93
			C350.026,366.743,350.001,366.782,349.973,366.819z M390.21,427.432c-16.741,0-30.361-13.62-30.361-30.361
			c0-16.742,13.62-30.362,30.361-30.362c1.569,0,3.111,0.12,4.618,0.35c14.558,2.231,25.744,14.839,25.744,30.012
			C420.572,413.812,406.952,427.432,390.21,427.432z M492,387.071h-52.425c-0.004-0.022-0.011-0.043-0.015-0.065
			c-0.18-0.883-0.384-1.758-0.609-2.624c-0.064-0.245-0.14-0.486-0.208-0.729c-0.171-0.618-0.347-1.235-0.541-1.844
			c-0.103-0.323-0.216-0.641-0.326-0.961c-0.179-0.524-0.361-1.046-0.557-1.562c-0.128-0.338-0.262-0.672-0.397-1.006
			c-0.199-0.492-0.404-0.981-0.618-1.466c-0.147-0.332-0.296-0.663-0.449-0.992c-0.226-0.484-0.463-0.963-0.704-1.439
			c-0.158-0.312-0.314-0.624-0.478-0.932c-0.27-0.507-0.554-1.005-0.841-1.501c-0.152-0.263-0.298-0.529-0.454-0.789
			c-0.401-0.666-0.819-1.321-1.25-1.967c-0.053-0.08-0.102-0.163-0.156-0.243c-0.489-0.724-0.999-1.432-1.523-2.129
			c-0.028-0.038-0.054-0.078-0.083-0.115H492V387.071z M492,346.708H335.124V322.91H492V346.708z M492,302.91H335.124v-25.06
			l137.654-0.001c10.599,0,19.222,8.623,19.222,19.222V302.91z"/>
	</g>
</g>
<g>
	<g>
		<path d="M50.91,310.79c-0.13-0.64-0.32-1.27-0.57-1.87c-0.25-0.61-0.56-1.19-0.92-1.73c-0.36-0.55-0.78-1.06-1.24-1.52
			c-0.46-0.46-0.97-0.88-1.52-1.24c-0.54-0.36-1.12-0.67-1.73-0.92c-0.6-0.25-1.23-0.44-1.87-0.57c-1.29-0.26-2.62-0.26-3.91,0
			c-0.63,0.13-1.26,0.32-1.87,0.57c-0.6,0.25-1.18,0.56-1.72,0.92c-0.55,0.36-1.06,0.78-1.52,1.24c-0.46,0.46-0.88,0.97-1.25,1.52
			c-0.36,0.54-0.67,1.12-0.92,1.73c-0.25,0.6-0.44,1.23-0.57,1.87c-0.13,0.64-0.19,1.3-0.19,1.95s0.06,1.31,0.19,1.96
			c0.13,0.63,0.32,1.26,0.57,1.87c0.25,0.6,0.56,1.18,0.92,1.72c0.37,0.55,0.79,1.06,1.25,1.52c0.46,0.46,0.97,0.88,1.52,1.25
			c0.54,0.36,1.12,0.67,1.72,0.92c0.61,0.25,1.24,0.44,1.87,0.56c0.65,0.13,1.31,0.2,1.96,0.2c0.65,0,1.31-0.07,1.95-0.2
			c0.64-0.12,1.27-0.31,1.87-0.56c0.61-0.25,1.19-0.56,1.73-0.92c0.55-0.37,1.06-0.79,1.52-1.25c0.46-0.46,0.88-0.97,1.24-1.52
			c0.36-0.54,0.67-1.12,0.92-1.72c0.25-0.61,0.44-1.24,0.57-1.87c0.13-0.65,0.2-1.31,0.2-1.96
			C51.11,312.09,51.04,311.43,50.91,310.79z"/>
	</g>
</g>
<g>
	<g>
		<path d="M291.66,132.59c-0.12-0.64-0.32-1.27-0.57-1.87c-0.25-0.61-0.56-1.19-0.92-1.73c-0.36-0.55-0.78-1.06-1.24-1.52
			c-0.46-0.46-0.97-0.88-1.52-1.24c-0.54-0.36-1.12-0.67-1.73-0.92c-0.6-0.25-1.23-0.44-1.87-0.57c-1.29-0.26-2.61-0.26-3.9,0
			c-0.64,0.13-1.27,0.32-1.87,0.57c-0.61,0.25-1.19,0.56-1.73,0.92c-0.55,0.36-1.06,0.78-1.52,1.24c-0.46,0.46-0.88,0.97-1.25,1.52
			c-0.36,0.54-0.66,1.12-0.91,1.73c-0.25,0.6-0.45,1.23-0.57,1.87c-0.13,0.64-0.2,1.3-0.2,1.95c0,0.65,0.07,1.31,0.2,1.96
			c0.12,0.63,0.32,1.26,0.57,1.87c0.25,0.6,0.56,1.18,0.91,1.72c0.37,0.55,0.79,1.06,1.25,1.52c1.86,1.86,4.44,2.93,7.07,2.93
			s5.21-1.07,7.07-2.93c0.46-0.46,0.88-0.97,1.24-1.52c0.36-0.54,0.67-1.12,0.92-1.72c0.25-0.61,0.45-1.24,0.57-1.87
			c0.13-0.65,0.2-1.31,0.2-1.96C291.86,133.89,291.79,133.23,291.66,132.59z"/>
	</g>
</g>
<g>
</g>
<g>
</g>
<g>
</g>
<g>
</g>
<g>
</g>
<g>
</g>
<g>
</g>
<g>
</g>
<g>
</g>
<g>
</g>
<g>
</g>
<g>
</g>
<g>
</g>
<g>
</g>
<g>
</g>
</svg>
