<?xml version="1.0" encoding="utf-8"?><svg width="502" height="379" viewBox="0 0 502 379" xmlns="http://www.w3.org/2000/svg" xmlns:xlink="http://www.w3.org/1999/xlink"><svg width="22" height="22" viewBox="-1 -1 22 22" id="aircraft-take-off" x="416" y="326.16999999999996" xmlns="http://www.w3.org/2000/svg"><path d="M19.87 6.453c.119.257.127 1.29-4.884 3.642l-4.913 2.306c-1.71.803-4.191 1.859-5.285 2.151-.766.204-1.497-.316-1.497-.316S1.085 12.261.499 11.817c-.585-.444-.535-.67.215-.91.467-.149 3.13.493 4.265.78A91.697 91.697 0 0 1 8.12 9.889c-1.396-1.033-4.008-2.962-4.841-3.55-.799-.565.01-.768.01-.768.368-.099 1.162-.228 1.562-.144 2.721.569 7.263 2.071 7.611 2.186a90.641 90.641 0 0 1 2.922-1.465c2.075-.974 4.327-.037 4.486.305z"/></svg><svg width="52" height="52" viewBox="-1 -1 52 52" id="alarmclock" x="260" y="222.17" xmlns="http://www.w3.org/2000/svg"><path d="M34.457 25.066h-6.14a3.432 3.432 0 0 0-2.458-2.457v-8.722a.86.86 0 0 0-1.719 0v8.722a3.435 3.435 0 0 0-2.581 3.317A3.44 3.44 0 0 0 25 29.363a3.431 3.431 0 0 0 3.316-2.578h6.141c.477 0 .86-.383.86-.86a.857.857 0 0 0-.86-.859zM25 27.645a1.719 1.719 0 1 1 0-3.438 1.719 1.719 0 0 1 0 3.438zm0 0"/><path d="M43.152 8.395l3.52 3.523c.164.16.383.25.61.25.226 0 .445-.09.609-.25a6.99 6.99 0 0 0 0-9.875 6.99 6.99 0 0 0-9.875 0 .845.845 0 0 0-.254.605c0 .23.09.45.254.61l3.922 3.922-1.461 1.46A23.12 23.12 0 0 0 25 2.71c-5.941 0-11.363 2.247-15.473 5.93L8.063 7.18l3.921-3.922a.847.847 0 0 0 .254-.61.845.845 0 0 0-.254-.605 6.99 6.99 0 0 0-9.875 0 6.99 6.99 0 0 0 0 9.875c.164.16.383.25.61.25.226 0 .445-.09.61-.25l3.519-3.523 1.441 1.44c-4.023 4.177-6.504 9.849-6.504 16.09 0 8.512 4.606 15.962 11.453 20.005l-2.601 2.601a.856.856 0 0 0 0 1.219.861.861 0 0 0 1.215 0l2.964-2.969A23.08 23.08 0 0 0 25 49.141c3.648 0 7.105-.852 10.184-2.36l2.964 2.969a.87.87 0 0 0 .61.25.868.868 0 0 0 .605-.25.863.863 0 0 0 0-1.219l-2.601-2.601c6.847-4.043 11.453-11.492 11.453-20.004 0-6.242-2.48-11.914-6.504-16.09zm3.52-5.137c1.848 1.844 2.031 4.73.558 6.785l-7.343-7.344c2.054-1.472 4.941-1.289 6.785.559zM2.77 10.043c-1.473-2.055-1.29-4.941.558-6.785a5.273 5.273 0 0 1 6.785-.559zM25 47.422c-11.852 0-21.496-9.645-21.496-21.496C3.504 14.074 13.148 4.43 25 4.43c11.852 0 21.496 9.644 21.496 21.496 0 11.851-9.644 21.496-21.496 21.496zm0 0"/><path d="M42.094 16a19.888 19.888 0 0 0-7.168-7.168c-.016-.008-.024-.023-.04-.031-.015-.012-.03-.012-.046-.02A19.673 19.673 0 0 0 25 6.148c-3.582 0-6.941.961-9.84 2.633-.015.008-.031.008-.047.02-.015.008-.023.023-.039.031A19.919 19.919 0 0 0 7.906 16c-.008.016-.023.023-.031.04-.008.01-.008.03-.016.046a19.633 19.633 0 0 0-2.632 9.84c0 3.582.96 6.941 2.632 9.84.008.015.008.03.016.047.012.023.027.039.043.058a19.955 19.955 0 0 0 7.156 7.149c.016.007.024.023.04.03.023.016.046.02.066.032A19.701 19.701 0 0 0 25 45.699a19.69 19.69 0 0 0 9.82-2.617c.02-.012.047-.016.067-.031.015-.008.023-.024.039-.031a19.925 19.925 0 0 0 7.156-7.149c.016-.02.031-.035.043-.059.012-.015.012-.03.016-.046a19.647 19.647 0 0 0 2.636-9.84c0-3.582-.965-6.942-2.636-9.84-.008-.016-.004-.031-.016-.047-.008-.016-.023-.023-.031-.039zm-7.34 25.098l-.41-.711a.861.861 0 0 0-1.492.86l.414.714a17.927 17.927 0 0 1-7.407 1.977v-.817a.86.86 0 0 0-1.719 0v.816a17.927 17.927 0 0 1-7.406-1.976l.414-.715a.854.854 0 0 0-.316-1.172.855.855 0 0 0-1.172.313l-.41.71a18.2 18.2 0 0 1-5.422-5.417l.711-.41a.866.866 0 0 0 .316-1.176.862.862 0 0 0-1.175-.317l-.711.414a17.93 17.93 0 0 1-1.98-7.406h.816c.476 0 .86-.383.86-.86a.857.857 0 0 0-.86-.859h-.817c.125-2.66.82-5.168 1.977-7.406l.715.414a.839.839 0 0 0 .425.113c.301 0 .586-.152.747-.43a.856.856 0 0 0-.313-1.171l-.71-.414a18.186 18.186 0 0 1 5.417-5.418l.41.71c.16.274.45.43.746.43.145 0 .293-.039.43-.117a.856.856 0 0 0 .313-1.172l-.41-.714a17.927 17.927 0 0 1 7.406-1.977v.816a.86.86 0 0 0 1.718 0v-.816c2.657.125 5.164.82 7.403 1.977l-.41.714a.856.856 0 0 0 .312 1.172.868.868 0 0 0 .43.118.867.867 0 0 0 .746-.43l.41-.711a18.141 18.141 0 0 1 5.418 5.418l-.707.41a.86.86 0 1 0 .86 1.488l.71-.41a17.93 17.93 0 0 1 1.98 7.406h-.816a.86.86 0 0 0 0 1.719h.817a17.912 17.912 0 0 1-1.98 7.402l-.712-.41a.862.862 0 0 0-1.175.317.855.855 0 0 0 .316 1.172l.707.41a18.141 18.141 0 0 1-5.414 5.422zm0 0"/></svg><svg width="52" height="52" viewBox="-1 -1 52 52" id="badtenant" x="416" y="222.17" xmlns="http://www.w3.org/2000/svg"><path d="M36.113 19.043c-2.386 4.152-6.422 7.363-11.113 7.363s-8.727-3.21-11.113-7.36c-4.79 2.27-8.11 7.134-8.11 12.786V44.43a4.842 4.842 0 0 0 4.84 4.843h28.758a4.841 4.841 0 0 0 4.848-4.843V31.832c0-5.652-3.32-10.52-8.11-12.789zm-3.851 22.305a2.065 2.065 0 0 1 0 2.93c-.403.406-.934.609-1.465.609a2.046 2.046 0 0 1-1.461-.61L25 39.941l-4.336 4.336a2.068 2.068 0 0 1-2.93 0 2.072 2.072 0 0 1 0-2.93l4.336-4.331-4.336-4.336a2.072 2.072 0 0 1 2.93-2.93L25 34.086l4.336-4.336a2.068 2.068 0 0 1 2.926 0 2.065 2.065 0 0 1 0 2.93l-4.332 4.336zm0 0"/><path d="M25 23.148c5.617 0 10.168-6.64 10.168-12.253C35.168 5.277 30.618.727 25 .727a10.166 10.166 0 0 0-10.168 10.168c0 5.617 4.55 12.253 10.168 12.253zm0 0"/></svg><svg width="22" height="22" viewBox="-1 -1 22 22" id="bookmark" x="468" y="274.16999999999996" xmlns="http://www.w3.org/2000/svg"><path d="M14 2v17l-4-4-4 4V2c0-.553.585-1.02 1-1h6c.689-.02 1 .447 1 1z"/></svg><svg width="52" height="52" viewBox="-1 -1 52 52" id="burden" x="52" y="170.17" xmlns="http://www.w3.org/2000/svg"><path d="M7.957 48.555c-.508-.508-.664-.828-.664-1.364 0-.793 4.477-11.527 5.035-12.066.184-.18 1.871-.906 3.746-1.613 1.875-.711 3.473-1.356 3.547-1.434.336-.355 1.57-4.832 1.5-5.441-.043-.364-.055-.66-.023-.66.027 0 .894.449 1.925 1 2.004 1.07 2.075 1.082 4.582.617.653-.121.66-.133.196-.266-.27-.078-.914-.148-1.434-.16-.808-.016-1.594-.36-5.469-2.383-2.488-1.297-4.671-2.492-4.855-2.656-.754-.672-.594-2.313.305-3.16.578-.543 3.199-.922 5.007-.723 1.215.133 1.29.176 1.758.922.27.434 1.032 1.305 1.692 1.941.664.637 1.144 1.157 1.074 1.153-.07 0-.828-.219-1.68-.485-.851-.265-1.578-.453-1.61-.418-.034.032.821.524 1.9 1.086l1.96 1.028 4.707.746c3.817.61 4.785.824 5.102 1.144.535.535.492 1.575-.086 2.043-.395.32-.692.344-2.797.235-1.293-.07-2.582-.168-2.867-.223l-.512-.094-.082 3.184c-.094 3.746-.25 4.234-1.43 4.586-.43.129-3.558.902-6.953 1.722l-6.172 1.489-2.027 4.82c-2.262 5.379-2.73 6.094-3.988 6.094-.563 0-.871-.149-1.387-.664zm21.98.015c-3.308-2.015-8.558-5.511-9.023-6.008-.676-.726-.691-1.484-.066-3.023l.468-1.148 2.899-.735c1.598-.402 3.058-.734 3.25-.738.265-.004.074.398-.852 1.773-.894 1.336-1.136 1.836-.968 2.004.12.121 1.863 1.285 3.875 2.582 3.351 2.168 3.675 2.426 3.93 3.149.35.996.042 1.883-.848 2.426-.856.52-1.454.457-2.664-.282zM32 22.922c-3.695-.559-7.047-2.965-8.547-6.125C18.91 7.207 28.707-2.602 38.27 1.96c1.964.937 3.949 2.926 4.93 4.934.905 1.859 1.202 3.117 1.202 5.085 0 5.786-4.554 10.579-10.39 10.942-.785.05-1.692.047-2.012 0zm-2.71-4.637c.51-.644.542-.656 1.17-.39.825.343 2.247.347 3.063.003.852-.355 1.832-1.511 2.09-2.464.282-1.043-.004-2.067-.898-3.239l-.692-.906 1.93-2.922.2.57c.109.317.156.973.1 1.461-.089.801-.05.926.419 1.23.742.49 1.394.153 1.668-.855.113-.425.168-.89.125-1.035a12.049 12.049 0 0 1-.203-.8c-.063-.293-.395-.848-.73-1.235-.614-.7-.618-.703-.274-1.281.633-1.07-.176-1.621-.953-.652-.395.492-.41.496-1.254.195-1.14-.402-1.692-.38-2.703.11-.621.3-1.012.687-1.442 1.417-.77 1.32-.695 2.258.301 3.762l.723 1.086-1.028 1.562c-.949 1.45-1.047 1.54-1.3 1.203-.204-.27-.243-.71-.153-1.765.117-1.348.102-1.422-.363-1.727-.617-.402-1.05-.316-1.516.305-.843 1.133-.605 3.02.547 4.293l.684.758-.45.797c-.394.687-.413.82-.16.984.442.285.528.25 1.098-.465zm1.69-2.008c-.16-.062.09-.586.739-1.547.535-.796 1.015-1.449 1.062-1.449.176 0 .684 1.164.684 1.567 0 .62-1.031 1.562-1.695 1.543-.301-.008-.66-.059-.79-.114zm1.93-6.422c-.324-.714-.281-1.14.18-1.722.297-.38.582-.516 1.074-.516.367 0 .668.094.668.207 0 .196-1.512 2.528-1.637 2.528-.03 0-.16-.223-.285-.497zM10.156 20.81c-2.883-1.028-3.351-4.98-.8-6.727.98-.672 2.566-.762 3.703-.21 2.37 1.144 2.804 4.44.812 6.19-.687.602-1.781 1.036-2.574 1.024-.215-.008-.73-.129-1.14-.277zm0 0"/></svg><svg width="22" height="22" viewBox="-1 -1 22 22" id="chat" x="460" y="326.16999999999996" xmlns="http://www.w3.org/2000/svg"><path d="M5.8 12.2V6H2C.9 6 0 6.9 0 8v6c0 1.1.9 2 2 2h1v3l3-3h5c1.1 0 2-.9 2-2v-1.82a.943.943 0 0 1-.2.021l-7-.001zM18 1H9c-1.1 0-2 .9-2 2v8h7l3 3v-3h1c1.1 0 2-.899 2-2V3c0-1.1-.9-2-2-2z"/></svg><svg width="22" height="22" viewBox="-1 -1 22 22" id="chevron-thin-right" x="468" y="192.17" xmlns="http://www.w3.org/2000/svg"><path d="M13.25 10L6.109 2.58a.697.697 0 0 1 0-.979.68.68 0 0 1 .969 0l7.83 7.908a.697.697 0 0 1 0 .979l-7.83 7.908c-.268.271-.701.27-.969 0s-.268-.707 0-.979L13.25 10z"/></svg><svg width="52" height="52" viewBox="-1 -1 52 52" id="closing" x="104" y="170.17" xmlns="http://www.w3.org/2000/svg"><path d="M.02 5.484V38.27h20.296V5.484zm1.562 31.223V7.047h17.172v29.66zm0 0"/><path d="M12.117 0v4.734h1.543V1.543h27.367v46.914H13.66v-9.363h-1.543V50H42.57V0zm0 0"/><path d="M32.387 3.91h6.273v1.543h-6.273zm0 0M23.023 11.008h1.543v1.543h-1.543zm0 0M26.215 11.008H38.66v1.543H26.215zm0 0M23.023 14.094h1.543v1.543h-1.543zm0 0M26.215 14.094H38.66v1.543H26.215zm0 0M23.023 17.18h1.543v1.543h-1.543zm0 0M26.215 17.18H38.66v1.543H26.215zm0 0M23.023 20.371h1.543v1.543h-1.543zm0 0M26.215 20.371H38.66v1.543H26.215zm0 0M23.023 23.457h1.543V25h-1.543zm0 0M26.215 23.457H38.66V25H26.215zm0 0M23.023 26.543h1.543v1.543h-1.543zm0 0M26.215 26.543H38.66v1.543H26.215zm0 0M23.023 29.734h1.543v1.543h-1.543zm0 0M26.215 29.734H38.66v1.543H26.215zm0 0M23.023 32.82h1.543v1.543h-1.543zm0 0M26.215 32.82H38.66v1.543H26.215zm0 0M28.477 36.727h2.367v1.546h-2.367zm0 0M32.387 36.727h6.273v1.546h-6.273zm0 0M28.477 39.094h2.367v1.543h-2.367zm0 0M32.387 39.094h6.273v1.543h-6.273zm0 0M32.387 41.36h6.273v1.542h-6.273zm0 0M16.027 45.266h8.54v1.547h-8.54zm0 0M43.395 13.266v7.824h1.542v-6.27l1.137.004V38.27h3.906V13.293zm5.023 23.441h-.781V14.852h.781zm0 0M46.07 8.64v3.91h1.543v-2.366h.825v2.367h1.542V8.64zm0 0M48.438 41.36v1.484l-.352 1.21-.473-1.242V41.36H46.07v1.735l1.137 2.996h1.895l.878-3.028V41.36zm0 0M46.07 39.094h3.907v1.543H46.07zm0 0M2.363 7.828V25h15.614V7.828zm14.051 15.61H3.926V9.386h12.488zm0 0M2.758 26.543H4.3v1.543H2.758zm0 0M5.844 26.543h1.543v1.543H5.844zm0 0M9.031 26.543h1.543v1.543H9.031zm0 0M12.117 26.543h1.543v1.543h-1.543zm0 0M2.758 28.91H4.3v1.543H2.758zm0 0M5.844 28.91h1.543v1.543H5.844zm0 0M9.031 28.91h1.543v1.543H9.031zm0 0M12.117 28.91h1.543v1.543h-1.543zm0 0M2.758 31.277H4.3v1.543H2.758zm0 0M5.844 31.277h1.543v1.543H5.844zm0 0M9.031 31.277h1.543v1.543H9.031zm0 0M12.117 31.277h1.543v1.543h-1.543zm0 0M2.758 33.64H4.3v1.544H2.758zm0 0M5.844 33.64h1.543v1.544H5.844zm0 0M9.031 33.64h1.543v1.544H9.031zm0 0M12.117 33.64h1.543v1.544h-1.543zm0 0M15.203 26.543h1.543v3.91h-1.543zm0 0M15.203 31.277h1.543v3.907h-1.543zm0 0"/><path d="M9.031 10.184h1.543v1.543H9.031zm0 0M11.297 10.184h1.644v1.543h-1.644zm0 0M13.66 10.184h1.543v1.543H13.66zm0 0"/></svg><svg width="52" height="52" viewBox="-1 -1 52 52" id="codeviolations" x="156" y="170.17" xmlns="http://www.w3.org/2000/svg"><path d="M22.238 20.383h-.687v-2.23h1.75a.798.798 0 0 0 0-1.594h-1.75v-.903a.794.794 0 0 0-.797-.793.794.794 0 0 0-.797.793v.903h-.691a1.86 1.86 0 0 0-1.856 1.859v1.7c0 1.023.832 1.855 1.856 1.855h.691v2.23h-1.75a.795.795 0 0 0-.797.797c0 .441.356.797.797.797h1.75v.902a.798.798 0 0 0 1.594 0v-.902h.687c1.028 0 1.86-.836 1.86-1.86v-1.699a1.858 1.858 0 0 0-1.86-1.855zm-2.281 0h-.691a.265.265 0 0 1-.262-.266v-1.699c0-.145.117-.266.262-.266h.691zm2.547 3.555a.263.263 0 0 1-.266.265h-.687v-2.226h.687c.149 0 .266.117.266.261zm0 0"/><path d="M49.766 21.148l-3.602-3.601a.792.792 0 0 0-1.125 0l-3.531 3.531V.797A.795.795 0 0 0 40.71 0H.797A.795.795 0 0 0 0 .797v38.64a.798.798 0 0 0 1.594 0V1.594h38.32v21.078l-5.777 5.777h-1.973V13.906h2.602a.795.795 0 0 0 .797-.797v-2.546a.795.795 0 0 0-.797-.797h-3.164L21.184 3.098a.796.796 0 0 0-.86 0L9.906 9.766H6.742a.795.795 0 0 0-.797.796v2.547c0 .442.356.797.797.797h2.602V28.45H6.742a.795.795 0 0 0-.797.797v2.547c0 .441.356.797.797.797h23.254l-5.953 5.95c0 .003 0 .003-.004.007a.781.781 0 0 0-.21.328l-1.802 5.406c-.203.61.395 1.211 1.004 1.008l5.407-1.8a.843.843 0 0 0 .332-.216l.007-.007 4.875-4.97a.792.792 0 0 0-.011-1.124.796.796 0 0 0-1.125.008l-4.309 4.394-2.473-2.469 16.84-16.84 2.477 2.477-9.04 9.035a.804.804 0 0 0 0 1.13.8.8 0 0 0 1.126 0l2.777-2.778v8.637h-6.848a.794.794 0 0 0-.793.797v6.843H1.593v-4.722a.798.798 0 0 0-1.593 0v5.52c0 .44.355.796.797.796h32.27c.21 0 .417-.086.566-.234l7.64-7.641a.808.808 0 0 0 .235-.566V30.535l8.258-8.258a.797.797 0 0 0 0-1.129zM26.75 42.371l-2.71.902.901-2.707zM20.754 4.715l7.894 5.05H12.86zM7.539 12.313v-.954h26.43v.954zm23.035 1.593V28.45h-2.656V13.906zm-4.246 0V28.45H15.18V13.906zm-12.738 0V28.45h-2.656V13.906zm17.996 17.09H7.539v-.953h25.004zm2.277 16.285v-4.926h4.926zm12.313-23.668l-2.477-2.476 1.903-1.903 2.476 2.48zm0 0"/><path d="M20.328 39.492H10.137a.794.794 0 1 0 0 1.59h10.191a.795.795 0 1 0 0-1.59zm0 0M21.18 43.738H10.137a.794.794 0 1 0 0 1.59H21.18a.794.794 0 0 0 0-1.59zm0 0M20.328 35.242H10.137a.797.797 0 0 0 0 1.594h10.191a.798.798 0 0 0 0-1.594zm0 0"/></svg><svg width="52" height="52" viewBox="-1 -1 52 52" id="doublepayments" x="208" y="170.17" xmlns="http://www.w3.org/2000/svg"><path d="M49.672 28.504L35.504 17.672a.827.827 0 0 0-1.012 0L20.801 28.145l-9.504-6.336a.832.832 0 0 0-.926 0l-10 6.664a.839.839 0 0 0-.371.695v20c0 .46.371.832.832.832h48.336a.83.83 0 0 0 .832-.832v-20a.836.836 0 0 0-.328-.664zm-36.34 19.828h-5V36.668h5zm6.668 0h-5v-12.5a.83.83 0 0 0-.832-.832H7.5a.83.83 0 0 0-.832.832v12.5h-5V33.777l9.164-6.109L20 33.778zm0-16.555l-8.703-5.804a.832.832 0 0 0-.926 0l-8.703 5.804v-2.164l9.164-6.113L20 29.613zm28.332 16.555H21.668V33.746L35 23.551l13.332 10.195zm0-16.684L35.504 21.84a.827.827 0 0 0-1.012 0l-12.824 9.808v-2.07L35 19.383l13.332 10.195zm0 0"/><path d="M47.332.336a.833.833 0 0 0-.809-.324L35.687 1.91a.843.843 0 0 0-.628.508.84.84 0 0 0 .097.8l1.078 1.489-15.433 11.77-9.504-6.336a.832.832 0 0 0-.926 0l-10 6.668a.829.829 0 0 0-.25 1.12l2.5 4.169a.846.846 0 0 0 .531.382.82.82 0 0 0 .645-.12l7.035-4.692 9.54 6.36a.83.83 0 0 0 .956-.024l18.805-13.906.887 1.222a.831.831 0 0 0 1.422-.117l4.972-10a.83.83 0 0 0-.082-.867zm-5.77 8.89l-.574-.789a.839.839 0 0 0-.547-.335.821.821 0 0 0-.62.156L20.808 22.316l-9.512-6.343a.833.833 0 0 0-.926 0l-6.773 4.515-1.641-2.734 8.875-5.918 9.54 6.355c.292.2.683.188.968-.027L37.895 5.543a.834.834 0 0 0 .167-1.152l-.773-1.07 7.898-1.384zm0 0M46.668 15.832a1.666 1.666 0 1 1 1.664-1.664H50a3.327 3.327 0 0 0-2.5-3.215V9.168h-1.668v1.785a3.327 3.327 0 0 0-2.5 3.215 3.338 3.338 0 0 0 3.336 3.332A1.666 1.666 0 1 1 45 19.168h-1.668c0 1.547 1.066 2.84 2.5 3.215v1.785H47.5v-1.785c1.434-.375 2.5-1.668 2.5-3.215a3.338 3.338 0 0 0-3.332-3.336zm0 0M45 35H25a.83.83 0 0 0-.832.832v7.5c0 .461.371.836.832.836h20c.46 0 .832-.375.832-.836v-7.5A.83.83 0 0 0 45 35zm-14.168 7.5h-5v-5.832h5zm6.668 0h-5v-5.832h5zm6.668 0h-5v-5.832h5zm0 0M30.832 31.668H32.5v1.664h-1.668zm0 0M34.168 31.668h1.664v1.664h-1.664zm0 0M37.5 31.668h1.668v1.664H37.5zm0 0M16.668 0h10v1.668h-10zm0 0M13.332 0H15v1.668h-1.668zm0 0M10 0h1.668v1.668H10zm0 0M6.668 0h1.664v1.668H6.668zm0 0M10 3.332h10V5H10zm0 0M6.668 3.332h1.664V5H6.668zm0 0M3.332 3.332H5V5H3.332zm0 0M0 3.332h1.668V5H0zm0 0"/></svg><svg width="52" height="52" viewBox="-1 -1 52 52" id="facebook" x="260" y="170.17" xmlns="http://www.w3.org/2000/svg"><path d="M43.262 0H6.738A6.737 6.737 0 0 0 0 6.738v36.524A6.737 6.737 0 0 0 6.738 50H24.75l.031-17.867h-4.64a1.091 1.091 0 0 1-1.094-1.09l-.024-5.762a1.093 1.093 0 0 1 1.094-1.097h4.633v-5.567c0-6.457 3.945-9.972 9.707-9.972h4.727c.605 0 1.097.488 1.097 1.093v4.856c0 .605-.492 1.097-1.097 1.097h-2.899c-3.133 0-3.742 1.489-3.742 3.672v4.82h6.887c.656 0 1.164.57 1.086 1.223l-.684 5.762a1.09 1.09 0 0 1-1.086.965h-6.172L32.543 50h10.719A6.737 6.737 0 0 0 50 43.262V6.738A6.737 6.737 0 0 0 43.262 0zm0 0" fill="#475993"/></svg><svg width="52" height="52" viewBox="-1 -1 52 52" id="for-rent" x="312" y="170.17" xmlns="http://www.w3.org/2000/svg"><path d="M17.086 14.441v1.52h2.945v1.316h-2.945v2.418h-1.668V13.13h4.867v1.312zm0 0M27.988 16.402c0 1.914-1.52 3.371-3.554 3.371-2.028 0-3.547-1.445-3.547-3.37 0-1.915 1.52-3.329 3.547-3.329 2.035 0 3.554 1.426 3.554 3.328zm-5.394.012c0 1.106.855 1.961 1.86 1.961 1.01 0 1.816-.855 1.816-1.96 0-1.11-.805-1.942-1.817-1.942-1.015 0-1.86.832-1.86 1.941zm0 0M32.086 17.848h-1.313v1.847h-1.668V13.13h2.934c1.738 0 2.73.824 2.73 2.289 0 1.004-.421 1.727-1.19 2.113l1.378 2.164h-1.895zm-.047-1.313c.723 0 1.145-.367 1.145-1.058 0-.688-.422-1.036-1.145-1.036h-1.266v2.094zm0 0M15.18 26.2h-1.317v1.847h-1.668V21.48h2.938c1.734 0 2.726.825 2.726 2.29 0 1.003-.422 1.726-1.191 2.109l1.379 2.168h-1.895zm-.047-1.313c.719 0 1.144-.367 1.144-1.063 0-.683-.425-1.031-1.144-1.031h-1.27v2.094zm0 0M20.89 22.793v1.305h3.133v1.312h-3.132v1.324h3.574v1.313h-5.242V21.48h5.14v1.313zm0 0M30.367 28.047l-3.023-4.043v4.043h-1.567V21.48h1.473l3.031 4.051v-4.05h1.559v6.566zm0 0M36.426 22.82v5.227h-1.668V22.82h-1.961V21.47h5.61v1.351zm0 0"/><path d="M50 6.188H30.512V0H19.488v6.188H0v28.75h19.488V50h11.024V34.937H50zM22.582 3.094h4.836v3.094h-4.836zm4.836 43.812h-4.836V34.938h4.836zm19.488-15.062H3.094V9.277h43.812zm0 0"/></svg><svg width="52" height="52" viewBox="-1 -1 52 52" id="givemoney" x="364" y="170.17" xmlns="http://www.w3.org/2000/svg"><path d="M37.406 15.375c-1.492-.602-1.926-.96-1.926-1.617 0-.524.399-1.133 1.516-1.133.988 0 1.746.39 1.754.39a.524.524 0 0 0 .746-.266l.27-.694a.427.427 0 0 0-.23-.551c-.61-.266-1.802-.473-1.813-.473-.02-.004-.086-.02-.086-.097l-.004-1.008c0-.301-.25-.547-.563-.547h-.488a.557.557 0 0 0-.562.547v1.058c0 .082-.086.118-.118.125-1.504.36-2.441 1.457-2.441 2.848 0 1.727 1.43 2.508 2.973 3.098 1.234.484 1.738.972 1.738 1.695 0 .785-.715 1.332-1.734 1.332-.872 0-2.055-.555-2.067-.559a.528.528 0 0 0-.734.293l-.258.7a.453.453 0 0 0 .23.57c.723.379 2.125.602 2.188.61.02.003.105.03.105.109v1.054c0 .305.25.551.563.551h.504a.555.555 0 0 0 .562-.55v-1.11c0-.102.078-.113.094-.117 1.602-.36 2.586-1.528 2.586-3 0-1.508-.84-2.485-2.805-3.258zm0 0"/><path d="M36.777 3.172c-7.3 0-13.218 5.918-13.218 13.223 0 7.3 5.918 13.218 13.218 13.218C44.082 29.613 50 23.695 50 16.395 50 9.09 44.082 3.172 36.777 3.172zm0 23.379c-5.609 0-10.156-4.547-10.156-10.156 0-5.61 4.547-10.157 10.156-10.157 5.61 0 10.16 4.547 10.16 10.157 0 5.609-4.55 10.156-10.16 10.156zm0 0M47.313 36.023c-2.81 1.551-6.676 2.985-10.536 3.59-3.43.54-9.882-.758-9.882-2.293 0-.578 5.66 1.434 9.085.52 2.625-.703 2.25-3.156.825-3.48-1.422-.325-9.742-3.372-13.293-3.477-1.676-.051-5.809.582-7.809.906-.683.113-1.113.102-1.156.758-.2 3.047-.59 9.277-.805 12.531-.004.067.09.992.856.344.832-.715 2.004-1.504 3.09-1.258 1.699.387 16.406 3.082 18.433 2.61 2.902-.676 11.117-5.544 12.695-7.06 2.442-2.343.543-4.82-1.504-3.69zm0 0M10.488 31.672l-7.703-.379c-.598-.031-1.203.418-1.351.996L.03 45.008c-.144.578.219 1.066.817 1.09h8.539a1.139 1.139 0 0 0 1.164-1.04l.937-12.253a1.053 1.053 0 0 0-1-1.133zM5.953 44.414a2.132 2.132 0 0 1-2.129-2.133 2.129 2.129 0 1 1 4.258 0 2.132 2.132 0 0 1-2.129 2.133zm0 0"/></svg><svg width="52" height="52" viewBox="-1 -1 52 52" id="goingdown" x="416" y="170.17" xmlns="http://www.w3.org/2000/svg"><path d="M50 46.875V50H0V0h3.125v46.875zm-5.262-17.543l-4.406-11.656-2.957 3.613L11.352 0 9.375 2.422l26.02 21.289-2.958 3.613zM9.375 6.457V43.75h6.25V11.57zm9.375 7.672V43.75H25V19.242zm9.375 15.656V43.75h6.25V30.809zm9.375 1.531V43.75h6.25V32.336zm0 0"/></svg><svg width="52" height="52" viewBox="-1 -1 52 52" id="google-plus" y="222.17" xmlns="http://www.w3.org/2000/svg"><g fill="#f34a38"><path d="M17.543 28.3h7.812c-1.37 3.876-5.085 6.657-9.433 6.626-5.277-.04-9.637-4.262-9.844-9.531-.219-5.653 4.317-10.32 9.918-10.32 2.563 0 4.899.976 6.664 2.577.414.38 1.05.38 1.461-.007l2.871-2.7a1.07 1.07 0 0 0 0-1.558 15.913 15.913 0 0 0-10.676-4.38C7.496 8.837.063 16.068 0 24.888c-.063 8.886 7.125 16.11 15.996 16.11 8.531 0 15.504-6.68 15.969-15.099.012-.105.023-3.671.023-3.671H17.543c-.594 0-1.07.48-1.07 1.074v3.926a1.07 1.07 0 0 0 1.07 1.074zm0 0M45.223 22.586v-3.84a.938.938 0 0 0-.938-.937h-3.23a.939.939 0 0 0-.942.937v3.84h-3.836a.939.939 0 0 0-.941.937v3.23c0 .52.422.942.941.942h3.836v3.836c0 .52.422.942.942.942h3.23a.941.941 0 0 0 .938-.942v-3.836h3.84a.941.941 0 0 0 .937-.941v-3.23a.938.938 0 0 0-.938-.938zm0 0"/></g></svg><svg width="52" height="52" viewBox="-1 -1 52 52" id="hammer" x="52" y="222.17" xmlns="http://www.w3.org/2000/svg"><path d="M33.422 32.629l-2.188 2.191 2.192 2.192 15.886-15.887-2.19-2.191-2.188 2.187L28.19 4.383l2.192-2.192L28.188 0 12.3 15.887l2.195 2.191 2.188-2.187 7.273 7.273L.078 47.043l2.195 2.191 23.875-23.879zM26 6.574l16.738 16.742-7.12 7.122-16.74-16.739zm0 0"/><path d="M21.313 39.66V50h28.609V39.66zm25.507 7.238H24.414v-4.136H46.82zm0 0"/></svg><svg width="22" height="22" viewBox="-1 -1 22 22" id="home" x="468" y="296.16999999999996" xmlns="http://www.w3.org/2000/svg"><path d="M18.672 11H17v6c0 .445-.194 1-1 1h-4v-6H8v6H4c-.806 0-1-.555-1-1v-6H1.328c-.598 0-.47-.324-.06-.748L9.292 2.22c.195-.202.451-.302.708-.312.257.01.513.109.708.312l8.023 8.031c.411.425.539.749-.059.749z"/></svg><svg width="52" height="52" viewBox="-1 -1 52 52" id="housesale" x="104" y="222.17" xmlns="http://www.w3.org/2000/svg"><path d="M48 21.957L26.406 3.391a2.157 2.157 0 0 0-2.812 0L2 21.957a2.163 2.163 0 0 0-.227 3.047 2.159 2.159 0 0 0 3.043.23L25 7.875l20.184 17.36c.406.347.906.519 1.406.519.605 0 1.21-.254 1.637-.75A2.163 2.163 0 0 0 48 21.957zm0 0"/><path d="M25.707 10.902a1.08 1.08 0 0 0-1.414 0L8.023 24.938a1.075 1.075 0 0 0-.375.816V46.05c0 .597.485 1.078 1.082 1.078h32.54c.597 0 1.082-.48 1.082-1.078V25.754c0-.313-.137-.613-.375-.817zm-.703 32.723c-6.55 0-11.879-5.328-11.879-11.879 0-6.543 5.328-11.871 11.879-11.871 6.547 0 11.871 5.328 11.871 11.871 0 6.55-5.324 11.879-11.871 11.879zm0 0"/><path d="M26.781 30.297l-1.308-.766V25.11c.492 0 .992.36 1.172 1.215.152.742.355 1.328 1.324 1.328.742 0 1.234-.586 1.234-1.304 0-2.047-1.687-3.395-3.73-3.395v-.586c0-.36-.157-.605-.516-.605-.355 0-.516.246-.516.605v.586c-2.468.067-3.91 1.863-3.91 4.223 0 1.887.86 3.238 2.469 4.273l1.441.914v4.907c-.945-.098-1.394-.79-1.503-1.895-.118-1.035-.543-1.48-1.333-1.48-.851 0-1.234.718-1.234 1.527 0 2.273 1.711 4.008 4.07 4.008v1.722c0 .336.16.582.516.582.36 0 .516-.246.516-.582V39.43c2.648-.137 4.156-1.867 4.156-4.754 0-2.106-1.14-3.387-2.848-4.38zm-2.34-1.324c-1.097-.875-1.347-1.278-1.347-2.094 0-.942.449-1.606 1.347-1.77zm1.032 8.297v-4.368c.941.516 1.414 1.192 1.414 2.29 0 .992-.54 1.937-1.414 2.078zm0 0"/></svg><svg width="52" height="52" viewBox="-1 -1 52 52" id="instagram" x="156" y="222.17" xmlns="http://www.w3.org/2000/svg"><defs><linearGradient id="asa" gradientUnits="userSpaceOnUse" x1="275.517" y1="4.57" x2="275.517" y2="549.72" gradientTransform="matrix(.09074 0 0 -.09074 0 50.27)"><stop offset="0" stop-color="#e09b3d"/><stop offset=".3" stop-color="#c74c4d"/><stop offset=".6" stop-color="#c21975"/><stop offset="1" stop-color="#7024c4"/></linearGradient><linearGradient id="asb" gradientUnits="userSpaceOnUse" x1="275.517" y1="4.57" x2="275.517" y2="549.72" gradientTransform="matrix(.09074 0 0 -.09074 0 50.27)"><stop offset="0" stop-color="#e09b3d"/><stop offset=".3" stop-color="#c74c4d"/><stop offset=".6" stop-color="#c21975"/><stop offset="1" stop-color="#7024c4"/></linearGradient><linearGradient id="asc" gradientUnits="userSpaceOnUse" x1="418.31" y1="4.57" x2="418.31" y2="549.72" gradientTransform="matrix(.09074 0 0 -.09074 0 50.27)"><stop offset="0" stop-color="#e09b3d"/><stop offset=".3" stop-color="#c74c4d"/><stop offset=".6" stop-color="#c21975"/><stop offset="1" stop-color="#7024c4"/></linearGradient></defs><path d="M35.105 0h-20.21C6.684 0 0 6.684 0 14.895v20.21C0 43.316 6.684 50 14.895 50h20.21C43.316 50 50 43.316 50 35.105v-20.21C50 6.684 43.316 0 35.105 0zm9.864 35.105a9.86 9.86 0 0 1-9.864 9.864h-20.21a9.86 9.86 0 0 1-9.864-9.864v-20.21a9.86 9.86 0 0 1 9.864-9.864h20.21a9.86 9.86 0 0 1 9.864 9.864zm0 0" fill="url(#asa)"/><path d="M25 12.066c-7.129 0-12.934 5.805-12.934 12.934S17.871 37.934 25 37.934 37.934 32.129 37.934 25 32.129 12.066 25 12.066zm0 20.836A7.904 7.904 0 0 1 17.098 25 7.904 7.904 0 0 1 25 17.098 7.904 7.904 0 0 1 32.902 25 7.904 7.904 0 0 1 25 32.902zm0 0" fill="url(#asb)"/><path d="M41.055 12.164a3.1 3.1 0 0 1-3.098 3.102 3.1 3.1 0 0 1 0-6.2 3.097 3.097 0 0 1 3.098 3.098zm0 0" fill="url(#asc)"/></svg><svg width="22" height="22" viewBox="-1 -1 22 22" id="key" x="468" y="170.17" xmlns="http://www.w3.org/2000/svg"><path d="M17.691 4.725c-.503-2.977-3.22-4.967-6.069-4.441S6.366 3.1 6.869 6.079c.107.641.408 1.644.763 2.365l-5.175 7.723c-.191.285-.299.799-.242 1.141l.333 1.971a.612.612 0 0 0 .7.514l1.516-.281c.328-.059.744-.348.924-.639l2.047-3.311.018-.022 1.386-.256 2.39-3.879c.785.139 1.912.092 2.578-.031 2.848-.526 4.087-3.67 3.584-6.649zm-2.525 1.527c-.784 1.17-1.584.346-2.703-.475-1.119-.818-2.135-1.322-1.352-2.492s2.326-1.455 3.447-.635c1.12.819 1.391 2.432.608 3.602z"/></svg><svg width="52" height="52" viewBox="-1 -1 52 52" id="listed" x="208" y="222.17" xmlns="http://www.w3.org/2000/svg"><path d="M13.32 5.473h8.703a.79.79 0 0 0 .793-.79.793.793 0 0 0-.793-.788H13.32a.793.793 0 0 0-.793.789c0 .437.356.789.793.789zm0 0M13.32 8.957h17.41a.79.79 0 0 0 0-1.578H13.32a.793.793 0 0 0-.793.789c0 .437.356.789.793.789zm0 0M13.32 19.813h8.703a.79.79 0 1 0 0-1.579H13.32a.79.79 0 1 0 0 1.578zm0 0M13.32 23.297h17.22c.437 0 .788-.352.788-.79a.787.787 0 0 0-.789-.788H13.32a.79.79 0 1 0 0 1.578zm0 0M13.32 34.152h8.703a.793.793 0 0 0 .793-.789.79.79 0 0 0-.793-.789H13.32a.79.79 0 0 0-.793.79c0 .433.356.788.793.788zm0 0M30.418 36.059H13.32a.79.79 0 0 0-.793.789c0 .433.356.789.793.789h17.098a.79.79 0 1 0 0-1.578zm0 0"/><path d="M46.258 39.531l-4.586-1.836v-1.008a5.427 5.427 0 0 0 2.621-3.277 2.789 2.789 0 1 0 1.637-5.04v-2.097c0-3.902-3.176-7.074-7.078-7.074h-.524c-.586 0-1.152.07-1.695.207V15.13a.79.79 0 0 0-.79-.79h-2.347a.79.79 0 0 0 0 1.579h1.555v4.086a7.089 7.089 0 0 0-3.766 5.61H1.578v-9.696h29.277a.79.79 0 0 0 0-1.578H.79a.787.787 0 0 0-.789.789v11.273c0 .438.352.79.79.79h30.464v1.171c-.133.094-.254.2-.367.317H.789a.787.787 0 0 0-.789.789v11.273c0 .438.352.79.79.79h27.46c-.668.917-1.168 2.152-1.168 3.753v3.926c0 .434.355.789.79.789h2.983a.79.79 0 0 0 0-1.578h-2.19v-3.137c0-3.285 2.581-4.226 2.687-4.262.011-.003.023-.011.035-.015l4.324-1.692c.02.024.039.047.062.07l2.266 2.208a.787.787 0 0 0 .55.226c.005 0 .009 0 .013-.004.21 0 .41-.09.558-.238l2.215-2.3 4.316 1.73c.008.004.024.008.036.012.109.039 2.695.98 2.695 4.265v3.137h-15.04a.79.79 0 1 0 0 1.578h15.829c.437 0 .789-.36.789-.797v-3.918c0-3.535-2.434-5.3-3.742-5.754zM44.496 29.43c.566.101.996.597.996 1.191 0 .594-.43 1.086-.996 1.192zm-11.664-3.157a5.501 5.501 0 0 1 5.496-5.496h.524c3.03 0 5.5 2.465 5.5 5.496v1.29c-.004 0-.004-.004-.004-.004a.217.217 0 0 1-.024-.032c-.008-.007-.015-.015-.023-.027l-.028-.027-.023-.024c-.012-.012-.023-.02-.031-.031a.119.119 0 0 1-.028-.02c-.011-.007-.023-.015-.035-.027-.008-.004-.015-.012-.027-.016l-.035-.023c-.012-.004-.024-.012-.035-.016-.012-.007-.024-.011-.036-.02-.011-.003-.027-.007-.039-.015l-.03-.011-.048-.012c-.008-.004-.015-.004-.023-.008-1.719-.39-2.254-2.61-2.262-2.629a.783.783 0 0 0-.61-.601.79.79 0 0 0-.8.312c-2.074 2.871-6.648 2.898-6.711 2.898h-.004c-.027 0-.055.004-.078.004-.008.004-.016.004-.027.004a.229.229 0 0 1-.051.008l-.035.012c-.016.004-.028.004-.043.008-.012.004-.024.011-.035.015l-.036.012c-.015.008-.027.016-.043.02-.007.003-.02.007-.027.015l-.039.024c-.008.003-.016.007-.023.015a.14.14 0 0 0-.04.028c-.007.003-.015.011-.023.015-.012.012-.023.02-.031.031-.008.008-.016.012-.024.02l-.03.031c-.009.008-.016.016-.02.028a.06.06 0 0 0-.024.03c-.008.009-.015.02-.023.028a.085.085 0 0 1-.012.02zm-.125 3.149v2.394a1.208 1.208 0 0 1-1.027-1.195c0-.605.445-1.11 1.027-1.2zm2.828 8.265l-4.707 1.844c-.262.09-.57.235-.894.434a.73.73 0 0 0-.133-.012H1.578v-9.695h28.547a2.739 2.739 0 0 0-.027.363 2.797 2.797 0 0 0 2.793 2.793c.007 0 .015-.004.023-.004a5.413 5.413 0 0 0 2.621 3.278zm4.559.555v.09l-1.52 1.578-1.46-1.422v-1.242c.32.059.652.094.988.094h1c.34 0 .668-.035.992-.094zm-.992-2.484h-1a3.821 3.821 0 0 1-3.817-3.813V28.77c1.38-.118 4.25-.59 6.293-2.485.418.824 1.149 1.82 2.34 2.309v3.351a3.818 3.818 0 0 1-3.816 3.813zm0 0M8.066 4.602a.792.792 0 0 0 0-1.582H4.082a.793.793 0 0 0-.789.792v5.231c0 .437.355.789.789.789h5.492a.79.79 0 0 0 .79-.789v-1.41a.79.79 0 1 0-1.582 0v.62h-3.91V4.603zm0 0"/><path d="M11.117 3.234A.794.794 0 0 0 10 3.27L7.379 6.05l-.813-.882a.79.79 0 1 0-1.164 1.07L6.79 7.746c.149.16.356.254.574.254h.008c.215 0 .426-.09.574-.246l3.203-3.402a.79.79 0 0 0-.03-1.118zm0 0M8.066 18.938a.79.79 0 0 0 0-1.579H4.082a.792.792 0 0 0-.789.79v5.234c0 .433.355.789.789.789h5.492c.434 0 .79-.356.79-.79V21.97a.792.792 0 0 0-1.583 0v.625h-3.91v-3.657zm0 0"/><path d="M11.117 17.574A.79.79 0 0 0 10 17.61l-2.621 2.782-.813-.883a.786.786 0 0 0-1.113-.047.786.786 0 0 0-.05 1.113l1.386 1.508a.788.788 0 0 0 .574.258h.008c.215 0 .426-.09.574-.25l3.203-3.399a.79.79 0 0 0-.03-1.117zm0 0M9.574 35.52a.793.793 0 0 0-.793.789v.62h-3.91v-3.652h3.195a.79.79 0 0 0 0-1.578H4.082a.79.79 0 0 0-.789.79v5.234c0 .433.355.789.789.789h5.492c.434 0 .79-.356.79-.79V36.31a.792.792 0 0 0-.79-.79zm0 0"/><path d="M10 31.945L7.379 34.73l-.813-.882a.786.786 0 0 0-1.113-.051.79.79 0 0 0-.05 1.117l1.386 1.508a.788.788 0 0 0 .574.258h.008c.215 0 .426-.09.574-.25l3.203-3.399A.79.79 0 1 0 10 31.945zm0 0M.79 12.855h35.054c.433 0 .789-.355.789-.789V.79a.79.79 0 0 0-.79-.789h-2.347a.79.79 0 0 0 0 1.578h1.555v9.695H1.578V1.578h29.277a.79.79 0 0 0 0-1.578H.79A.787.787 0 0 0 0 .79v11.273a.79.79 0 0 0 .79.792zm0 0"/></svg><svg width="22" height="22" viewBox="-1 -1 22 22" id="location-pin" x="468" y="222.17" xmlns="http://www.w3.org/2000/svg"><path d="M10 2.009c-2.762 0-5 2.229-5 4.99 0 4.774 5 11 5 11s5-6.227 5-11c0-2.76-2.238-4.99-5-4.99zm0 7.751a2.7 2.7 0 1 1 0-5.4 2.7 2.7 0 0 1 0 5.4z"/></svg><svg width="22" height="22" viewBox="-1 -1 22 22" id="magnifying-glass" x="468" y="244.17" xmlns="http://www.w3.org/2000/svg"><path d="M17.545 15.467l-3.779-3.779a6.15 6.15 0 0 0 .898-3.21c0-3.417-2.961-6.377-6.378-6.377S2.1 4.87 2.1 8.287c0 3.416 2.961 6.377 6.377 6.377a6.15 6.15 0 0 0 3.115-.844l3.799 3.801a.953.953 0 0 0 1.346 0l.943-.943c.371-.371.236-.84-.135-1.211zM4.004 8.287c0-2.366 1.917-4.283 4.282-4.283s4.474 2.107 4.474 4.474c0 2.365-1.918 4.283-4.283 4.283s-4.473-2.109-4.473-4.474z"/></svg><svg width="22" height="22" viewBox="-1 -1 22 22" id="map" x="416" y="348.16999999999996" xmlns="http://www.w3.org/2000/svg"><path d="M19.447 3.718l-6-3a1 1 0 0 0-.895 0l-5.63 2.815-5.606-1.869A1 1 0 0 0 0 2.613v13.001c0 .379.214.725.553.894l6 3a1.006 1.006 0 0 0 .894 0l5.63-2.814 5.606 1.869a.999.999 0 0 0 1.316-.949V4.612a.996.996 0 0 0-.552-.894zM8 5.231l4-2v11.763l-4 2V5.231zM2 4l4 1.333v11.661l-4-2V4zm16 12.227l-4-1.334V3.231l4 2v10.996z"/></svg><svg width="52" height="52" viewBox="-1 -1 52 52" id="medium" x="312" y="222.17" xmlns="http://www.w3.org/2000/svg"><path d="M48.793 46.129l-15.398-7.402-.118-33.559c0-.781.817-1.3 1.524-.961l14.597 7.023c.368.176.602.547.602.954V45.37a.841.841 0 0 1-1.207.758zm0 0" fill="#00fd8d"/><path d="M33.395 38.727l-16.668-8.012L32.773 4.297c.282-.469.875-.64 1.368-.406l14.8 7.117c.567.273.774.976.45 1.512zm0 0" fill="#00e470"/><path d="M33.395 38.727l-16.668-8.012L1.449 5.835c-.422-.69.317-1.51 1.051-1.16l14.227 6.845zm0 0" fill="#00c967"/><path d="M15.52 46.129L.477 38.895A.837.837 0 0 1 0 38.137V4.77a.817.817 0 0 1 1.168-.735l15.559 7.485V45.37a.841.841 0 0 1-1.207.758zm0 0" fill="#00ad6c"/></svg><svg width="52" height="52" viewBox="-1 -1 52 52" id="moving" x="364" y="222.17" xmlns="http://www.w3.org/2000/svg"><path d="M46.168 25.18h-.723l-1.226-3.887a8.003 8.003 0 0 0-7.66-5.613h-3.832V7.28a.977.977 0 0 0-.977-.976H4.781A4.787 4.787 0 0 0 0 11.09v27.687c0 .54.438.977.977.977H8.43a4.924 4.924 0 0 0 4.82 3.941 4.93 4.93 0 0 0 4.82-3.941h15.215a4.93 4.93 0 0 0 4.82 3.941 4.924 4.924 0 0 0 4.82-3.941h6.098c.54 0 .977-.438.977-.977v-9.765a3.836 3.836 0 0 0-3.832-3.832zm-13.441-7.547h3.832a6.059 6.059 0 0 1 5.796 4.246l1.043 3.3H32.727zM1.953 11.09a2.833 2.833 0 0 1 2.828-2.832h25.992v21.324h-5.5v-6.918a.97.97 0 0 0 1.032-.258.972.972 0 0 0-.047-1.379l-7.406-6.91h5.175a.977.977 0 0 0 0-1.953H1.953zm15.238 12.012a3.358 3.358 0 0 0-3.355 3.355v3.125h-2.777v-8.625l6.132-5.723 6.13 5.723v8.625h-2.778v-3.125a3.357 3.357 0 0 0-3.352-3.355zm1.399 6.48h-2.8v-3.125c0-.773.628-1.402 1.401-1.402.77 0 1.399.629 1.399 1.402zm-9.27 6.242a3.97 3.97 0 0 0-.148.207c-.008.008-.012.016-.016.024a3.174 3.174 0 0 0-.12.191c-.016.027-.032.05-.048.078-.027.047-.054.098-.082.145l-.047.093c-.023.043-.046.09-.066.141l-.047.094c-.02.047-.039.098-.059.144-.011.032-.027.067-.039.098-.02.05-.035.102-.054.152-.012.032-.02.063-.031.094-.02.059-.036.121-.055.18-.004.023-.012.047-.02.074-.02.082-.043.168-.058.254v.008H1.953v-1.989h7.375c-.004.004-.008.008-.008.012zm3.93 5.918a2.966 2.966 0 1 1 2.965-2.965 2.97 2.97 0 0 1-2.965 2.965zM1.953 33.86V14.117h13.574l-7.406 6.91a.976.976 0 0 0-.047 1.38.972.972 0 0 0 1.031.257v6.918h-1.59a.977.977 0 0 0 0 1.953h23.258v2.324zm32.223 1.961c-.051.07-.102.14-.149.211a.085.085 0 0 1-.011.02c-.043.066-.086.129-.125.195-.016.024-.028.05-.043.078-.028.047-.059.098-.082.145l-.047.09a5.036 5.036 0 0 0-.07.144c-.016.031-.028.063-.044.094l-.062.144-.035.098c-.02.05-.04.102-.055.152a.88.88 0 0 0-.031.094c-.02.059-.04.121-.055.184-.008.023-.015.043-.02.066a3.06 3.06 0 0 0-.058.258c-.004.004-.004.004-.004.008H18.07c0-.004 0-.004-.004-.008a2.667 2.667 0 0 0-.058-.254 3.148 3.148 0 0 0-.074-.254c-.008-.031-.02-.062-.032-.094a2.376 2.376 0 0 0-.054-.152c-.012-.031-.024-.066-.04-.098l-.058-.144c-.016-.031-.027-.063-.043-.094-.023-.05-.047-.098-.07-.144-.016-.028-.032-.059-.047-.09l-.082-.145c-.016-.027-.028-.054-.043-.078-.04-.066-.082-.129-.125-.195a.085.085 0 0 1-.012-.02l-.148-.21a.008.008 0 0 1-.008-.008h17.012a.008.008 0 0 1-.008.007zm3.93 5.922a2.97 2.97 0 0 1-2.965-2.965 2.968 2.968 0 0 1 2.964-2.965c.153 0 .305.012.454.032a2.969 2.969 0 0 1 2.511 2.933 2.968 2.968 0 0 1-2.965 2.965zm9.94-3.941h-5.12v-.008l-.059-.254c-.008-.027-.015-.05-.02-.074-.019-.059-.035-.121-.054-.18-.012-.031-.02-.062-.031-.094-.02-.05-.035-.101-.055-.152l-.039-.098c-.02-.046-.04-.097-.059-.144-.015-.031-.03-.063-.047-.094a1.174 1.174 0 0 0-.066-.14l-.047-.094c-.027-.047-.054-.098-.082-.145-.015-.027-.031-.05-.047-.078a3.173 3.173 0 0 0-.12-.191c-.005-.008-.009-.016-.016-.024a3.97 3.97 0 0 0-.149-.207c0-.004-.004-.008-.008-.011h6.02zm0-3.942h-15.32v-2.324h15.32zm0-4.277h-15.32v-2.45h13.442c1.035 0 1.879.845 1.879 1.88zm0 0"/><path d="M4.973 30.352c-.016-.063-.032-.125-.059-.184a.865.865 0 0 0-.09-.168.745.745 0 0 0-.12-.148.745.745 0 0 0-.15-.122.865.865 0 0 0-.167-.09c-.059-.027-.121-.042-.184-.058a1.03 1.03 0 0 0-.379 0c-.062.016-.125.031-.183.059a.865.865 0 0 0-.168.09.911.911 0 0 0-.27.27 1.005 1.005 0 0 0-.148.352 1.013 1.013 0 0 0-.016.186c0 .066.004.129.016.191a1.005 1.005 0 0 0 .148.352.911.911 0 0 0 .27.27c.05.035.109.066.168.09a.763.763 0 0 0 .183.054c.063.016.13.02.192.02a.765.765 0 0 0 .187-.02.763.763 0 0 0 .184-.055.865.865 0 0 0 .168-.09.745.745 0 0 0 .148-.12.93.93 0 0 0 .125-.149 1.13 1.13 0 0 0 .145-.352c.011-.062.02-.125.02-.19 0-.063-.009-.126-.02-.188zm0 0M28.484 12.95a.773.773 0 0 0-.058-.184.865.865 0 0 0-.09-.168.745.745 0 0 0-.121-.149.745.745 0 0 0-.149-.12.993.993 0 0 0-.914-.09.865.865 0 0 0-.168.09.745.745 0 0 0-.148.12.745.745 0 0 0-.121.149.865.865 0 0 0-.09.168.763.763 0 0 0-.055.183.778.778 0 0 0 0 .38.763.763 0 0 0 .055.183.866.866 0 0 0 .09.168.973.973 0 0 0 .809.438.976.976 0 0 0 .902-.606.773.773 0 0 0 .058-.184c.012-.062.016-.125.016-.187 0-.067-.004-.13-.016-.192zm0 0"/></svg><svg height="170.17" width="502" viewBox="-1 -1 502 170.17" id="newresonance" xmlns="http://www.w3.org/2000/svg"><path d="M251.795 144.367h21.538v-22.671h-21.538v22.671zM226.855 144.367h21.538v-22.671h-21.538v22.671zM251.795 168.172h21.538v-20.404h-21.538v20.404zM226.855 168.172h21.538v-20.404h-21.538v20.404zM464.1 87.65h-11.927v12.554H464.1V87.65zM450.29 87.65h-11.927v12.554h11.927V87.65zM452.173 113.386H464.1v-11.299h-11.927v11.3zM438.363 113.386h11.927v-11.299h-11.927v11.3z"/><path d="M92.833 165.339h35.804l119.947-80.142 122.41 80.142h36.173L248.399 61.396 92.833 165.34z"/><path d="M247.452 0L0 165.338h56.953l190.794-127.48 194.713 127.48H500L247.452 0zM394.55 76.748l45.64-52.265H304.63l79.834 52.265h10.085zM423.303 76.748l27.683-32.399 27.987 32.399h17.162l-45.149-52.265-44.658 52.265h16.975zM44.065 87.65H32.138v12.554h11.927V87.65zM57.875 87.65H45.95v12.554h11.926V87.65zM32.138 113.386h11.927v-11.299H32.138v11.3zM45.949 113.386h11.926v-11.299H45.95v11.3zM45.253 44.35l27.683 32.398H89.91L45.253 24.483.103 76.748h17.163L45.253 44.35zM113.083 76.748l78.223-52.265H56.05l45.64 52.265h11.393z"/></svg><svg width="52" height="52" viewBox="-1 -1 52 52" id="path" y="274.16999999999996" xmlns="http://www.w3.org/2000/svg"><path d="M40.703 4.984C36.406 1.77 30.75 0 24.773 0 18.81 0 13.211 1.813 9.008 5.098c-4.422 3.465-6.86 8.156-6.86 13.21 0 4.684.739 8.305 4.364 12.477a1.16 1.16 0 0 0 1.68.086l3.558-3.379a1.16 1.16 0 0 0 .082-1.597c-2.2-2.59-2.457-4.48-2.457-7.586 0-6.114 6.906-11.082 15.398-11.082 4.426 0 8.543 1.257 11.602 3.543 2.742 2.05 4.25 4.683 4.25 7.406 0 2.61-.578 6.187-3.332 8.398-2.594 2.086-6.734 2.64-11.664 1.563V14.879c0-.64-.52-1.16-1.164-1.16h-5.14c-.641 0-1.16.52-1.16 1.16v27.039a.771.771 0 0 1-.286.496c-.203.156-.371.121-.43.113l-4.273-.87a1.16 1.16 0 0 0-1.367.902l-1.028 5.043a1.16 1.16 0 0 0 .906 1.367l4.274.87c.523.11 1.055.161 1.582.161a8.035 8.035 0 0 0 4.898-1.676 8.207 8.207 0 0 0 3.18-6.054l.008-.106v-6.668a27.91 27.91 0 0 0 4.605.399c4.559 0 8.551-1.25 11.582-3.688 3.95-3.168 6.036-8.023 6.036-14.031 0-5.059-2.54-9.742-7.149-13.192zm0 0" fill="#eb4427"/></svg><svg width="52" height="52" viewBox="-1 -1 52 52" id="phonecall" x="52" y="274.16999999999996" xmlns="http://www.w3.org/2000/svg"><path d="M48.102 39.117l-9.797-9.797a3.006 3.006 0 0 0-4.242 0l-2.547 2.547a3 3 0 0 0-.762 2.953l-.961.961c-.684.684-4.934-.363-10.07-5.504-5.141-5.136-6.188-9.386-5.508-10.07l.965-.965a2.994 2.994 0 0 0 2.953-.758l2.547-2.546a3.006 3.006 0 0 0 0-4.243l-9.797-9.797a2.982 2.982 0 0 0-2.121-.878c-.801 0-1.555.312-2.121.878L4.094 4.445c-.801.801-1.051 1.938-.758 2.953 0 0-.816.825-.856.875C-.23 11.285-.738 16.031 1.06 21.7c1.757 5.555 5.55 11.438 10.68 16.563 5.124 5.129 11.007 8.922 16.562 10.68 2.23.706 4.316 1.058 6.21 1.058 3.106 0 5.696-.941 7.555-2.797l.532-.535c.27.074.55.117.836.117.8 0 1.554-.312 2.12-.879l2.548-2.547a3.006 3.006 0 0 0 0-4.242zM8.762 4.02l9.797 9.796-2.547 2.551v-.004L6.215 6.566zm31.183 41.062c-2.16 2.156-5.972 2.512-10.738 1-5.105-1.613-10.555-5.145-15.348-9.941-4.796-4.793-8.328-10.243-9.941-15.348-1.512-4.766-1.156-8.578 1-10.738l.273-.27 7.602 7.602-.695.699h-.004c-2.887 2.894.582 9.39 5.508 14.312 3.683 3.688 8.25 6.559 11.527 6.559 1.101 0 2.058-.324 2.785-1.055l.7-.695 7.6 7.602zm3.489-1.297l-9.797-9.797 2.547-2.547 9.796 9.797-2.546 2.547zm0 0M37.969 12.031a14.99 14.99 0 0 0-10.676-4.426 1.5 1.5 0 0 0 0 3c3.23 0 6.27 1.258 8.559 3.543a12.036 12.036 0 0 1 3.543 8.559 1.5 1.5 0 0 0 3 0 14.99 14.99 0 0 0-4.426-10.676zm0 0"/><path d="M43.348 6.652A22.56 22.56 0 0 0 27.293 0a1.5 1.5 0 0 0 0 3c5.262 0 10.21 2.05 13.934 5.773A19.579 19.579 0 0 1 47 22.707a1.5 1.5 0 0 0 3 0c0-6.066-2.363-11.766-6.652-16.055zm0 0M32.59 17.406c-1.434-1.433-3.266-2.191-5.297-2.191a1.498 1.498 0 1 0 0 2.996c1.234 0 2.305.445 3.18 1.316a4.42 4.42 0 0 1 1.316 3.18 1.497 1.497 0 1 0 2.996 0 7.347 7.347 0 0 0-2.195-5.3zm0 0"/></svg><svg width="52" height="52" viewBox="-1 -1 52 52" id="piggy-bank" x="104" y="274.16999999999996" xmlns="http://www.w3.org/2000/svg"><path d="M41.262 26.426a.732.732 0 0 0-.73.73.924.924 0 0 1-1.848 0 .729.729 0 0 0-.727-.73.729.729 0 0 0-.727.73 2.383 2.383 0 0 0 2.38 2.38 2.383 2.383 0 0 0 2.378-2.38.731.731 0 0 0-.726-.73zm0 0"/><path d="M48.09 26.547l-2.047-.656a.866.866 0 0 1-.555-.563 13.184 13.184 0 0 0-1.933-3.828 14.862 14.862 0 0 0-1.293-1.527c.3-1.325.465-2.825.441-4.121-.027-1.852-.398-2.942-1.129-3.325-.394-.207-1.594-.832-8.086 2.137-.152.07-.297.156-.43.258a28.975 28.975 0 0 0-1.5-.36 9.888 9.888 0 0 0 .891-3.683.73.73 0 0 0-.695-.762.726.726 0 0 0-.758.695 8.44 8.44 0 0 1-2.476 5.614 8.435 8.435 0 0 1-3.063 1.957 21.029 21.029 0 0 0-5.86 0 8.435 8.435 0 0 1-3.062-1.957 8.424 8.424 0 0 1-2.484-5.996c0-2.262.883-4.39 2.484-5.992a8.415 8.415 0 0 1 5.992-2.485c2.266 0 4.395.883 5.993 2.484a8.5 8.5 0 0 1 1.582 2.184c.18.36.617.504.976.32a.728.728 0 0 0 .324-.976 9.913 9.913 0 0 0-1.851-2.555A9.856 9.856 0 0 0 22.527.5a9.856 9.856 0 0 0-7.023 2.91 9.86 9.86 0 0 0-2.906 7.02 9.862 9.862 0 0 0 2.906 7.023 9.882 9.882 0 0 0 1.754 1.399c-.453.117-.903.25-1.344.398a.727.727 0 0 0 .46 1.379 19.498 19.498 0 0 1 12.306 0 .73.73 0 0 0 .922-.46.724.724 0 0 0-.457-.919 20.461 20.461 0 0 0-1.348-.398 10.037 10.037 0 0 0 3.023-2.953c.2.039.399.078.594.12.262.06.523.118.781.184-.008.031-.02.063-.023.094-.356 1.683-.332 3.172.066 4.426a5.286 5.286 0 0 0 1.93 2.715c1.086.792 2.395 1.136 3.582 1.136.895 0 1.719-.195 2.32-.539.684-.387 1.258-1.203 1.711-2.43a11.76 11.76 0 0 1 2.32 4.16 2.321 2.321 0 0 0 1.497 1.512l2.05.657c.536.171.899.664.899 1.23v3.395c0 .566-.363 1.058-.899 1.23l-3.3 1.059a2.24 2.24 0 0 0-1.258 1.02c-1.297 2.241-3.336 4.097-6.059 5.51a1.128 1.128 0 0 0-.597.806l-1.059 5.593a.326.326 0 0 1-.32.27h-3.438a.326.326 0 0 1-.32-.27l-.586-3.09a1.142 1.142 0 0 0-1.3-.921 30.04 30.04 0 0 1-4.532.34c-1.137 0-2.258-.067-3.336-.192a1.16 1.16 0 0 0-1.262.926l-.554 2.937a.33.33 0 0 1-.32.27h-3.438a.326.326 0 0 1-.32-.27l-1.02-5.285a1.146 1.146 0 0 0-.586-.797c-4.645-2.476-7.098-6.617-7.098-11.972 0-2.707.594-5.098 1.758-7.114 1.09-1.879 2.684-3.43 4.73-4.617A.723.723 0 0 0 13.7 17a.723.723 0 0 0-.992-.266c-3.973 2.297-6.371 5.844-7.031 10.344-.07-.004-.137-.012-.207-.02a3.626 3.626 0 0 0-.27-1.449c-.422-1.05-1.289-1.808-2.207-1.93-.726-.097-1.414.208-1.894.84-.696.919-.582 1.645-.364 2.094.368.754 1.309 1.29 2.871 1.625-.042.063-.09.13-.14.192-.926 1.16-2.012 1.418-2.719 1.441A.761.761 0 0 0 0 30.63v.004c0 .41.32.742.73.762.051 0 .106.003.165.003.894 0 2.328-.332 3.707-2.058.218-.274.394-.563.53-.86.138.016.27.028.395.04-.023.394-.039.796-.039 1.203 0 3.027.723 5.73 2.149 8.03 1.312 2.118 3.195 3.852 5.59 5.157l.992 5.14a1.78 1.78 0 0 0 1.75 1.45h3.437c.856 0 1.59-.61 1.75-1.45l.504-2.66a29.93 29.93 0 0 0 3.219.169c1.5 0 2.996-.106 4.457-.309l.531 2.8c.16.84.895 1.45 1.75 1.45h3.438c.855 0 1.59-.61 1.75-1.45l1.03-5.448c2.907-1.54 5.099-3.559 6.513-6.004a.803.803 0 0 1 .441-.364l3.3-1.058A2.738 2.738 0 0 0 50 32.559v-3.395c0-1.2-.766-2.254-1.91-2.617zm-6.95-8.649c-.28 2.395-1.03 4.442-1.785 4.872-.859.484-2.84.578-4.328-.508-1.488-1.09-1.984-3.047-1.433-5.664a.872.872 0 0 1 .5-.61c3.644-1.668 5.742-2.21 6.523-2.21.117 0 .207.011.266.034.234.25.539 1.668.258 4.086zM2.044 25.977c-.074-.157.102-.43.215-.579.18-.234.344-.285.469-.285.023 0 .05.004.074.008.332.043.8.41 1.05 1.031.06.145.133.383.153.684-1.008-.207-1.793-.508-1.961-.86zm0 0"/><path d="M23.234 9.598V6.992c.899.067 1.23.477 1.54.477.386 0 .566-.489.566-.73 0-.63-1.235-.9-2.106-.926v-.344c0-.157-.191-.297-.386-.297-.215 0-.371.14-.371.297v.37c-1.22.13-2.438.77-2.438 2.388 0 1.64 1.285 2.101 2.438 2.511v3.016c-1.309-.102-1.653-1-2.079-1-.32 0-.59.422-.59.73 0 .63 1.079 1.489 2.669 1.512v.399c0 .156.156.296.37.296.196 0 .387-.14.387-.296v-.434c1.387-.195 2.336-1.066 2.336-2.645 0-1.742-1.218-2.308-2.336-2.718zm-.68-.243c-.679-.257-1.23-.527-1.23-1.257 0-.668.512-.989 1.23-1.078zm.602 4.372V11.02c.63.27 1.13.628 1.13 1.437 0 .73-.434 1.145-1.13 1.27zm0 0"/></svg><svg width="52" height="52" viewBox="-1 -1 52 52" id="pinterest" x="156" y="274.16999999999996" xmlns="http://www.w3.org/2000/svg"><path d="M49.988 25.734c.41-14.27-11.136-25.937-25.36-25.73C10.942.204-.104 11.508 0 25.195c.074 9.809 5.8 18.274 14.082 22.301a.707.707 0 0 0 1.012-.664c-.059-1.61-.008-3.328.312-4.71l2.38-10.083c.398-1.684.444-3.43.124-5.129a10.5 10.5 0 0 1-.18-1.941c0-3.696 2.141-6.453 4.81-6.453 2.265 0 3.358 1.703 3.358 3.742 0 2.281-1.449 5.687-2.199 8.847-.625 2.645 1.328 4.801 3.934 4.801 4.722 0 8.355-4.98 8.355-12.168 0-6.363-4.574-10.812-11.101-10.812-7.559 0-12 5.672-12 11.535 0 2.281.883 4.73 1.98 6.062.215.266.246.497.184.762-.203.84-.649 2.645-.739 3.016-.117.484-.386.59-.886.355-3.32-1.547-5.395-6.398-5.395-10.297 0-8.382 6.09-16.078 17.559-16.078 9.215 0 16.379 6.567 16.379 15.348 0 9.156-5.774 16.527-13.79 16.527-2.116 0-4.136-.863-5.32-2.039a.666.666 0 0 0-1.113.301c-.418 1.59-1.094 4.168-1.312 5.004-.391 1.508-1.215 3.262-2.043 4.789-.223.406 0 .91.449 1.023 2.043.516 4.187.786 6.398.766 13.117-.121 24.375-11.152 24.75-24.266zm0 0" fill="#9f1121"/></svg><svg width="52" height="52" viewBox="-1 -1 52 52" id="quora" x="208" y="274.16999999999996" xmlns="http://www.w3.org/2000/svg"><path d="M45.188 39.234s-.243 3.59-3.508 3.59c-2.52 0-4.239-1.922-5.852-4.418 4.578-3.996 7.484-9.96 7.484-16.629C43.313 9.75 33.855 0 22.189 0 10.52 0 1.058 9.75 1.058 21.777c0 12.032 9.462 21.782 21.13 21.782 2.117 0 4.16-.325 6.09-.922C30.714 46.516 33.812 50 38.663 50c9.867 0 10.277-10.766 10.277-10.766zm-23 .735c-6.805 0-12.32-8.145-12.32-18.192 0-10.043 5.515-18.187 12.32-18.187 6.8 0 12.316 8.144 12.316 18.187 0 3.996-.875 7.692-2.352 10.692-1.672-2.387-3.675-4.414-6.539-5.063-5.086-1.144-9.465 1.145-10.851 2.285l1.304 2.692s1.32-.758 4.594 0c2.059.476 3.66 3.336 5.496 6.62-1.246.626-2.582.966-3.968.966zm0 0" fill="#cf2217"/></svg><svg width="52" height="52" viewBox="-1 -1 52 52" id="reddit" x="260" y="274.16999999999996" xmlns="http://www.w3.org/2000/svg"><path d="M50 22.879a6.28 6.28 0 0 0-6.277-6.281 6.27 6.27 0 0 0-4.446 1.847c-3.511-2.261-7.996-3.707-12.922-3.93a6.836 6.836 0 0 1 2.57-5.35 6.832 6.832 0 0 1 5.794-1.349l.281.059c-.004.07-.012.14-.012.21a5.243 5.243 0 0 0 10.485 0 5.24 5.24 0 0 0-9.664-2.804l-.504-.113a9.544 9.544 0 0 0-8.075 1.883 9.535 9.535 0 0 0-3.585 7.465c-4.926.222-9.41 1.664-12.922 3.93a6.254 6.254 0 0 0-4.446-1.848 6.277 6.277 0 1 0-2.91 11.84c-.152.777-.23 1.57-.23 2.378 0 9.024 9.789 16.336 21.863 16.336s21.863-7.312 21.863-16.336c0-.808-.078-1.601-.23-2.378A6.277 6.277 0 0 0 50 22.878zM40.23 5.555a2.536 2.536 0 0 1 2.532 2.53 2.536 2.536 0 0 1-2.532 2.536 2.534 2.534 0 0 1 0-5.066zM2.71 22.879a3.573 3.573 0 0 1 3.567-3.57 3.57 3.57 0 0 1 2.23.785c-1.91 1.64-3.39 3.566-4.308 5.68a3.557 3.557 0 0 1-1.488-2.895zm36.13 17.32c-3.664 2.739-8.582 4.246-13.84 4.246-5.258 0-10.176-1.508-13.84-4.246-3.426-2.562-5.316-5.894-5.316-9.383 0-3.488 1.89-6.816 5.316-9.378 3.664-2.739 8.582-4.247 13.84-4.247 5.258 0 10.176 1.508 13.84 4.247 3.426 2.562 5.316 5.89 5.316 9.378 0 3.489-1.89 6.82-5.316 9.383zm6.96-14.426c-.921-2.117-2.398-4.043-4.308-5.68a3.547 3.547 0 0 1 2.23-.784 3.573 3.573 0 0 1 3.567 3.57c0 1.191-.59 2.246-1.488 2.894zm0 0" fill="#181a1c"/><path d="M19.871 27.004a2.857 2.857 0 1 1-5.715 0 2.858 2.858 0 1 1 5.715 0zm0 0M35.844 27.004a2.86 2.86 0 0 1-2.86 2.86 2.86 2.86 0 0 1-2.859-2.86 2.86 2.86 0 0 1 2.86-2.86 2.86 2.86 0 0 1 2.859 2.86zm0 0" fill="#d80000"/><path d="M31.773 33.95a10.895 10.895 0 0 1-7.355 2.847 10.818 10.818 0 0 1-7.992-3.477 1.353 1.353 0 0 0-1.914-.066 1.353 1.353 0 0 0-.067 1.914 13.675 13.675 0 0 0 9.973 4.34c3.406 0 6.668-1.262 9.18-3.555.554-.504.593-1.36.09-1.914a1.357 1.357 0 0 0-1.915-.09zm0 0" fill="#181a1c"/></svg><svg width="52" height="52" viewBox="-1 -1 52 52" id="skype" x="312" y="274.16999999999996" xmlns="http://www.w3.org/2000/svg"><path d="M47.984 28.813c-.793-1.098-1.16-2.434-1.16-3.79V25c0-12.055-9.77-21.824-21.824-21.824-2.637 0-5.164.469-7.504 1.328-1.266.465-2.652.55-3.95.187a10.577 10.577 0 0 0-3.636-.37C4.582 4.683.29 9.05.016 14.386a10.597 10.597 0 0 0 2 6.8c.793 1.098 1.16 2.434 1.16 3.79V25c0 12.055 9.77 21.824 21.824 21.824 2.637 0 5.164-.469 7.504-1.328 1.266-.465 2.652-.55 3.95-.187 1.144.324 2.37.46 3.636.37 5.328-.363 9.62-4.73 9.894-10.066a10.604 10.604 0 0 0-2-6.8zm-22.183-7.727c4.398 1.047 11.047 2.629 11.047 9.953 0 3.61-1.774 6.363-5.004 7.75-2.301.992-4.907 1.129-7.153 1.129-6.902 0-11.261-5.367-11.441-5.598a3.284 3.284 0 0 1 .52-4.613 3.287 3.287 0 0 1 4.613.52c.008.015 2.617 3.007 6.308 3.125 4.446.14 5.461-1.184 5.594-2.313.16-1.379-1.066-2.39-6.004-3.566-4.187-.993-10.511-2.496-10.511-9.243 0-2.101.851-8.957 11.847-8.957 6.942 0 11.04 5.465 11.211 5.7a3.283 3.283 0 0 1-5.273 3.91c-.078-.102-2.422-2.711-5.938-3.043-2.66-.254-5.285.707-5.285 2.12 0 1.5.754 2.009 5.469 3.126zm0 0" fill="#00aaf2"/></svg><svg width="22" height="22" viewBox="-1 -1 22 22" id="star" x="438" y="326.16999999999996" xmlns="http://www.w3.org/2000/svg"><path d="M10 1.3l2.388 6.722H18.8l-5.232 3.948 1.871 6.928L10 14.744l-5.438 4.154 1.87-6.928-5.233-3.948h6.412L10 1.3z"/></svg><svg width="52" height="52" viewBox="-1 -1 52 52" id="stumbleupon" x="364" y="274.16999999999996" xmlns="http://www.w3.org/2000/svg"><g fill="#ff4403"><path d="M42.137 26.773v5.465c0 1.84-1.504 3.407-3.344 3.375a3.29 3.29 0 0 1-3.234-3.285v-5.27a.944.944 0 0 0-1.27-.886l-2.902 1.074a.928.928 0 0 1-.672-.008l-1.727-.68a.944.944 0 0 0-1.293.876v4.722c0 6.121 4.86 11.227 10.98 11.32C44.903 43.57 50 38.537 50 32.329v-5.555a.854.854 0 0 0-.852-.851h-6.16a.854.854 0 0 0-.851.851zm0 0"/><path d="M27.695 17.16v2.61c0 .39.239.738.598.878l2.48.98a.98.98 0 0 0 .676.009l3.496-1.293a.948.948 0 0 0 .614-.887v-2.215c0-5.797-4.602-10.633-10.395-10.719-5.898-.09-10.723 4.68-10.723 10.559v15.156c0 1.84-1.507 3.407-3.347 3.375a3.289 3.289 0 0 1-3.23-3.285v-5.555a.854.854 0 0 0-.852-.851H.852a.854.854 0 0 0-.852.851v5.383c0 6.121 4.86 11.227 10.977 11.32 6.23.098 11.328-4.94 11.328-11.148V17.082a2.701 2.701 0 0 1 2.832-2.695c1.449.074 2.558 1.324 2.558 2.773zm0 0"/></g></svg><svg width="52" height="52" viewBox="-1 -1 52 52" id="tax" x="416" y="274.16999999999996" xmlns="http://www.w3.org/2000/svg"><path d="M41.703 0H8.297a2.457 2.457 0 0 0-2.453 2.453v45.094A2.457 2.457 0 0 0 8.297 50h25.89a.768.768 0 0 0 .551-.23l9.188-9.184a.8.8 0 0 0 .23-.555V2.453A2.457 2.457 0 0 0 41.703 0zM34.97 47.328v-5.625a.89.89 0 0 1 .886-.89h5.625zm7.62-8.078h-6.734a2.455 2.455 0 0 0-2.453 2.453v6.73H8.297a.889.889 0 0 1-.887-.886V2.453c0-.488.399-.887.887-.887h33.406c.488 0 .887.399.887.887zm0 0"/><path d="M19.988 6.68h-6.68a.782.782 0 0 0-.78.785c0 .43.347.781.78.781h2.56v7.566a.784.784 0 1 0 1.566 0V8.247h2.554a.784.784 0 1 0 0-1.566zm0 0M28.254 15.59L25.93 7.832a1.613 1.613 0 0 0-1.551-1.152h-.43c-.719 0-1.34.465-1.547 1.152l-2.328 7.758a.784.784 0 0 0 1.5.45l.332-1.114h4.516l.332 1.113a.784.784 0 0 0 1.5-.45zm-5.875-2.23l1.523-5.075c.004-.023.028-.039.047-.039h.43c.023 0 .043.016.05.04l1.524 5.073zm0 0M36.496 15.367l-2.605-3.726 2.605-3.727a.783.783 0 0 0-1.281-.898l-2.281 3.257-2.282-3.257a.784.784 0 1 0-1.285.898l2.61 3.727-2.61 3.726a.784.784 0 0 0 .64 1.23c.25 0 .493-.117.645-.335l2.282-3.258 2.28 3.258a.78.78 0 0 0 1.09.195.78.78 0 0 0 .192-1.09zm0 0M13.309 20.875H11.64a.785.785 0 0 0-.786.785c0 .434.352.781.786.781h1.668a.782.782 0 0 0 .785-.78.785.785 0 0 0-.785-.786zm0 0M13.309 24.219H11.64a.782.782 0 1 0 0 1.562h1.668a.782.782 0 1 0 0-1.562zm0 0M13.309 27.559H11.64a.782.782 0 0 0-.786.78c0 .434.352.786.786.786h1.668a.785.785 0 0 0 .785-.785.782.782 0 0 0-.785-.781zm0 0M38.36 20.875H36.69a.785.785 0 0 0-.785.785c0 .434.352.781.785.781h1.668a.782.782 0 0 0 .786-.78.785.785 0 0 0-.786-.786zm0 0M38.36 24.219H36.69a.782.782 0 1 0 0 1.562h1.668a.782.782 0 1 0 0-1.562zm0 0M38.36 27.559H36.69a.782.782 0 0 0-.785.78c0 .434.352.786.785.786h1.668a.785.785 0 0 0 .786-.785.782.782 0 0 0-.786-.781zm0 0M26.672 20.875H16.648a.784.784 0 0 0 0 1.566h10.024c.43 0 .781-.347.781-.78a.784.784 0 0 0-.781-.786zm0 0M23.328 24.219h-6.68a.781.781 0 1 0 0 1.562h6.68a.782.782 0 1 0 0-1.562zm0 0M26.672 27.559H16.648a.784.784 0 0 0 0 1.566h10.024a.784.784 0 0 0 0-1.566zm0 0M14.926 37.813V35.09c.578.187.941.57.941.922a.784.784 0 1 0 1.567 0c0-1.246-1.055-2.266-2.508-2.535v-.125a.782.782 0 0 0-.781-.786.785.785 0 0 0-.786.786v.125c-1.453.27-2.504 1.289-2.504 2.535 0 1.746 1.395 2.476 2.504 2.898v2.723c-.574-.188-.937-.57-.937-.922a.784.784 0 1 0-1.567 0c0 1.246 1.051 2.266 2.504 2.535v.125c0 .434.352.785.786.785a.782.782 0 0 0 .78-.785v-.125c1.454-.27 2.509-1.289 2.509-2.535 0-1.746-1.395-2.477-2.508-2.898zm-1.567-.61c-.777-.383-.937-.715-.937-1.191 0-.352.363-.735.937-.922zm1.567 4.43V39.52c.781.382.941.714.941 1.19 0 .352-.363.735-.941.923zm0 0M25.836 34.238h-5.848a.784.784 0 0 0 0 1.567h5.848a.784.784 0 0 0 0-1.567zm0 0M23.328 40.918h-3.34a.784.784 0 0 0 0 1.566h3.34a.784.784 0 1 0 0-1.566zm0 0M28.34 40.918h-1.668a.784.784 0 0 0 0 1.566h1.668a.784.784 0 1 0 0-1.566zm0 0M30.844 37.578H19.988a.784.784 0 0 0 0 1.567h10.856a.784.784 0 0 0 0-1.566zm0 0M27.453 25a.781.781 0 0 1-.781.781.782.782 0 1 1 0-1.562c.43 0 .781.347.781.781zm0 0M30.793 25a.781.781 0 0 1-.781.781.782.782 0 1 1 0-1.562c.43 0 .781.347.781.781zm0 0M34.133 25a.781.781 0 0 1-.781.781.782.782 0 1 1 0-1.562c.43 0 .78.347.78.781zm0 0M30.793 21.66a.781.781 0 0 1-.781.781.782.782 0 0 1-.785-.78c0-.434.351-.786.785-.786.43 0 .781.352.781.785zm0 0M34.133 21.66a.781.781 0 0 1-.781.781.782.782 0 0 1-.786-.78.784.784 0 0 1 1.566 0zm0 0M30.793 28.34a.784.784 0 1 1-1.566 0c0-.434.351-.781.785-.781.43 0 .781.347.781.78zm0 0M34.133 28.34a.784.784 0 1 1-1.567 0c0-.434.352-.781.786-.781.43 0 .78.347.78.78zm0 0"/></svg><svg width="52" height="52" viewBox="-1 -1 52 52" id="team" y="326.16999999999996" xmlns="http://www.w3.org/2000/svg"><path d="M44.422 42.031l-.82-.328A24.885 24.885 0 0 0 50 25c0-5.074-1.535-9.957-4.328-14.063a.864.864 0 0 0-.125-.18A25.123 25.123 0 0 0 41.19 5.95a.791.791 0 0 0-1.113.09.788.788 0 0 0 .09 1.113 23.44 23.44 0 0 1 3.57 3.801c-1.668.652-3.675 1.203-5.914 1.64-.617-1.84-1.379-3.558-2.273-5.105-1.203-2.09-2.586-3.773-4.098-5.008a23.289 23.289 0 0 1 6.64 3.098.79.79 0 0 0 1.098-.21.792.792 0 0 0-.214-1.098A24.873 24.873 0 0 0 25 0C18.32 0 12.043 2.602 7.324 7.324 2.602 12.043 0 18.324 0 25c0 6.21 2.27 12.117 6.41 16.71l-.812.321c-.301.106-2.84 1.121-2.84 4.352v2.828c0 .434.355.789.789.789h11.621c.039 0 .074-.004.113-.008.035.004.074.008.11.008h3.214a.79.79 0 0 0 0-1.578h-2.421v-2.75c0-2.902 2.277-3.734 2.367-3.77l.039-.011 3.844-1.504.023.023 2.043 1.992a.79.79 0 0 0 .55.223h.016a.788.788 0 0 0 .555-.242l1.961-2.035 3.84 1.539c.015.008.023.011.039.015.094.035 2.375.868 2.375 3.77v2.75H21.07a.79.79 0 0 0 0 1.578H46.47c.437 0 .789-.36.789-.797v-2.82c0-3.219-2.52-4.238-2.836-4.352zm-2.387-.957l-.781-.312v-.45a4.107 4.107 0 0 0 1.836-2.277 2.235 2.235 0 0 0 2.058-2.222 2.24 2.24 0 0 0-.824-1.731V32.68a5.33 5.33 0 0 0-4.648-5.278c.031-.535.05-1.074.062-1.613h8.668a23.322 23.322 0 0 1-6.37 15.285zm-2.851-1.777h-.72a2.536 2.536 0 0 1-2.53-2.531v-2.09c1.027-.11 2.851-.469 4.254-1.64.312.538.8 1.12 1.527 1.46v2.27a2.536 2.536 0 0 1-2.531 2.53zm.492 1.547v.437l-.88.914-.827-.804v-.547c.164.02.328.031.496.031h.719c.168 0 .332-.012.492-.031zm-4.528-7.696h-.003c-.028 0-.055.004-.083.004-.007.004-.015.004-.023.004-.02.004-.035.008-.055.008l-.035.012c-.011.004-.027.004-.039.008l-.023.011v-.515a3.744 3.744 0 0 1 3.738-3.742h.379a3.748 3.748 0 0 1 3.742 3.742v.508l-.047-.012c-.008-.004-.015-.004-.02-.008-1.1-.25-1.46-1.719-1.464-1.73a.789.789 0 0 0-1.41-.286c-1.43 1.977-4.617 1.996-4.657 1.996zm8.145 3.196V35.28a.655.655 0 0 1 0 1.063zm1.375-24.063a23.394 23.394 0 0 1 3.738 11.93h-8.668c-.066-3.555-.562-6.98-1.445-10.102 2.426-.484 4.59-1.101 6.375-1.828zm-6.508 11.93h-8.082-.004a6.44 6.44 0 0 0-4.285-2.11v-6.788c3.875-.04 7.613-.36 10.945-.918.871 3.015 1.36 6.351 1.426 9.816zm-6.965 8.242c0 .465-.316.856-.742.977v-1.953c.426.12.742.515.742.976zM25.79 1.621c3.14.336 6.098 2.668 8.395 6.652a26.318 26.318 0 0 1 2.07 4.602c-3.184.523-6.754.82-10.465.86zm-.5 22.04a4.882 4.882 0 0 1 4.875 4.878v.965a.03.03 0 0 0-.016-.016l-.035-.023c-.008-.008-.02-.012-.027-.02l-.035-.023c-.012-.004-.024-.012-.035-.016-.012-.004-.024-.011-.032-.015-.015-.008-.03-.012-.043-.016l-.03-.012a.22.22 0 0 0-.048-.015c-.008 0-.015-.004-.023-.004-1.5-.344-1.973-2.297-1.98-2.317a.784.784 0 0 0-.61-.597.782.782 0 0 0-.797.312c-1.851 2.555-5.933 2.582-5.988 2.582h-.004c-.027 0-.055 0-.078.004-.008 0-.02 0-.028.004a.229.229 0 0 0-.05.008.114.114 0 0 0-.035.008l-.043.011-.036.012-.035.012-.043.023-.027.012-.04.023c-.007.008-.015.012-.023.016-.015.008-.027.02-.039.027-.007.008-.015.012-.023.02-.008.004-.016.012-.02.016v-.98a4.882 4.882 0 0 1 4.875-4.88zm-13.45.55c.067-3.465.556-6.8 1.427-9.82 3.336.562 7.078.882 10.945.921v6.797a6.465 6.465 0 0 0-4.188 2.106c-.027-.004-.054-.004-.085-.004zm7.833 7.258v1.968a1.014 1.014 0 0 1 0-1.968zM24.21 1.62v12.113c-3.7-.039-7.277-.34-10.465-.859a26.318 26.318 0 0 1 2.07-4.602c2.297-3.984 5.254-6.316 8.395-6.652zm-5.676.867c-1.504 1.235-2.887 2.914-4.086 4.996-.894 1.551-1.652 3.266-2.273 5.11-2.235-.438-4.239-.989-5.906-1.64 3.023-4.02 7.312-7.044 12.265-8.466zM5.34 12.285c1.781.727 3.945 1.34 6.37 1.82-.886 3.122-1.382 6.551-1.448 10.106H1.594A23.268 23.268 0 0 1 5.34 12.285zm5.09 28.559c.16.02.324.031.492.031h.719c.168 0 .332-.012.492-.031v.437l-.88.914-.823-.804zm1.21-1.547h-.718a2.536 2.536 0 0 1-2.531-2.531V34.68c1.027-.114 2.851-.473 4.254-1.645.316.54.8 1.121 1.527 1.461v2.27a2.536 2.536 0 0 1-2.531 2.53zm2.032-7.86a.79.79 0 0 0-1.41-.285c-1.43 1.977-4.617 1.996-4.657 1.996h-.003c-.028 0-.055.004-.082.004-.008.004-.016.004-.024.004a.23.23 0 0 1-.055.008c-.007.004-.02.008-.03.012-.016.004-.028.004-.044.008l-.023.011v-.515a3.745 3.745 0 0 1 3.742-3.742h.375a3.748 3.748 0 0 1 3.742 3.742v.508l-.047-.012-.02-.008c-1.1-.25-1.46-1.719-1.464-1.73zM1.594 25.79h8.668c.011.543.031 1.086.062 1.625-2.574.371-4.562 2.59-4.562 5.266v1.398a2.234 2.234 0 0 0-.828 1.734c0 1.18.921 2.149 2.082 2.227.312.961.972 1.77 1.832 2.273v.446l-.86.336a23.302 23.302 0 0 1-6.394-15.305zm5.218 9.473v1.101a.659.659 0 0 1-.3-.55c0-.231.12-.434.3-.551zm7.79 10.41v2.75H4.336v-2.04c0-2.202 1.723-2.839 1.789-2.862.012-.004.023-.012.035-.016l2.98-1.164 1.583 1.539a.78.78 0 0 0 .55.226h.012a.798.798 0 0 0 .555-.242l1.496-1.55 1.848.738c-.352.719-.582 1.586-.582 2.62zm7.617-6.899l-4.188 1.641c-.535.184-1.273.606-1.93 1.305l-2.386-.957v-.45a4.116 4.116 0 0 0 1.832-2.277 2.235 2.235 0 0 0 2.058-2.222 2.24 2.24 0 0 0-.824-1.731V32.68a5.328 5.328 0 0 0-4.879-5.301 42.902 42.902 0 0 1-.062-1.59h7.137a6.415 6.415 0 0 0-.618 2.746v1.844a2.593 2.593 0 0 0 1.516 4.668 4.977 4.977 0 0 0 2.344 2.922zm-6.469-2.43v-1.062a.644.644 0 0 1 .273.532.644.644 0 0 1-.273.53zm10.578 2.981V39.375l-1.293 1.344-1.238-1.207v-.992c.265.042.539.07.816.07h.903c.277 0 .547-.028.812-.07zm-.812-2.316h-.903a3.365 3.365 0 0 1-3.363-3.36V30.86c1.262-.113 3.754-.554 5.574-2.187.383.726 1.028 1.57 2.051 2.008v2.968a3.364 3.364 0 0 1-3.36 3.36zm8.402 4.719c-.652-.704-1.395-1.125-1.926-1.313l-4.086-1.637v-.808a4.963 4.963 0 0 0 2.344-2.922 2.599 2.599 0 0 0 2.523-2.594c0-.84-.406-1.59-1.027-2.066v-1.848a6.42 6.42 0 0 0-.617-2.75h7.031a43.326 43.326 0 0 1-.062 1.598 5.327 5.327 0 0 0-4.793 5.293v1.398a2.233 2.233 0 0 0 1.254 3.96c.312.962.972 1.77 1.832 2.275v.445zm.437-6.465v1.101a.659.659 0 0 1-.3-.55c0-.231.12-.434.3-.551zm11.325 13.16H35.414v-2.75c0-1.031-.227-1.895-.574-2.61l1.844-.722 1.582 1.539a.78.78 0 0 0 .55.226h.012a.798.798 0 0 0 .555-.242l1.496-1.55 2.969 1.19c.015.005.023.009.039.013.07.027 1.793.664 1.793 2.867zm0 0"/></svg><svg width="52" height="52" viewBox="-1 -1 52 52" id="testimonial" x="52" y="326.16999999999996" xmlns="http://www.w3.org/2000/svg"><path d="M43.285 49.816c-.25-.074-.758-.222-1.133-.336-1.906-.566-4.156-1.515-5.379-2.273-.78-.484-.632-.477-2.164-.117-.746.176-1.195.215-2.566.222-1.746.008-2.309-.062-3.594-.468-2.976-.946-5.453-3.051-7.004-5.961-.742-1.387-1.308-3.133-1.515-4.66-.125-.918-.125-2.817 0-3.75.293-2.18 1.203-4.45 2.476-6.172 2.98-4.028 7.864-5.813 12.559-4.59 3.95 1.023 7.289 4.285 8.601 8.394.903 2.82.871 5.989-.09 8.829-.257.761-.687 1.699-1.18 2.57-.163.293-.179.398-.14.867.168 1.89.602 3.723 1.45 6.11.535 1.5.53 1.492.312 1.48-.098-.004-.383-.07-.633-.145zM27.844 36.492c.597-.234 1.066-1.086 1.066-1.953 0-1.32-1.015-2.387-1.969-2.066-1.093.363-1.617 1.754-1.132 3.004.21.554.574.93 1.05 1.09.356.117.516.105.985-.075zm5.347-.199c.329-.281.696-.984.715-1.363.059-1.34-.383-2.168-1.308-2.461-.508-.16-1.075.062-1.485.586-.379.484-.492.894-.453 1.675.035.665.219 1.075.7 1.54.468.457 1.312.468 1.831.023zm4.676.156c.57-.258 1.004-1.086 1.004-1.91 0-1.172-.742-2.11-1.668-2.102-1.32.012-2.11 1.95-1.344 3.297.266.473.508.68.965.832.375.125.547.106 1.043-.117zM4.965 41.813c-.024-.043.176-.66.437-1.368 1.36-3.66 2.235-7.218 2.356-9.586l.047-.949-.43-.746c-2.227-3.836-3.082-8.684-2.344-13.277C6.273 8.18 11.844 2.125 19.141.555c2.793-.602 5.652-.442 8.488.476 4.5 1.453 8.27 4.735 10.523 9.164.895 1.754 1.625 4.114 1.899 6.14.148 1.083.191 3.22.066 3.185-.043-.008-.504-.254-1.027-.547-.524-.29-1.235-.645-1.586-.785-.348-.145-.668-.31-.715-.368-.043-.058-.121-.406-.172-.77-.226-1.628-.887-3.59-1.722-5.09-.56-1.003-1.997-2.831-2.805-3.562-2.028-1.84-4.442-3.058-7.102-3.574-1.074-.21-3.722-.238-4.68-.054-2.484.484-4.261 1.238-6.109 2.59-3.023 2.206-5.094 5.585-5.785 9.456-.156.88-.18 3.778-.039 4.649.371 2.226 1.156 4.152 2.477 6.039.968 1.387.882 1.098.703 2.371-.2 1.445-.688 3.96-.977 5.043-.125.473-.2.895-.168.937.149.188 2.86-1.164 4.688-2.343.726-.465 1.332-.828 1.347-.805.02.023.043.77.051 1.656.008.89.043 1.883.078 2.211l.059.594-.774.492c-1.539.985-3.988 2.117-6.187 2.856-1.477.5-2.219.726-3.332 1.03-1.422.392-1.324.372-1.375.267zm0 0"/></svg><svg width="52" height="52" viewBox="-1 -1 52 52" id="tools" x="104" y="326.16999999999996" xmlns="http://www.w3.org/2000/svg"><path d="M47.148 37.758a6.522 6.522 0 0 0-3.445-1.188c-4.562-2.988-7.55-5.23-9.297-6.976l-5.36-5.36 3.255-3.64a5.618 5.618 0 0 0 1.937.672c.5.082.836.082 1.168.082.668 0 .832 0 1.5.582-.336.25-.5.668-.5 1.082 0 .418.164.918.5 1.25l2.914 2.918c.418.496 1.082.746 1.75.746.664 0 1.332-.25 1.75-.832l5.91-5.914c.5-.414.75-1.082.75-1.746 0-.668-.25-1.25-.75-1.75l-2.914-2.918a1.643 1.643 0 0 0-1.164-.496c-.418 0-.836.25-1.168.496-.664-.582-.664-.746-.664-1.414 0-.332 0-.75-.168-1.25-.168-1.165-.75-2.332-1.668-3.247l-2.996-3c-1.75-1.75-2.582-2.582-4.832-3.582C28.824.023 23.91.441 16.75 3.691c-.418.164-.586.5-.5.914.082.418.414.668.832.668h1.082c3.664 0 5.582 0 8.914 3.332 1.457 1.457 1.5 3.696.192 5.34a.762.762 0 0 0-.442.239l-3.703 4.129-2.797-2.797c-3.07-3.075-5.234-5.98-6.898-9.22a6.587 6.587 0 0 0-1.93-4.355C10.086.523 8.086-.14 6.086.023c-.25.086-.5.25-.582.418a.75.75 0 0 0 0 .832l2.332 4.164c-.5 1.086-1.664 1.75-2.832 1.668l-2.414-4c-.086-.25-.418-.414-.668-.414-.25-.086-.5.082-.664.332-2 3-1.25 6.997 1.746 9.079a6.635 6.635 0 0 0 3.379 1.234c.012.004.023.012.039.016 3.246 1.664 6.16 3.832 9.242 6.914l3.047 2.976L1.008 43.004c-.668.664-1 1.582-1 2.5 0 .914.332 1.746 1 2.414l1.164 1.164c.668.586 1.5.918 2.332.918.832 0 1.75-.332 2.418-1l17.683-19.797 5.137 5.137c1.746 1.75 3.992 4.828 6.988 9.316a6.565 6.565 0 0 0 1.926 4.262c1.246 1.25 2.914 1.914 4.664 1.914h.664c.25 0 .5-.164.668-.414a.765.765 0 0 0 0-.832l-2.418-4.082c.586-1.082 1.668-1.75 2.918-1.668l2.332 4c.082.25.414.414.664.414.336-.082.586-.164.75-.414 2-3 1.168-6.996-1.75-9.078zM28.16 7.27c-2.664-2.582-4.664-3.415-6.914-3.665 4.746-1.5 8.246-1.414 11.746.168 1.996.832 2.664 1.5 4.414 3.25l2.996 2.997c.668.668 1.082 1.5 1.168 2.332.082.418.082.75.082 1 0 .918.082 1.582 1.082 2.582.336.332.836.5 1.25.5.5 0 .918-.168 1.168-.5l2.914 2.914a.76.76 0 0 1 .25.586c0 .25-.082.414-.25.582l-5.914 5.914a.805.805 0 0 1-1.164 0l-2.918-2.918c.336-.25.5-.664.418-1.164 0-.418-.168-.918-.5-1.25-1-1-1.668-1.082-2.582-1.082-.25 0-.582 0-1-.082-.918-.086-1.664-.5-2.332-1.168l-3.582-3.582c1.832-2.246 1.668-5.414-.332-7.414zM2.008 5.273L3.754 8.27c.168.25.418.418.668.418h.418c1.914.082 3.664-.918 4.496-2.583l.168-.418a.633.633 0 0 0 0-.75L7.668 1.773c1 .168 1.918.668 2.668 1.418.86.93 1.406 2.106 1.441 3.372a.863.863 0 0 0-.027.21c0 .383-.047.762-.133 1.125a5.103 5.103 0 0 1-2.113 2.954c-1.668 1.085-3.918 1.085-5.582-.082-1.75-1.25-2.5-3.5-1.914-5.497zm14.824 13.825c-2.5-2.582-4.996-4.578-7.664-6.164a9.4 9.4 0 0 0 1.332-.664 6.56 6.56 0 0 0 2.582-3.25c1.586 2.668 3.582 5.164 6.082 7.664l2.86 2.859-2.243 2.504zM5.754 47.75c-.668.668-1.75.75-2.414.086L2.172 46.75a1.64 1.64 0 0 1-.5-1.164c0-.5.168-.918.582-1.332l.473-.527 1.195 1.191c.168.168.332.25.582.25.25 0 .418-.082.582-.25a.798.798 0 0 0 0-1.164l-1.258-1.262 1.102-1.23 1.324 1.324c.168.168.332.25.582.25.25 0 .418-.082.582-.25a.798.798 0 0 0 0-1.164l-1.387-1.39 21.422-23.97 3.5 3.497-3.437 3.847a.83.83 0 0 0-.274.192l-3.332 3.746a.909.909 0 0 0-.203.32zm19.992-19.82l2.277-2.551 5.383 5.379c1.5 1.586 4.082 3.582 7.828 6.082a6.462 6.462 0 0 0-1.496.75c-1.035.644-1.765 1.543-2.277 2.535-.008.012-.012.027-.02.043a2.568 2.568 0 0 0-.09.18 3.065 3.065 0 0 0-.117.257c-.027.06-.05.118-.074.176-.004.012-.008.02-.012.028-.027.066-.05.129-.078.195a141.92 141.92 0 0 0-1.363-1.965l1.113-1.117a.798.798 0 0 0 0-1.164.798.798 0 0 0-1.164 0l-.93.926c-.343-.47-.68-.91-1.003-1.329l.765-.765a.798.798 0 0 0 0-1.164.798.798 0 0 0-1.164 0l-.636.633a28.768 28.768 0 0 0-1.696-1.883zm22.32 16.656l-1.75-3c-.164-.25-.414-.414-.664-.414h-.418c-1.914-.168-3.664.914-4.496 2.582l-.168.414a.621.621 0 0 0 0 .75l1.832 3.168c-1-.168-1.914-.668-2.664-1.418-.843-.914-1.386-2.063-1.441-3.297a.819.819 0 0 0 .023-.2 5.03 5.03 0 0 1 .918-2.882 5.28 5.28 0 0 1 1.332-1.285c.832-.582 1.75-.832 2.75-.832.996 0 1.996.332 2.828.918 1.75 1.25 2.5 3.496 1.918 5.496zm0 0"/></svg><svg width="52" height="52" viewBox="-1 -1 52 52" id="tumblr" x="156" y="326.16999999999996" xmlns="http://www.w3.org/2000/svg"><path d="M36.805 39.762s-1.485 1.707-4.305 1.707c-2.816 0-4.078-1.707-4.078-4.227V22.95h9.113v-8.664h-9.113V0h-6.863c-1.075 6.41-5.301 11.75-11.036 14.371v8.578h6.696v16.457C17.219 41.691 19.37 50 30.352 50c6.453 0 9.125-4.152 9.125-4.152zm0 0" fill="#2a445d"/></svg><svg width="52" height="52" viewBox="-1 -1 52 52" id="twitter" x="208" y="326.16999999999996" xmlns="http://www.w3.org/2000/svg"><path d="M50 9.496a21.45 21.45 0 0 1-5.906 1.621 10.197 10.197 0 0 0 4.508-5.668 20.396 20.396 0 0 1-6.5 2.48 10.277 10.277 0 0 0-7.485-3.242c-5.676 0-10.246 4.606-10.246 10.254 0 .813.07 1.594.238 2.336-8.523-.414-16.062-4.5-21.129-10.722a10.346 10.346 0 0 0-1.402 5.183c0 3.551 1.828 6.696 4.555 8.52-1.649-.031-3.266-.512-4.633-1.266v.113c0 4.98 3.555 9.122 8.21 10.075-.831.226-1.741.336-2.687.336-.656 0-1.316-.04-1.937-.176 1.328 4.058 5.094 7.043 9.578 7.14a20.59 20.59 0 0 1-12.71 4.372c-.84 0-1.65-.036-2.454-.141 4.54 2.93 9.922 4.602 15.727 4.602 18.859 0 29.171-15.626 29.171-29.168 0-.454-.015-.891-.035-1.325 2.035-1.445 3.742-3.25 5.137-5.324zm0 0" fill="#03a9f4"/></svg><svg width="52" height="52" viewBox="-1 -1 52 52" id="unwanted" x="260" y="326.16999999999996" xmlns="http://www.w3.org/2000/svg"><path d="M49.129 33.188c-.684-.575-1.684-.836-2.625-.672l-20.395 4.082-3.855-3.852a.809.809 0 0 0-.586-.246H.832a.833.833 0 0 0-.832.832v12.5c0 .461.371.836.832.836H12.5c.46 0 .832-.375.832-.836V45h2.29l8.98 4.898A.828.828 0 0 0 25 50h2.5c.152 0 .3-.04.43-.121l20.824-12.492C49.547 36.926 50 36.055 50 35c0-.695-.309-1.34-.871-1.813zM8.332 45H1.668V34.168h6.664zm3.336 0H10V34.168h1.668zm36.234-9.047L27.27 48.332h-2.06l-8.976-4.898a.854.854 0 0 0-.402-.102h-2.5v-9.164h7.988l7.258 7.254c.367.367.59.773.59 1.078 0 .84-.828 1.668-1.668 1.668-.305 0-.707-.223-1.078-.59l-5-5-1.176 1.176 5 5.004c.695.691 1.496 1.074 2.254 1.074 1.777 0 3.332-1.555 3.332-3.332 0-.762-.383-1.563-1.078-2.254l-2.23-2.234 19.285-3.86c.437-.078.941.051 1.25.313.273.23.273.46.273.535 0 .21-.039.727-.43.953zm0 0M25 20.832a.83.83 0 0 1-.832-.832.83.83 0 0 1 .832-.832.83.83 0 0 1 .832.832.834.834 0 0 0 1.668 0c0-1.086-.7-2-1.668-2.348v-.984h-1.664v.984A2.499 2.499 0 0 0 22.5 20c0 1.379 1.121 2.5 2.5 2.5a.834.834 0 1 1 0 1.668.834.834 0 0 1-.832-.836H22.5c0 1.086.7 2.004 1.668 2.348v.988h1.664v-.988a2.495 2.495 0 0 0 1.668-2.348c0-1.379-1.121-2.5-2.5-2.5zm0 0"/><path d="M45.516 16.012L25.516.18a.833.833 0 0 0-1.032 0l-7.816 6.187V4.168a.837.837 0 0 0-.836-.836h-5a.834.834 0 0 0-.832.836v7.477l-5.516 4.367a.84.84 0 0 0-.316.656V22.5c0 .32.184.61.469.75.289.137.629.102.879-.098l3.652-2.886V30c0 .46.371.832.832.832h30a.83.83 0 0 0 .832-.832v-9.734l3.652 2.886c.149.121.332.18.516.18a.85.85 0 0 0 .363-.082.837.837 0 0 0 .469-.75v-5.832a.84.84 0 0 0-.316-.656zM11.668 5H15v2.688l-3.332 2.636zm17.5 24.168h-8.336V18.332A4.171 4.171 0 0 1 25 14.168a4.171 4.171 0 0 1 4.168 4.164zm10 0h-8.336V18.332A5.84 5.84 0 0 0 25 12.5a5.84 5.84 0 0 0-5.832 5.832v10.836h-8.336V18.945L25 7.73l14.168 11.215zm5-8.39l-3.648-2.891h-.004l-15-11.875a.833.833 0 0 0-1.032 0l-15 11.875H9.48l-3.648 2.89V17.07l5.516-4.367h.004l5-3.957v-.004L25 1.895 44.168 17.07zm0 0"/><path d="M16.668 19.168h-3.336A.83.83 0 0 0 12.5 20v3.332c0 .461.371.836.832.836h3.336c.46 0 .832-.375.832-.836V20a.83.83 0 0 0-.832-.832zm-.836 3.332h-1.664v-1.668h1.664zm0 0M36.668 19.168h-3.336A.83.83 0 0 0 32.5 20v3.332c0 .461.371.836.832.836h3.336c.46 0 .832-.375.832-.836V20a.83.83 0 0 0-.832-.832zm-.836 3.332h-1.664v-1.668h1.664zm0 0"/></svg><svg width="52" height="52" viewBox="-1 -1 52 52" id="wikipedia" x="312" y="326.16999999999996" xmlns="http://www.w3.org/2000/svg"><path d="M49.672 10.191H39.71v1.7h.996c.777 0 1.48.402 1.879 1.07.398.668.414 1.476.039 2.16L31.91 34.79l-4.879-11.633 4.598-8.433a5.421 5.421 0 0 1 4.762-2.832h.547v-1.7h-10.29v1.7h.997c.777 0 1.48.402 1.878 1.07.395.668.41 1.476.04 2.16l-3.336 6.121-2.97-7.082a1.613 1.613 0 0 1 .145-1.539 1.61 1.61 0 0 1 1.364-.73h1.086v-1.7H13.676v1.7h.484a5.617 5.617 0 0 1 5.192 3.453l4.39 10.465-4.894 8.98-8.653-20.629a1.603 1.603 0 0 1 .145-1.539 1.61 1.61 0 0 1 1.363-.73H13.2v-1.7H0v1.7h1.098a5.611 5.611 0 0 1 5.187 3.453l9.977 23.781c.175.418.582.684 1.031.684.414 0 .781-.215.98-.582l1.301-2.387 4.969-9.117 4.785 11.402c.172.418.578.684 1.027.684.418 0 .782-.215.98-.582l1.302-2.387L44.69 14.723a5.423 5.423 0 0 1 4.766-2.832H50v-1.7zm0 0" fill="#222a30"/></svg><svg width="52" height="52" viewBox="-1 -1 52 52" id="wordpress" x="364" y="326.16999999999996" xmlns="http://www.w3.org/2000/svg"><g fill="#00769d"><path d="M15 15.43h-2.762l7.528 21.28 4.214-12.042-3.27-9.238h-2.913v-2.028h12.902v2.028h-3.02l7.528 21.28 2.703-7.733c3.55-9.907-2.906-12.993-2.906-15.204a4.004 4.004 0 0 1 4.351-3.988A20.847 20.847 0 0 0 25 4.082c-7.262 0-13.66 3.703-17.41 9.32H15zm0 0M4.082 25c0 8.008 4.5 14.965 11.11 18.48L5.753 16.797A20.857 20.857 0 0 0 4.082 25zm0 0M43.203 14.691c.3 1.762.211 3.743-.25 5.73h.086l-.316.903c-.188.653-.426 1.32-.692 1.977l-7.199 20.164C41.43 39.945 45.918 33 45.918 25a20.83 20.83 0 0 0-2.715-10.309zm0 0"/><path d="M18.547 44.902A20.875 20.875 0 0 0 25 45.918c2.148 0 4.219-.324 6.168-.926l-6.117-17.297zm0 0"/><path d="M42.676 7.324C37.957 2.602 31.676 0 25 0 18.32 0 12.043 2.602 7.324 7.324 2.602 12.043 0 18.32 0 25c0 6.68 2.602 12.957 7.324 17.676C12.043 47.398 18.32 50 25 50c6.68 0 12.957-2.602 17.676-7.324C47.398 37.957 50 31.676 50 25c0-6.68-2.602-12.957-7.324-17.676zM25 48.238C12.187 48.238 1.762 37.813 1.762 25 1.762 12.187 12.187 1.762 25 1.762c12.813 0 23.234 10.425 23.234 23.238 0 12.813-10.422 23.238-23.234 23.238zm0 0"/></g></svg><svg width="52" height="52" viewBox="-1 -1 52 52" id="youtube" y="170.17" xmlns="http://www.w3.org/2000/svg"><path d="M39.617 7.309H10.383C4.648 7.309 0 11.957 0 17.695v14.61C0 38.043 4.648 42.69 10.383 42.69h29.234C45.352 42.691 50 38.043 50 32.305v-14.61C50 11.957 45.352 7.31 39.617 7.31zM32.594 25.71l-13.672 6.52a.546.546 0 0 1-.785-.493V18.285a.55.55 0 0 1 .797-.488l13.671 6.93a.549.549 0 0 1-.011.984zm0 0" fill="#f61c0d"/></svg></svg>