<!-- Generator: Adobe Illustrator 19.0.0, SVG Export Plug-In . SVG Version: 6.00 Build 0)  -->
<svg xmlns="http://www.w3.org/2000/svg" xmlns:xlink="http://www.w3.org/1999/xlink" width="50px" height="50px" viewBox="0 0 50 50" version="1.1">
<g id="surface1">
<path style=" stroke:none;fill-rule:nonzero;fill:rgb(0%,0%,0%);fill-opacity:1;" d="M 34.457031 25.066406 L 28.316406 25.066406 C 28.003906 23.863281 27.0625 22.921875 25.859375 22.609375 L 25.859375 13.886719 C 25.859375 13.414062 25.472656 13.027344 25 13.027344 C 24.523438 13.027344 24.140625 13.414062 24.140625 13.886719 L 24.140625 22.609375 C 22.660156 22.992188 21.558594 24.328125 21.558594 25.925781 C 21.558594 27.824219 23.101562 29.363281 25 29.363281 C 26.597656 29.363281 27.933594 28.265625 28.316406 26.785156 L 34.457031 26.785156 C 34.933594 26.785156 35.316406 26.402344 35.316406 25.925781 C 35.316406 25.449219 34.933594 25.066406 34.457031 25.066406 Z M 25 27.644531 C 24.050781 27.644531 23.28125 26.875 23.28125 25.925781 C 23.28125 24.976562 24.050781 24.207031 25 24.207031 C 25.949219 24.207031 26.71875 24.976562 26.71875 25.925781 C 26.71875 26.875 25.949219 27.644531 25 27.644531 Z M 25 27.644531 "/>
<path style=" stroke:none;fill-rule:nonzero;fill:rgb(0%,0%,0%);fill-opacity:1;" d="M 43.152344 8.394531 L 46.671875 11.917969 C 46.835938 12.078125 47.054688 12.167969 47.28125 12.167969 C 47.507812 12.167969 47.726562 12.078125 47.890625 11.917969 C 50.613281 9.195312 50.613281 4.765625 47.890625 2.042969 C 45.167969 -0.679688 40.738281 -0.679688 38.015625 2.042969 C 37.851562 2.203125 37.761719 2.421875 37.761719 2.648438 C 37.761719 2.878906 37.851562 3.097656 38.015625 3.257812 L 41.9375 7.179688 L 40.476562 8.640625 C 36.367188 4.957031 30.941406 2.710938 25 2.710938 C 19.058594 2.710938 13.636719 4.957031 9.527344 8.640625 L 8.0625 7.179688 L 11.984375 3.257812 C 12.148438 3.097656 12.238281 2.878906 12.238281 2.648438 C 12.238281 2.421875 12.148438 2.203125 11.984375 2.042969 C 9.261719 -0.679688 4.832031 -0.679688 2.109375 2.042969 C -0.613281 4.765625 -0.613281 9.195312 2.109375 11.917969 C 2.273438 12.078125 2.492188 12.167969 2.71875 12.167969 C 2.945312 12.167969 3.164062 12.078125 3.328125 11.917969 L 6.847656 8.394531 L 8.289062 9.835938 C 4.265625 14.011719 1.785156 19.683594 1.785156 25.925781 C 1.785156 34.4375 6.390625 41.886719 13.238281 45.929688 L 10.636719 48.53125 C 10.296875 48.867188 10.296875 49.410156 10.636719 49.75 C 10.800781 49.914062 11.023438 50 11.242188 50 C 11.460938 50 11.683594 49.914062 11.851562 49.75 L 14.816406 46.78125 C 17.894531 48.289062 21.347656 49.140625 25 49.140625 C 28.648438 49.140625 32.105469 48.289062 35.183594 46.78125 L 38.148438 49.75 C 38.316406 49.914062 38.535156 50 38.757812 50 C 38.976562 50 39.195312 49.914062 39.363281 49.75 C 39.699219 49.410156 39.699219 48.867188 39.363281 48.53125 L 36.761719 45.929688 C 43.609375 41.886719 48.214844 34.4375 48.214844 25.925781 C 48.214844 19.683594 45.734375 14.011719 41.710938 9.835938 Z M 46.671875 3.257812 C 48.519531 5.101562 48.703125 7.988281 47.230469 10.042969 L 39.886719 2.699219 C 41.941406 1.226562 44.828125 1.410156 46.671875 3.257812 Z M 2.769531 10.042969 C 1.296875 7.988281 1.480469 5.101562 3.328125 3.257812 C 5.171875 1.414062 8.058594 1.226562 10.113281 2.699219 Z M 25 47.421875 C 13.148438 47.421875 3.503906 37.777344 3.503906 25.925781 C 3.503906 14.074219 13.148438 4.429688 25 4.429688 C 36.851562 4.429688 46.496094 14.074219 46.496094 25.925781 C 46.496094 37.777344 36.851562 47.421875 25 47.421875 Z M 25 47.421875 "/>
<path style=" stroke:none;fill-rule:nonzero;fill:rgb(0%,0%,0%);fill-opacity:1;" d="M 42.09375 16 C 40.367188 13.035156 37.890625 10.558594 34.925781 8.832031 C 34.910156 8.824219 34.902344 8.808594 34.886719 8.800781 C 34.871094 8.789062 34.855469 8.789062 34.839844 8.78125 C 31.941406 7.113281 28.582031 6.148438 25 6.148438 C 21.417969 6.148438 18.058594 7.109375 15.160156 8.78125 C 15.144531 8.789062 15.128906 8.789062 15.113281 8.800781 C 15.097656 8.808594 15.089844 8.824219 15.074219 8.832031 C 12.109375 10.558594 9.636719 13.035156 7.90625 16 C 7.898438 16.015625 7.882812 16.023438 7.875 16.039062 C 7.867188 16.050781 7.867188 16.070312 7.859375 16.085938 C 6.1875 18.984375 5.226562 22.34375 5.226562 25.925781 C 5.226562 29.507812 6.1875 32.867188 7.859375 35.765625 C 7.867188 35.78125 7.867188 35.796875 7.875 35.8125 C 7.886719 35.835938 7.902344 35.851562 7.917969 35.871094 C 9.644531 38.824219 12.117188 41.292969 15.074219 43.019531 C 15.089844 43.027344 15.097656 43.042969 15.113281 43.050781 C 15.136719 43.066406 15.160156 43.070312 15.179688 43.082031 C 18.078125 44.742188 21.429688 45.699219 25 45.699219 C 28.574219 45.699219 31.921875 44.742188 34.820312 43.082031 C 34.839844 43.070312 34.867188 43.066406 34.886719 43.050781 C 34.902344 43.042969 34.910156 43.027344 34.925781 43.019531 C 37.882812 41.292969 40.355469 38.828125 42.082031 35.871094 C 42.097656 35.851562 42.113281 35.835938 42.125 35.8125 C 42.136719 35.796875 42.136719 35.78125 42.140625 35.765625 C 43.8125 32.863281 44.777344 29.507812 44.777344 25.925781 C 44.777344 22.34375 43.8125 18.984375 42.140625 16.085938 C 42.132812 16.070312 42.136719 16.054688 42.125 16.039062 C 42.117188 16.023438 42.101562 16.015625 42.09375 16 Z M 34.753906 41.097656 L 34.34375 40.386719 C 34.105469 39.976562 33.578125 39.835938 33.167969 40.074219 C 32.757812 40.308594 32.617188 40.835938 32.851562 41.246094 L 33.265625 41.960938 C 31.027344 43.117188 28.519531 43.8125 25.859375 43.9375 L 25.859375 43.121094 C 25.859375 42.644531 25.476562 42.261719 25 42.261719 C 24.527344 42.261719 24.140625 42.644531 24.140625 43.121094 L 24.140625 43.9375 C 21.480469 43.8125 18.972656 43.117188 16.734375 41.960938 L 17.148438 41.246094 C 17.386719 40.835938 17.246094 40.308594 16.832031 40.074219 C 16.417969 39.835938 15.894531 39.976562 15.660156 40.386719 L 15.25 41.097656 C 13.078125 39.699219 11.230469 37.847656 9.828125 35.679688 L 10.539062 35.269531 C 10.949219 35.03125 11.089844 34.503906 10.855469 34.09375 C 10.617188 33.683594 10.089844 33.539062 9.679688 33.777344 L 8.96875 34.191406 C 7.808594 31.953125 7.117188 29.445312 6.988281 26.785156 L 7.804688 26.785156 C 8.28125 26.785156 8.664062 26.402344 8.664062 25.925781 C 8.664062 25.449219 8.28125 25.066406 7.804688 25.066406 L 6.988281 25.066406 C 7.113281 22.40625 7.808594 19.898438 8.964844 17.660156 L 9.679688 18.074219 C 9.8125 18.152344 9.960938 18.1875 10.105469 18.1875 C 10.40625 18.1875 10.691406 18.035156 10.851562 17.757812 C 11.089844 17.347656 10.949219 16.820312 10.539062 16.585938 L 9.828125 16.171875 C 11.226562 14.003906 13.078125 12.152344 15.246094 10.753906 L 15.65625 11.464844 C 15.816406 11.738281 16.105469 11.894531 16.402344 11.894531 C 16.546875 11.894531 16.695312 11.855469 16.832031 11.777344 C 17.242188 11.542969 17.382812 11.015625 17.144531 10.605469 L 16.734375 9.890625 C 18.972656 8.734375 21.480469 8.039062 24.140625 7.914062 L 24.140625 8.730469 C 24.140625 9.203125 24.523438 9.589844 25 9.589844 C 25.472656 9.589844 25.859375 9.203125 25.859375 8.730469 L 25.859375 7.914062 C 28.515625 8.039062 31.023438 8.734375 33.261719 9.890625 L 32.851562 10.605469 C 32.613281 11.015625 32.753906 11.542969 33.164062 11.777344 C 33.300781 11.855469 33.449219 11.894531 33.59375 11.894531 C 33.890625 11.894531 34.179688 11.738281 34.339844 11.464844 L 34.75 10.753906 C 36.921875 12.152344 38.769531 14.003906 40.167969 16.171875 L 39.460938 16.582031 C 39.046875 16.820312 38.90625 17.347656 39.144531 17.757812 C 39.304688 18.03125 39.59375 18.1875 39.890625 18.1875 C 40.035156 18.1875 40.183594 18.152344 40.320312 18.070312 L 41.03125 17.660156 C 42.191406 19.898438 42.882812 22.40625 43.011719 25.066406 L 42.195312 25.066406 C 41.71875 25.066406 41.335938 25.449219 41.335938 25.925781 C 41.335938 26.398438 41.71875 26.785156 42.195312 26.785156 L 43.011719 26.785156 C 42.882812 29.441406 42.191406 31.953125 41.03125 34.1875 L 40.320312 33.777344 C 39.90625 33.539062 39.382812 33.683594 39.144531 34.09375 C 38.90625 34.503906 39.046875 35.027344 39.460938 35.265625 L 40.167969 35.675781 C 38.773438 37.847656 36.921875 39.695312 34.753906 41.097656 Z M 34.753906 41.097656 "/>
</g>
</svg>
