<!-- Generator: Adobe Illustrator 16.0.0, SVG Export Plug-In . SVG Version: 6.00 Build 0)  -->
<svg xmlns="http://www.w3.org/2000/svg" xmlns:xlink="http://www.w3.org/1999/xlink" width="50px" height="50px" viewBox="0 0 50 50" version="1.1">
<g id="surface1">
<path style=" stroke:none;fill-rule:nonzero;fill:rgb(0%,0%,0%);fill-opacity:1;" d="M 36.113281 19.042969 C 33.726562 23.195312 29.691406 26.40625 25 26.40625 C 20.308594 26.40625 16.273438 23.195312 13.886719 19.046875 C 9.097656 21.316406 5.777344 26.179688 5.777344 31.832031 L 5.777344 44.429688 C 5.777344 47.105469 7.945312 49.273438 10.617188 49.273438 L 39.375 49.273438 C 42.058594 49.273438 44.222656 47.105469 44.222656 44.429688 L 44.222656 31.832031 C 44.222656 26.179688 40.902344 21.3125 36.113281 19.042969 Z M 32.261719 41.347656 C 33.074219 42.15625 33.074219 43.46875 32.261719 44.277344 C 31.859375 44.683594 31.328125 44.886719 30.796875 44.886719 C 30.265625 44.886719 29.738281 44.683594 29.335938 44.277344 L 25 39.941406 L 20.664062 44.277344 C 20.261719 44.683594 19.730469 44.886719 19.199219 44.886719 C 18.671875 44.886719 18.140625 44.683594 17.734375 44.277344 C 16.925781 43.46875 16.925781 42.15625 17.734375 41.347656 L 22.070312 37.015625 L 17.734375 32.679688 C 16.925781 31.871094 16.925781 30.558594 17.734375 29.75 C 18.542969 28.941406 19.855469 28.941406 20.664062 29.75 L 25 34.085938 L 29.335938 29.75 C 30.144531 28.941406 31.453125 28.941406 32.261719 29.75 C 33.074219 30.558594 33.074219 31.871094 32.261719 32.679688 L 27.929688 37.015625 Z M 32.261719 41.347656 "/>
<path style=" stroke:none;fill-rule:nonzero;fill:rgb(0%,0%,0%);fill-opacity:1;" d="M 25 23.148438 C 30.617188 23.148438 35.167969 16.507812 35.167969 10.894531 C 35.167969 5.277344 30.617188 0.726562 25 0.726562 C 19.382812 0.726562 14.832031 5.277344 14.832031 10.894531 C 14.832031 16.511719 19.382812 23.148438 25 23.148438 Z M 25 23.148438 "/>
</g>
</svg>
