<!-- Generator: Adobe Illustrator 19.0.0, SVG Export Plug-In . SVG Version: 6.00 Build 0)  -->
<svg xmlns="http://www.w3.org/2000/svg" xmlns:xlink="http://www.w3.org/1999/xlink" width="50px" height="50px" viewBox="0 0 50 50" version="1.1">
<g id="surface1">
<path style=" stroke:none;fill-rule:nonzero;fill:rgb(0%,0%,0%);fill-opacity:1;" d="M 49.671875 28.503906 L 35.503906 17.671875 C 35.207031 17.441406 34.792969 17.441406 34.492188 17.671875 L 20.800781 28.144531 L 11.296875 21.808594 C 11.015625 21.621094 10.652344 21.621094 10.371094 21.808594 L 0.371094 28.472656 C 0.140625 28.628906 0 28.886719 0 29.167969 L 0 49.167969 C 0 49.628906 0.371094 50 0.832031 50 L 49.167969 50 C 49.628906 50 50 49.628906 50 49.167969 L 50 29.167969 C 50 28.90625 49.878906 28.664062 49.671875 28.503906 Z M 13.332031 48.332031 L 8.332031 48.332031 L 8.332031 36.667969 L 13.332031 36.667969 Z M 20 48.332031 L 15 48.332031 L 15 35.832031 C 15 35.371094 14.628906 35 14.167969 35 L 7.5 35 C 7.039062 35 6.667969 35.371094 6.667969 35.832031 L 6.667969 48.332031 L 1.667969 48.332031 L 1.667969 33.777344 L 10.832031 27.667969 L 20 33.777344 Z M 20 31.777344 L 11.296875 25.972656 C 11.015625 25.785156 10.652344 25.785156 10.371094 25.972656 L 1.667969 31.777344 L 1.667969 29.613281 L 10.832031 23.5 L 20 29.613281 Z M 48.332031 48.332031 L 21.667969 48.332031 L 21.667969 33.746094 L 35 23.550781 L 48.332031 33.746094 Z M 48.332031 31.648438 L 35.503906 21.839844 C 35.207031 21.609375 34.792969 21.609375 34.492188 21.839844 L 21.667969 31.648438 L 21.667969 29.578125 L 35 19.382812 L 48.332031 29.578125 Z M 48.332031 31.648438 "/>
<path style=" stroke:none;fill-rule:nonzero;fill:rgb(0%,0%,0%);fill-opacity:1;" d="M 47.332031 0.335938 C 47.144531 0.0820312 46.832031 -0.0390625 46.523438 0.0117188 L 35.6875 1.910156 C 35.40625 1.960938 35.167969 2.152344 35.058594 2.417969 C 34.953125 2.683594 34.988281 2.984375 35.15625 3.21875 L 36.234375 4.707031 L 20.800781 16.476562 L 11.296875 10.140625 C 11.015625 9.953125 10.652344 9.953125 10.371094 10.140625 L 0.371094 16.808594 C 0 17.054688 -0.109375 17.546875 0.121094 17.929688 L 2.621094 22.097656 C 2.738281 22.289062 2.929688 22.429688 3.152344 22.480469 C 3.375 22.53125 3.605469 22.488281 3.796875 22.359375 L 10.832031 17.667969 L 20.371094 24.027344 C 20.511719 24.121094 20.671875 24.167969 20.832031 24.167969 C 21.007812 24.167969 21.183594 24.113281 21.328125 24.003906 L 40.132812 10.097656 L 41.019531 11.320312 C 41.191406 11.558594 41.472656 11.683594 41.761719 11.664062 C 42.054688 11.640625 42.3125 11.464844 42.441406 11.203125 L 47.414062 1.203125 C 47.550781 0.921875 47.523438 0.585938 47.332031 0.335938 Z M 41.5625 9.226562 L 40.988281 8.4375 C 40.859375 8.257812 40.660156 8.136719 40.441406 8.101562 C 40.222656 8.066406 39.996094 8.125 39.820312 8.257812 L 20.808594 22.316406 L 11.296875 15.972656 C 11.15625 15.878906 10.996094 15.832031 10.832031 15.832031 C 10.671875 15.832031 10.511719 15.878906 10.371094 15.972656 L 3.597656 20.488281 L 1.957031 17.753906 L 10.832031 11.835938 L 20.371094 18.191406 C 20.664062 18.390625 21.054688 18.378906 21.339844 18.164062 L 37.894531 5.542969 C 38.253906 5.269531 38.328125 4.757812 38.0625 4.390625 L 37.289062 3.320312 L 45.1875 1.9375 Z M 41.5625 9.226562 "/>
<path style=" stroke:none;fill-rule:nonzero;fill:rgb(0%,0%,0%);fill-opacity:1;" d="M 46.667969 15.832031 C 45.746094 15.832031 45 15.085938 45 14.167969 C 45 13.246094 45.746094 12.5 46.667969 12.5 C 47.585938 12.5 48.332031 13.246094 48.332031 14.167969 L 50 14.167969 C 50 12.617188 48.933594 11.324219 47.5 10.953125 L 47.5 9.167969 L 45.832031 9.167969 L 45.832031 10.953125 C 44.398438 11.324219 43.332031 12.617188 43.332031 14.167969 C 43.332031 16.003906 44.828125 17.5 46.667969 17.5 C 47.585938 17.5 48.332031 18.246094 48.332031 19.167969 C 48.332031 20.085938 47.585938 20.832031 46.667969 20.832031 C 45.746094 20.832031 45 20.085938 45 19.167969 L 43.332031 19.167969 C 43.332031 20.714844 44.398438 22.007812 45.832031 22.382812 L 45.832031 24.167969 L 47.5 24.167969 L 47.5 22.382812 C 48.933594 22.007812 50 20.714844 50 19.167969 C 50 17.328125 48.503906 15.832031 46.667969 15.832031 Z M 46.667969 15.832031 "/>
<path style=" stroke:none;fill-rule:nonzero;fill:rgb(0%,0%,0%);fill-opacity:1;" d="M 45 35 L 25 35 C 24.539062 35 24.167969 35.371094 24.167969 35.832031 L 24.167969 43.332031 C 24.167969 43.792969 24.539062 44.167969 25 44.167969 L 45 44.167969 C 45.460938 44.167969 45.832031 43.792969 45.832031 43.332031 L 45.832031 35.832031 C 45.832031 35.371094 45.460938 35 45 35 Z M 30.832031 42.5 L 25.832031 42.5 L 25.832031 36.667969 L 30.832031 36.667969 Z M 37.5 42.5 L 32.5 42.5 L 32.5 36.667969 L 37.5 36.667969 Z M 44.167969 42.5 L 39.167969 42.5 L 39.167969 36.667969 L 44.167969 36.667969 Z M 44.167969 42.5 "/>
<path style=" stroke:none;fill-rule:nonzero;fill:rgb(0%,0%,0%);fill-opacity:1;" d="M 30.832031 31.667969 L 32.5 31.667969 L 32.5 33.332031 L 30.832031 33.332031 Z M 30.832031 31.667969 "/>
<path style=" stroke:none;fill-rule:nonzero;fill:rgb(0%,0%,0%);fill-opacity:1;" d="M 34.167969 31.667969 L 35.832031 31.667969 L 35.832031 33.332031 L 34.167969 33.332031 Z M 34.167969 31.667969 "/>
<path style=" stroke:none;fill-rule:nonzero;fill:rgb(0%,0%,0%);fill-opacity:1;" d="M 37.5 31.667969 L 39.167969 31.667969 L 39.167969 33.332031 L 37.5 33.332031 Z M 37.5 31.667969 "/>
<path style=" stroke:none;fill-rule:nonzero;fill:rgb(0%,0%,0%);fill-opacity:1;" d="M 16.667969 0 L 26.667969 0 L 26.667969 1.667969 L 16.667969 1.667969 Z M 16.667969 0 "/>
<path style=" stroke:none;fill-rule:nonzero;fill:rgb(0%,0%,0%);fill-opacity:1;" d="M 13.332031 0 L 15 0 L 15 1.667969 L 13.332031 1.667969 Z M 13.332031 0 "/>
<path style=" stroke:none;fill-rule:nonzero;fill:rgb(0%,0%,0%);fill-opacity:1;" d="M 10 0 L 11.667969 0 L 11.667969 1.667969 L 10 1.667969 Z M 10 0 "/>
<path style=" stroke:none;fill-rule:nonzero;fill:rgb(0%,0%,0%);fill-opacity:1;" d="M 6.667969 0 L 8.332031 0 L 8.332031 1.667969 L 6.667969 1.667969 Z M 6.667969 0 "/>
<path style=" stroke:none;fill-rule:nonzero;fill:rgb(0%,0%,0%);fill-opacity:1;" d="M 10 3.332031 L 20 3.332031 L 20 5 L 10 5 Z M 10 3.332031 "/>
<path style=" stroke:none;fill-rule:nonzero;fill:rgb(0%,0%,0%);fill-opacity:1;" d="M 6.667969 3.332031 L 8.332031 3.332031 L 8.332031 5 L 6.667969 5 Z M 6.667969 3.332031 "/>
<path style=" stroke:none;fill-rule:nonzero;fill:rgb(0%,0%,0%);fill-opacity:1;" d="M 3.332031 3.332031 L 5 3.332031 L 5 5 L 3.332031 5 Z M 3.332031 3.332031 "/>
<path style=" stroke:none;fill-rule:nonzero;fill:rgb(0%,0%,0%);fill-opacity:1;" d="M 0 3.332031 L 1.667969 3.332031 L 1.667969 5 L 0 5 Z M 0 3.332031 "/>
</g>
</svg>
