<!-- Generator: Adobe Illustrator 19.0.0, SVG Export Plug-In . SVG Version: 6.00 Build 0)  -->
<svg xmlns="http://www.w3.org/2000/svg" xmlns:xlink="http://www.w3.org/1999/xlink" width="50px" height="50px" viewBox="0 0 50 50" version="1.1">
<g id="surface1">
<path style=" stroke:none;fill-rule:nonzero;fill:rgb(27.843137%,34.901961%,57.647059%);fill-opacity:1;" d="M 43.261719 0 L 6.738281 0 C 3.015625 0 0 3.015625 0 6.738281 L 0 43.261719 C 0 46.984375 3.015625 50 6.738281 50 L 24.75 50 L 24.78125 32.132812 L 20.140625 32.132812 C 19.535156 32.132812 19.046875 31.644531 19.046875 31.042969 L 19.023438 25.28125 C 19.019531 24.675781 19.511719 24.183594 20.117188 24.183594 L 24.75 24.183594 L 24.75 18.617188 C 24.75 12.160156 28.695312 8.644531 34.457031 8.644531 L 39.183594 8.644531 C 39.789062 8.644531 40.28125 9.132812 40.28125 9.738281 L 40.28125 14.59375 C 40.28125 15.199219 39.789062 15.691406 39.183594 15.691406 L 36.285156 15.691406 C 33.152344 15.691406 32.542969 17.179688 32.542969 19.363281 L 32.542969 24.183594 L 39.429688 24.183594 C 40.085938 24.183594 40.59375 24.753906 40.515625 25.40625 L 39.832031 31.167969 C 39.769531 31.71875 39.300781 32.132812 38.746094 32.132812 L 32.574219 32.132812 L 32.542969 50 L 43.261719 50 C 46.984375 50 50 46.984375 50 43.261719 L 50 6.738281 C 50 3.015625 46.984375 0 43.261719 0 Z M 43.261719 0 "/>
</g>
</svg>
