<!-- Generator: Adobe Illustrator 19.0.0, SVG Export Plug-In . SVG Version: 6.00 Build 0)  -->
<svg xmlns="http://www.w3.org/2000/svg" xmlns:xlink="http://www.w3.org/1999/xlink" width="50px" height="50px" viewBox="0 0 50 50" version="1.1">
<g id="surface1">
<path style=" stroke:none;fill-rule:nonzero;fill:rgb(95.294118%,29.019608%,21.960784%);fill-opacity:1;" d="M 17.542969 28.300781 L 25.355469 28.300781 C 23.984375 32.175781 20.269531 34.957031 15.921875 34.925781 C 10.644531 34.886719 6.285156 30.664062 6.078125 25.394531 C 5.859375 19.742188 10.394531 15.074219 15.996094 15.074219 C 18.558594 15.074219 20.894531 16.050781 22.660156 17.652344 C 23.074219 18.03125 23.710938 18.03125 24.121094 17.644531 L 26.992188 14.945312 C 27.441406 14.523438 27.441406 13.808594 26.992188 13.386719 C 24.199219 10.738281 20.449219 9.085938 16.316406 9.007812 C 7.496094 8.835938 0.0625 16.066406 0 24.886719 C -0.0625 33.773438 7.125 40.996094 15.996094 40.996094 C 24.527344 40.996094 31.5 34.316406 31.964844 25.898438 C 31.976562 25.792969 31.988281 22.226562 31.988281 22.226562 L 17.542969 22.226562 C 16.949219 22.226562 16.472656 22.707031 16.472656 23.300781 L 16.472656 27.226562 C 16.472656 27.820312 16.949219 28.300781 17.542969 28.300781 Z M 17.542969 28.300781 "/>
<path style=" stroke:none;fill-rule:nonzero;fill:rgb(95.294118%,29.019608%,21.960784%);fill-opacity:1;" d="M 45.222656 22.585938 L 45.222656 18.746094 C 45.222656 18.226562 44.800781 17.808594 44.285156 17.808594 L 41.054688 17.808594 C 40.535156 17.808594 40.113281 18.226562 40.113281 18.746094 L 40.113281 22.585938 L 36.277344 22.585938 C 35.757812 22.585938 35.335938 23.003906 35.335938 23.523438 L 35.335938 26.753906 C 35.335938 27.273438 35.757812 27.695312 36.277344 27.695312 L 40.113281 27.695312 L 40.113281 31.53125 C 40.113281 32.050781 40.535156 32.472656 41.054688 32.472656 L 44.285156 32.472656 C 44.800781 32.472656 45.222656 32.050781 45.222656 31.53125 L 45.222656 27.695312 L 49.0625 27.695312 C 49.578125 27.695312 50 27.273438 50 26.753906 L 50 23.523438 C 50 23.003906 49.578125 22.585938 49.0625 22.585938 Z M 45.222656 22.585938 "/>
</g>
</svg>
