<!-- Generator: Adobe Illustrator 19.0.0, SVG Export Plug-In . SVG Version: 6.00 Build 0)  -->
<svg xmlns="http://www.w3.org/2000/svg" xmlns:xlink="http://www.w3.org/1999/xlink" width="50px" height="50px" viewBox="0 0 50 50" version="1.1">
<g id="surface1">
<path style=" stroke:none;fill-rule:nonzero;fill:rgb(0%,0%,0%);fill-opacity:1;" d="M 33.421875 32.628906 L 31.234375 34.820312 L 33.425781 37.011719 L 49.3125 21.125 L 47.121094 18.933594 L 44.933594 21.121094 L 28.191406 4.382812 L 30.382812 2.191406 L 28.1875 0 L 12.300781 15.886719 L 14.496094 18.078125 L 16.683594 15.890625 L 23.957031 23.164062 L 0.078125 47.042969 L 2.273438 49.234375 L 26.148438 25.355469 Z M 26 6.574219 L 42.738281 23.316406 L 35.617188 30.4375 L 18.878906 13.699219 Z M 26 6.574219 "/>
<path style=" stroke:none;fill-rule:nonzero;fill:rgb(0%,0%,0%);fill-opacity:1;" d="M 21.3125 39.660156 L 21.3125 50 L 49.921875 50 L 49.921875 39.660156 Z M 46.820312 46.898438 L 24.414062 46.898438 L 24.414062 42.761719 L 46.820312 42.761719 Z M 46.820312 46.898438 "/>
</g>
</svg>
