<!-- Generator: Adobe Illustrator 16.0.0, SVG Export Plug-In . SVG Version: 6.00 Build 0)  -->
<svg xmlns="http://www.w3.org/2000/svg" xmlns:xlink="http://www.w3.org/1999/xlink" width="50px" height="50px" viewBox="0 0 50 50" version="1.1">
<g id="surface1">
<path style=" stroke:none;fill-rule:nonzero;fill:rgb(0%,0%,0%);fill-opacity:1;" d="M 48 21.957031 L 26.40625 3.390625 C 25.597656 2.695312 24.402344 2.695312 23.59375 3.390625 L 2 21.957031 C 1.097656 22.734375 0.996094 24.097656 1.773438 25.003906 C 2.550781 25.90625 3.914062 26.011719 4.816406 25.234375 L 25 7.875 L 45.183594 25.234375 C 45.589844 25.582031 46.089844 25.753906 46.589844 25.753906 C 47.195312 25.753906 47.800781 25.5 48.226562 25.003906 C 49.003906 24.097656 48.902344 22.734375 48 21.957031 Z M 48 21.957031 "/>
<path style=" stroke:none;fill-rule:nonzero;fill:rgb(0%,0%,0%);fill-opacity:1;" d="M 25.707031 10.902344 C 25.300781 10.550781 24.699219 10.550781 24.292969 10.902344 L 8.023438 24.9375 C 7.785156 25.140625 7.648438 25.441406 7.648438 25.753906 L 7.648438 46.050781 C 7.648438 46.648438 8.132812 47.128906 8.730469 47.128906 L 41.269531 47.128906 C 41.867188 47.128906 42.351562 46.648438 42.351562 46.050781 L 42.351562 25.753906 C 42.351562 25.441406 42.214844 25.140625 41.976562 24.9375 Z M 25.003906 43.625 C 18.453125 43.625 13.125 38.296875 13.125 31.746094 C 13.125 25.203125 18.453125 19.875 25.003906 19.875 C 31.550781 19.875 36.875 25.203125 36.875 31.746094 C 36.875 38.296875 31.550781 43.625 25.003906 43.625 Z M 25.003906 43.625 "/>
<path style=" stroke:none;fill-rule:nonzero;fill:rgb(0%,0%,0%);fill-opacity:1;" d="M 26.78125 30.296875 L 25.472656 29.53125 L 25.472656 25.109375 C 25.964844 25.109375 26.464844 25.46875 26.644531 26.324219 C 26.796875 27.066406 27 27.652344 27.96875 27.652344 C 28.710938 27.652344 29.203125 27.066406 29.203125 26.347656 C 29.203125 24.300781 27.515625 22.953125 25.472656 22.953125 L 25.472656 22.367188 C 25.472656 22.007812 25.316406 21.761719 24.957031 21.761719 C 24.601562 21.761719 24.441406 22.007812 24.441406 22.367188 L 24.441406 22.953125 C 21.972656 23.019531 20.53125 24.816406 20.53125 27.175781 C 20.53125 29.0625 21.390625 30.414062 23 31.449219 L 24.441406 32.363281 L 24.441406 37.269531 C 23.496094 37.171875 23.046875 36.480469 22.9375 35.375 C 22.820312 34.339844 22.394531 33.894531 21.605469 33.894531 C 20.753906 33.894531 20.371094 34.613281 20.371094 35.421875 C 20.371094 37.695312 22.082031 39.429688 24.441406 39.429688 L 24.441406 41.152344 C 24.441406 41.488281 24.601562 41.734375 24.957031 41.734375 C 25.316406 41.734375 25.472656 41.488281 25.472656 41.152344 L 25.472656 39.429688 C 28.121094 39.292969 29.628906 37.5625 29.628906 34.675781 C 29.628906 32.570312 28.488281 31.289062 26.78125 30.296875 Z M 24.441406 28.972656 C 23.34375 28.097656 23.09375 27.695312 23.09375 26.878906 C 23.09375 25.9375 23.542969 25.273438 24.441406 25.109375 Z M 25.472656 37.269531 L 25.472656 32.902344 C 26.414062 33.417969 26.886719 34.09375 26.886719 35.191406 C 26.886719 36.183594 26.347656 37.128906 25.472656 37.269531 Z M 25.472656 37.269531 "/>
</g>
</svg>
