<!-- Generator: Adobe Illustrator 19.0.0, SVG Export Plug-In . SVG Version: 6.00 Build 0)  -->
<svg xmlns="http://www.w3.org/2000/svg" xmlns:xlink="http://www.w3.org/1999/xlink" width="50px" height="50px" viewBox="0 0 50 50" version="1.1">
<g id="surface1">
<path style=" stroke:none;fill-rule:nonzero;fill:rgb(0%,0%,0%);fill-opacity:1;" d="M 46.167969 25.179688 L 45.445312 25.179688 L 44.21875 21.292969 C 43.15625 17.933594 40.078125 15.679688 36.558594 15.679688 L 32.726562 15.679688 L 32.726562 7.28125 C 32.726562 6.742188 32.289062 6.304688 31.75 6.304688 L 4.78125 6.304688 C 2.144531 6.304688 0 8.449219 0 11.089844 L 0 38.777344 C 0 39.316406 0.4375 39.753906 0.976562 39.753906 L 8.429688 39.753906 C 8.882812 42 10.871094 43.695312 13.25 43.695312 C 15.625 43.695312 17.613281 42 18.070312 39.753906 L 33.285156 39.753906 C 33.742188 42 35.730469 43.695312 38.105469 43.695312 C 40.484375 43.695312 42.472656 42 42.925781 39.753906 L 49.023438 39.753906 C 49.5625 39.753906 50 39.316406 50 38.777344 L 50 29.011719 C 50 26.898438 48.28125 25.179688 46.167969 25.179688 Z M 32.726562 17.632812 L 36.558594 17.632812 C 39.222656 17.632812 41.550781 19.339844 42.355469 21.878906 L 43.398438 25.179688 L 32.726562 25.179688 Z M 1.953125 11.089844 C 1.953125 9.527344 3.222656 8.257812 4.78125 8.257812 L 30.773438 8.257812 L 30.773438 29.582031 L 25.273438 29.582031 L 25.273438 22.664062 C 25.628906 22.785156 26.035156 22.699219 26.304688 22.40625 C 26.675781 22.011719 26.652344 21.394531 26.257812 21.027344 L 18.851562 14.117188 L 24.027344 14.117188 C 24.566406 14.117188 25.003906 13.679688 25.003906 13.140625 C 25.003906 12.597656 24.566406 12.164062 24.027344 12.164062 L 1.953125 12.164062 Z M 17.191406 23.101562 C 15.339844 23.101562 13.835938 24.605469 13.835938 26.457031 L 13.835938 29.582031 L 11.058594 29.582031 L 11.058594 20.957031 L 17.191406 15.234375 L 23.320312 20.957031 L 23.320312 29.582031 L 20.542969 29.582031 L 20.542969 26.457031 C 20.542969 24.605469 19.039062 23.101562 17.191406 23.101562 Z M 18.589844 29.582031 L 15.789062 29.582031 L 15.789062 26.457031 C 15.789062 25.683594 16.417969 25.054688 17.191406 25.054688 C 17.960938 25.054688 18.589844 25.683594 18.589844 26.457031 Z M 9.320312 35.824219 C 9.269531 35.890625 9.21875 35.960938 9.171875 36.03125 C 9.164062 36.039062 9.160156 36.046875 9.15625 36.054688 C 9.113281 36.117188 9.074219 36.179688 9.035156 36.246094 C 9.019531 36.273438 9.003906 36.296875 8.988281 36.324219 C 8.960938 36.371094 8.933594 36.421875 8.90625 36.46875 C 8.890625 36.5 8.875 36.53125 8.859375 36.5625 C 8.835938 36.605469 8.8125 36.652344 8.792969 36.703125 C 8.777344 36.734375 8.761719 36.765625 8.746094 36.796875 C 8.726562 36.84375 8.707031 36.894531 8.6875 36.941406 C 8.675781 36.972656 8.660156 37.007812 8.648438 37.039062 C 8.628906 37.089844 8.613281 37.140625 8.59375 37.191406 C 8.582031 37.222656 8.574219 37.253906 8.5625 37.285156 C 8.542969 37.34375 8.527344 37.40625 8.507812 37.464844 C 8.503906 37.488281 8.496094 37.511719 8.488281 37.539062 C 8.46875 37.621094 8.445312 37.707031 8.429688 37.792969 C 8.429688 37.796875 8.429688 37.796875 8.429688 37.800781 L 1.953125 37.800781 L 1.953125 35.8125 L 9.328125 35.8125 C 9.324219 35.816406 9.320312 35.820312 9.320312 35.824219 Z M 13.25 41.742188 C 11.613281 41.742188 10.285156 40.410156 10.285156 38.777344 C 10.285156 37.140625 11.613281 35.8125 13.25 35.8125 C 14.882812 35.8125 16.214844 37.140625 16.214844 38.777344 C 16.214844 40.410156 14.882812 41.742188 13.25 41.742188 Z M 1.953125 33.859375 L 1.953125 14.117188 L 15.527344 14.117188 L 8.121094 21.027344 C 7.726562 21.394531 7.707031 22.015625 8.074219 22.40625 C 8.265625 22.613281 8.527344 22.71875 8.789062 22.71875 C 8.894531 22.71875 9.003906 22.699219 9.105469 22.664062 L 9.105469 29.582031 L 7.515625 29.582031 C 6.976562 29.582031 6.539062 30.019531 6.539062 30.558594 C 6.539062 31.097656 6.976562 31.535156 7.515625 31.535156 L 30.773438 31.535156 L 30.773438 33.859375 Z M 34.175781 35.820312 C 34.125 35.890625 34.074219 35.960938 34.027344 36.03125 C 34.023438 36.039062 34.019531 36.046875 34.015625 36.050781 C 33.972656 36.117188 33.929688 36.179688 33.890625 36.246094 C 33.875 36.269531 33.863281 36.296875 33.847656 36.324219 C 33.820312 36.371094 33.789062 36.421875 33.765625 36.46875 C 33.75 36.5 33.734375 36.53125 33.71875 36.558594 C 33.695312 36.605469 33.671875 36.652344 33.648438 36.703125 C 33.632812 36.734375 33.621094 36.765625 33.605469 36.796875 C 33.585938 36.84375 33.5625 36.894531 33.542969 36.941406 C 33.53125 36.972656 33.519531 37.007812 33.507812 37.039062 C 33.488281 37.089844 33.46875 37.140625 33.453125 37.191406 C 33.441406 37.222656 33.429688 37.253906 33.421875 37.285156 C 33.402344 37.34375 33.382812 37.40625 33.367188 37.46875 C 33.359375 37.492188 33.351562 37.511719 33.347656 37.535156 C 33.324219 37.621094 33.304688 37.707031 33.289062 37.792969 C 33.285156 37.796875 33.285156 37.796875 33.285156 37.800781 L 18.070312 37.800781 C 18.070312 37.796875 18.070312 37.796875 18.066406 37.792969 C 18.050781 37.707031 18.03125 37.621094 18.007812 37.539062 C 18.003906 37.511719 17.996094 37.488281 17.988281 37.464844 C 17.972656 37.40625 17.953125 37.34375 17.933594 37.285156 C 17.925781 37.253906 17.914062 37.222656 17.902344 37.191406 C 17.886719 37.140625 17.867188 37.089844 17.847656 37.039062 C 17.835938 37.007812 17.824219 36.972656 17.808594 36.941406 C 17.789062 36.894531 17.769531 36.84375 17.75 36.796875 C 17.734375 36.765625 17.722656 36.734375 17.707031 36.703125 C 17.683594 36.652344 17.660156 36.605469 17.636719 36.558594 C 17.621094 36.53125 17.605469 36.5 17.589844 36.46875 C 17.5625 36.421875 17.535156 36.371094 17.507812 36.324219 C 17.492188 36.296875 17.480469 36.269531 17.464844 36.246094 C 17.425781 36.179688 17.382812 36.117188 17.339844 36.050781 C 17.335938 36.046875 17.332031 36.039062 17.328125 36.03125 C 17.277344 35.960938 17.230469 35.890625 17.179688 35.820312 C 17.175781 35.820312 17.171875 35.816406 17.171875 35.8125 L 34.183594 35.8125 C 34.183594 35.816406 34.179688 35.820312 34.175781 35.820312 Z M 38.105469 41.742188 C 36.472656 41.742188 35.140625 40.410156 35.140625 38.777344 C 35.140625 37.140625 36.472656 35.8125 38.105469 35.8125 C 38.257812 35.8125 38.410156 35.824219 38.558594 35.84375 C 39.980469 36.0625 41.070312 37.292969 41.070312 38.777344 C 41.070312 40.410156 39.742188 41.742188 38.105469 41.742188 Z M 48.046875 37.800781 L 42.925781 37.800781 C 42.925781 37.796875 42.925781 37.796875 42.925781 37.792969 C 42.90625 37.707031 42.886719 37.621094 42.867188 37.539062 C 42.859375 37.511719 42.851562 37.488281 42.847656 37.464844 C 42.828125 37.40625 42.8125 37.34375 42.792969 37.285156 C 42.78125 37.253906 42.773438 37.222656 42.761719 37.191406 C 42.742188 37.140625 42.726562 37.089844 42.707031 37.039062 C 42.695312 37.007812 42.679688 36.972656 42.667969 36.941406 C 42.648438 36.894531 42.628906 36.84375 42.609375 36.796875 C 42.59375 36.765625 42.578125 36.734375 42.5625 36.703125 C 42.542969 36.652344 42.519531 36.605469 42.496094 36.5625 C 42.480469 36.53125 42.464844 36.5 42.449219 36.46875 C 42.421875 36.421875 42.394531 36.371094 42.367188 36.324219 C 42.351562 36.296875 42.335938 36.273438 42.320312 36.246094 C 42.28125 36.179688 42.242188 36.117188 42.199219 36.054688 C 42.195312 36.046875 42.191406 36.039062 42.183594 36.03125 C 42.136719 35.960938 42.085938 35.890625 42.035156 35.824219 C 42.035156 35.820312 42.03125 35.816406 42.027344 35.8125 L 48.046875 35.8125 Z M 48.046875 33.859375 L 32.726562 33.859375 L 32.726562 31.535156 L 48.046875 31.535156 Z M 48.046875 29.582031 L 32.726562 29.582031 L 32.726562 27.132812 L 46.167969 27.132812 C 47.203125 27.132812 48.046875 27.976562 48.046875 29.011719 Z M 48.046875 29.582031 "/>
<path style=" stroke:none;fill-rule:nonzero;fill:rgb(0%,0%,0%);fill-opacity:1;" d="M 4.972656 30.351562 C 4.957031 30.289062 4.941406 30.226562 4.914062 30.167969 C 4.890625 30.109375 4.859375 30.050781 4.824219 30 C 4.789062 29.945312 4.75 29.894531 4.703125 29.851562 C 4.660156 29.804688 4.609375 29.765625 4.554688 29.730469 C 4.503906 29.695312 4.445312 29.664062 4.386719 29.640625 C 4.328125 29.613281 4.265625 29.597656 4.203125 29.582031 C 4.078125 29.558594 3.949219 29.558594 3.824219 29.582031 C 3.761719 29.597656 3.699219 29.613281 3.640625 29.640625 C 3.582031 29.664062 3.523438 29.695312 3.472656 29.730469 C 3.417969 29.765625 3.367188 29.804688 3.324219 29.851562 C 3.28125 29.894531 3.238281 29.945312 3.203125 30 C 3.167969 30.050781 3.136719 30.109375 3.113281 30.167969 C 3.085938 30.226562 3.070312 30.289062 3.054688 30.351562 C 3.042969 30.414062 3.039062 30.476562 3.039062 30.539062 C 3.039062 30.605469 3.042969 30.667969 3.054688 30.730469 C 3.070312 30.792969 3.085938 30.855469 3.113281 30.914062 C 3.136719 30.972656 3.167969 31.03125 3.203125 31.082031 C 3.238281 31.136719 3.28125 31.1875 3.324219 31.230469 C 3.367188 31.277344 3.417969 31.316406 3.472656 31.351562 C 3.523438 31.386719 3.582031 31.417969 3.640625 31.441406 C 3.699219 31.46875 3.761719 31.484375 3.824219 31.496094 C 3.886719 31.511719 3.953125 31.515625 4.015625 31.515625 C 4.078125 31.515625 4.140625 31.511719 4.203125 31.496094 C 4.265625 31.484375 4.328125 31.46875 4.386719 31.441406 C 4.445312 31.417969 4.503906 31.386719 4.554688 31.351562 C 4.609375 31.316406 4.660156 31.277344 4.703125 31.230469 C 4.75 31.1875 4.789062 31.136719 4.828125 31.082031 C 4.859375 31.03125 4.890625 30.972656 4.914062 30.914062 C 4.941406 30.855469 4.960938 30.792969 4.972656 30.730469 C 4.984375 30.667969 4.992188 30.605469 4.992188 30.539062 C 4.992188 30.476562 4.984375 30.414062 4.972656 30.351562 Z M 4.972656 30.351562 "/>
<path style=" stroke:none;fill-rule:nonzero;fill:rgb(0%,0%,0%);fill-opacity:1;" d="M 28.484375 12.949219 C 28.472656 12.886719 28.453125 12.824219 28.425781 12.765625 C 28.402344 12.707031 28.371094 12.648438 28.335938 12.597656 C 28.300781 12.542969 28.261719 12.492188 28.214844 12.449219 C 28.171875 12.402344 28.121094 12.363281 28.066406 12.328125 C 28.015625 12.292969 27.957031 12.261719 27.898438 12.238281 C 27.839844 12.214844 27.777344 12.195312 27.714844 12.183594 C 27.589844 12.15625 27.460938 12.15625 27.335938 12.183594 C 27.273438 12.195312 27.210938 12.214844 27.152344 12.238281 C 27.09375 12.261719 27.035156 12.292969 26.984375 12.328125 C 26.929688 12.363281 26.878906 12.402344 26.835938 12.449219 C 26.789062 12.492188 26.75 12.542969 26.714844 12.597656 C 26.679688 12.648438 26.648438 12.707031 26.625 12.765625 C 26.601562 12.824219 26.578125 12.886719 26.570312 12.949219 C 26.554688 13.011719 26.546875 13.074219 26.546875 13.140625 C 26.546875 13.203125 26.554688 13.265625 26.570312 13.328125 C 26.578125 13.390625 26.601562 13.453125 26.625 13.511719 C 26.648438 13.570312 26.679688 13.628906 26.714844 13.679688 C 26.75 13.734375 26.789062 13.785156 26.835938 13.828125 C 27.015625 14.011719 27.269531 14.117188 27.523438 14.117188 C 27.78125 14.117188 28.035156 14.011719 28.214844 13.828125 C 28.261719 13.785156 28.300781 13.734375 28.335938 13.679688 C 28.371094 13.628906 28.402344 13.570312 28.425781 13.511719 C 28.453125 13.453125 28.472656 13.390625 28.484375 13.328125 C 28.496094 13.265625 28.5 13.203125 28.5 13.140625 C 28.5 13.074219 28.496094 13.011719 28.484375 12.949219 Z M 28.484375 12.949219 "/>
</g>
</svg>
