<?xml version="1.0" encoding="UTF-8" standalone="no"?>
<svg
   xmlns:dc="http://purl.org/dc/elements/1.1/"
   xmlns:cc="http://creativecommons.org/ns#"
   xmlns:rdf="http://www.w3.org/1999/02/22-rdf-syntax-ns#"
   xmlns:svg="http://www.w3.org/2000/svg"
   xmlns="http://www.w3.org/2000/svg"
   version="1.1"
   id="svg4418"
   viewBox="0 0 500.00001 168.17219"
   height="168.1722"
   width="500">
  <defs
     id="defs4420" />
  <metadata
     id="metadata4423">
    <rdf:RDF>
      <cc:Work
         rdf:about="">
        <dc:format>image/svg+xml</dc:format>
        <dc:type
           rdf:resource="http://purl.org/dc/dcmitype/StillImage" />
        <dc:title></dc:title>
      </cc:Work>
    </rdf:RDF>
  </metadata>
  <g
     transform="translate(-65.531637,-283.12723)"
     id="layer1">
    <g
       transform="matrix(1.140628,0,0,1.140628,-25.522016,-63.46535)"
       id="g5199">
      <path
         d="m 300.57878,430.42943 18.8825,0 0,-19.87625 -18.8825,0 0,19.87625 z"
         style="fill:#000000;fill-opacity:1;fill-rule:nonzero;stroke:none"
         id="path204" />
      <path
         d="m 278.71378,430.42943 18.8825,0 0,-19.87625 -18.8825,0 0,19.87625 z"
         style="fill:#000000;fill-opacity:1;fill-rule:nonzero;stroke:none"
         id="path206" />
      <path
         d="m 300.57878,451.29943 18.8825,0 0,-17.88875 -18.8825,0 0,17.88875 z"
         style="fill:#000000;fill-opacity:1;fill-rule:nonzero;stroke:none"
         id="path208" />
      <path
         d="m 278.71378,451.29943 18.8825,0 0,-17.88875 -18.8825,0 0,17.88875 z"
         style="fill:#000000;fill-opacity:1;fill-rule:nonzero;stroke:none"
         id="path210" />
      <path
         d="m 486.70878,380.70443 -10.45625,0 0,11.00625 10.45625,0 0,-11.00625 z"
         style="fill:#000000;fill-opacity:1;fill-rule:nonzero;stroke:none"
         id="path212" />
      <path
         d="m 474.60128,380.70443 -10.45625,0 0,11.00625 10.45625,0 0,-11.00625 z"
         style="fill:#000000;fill-opacity:1;fill-rule:nonzero;stroke:none"
         id="path214" />
      <path
         d="m 476.25253,403.26818 10.45625,0 0,-9.90625 -10.45625,0 0,9.90625 z"
         style="fill:#000000;fill-opacity:1;fill-rule:nonzero;stroke:none"
         id="path216" />
      <path
         d="m 464.14503,403.26818 10.45625,0 0,-9.90625 -10.45625,0 0,9.90625 z"
         style="fill:#000000;fill-opacity:1;fill-rule:nonzero;stroke:none"
         id="path218" />
      <g
         id="g220"
         transform="matrix(1.25,0,0,-1.25,161.21491,448.8153)"
         style="fill:#000000">
        <path
           d="M 0,0 25.112,0 109.239,56.209 195.093,0 220.464,0 109.109,72.902 0,0 Z"
           style="fill:#000000;fill-opacity:1;fill-rule:nonzero;stroke:none"
           id="path222" />
      </g>
      <g
         id="g224"
         transform="matrix(1.25,0,0,-1.25,296.7714,303.86118)"
         style="fill:#000000">
        <path
           d="m 0,0 -173.555,-115.963 39.945,0 133.817,89.41 136.565,-89.41 40.357,0 L 0,0 Z"
           style="fill:#000000;fill-opacity:1;fill-rule:nonzero;stroke:none"
           id="path226" />
      </g>
      <g
         id="g228"
         transform="matrix(1.25,0,0,-1.25,425.73343,371.14656)"
         style="fill:#000000">
        <path
           d="m 0,0 32.01,36.657 -95.076,0 L -7.073,0 0,0 Z"
           style="fill:#000000;fill-opacity:1;fill-rule:nonzero;stroke:none"
           id="path230" />
      </g>
      <g
         id="g232"
         transform="matrix(1.25,0,0,-1.25,450.94203,371.14656)"
         style="fill:#000000">
        <path
           d="M 0,0 19.416,22.723 39.045,0 51.082,0 19.416,36.657 -11.906,0 0,0 Z"
           style="fill:#000000;fill-opacity:1;fill-rule:nonzero;stroke:none"
           id="path234" />
      </g>
      <path
         d="m 118.46003,380.70443 -10.45625,0 0,11.00625 10.45625,0 0,-11.00625 z"
         style="fill:#000000;fill-opacity:1;fill-rule:nonzero;stroke:none"
         id="path236" />
      <path
         d="m 130.56753,380.70443 -10.45625,0 0,11.00625 10.45625,0 0,-11.00625 z"
         style="fill:#000000;fill-opacity:1;fill-rule:nonzero;stroke:none"
         id="path238" />
      <path
         d="m 108.00378,403.26818 10.45625,0 0,-9.90625 -10.45625,0 0,9.90625 z"
         style="fill:#000000;fill-opacity:1;fill-rule:nonzero;stroke:none"
         id="path240" />
      <path
         d="m 120.11128,403.26818 10.45625,0 0,-9.90625 -10.45625,0 0,9.90625 z"
         style="fill:#000000;fill-opacity:1;fill-rule:nonzero;stroke:none"
         id="path242" />
      <g
         id="g244"
         transform="matrix(1.25,0,0,-1.25,119.50116,342.74306)"
         style="fill:#000000">
        <path
           d="m 0,0 19.416,-22.723 11.906,0 L 0,13.934 l -31.666,-36.657 12.037,0 L 0,0 Z"
           style="fill:#000000;fill-opacity:1;fill-rule:nonzero;stroke:none"
           id="path246" />
      </g>
      <g
         id="g248"
         transform="matrix(1.25,0,0,-1.25,178.96841,371.14656)"
         style="fill:#000000">
        <path
           d="m 0,0 54.863,36.657 -94.864,0 L -7.991,0 0,0 Z"
           style="fill:#000000;fill-opacity:1;fill-rule:nonzero;stroke:none"
           id="path250" />
      </g>
      <flowRoot
         xml:space="preserve"
         id="flowRoot5137"
         style="font-style:normal;font-variant:normal;font-weight:normal;font-stretch:normal;font-size:70px;line-height:125%;font-family:'Great Vibes';-inkscape-font-specification:'Great Vibes, Normal';text-align:center;letter-spacing:0px;word-spacing:0px;writing-mode:lr-tb;text-anchor:middle;fill:#000000;fill-opacity:1;stroke:none;stroke-width:1px;stroke-linecap:butt;stroke-linejoin:miter;stroke-opacity:1"><flowRegion
           id="flowRegion5139"><rect
             id="rect5141"
             width="82.832512"
             height="133.34013"
             x="184.85791"
             y="506.87982" /></flowRegion><flowPara
           id="flowPara5143"></flowPara></flowRoot>    </g>
  </g>
</svg>
