<!-- Generator: Adobe Illustrator 19.0.0, SVG Export Plug-In . SVG Version: 6.00 Build 0)  -->
<svg xmlns="http://www.w3.org/2000/svg" xmlns:xlink="http://www.w3.org/1999/xlink" width="50px" height="50px" viewBox="0 0 50 50" version="1.1">
<g id="surface1">
<path style=" stroke:none;fill-rule:nonzero;fill:rgb(0%,0%,0%);fill-opacity:1;" d="M 48.101562 39.117188 L 38.304688 29.320312 C 37.132812 28.152344 35.230469 28.152344 34.0625 29.320312 L 31.515625 31.867188 C 30.714844 32.664062 30.464844 33.804688 30.753906 34.820312 L 29.792969 35.78125 C 29.109375 36.464844 24.859375 35.417969 19.722656 30.277344 C 14.582031 25.140625 13.535156 20.890625 14.214844 20.207031 L 15.179688 19.242188 C 15.449219 19.320312 15.730469 19.363281 16.011719 19.363281 C 16.777344 19.363281 17.546875 19.070312 18.132812 18.484375 L 20.679688 15.9375 C 21.847656 14.769531 21.847656 12.867188 20.679688 11.695312 L 10.882812 1.898438 C 10.316406 1.332031 9.5625 1.019531 8.761719 1.019531 C 7.960938 1.019531 7.207031 1.332031 6.640625 1.898438 L 4.09375 4.445312 C 3.292969 5.246094 3.042969 6.382812 3.335938 7.398438 C 3.335938 7.398438 2.519531 8.222656 2.480469 8.273438 C -0.230469 11.285156 -0.738281 16.03125 1.058594 21.699219 C 2.816406 27.253906 6.609375 33.136719 11.738281 38.261719 C 16.863281 43.390625 22.746094 47.183594 28.300781 48.941406 C 30.53125 49.648438 32.617188 50 34.511719 50 C 37.617188 50 40.207031 49.058594 42.066406 47.203125 L 42.597656 46.667969 C 42.867188 46.742188 43.148438 46.785156 43.433594 46.785156 C 44.234375 46.785156 44.988281 46.472656 45.554688 45.90625 L 48.101562 43.359375 C 49.269531 42.1875 49.269531 40.285156 48.101562 39.117188 Z M 8.761719 4.019531 L 18.558594 13.816406 L 16.011719 16.367188 C 16.011719 16.367188 16.011719 16.363281 16.011719 16.363281 L 6.214844 6.566406 Z M 39.945312 45.082031 C 37.785156 47.238281 33.972656 47.59375 29.207031 46.082031 C 24.101562 44.46875 18.652344 40.9375 13.859375 36.140625 C 9.0625 31.347656 5.53125 25.898438 3.917969 20.792969 C 2.40625 16.027344 2.761719 12.214844 4.917969 10.054688 L 5.191406 9.785156 L 12.792969 17.386719 L 12.097656 18.085938 C 12.09375 18.085938 12.09375 18.085938 12.09375 18.085938 C 9.207031 20.980469 12.675781 27.476562 17.601562 32.398438 C 21.285156 36.085938 25.851562 38.957031 29.128906 38.957031 C 30.230469 38.957031 31.1875 38.632812 31.914062 37.902344 L 32.613281 37.207031 L 40.214844 44.808594 Z M 43.433594 43.785156 L 33.636719 33.988281 L 36.183594 31.441406 L 45.980469 41.238281 C 45.980469 41.238281 43.433594 43.785156 43.433594 43.785156 Z M 43.433594 43.785156 "/>
<path style=" stroke:none;fill-rule:nonzero;fill:rgb(0%,0%,0%);fill-opacity:1;" d="M 37.96875 12.03125 C 35.117188 9.175781 31.324219 7.605469 27.292969 7.605469 C 26.464844 7.605469 25.792969 8.277344 25.792969 9.105469 C 25.792969 9.933594 26.464844 10.605469 27.292969 10.605469 C 30.523438 10.605469 33.5625 11.863281 35.851562 14.148438 C 38.136719 16.4375 39.394531 19.476562 39.394531 22.707031 C 39.394531 23.535156 40.066406 24.207031 40.894531 24.207031 C 41.722656 24.207031 42.394531 23.535156 42.394531 22.707031 C 42.394531 18.675781 40.824219 14.882812 37.96875 12.03125 Z M 37.96875 12.03125 "/>
<path style=" stroke:none;fill-rule:nonzero;fill:rgb(0%,0%,0%);fill-opacity:1;" d="M 43.347656 6.652344 C 39.058594 2.363281 33.355469 0 27.292969 0 C 26.464844 0 25.792969 0.671875 25.792969 1.5 C 25.792969 2.328125 26.464844 3 27.292969 3 C 32.554688 3 37.503906 5.050781 41.226562 8.773438 C 44.949219 12.496094 47 17.445312 47 22.707031 C 47 23.535156 47.671875 24.207031 48.5 24.207031 C 49.328125 24.207031 50 23.535156 50 22.707031 C 50 16.640625 47.636719 10.941406 43.347656 6.652344 Z M 43.347656 6.652344 "/>
<path style=" stroke:none;fill-rule:nonzero;fill:rgb(0%,0%,0%);fill-opacity:1;" d="M 32.589844 17.40625 C 31.15625 15.972656 29.324219 15.214844 27.292969 15.214844 C 26.464844 15.214844 25.792969 15.882812 25.792969 16.714844 C 25.792969 17.542969 26.464844 18.210938 27.292969 18.210938 C 28.527344 18.210938 29.597656 18.65625 30.472656 19.527344 C 31.332031 20.390625 31.789062 21.488281 31.789062 22.707031 C 31.789062 23.535156 32.457031 24.207031 33.285156 24.207031 C 34.113281 24.207031 34.785156 23.535156 34.785156 22.707031 C 34.785156 20.675781 34.027344 18.84375 32.589844 17.40625 Z M 32.589844 17.40625 "/>
</g>
</svg>
