<!-- Generator: Adobe Illustrator 19.0.0, SVG Export Plug-In . SVG Version: 6.00 Build 0)  -->
<svg xmlns="http://www.w3.org/2000/svg" xmlns:xlink="http://www.w3.org/1999/xlink" width="50px" height="50px" viewBox="0 0 50 50" version="1.1">
<g id="surface1">
<path style=" stroke:none;fill-rule:nonzero;fill:rgb(62.352941%,6.666667%,12.941176%);fill-opacity:1;" d="M 49.988281 25.734375 C 50.398438 11.464844 38.851562 -0.203125 24.628906 0.00390625 C 10.941406 0.203125 -0.105469 11.507812 0 25.195312 C 0.0742188 35.003906 5.800781 43.46875 14.082031 47.496094 C 14.558594 47.726562 15.113281 47.363281 15.09375 46.832031 C 15.035156 45.222656 15.085938 43.503906 15.40625 42.121094 C 15.726562 40.761719 16.96875 35.5 17.785156 32.039062 C 18.183594 30.355469 18.230469 28.609375 17.910156 26.910156 C 17.804688 26.351562 17.730469 25.695312 17.730469 24.96875 C 17.730469 21.273438 19.871094 18.515625 22.539062 18.515625 C 24.804688 18.515625 25.898438 20.21875 25.898438 22.257812 C 25.898438 24.539062 24.449219 27.945312 23.699219 31.105469 C 23.074219 33.75 25.027344 35.90625 27.632812 35.90625 C 32.355469 35.90625 35.988281 30.925781 35.988281 23.738281 C 35.988281 17.375 31.414062 12.925781 24.886719 12.925781 C 17.328125 12.925781 12.886719 18.597656 12.886719 24.460938 C 12.886719 26.742188 13.769531 29.191406 14.867188 30.523438 C 15.082031 30.789062 15.113281 31.019531 15.050781 31.285156 C 14.847656 32.125 14.402344 33.929688 14.3125 34.300781 C 14.195312 34.785156 13.925781 34.890625 13.425781 34.65625 C 10.105469 33.109375 8.03125 28.257812 8.03125 24.359375 C 8.03125 15.976562 14.121094 8.28125 25.589844 8.28125 C 34.804688 8.28125 41.96875 14.847656 41.96875 23.628906 C 41.96875 32.785156 36.195312 40.15625 28.179688 40.15625 C 26.0625 40.15625 24.042969 39.292969 22.859375 38.117188 C 22.492188 37.757812 21.875 37.921875 21.746094 38.417969 C 21.328125 40.007812 20.652344 42.585938 20.433594 43.421875 C 20.042969 44.929688 19.21875 46.683594 18.390625 48.210938 C 18.167969 48.617188 18.390625 49.121094 18.839844 49.234375 C 20.882812 49.75 23.027344 50.019531 25.238281 50 C 38.355469 49.878906 49.613281 38.847656 49.988281 25.734375 Z M 49.988281 25.734375 "/>
</g>
</svg>
