<!-- Generator: Adobe Illustrator 19.0.0, SVG Export Plug-In . SVG Version: 6.00 Build 0)  -->
<svg xmlns="http://www.w3.org/2000/svg" xmlns:xlink="http://www.w3.org/1999/xlink" width="50px" height="50px" viewBox="0 0 50 50" version="1.1">
<g id="surface1">
<path style=" stroke:none;fill-rule:nonzero;fill:rgb(81.176471%,13.333333%,9.019608%);fill-opacity:1;" d="M 45.1875 39.234375 C 45.1875 39.234375 44.945312 42.824219 41.679688 42.824219 C 39.160156 42.824219 37.441406 40.902344 35.828125 38.40625 C 40.40625 34.410156 43.3125 28.445312 43.3125 21.777344 C 43.3125 9.75 33.855469 0 22.1875 0 C 10.519531 0 1.058594 9.75 1.058594 21.777344 C 1.058594 33.808594 10.519531 43.558594 22.1875 43.558594 C 24.304688 43.558594 26.347656 43.234375 28.277344 42.636719 C 30.714844 46.515625 33.8125 50 38.664062 50 C 48.53125 50 48.941406 39.234375 48.941406 39.234375 Z M 22.1875 39.96875 C 15.382812 39.96875 9.867188 31.824219 9.867188 21.777344 C 9.867188 11.734375 15.382812 3.589844 22.1875 3.589844 C 28.988281 3.589844 34.503906 11.734375 34.503906 21.777344 C 34.503906 25.773438 33.628906 29.46875 32.152344 32.46875 C 30.480469 30.082031 28.476562 28.054688 25.613281 27.40625 C 20.527344 26.261719 16.148438 28.550781 14.761719 29.691406 L 16.066406 32.382812 C 16.066406 32.382812 17.386719 31.625 20.660156 32.382812 C 22.71875 32.859375 24.320312 35.71875 26.15625 39.003906 C 24.910156 39.628906 23.574219 39.96875 22.1875 39.96875 Z M 22.1875 39.96875 "/>
</g>
</svg>
