<!-- Generator: Adobe Illustrator 19.0.0, SVG Export Plug-In . SVG Version: 6.00 Build 0)  -->
<svg xmlns="http://www.w3.org/2000/svg" xmlns:xlink="http://www.w3.org/1999/xlink" width="50px" height="50px" viewBox="0 0 50 50" version="1.1">
<g id="surface1">
<path style=" stroke:none;fill-rule:nonzero;fill:rgb(0%,0%,0%);fill-opacity:1;" d="M 41.703125 0 L 8.296875 0 C 6.945312 0 5.84375 1.101562 5.84375 2.453125 L 5.84375 47.546875 C 5.84375 48.898438 6.945312 50 8.296875 50 L 34.1875 50 C 34.394531 50 34.59375 49.917969 34.738281 49.769531 L 43.925781 40.585938 C 44.070312 40.4375 44.15625 40.238281 44.15625 40.03125 L 44.15625 2.453125 C 44.15625 1.101562 43.054688 0 41.703125 0 Z M 34.96875 47.328125 L 34.96875 41.703125 C 34.96875 41.210938 35.367188 40.8125 35.855469 40.8125 L 41.480469 40.8125 Z M 42.589844 39.25 L 35.855469 39.25 C 34.503906 39.25 33.402344 40.347656 33.402344 41.703125 L 33.402344 48.433594 L 8.296875 48.433594 C 7.808594 48.433594 7.410156 48.035156 7.410156 47.546875 L 7.410156 2.453125 C 7.410156 1.964844 7.808594 1.566406 8.296875 1.566406 L 41.703125 1.566406 C 42.191406 1.566406 42.589844 1.964844 42.589844 2.453125 Z M 42.589844 39.25 "/>
<path style=" stroke:none;fill-rule:nonzero;fill:rgb(0%,0%,0%);fill-opacity:1;" d="M 19.988281 6.679688 L 13.308594 6.679688 C 12.875 6.679688 12.527344 7.03125 12.527344 7.464844 C 12.527344 7.894531 12.875 8.246094 13.308594 8.246094 L 15.867188 8.246094 L 15.867188 15.8125 C 15.867188 16.246094 16.21875 16.597656 16.648438 16.597656 C 17.082031 16.597656 17.433594 16.246094 17.433594 15.8125 L 17.433594 8.246094 L 19.988281 8.246094 C 20.421875 8.246094 20.773438 7.894531 20.773438 7.464844 C 20.773438 7.03125 20.421875 6.679688 19.988281 6.679688 Z M 19.988281 6.679688 "/>
<path style=" stroke:none;fill-rule:nonzero;fill:rgb(0%,0%,0%);fill-opacity:1;" d="M 28.253906 15.589844 L 25.929688 7.832031 C 25.722656 7.144531 25.097656 6.679688 24.378906 6.679688 L 23.949219 6.679688 C 23.230469 6.679688 22.609375 7.144531 22.402344 7.832031 L 20.074219 15.589844 C 19.949219 16.003906 20.183594 16.441406 20.597656 16.5625 C 21.011719 16.6875 21.449219 16.453125 21.574219 16.039062 L 21.90625 14.925781 L 26.421875 14.925781 L 26.753906 16.039062 C 26.855469 16.378906 27.167969 16.597656 27.503906 16.597656 C 27.578125 16.597656 27.65625 16.585938 27.730469 16.5625 C 28.144531 16.441406 28.378906 16.003906 28.253906 15.589844 Z M 22.378906 13.359375 L 23.902344 8.285156 C 23.90625 8.261719 23.929688 8.246094 23.949219 8.246094 L 24.378906 8.246094 C 24.402344 8.246094 24.421875 8.261719 24.429688 8.285156 L 25.953125 13.359375 Z M 22.378906 13.359375 "/>
<path style=" stroke:none;fill-rule:nonzero;fill:rgb(0%,0%,0%);fill-opacity:1;" d="M 36.496094 15.367188 L 33.890625 11.640625 L 36.496094 7.914062 C 36.746094 7.558594 36.660156 7.070312 36.304688 6.820312 C 35.949219 6.574219 35.460938 6.660156 35.214844 7.015625 L 32.933594 10.273438 L 30.652344 7.015625 C 30.402344 6.660156 29.914062 6.574219 29.5625 6.820312 C 29.207031 7.070312 29.121094 7.558594 29.367188 7.914062 L 31.976562 11.640625 L 29.367188 15.367188 C 29.121094 15.71875 29.207031 16.207031 29.5625 16.457031 C 29.699219 16.550781 29.855469 16.597656 30.007812 16.597656 C 30.257812 16.597656 30.5 16.480469 30.652344 16.261719 L 32.933594 13.003906 L 35.214844 16.261719 C 35.367188 16.480469 35.609375 16.597656 35.855469 16.597656 C 36.011719 16.597656 36.167969 16.550781 36.304688 16.457031 C 36.660156 16.207031 36.746094 15.71875 36.496094 15.367188 Z M 36.496094 15.367188 "/>
<path style=" stroke:none;fill-rule:nonzero;fill:rgb(0%,0%,0%);fill-opacity:1;" d="M 13.308594 20.875 L 11.640625 20.875 C 11.207031 20.875 10.855469 21.226562 10.855469 21.660156 C 10.855469 22.09375 11.207031 22.441406 11.640625 22.441406 L 13.308594 22.441406 C 13.742188 22.441406 14.09375 22.09375 14.09375 21.660156 C 14.09375 21.226562 13.742188 20.875 13.308594 20.875 Z M 13.308594 20.875 "/>
<path style=" stroke:none;fill-rule:nonzero;fill:rgb(0%,0%,0%);fill-opacity:1;" d="M 13.308594 24.21875 L 11.640625 24.21875 C 11.207031 24.21875 10.855469 24.566406 10.855469 25 C 10.855469 25.433594 11.207031 25.78125 11.640625 25.78125 L 13.308594 25.78125 C 13.742188 25.78125 14.09375 25.433594 14.09375 25 C 14.09375 24.566406 13.742188 24.21875 13.308594 24.21875 Z M 13.308594 24.21875 "/>
<path style=" stroke:none;fill-rule:nonzero;fill:rgb(0%,0%,0%);fill-opacity:1;" d="M 13.308594 27.558594 L 11.640625 27.558594 C 11.207031 27.558594 10.855469 27.90625 10.855469 28.339844 C 10.855469 28.773438 11.207031 29.125 11.640625 29.125 L 13.308594 29.125 C 13.742188 29.125 14.09375 28.773438 14.09375 28.339844 C 14.09375 27.90625 13.742188 27.558594 13.308594 27.558594 Z M 13.308594 27.558594 "/>
<path style=" stroke:none;fill-rule:nonzero;fill:rgb(0%,0%,0%);fill-opacity:1;" d="M 38.359375 20.875 L 36.691406 20.875 C 36.257812 20.875 35.90625 21.226562 35.90625 21.660156 C 35.90625 22.09375 36.257812 22.441406 36.691406 22.441406 L 38.359375 22.441406 C 38.792969 22.441406 39.144531 22.09375 39.144531 21.660156 C 39.144531 21.226562 38.792969 20.875 38.359375 20.875 Z M 38.359375 20.875 "/>
<path style=" stroke:none;fill-rule:nonzero;fill:rgb(0%,0%,0%);fill-opacity:1;" d="M 38.359375 24.21875 L 36.691406 24.21875 C 36.257812 24.21875 35.90625 24.566406 35.90625 25 C 35.90625 25.433594 36.257812 25.78125 36.691406 25.78125 L 38.359375 25.78125 C 38.792969 25.78125 39.144531 25.433594 39.144531 25 C 39.144531 24.566406 38.792969 24.21875 38.359375 24.21875 Z M 38.359375 24.21875 "/>
<path style=" stroke:none;fill-rule:nonzero;fill:rgb(0%,0%,0%);fill-opacity:1;" d="M 38.359375 27.558594 L 36.691406 27.558594 C 36.257812 27.558594 35.90625 27.90625 35.90625 28.339844 C 35.90625 28.773438 36.257812 29.125 36.691406 29.125 L 38.359375 29.125 C 38.792969 29.125 39.144531 28.773438 39.144531 28.339844 C 39.144531 27.90625 38.792969 27.558594 38.359375 27.558594 Z M 38.359375 27.558594 "/>
<path style=" stroke:none;fill-rule:nonzero;fill:rgb(0%,0%,0%);fill-opacity:1;" d="M 26.671875 20.875 L 16.648438 20.875 C 16.21875 20.875 15.867188 21.226562 15.867188 21.660156 C 15.867188 22.09375 16.21875 22.441406 16.648438 22.441406 L 26.671875 22.441406 C 27.101562 22.441406 27.453125 22.09375 27.453125 21.660156 C 27.453125 21.226562 27.101562 20.875 26.671875 20.875 Z M 26.671875 20.875 "/>
<path style=" stroke:none;fill-rule:nonzero;fill:rgb(0%,0%,0%);fill-opacity:1;" d="M 23.328125 24.21875 L 16.648438 24.21875 C 16.21875 24.21875 15.867188 24.566406 15.867188 25 C 15.867188 25.433594 16.21875 25.78125 16.648438 25.78125 L 23.328125 25.78125 C 23.761719 25.78125 24.113281 25.433594 24.113281 25 C 24.113281 24.566406 23.761719 24.21875 23.328125 24.21875 Z M 23.328125 24.21875 "/>
<path style=" stroke:none;fill-rule:nonzero;fill:rgb(0%,0%,0%);fill-opacity:1;" d="M 26.671875 27.558594 L 16.648438 27.558594 C 16.21875 27.558594 15.867188 27.90625 15.867188 28.339844 C 15.867188 28.773438 16.21875 29.125 16.648438 29.125 L 26.671875 29.125 C 27.101562 29.125 27.453125 28.773438 27.453125 28.339844 C 27.453125 27.90625 27.101562 27.558594 26.671875 27.558594 Z M 26.671875 27.558594 "/>
<path style=" stroke:none;fill-rule:nonzero;fill:rgb(0%,0%,0%);fill-opacity:1;" d="M 14.925781 37.8125 L 14.925781 35.089844 C 15.503906 35.277344 15.867188 35.660156 15.867188 36.011719 C 15.867188 36.445312 16.21875 36.796875 16.648438 36.796875 C 17.082031 36.796875 17.433594 36.445312 17.433594 36.011719 C 17.433594 34.765625 16.378906 33.746094 14.925781 33.476562 L 14.925781 33.351562 C 14.925781 32.917969 14.578125 32.566406 14.144531 32.566406 C 13.710938 32.566406 13.359375 32.917969 13.359375 33.351562 L 13.359375 33.476562 C 11.90625 33.746094 10.855469 34.765625 10.855469 36.011719 C 10.855469 37.757812 12.25 38.488281 13.359375 38.910156 L 13.359375 41.632812 C 12.785156 41.445312 12.421875 41.0625 12.421875 40.710938 C 12.421875 40.277344 12.070312 39.925781 11.640625 39.925781 C 11.207031 39.925781 10.855469 40.277344 10.855469 40.710938 C 10.855469 41.957031 11.90625 42.976562 13.359375 43.246094 L 13.359375 43.371094 C 13.359375 43.804688 13.710938 44.15625 14.144531 44.15625 C 14.578125 44.15625 14.925781 43.804688 14.925781 43.371094 L 14.925781 43.246094 C 16.378906 42.976562 17.433594 41.957031 17.433594 40.710938 C 17.433594 38.964844 16.039062 38.234375 14.925781 37.8125 Z M 13.359375 37.203125 C 12.582031 36.820312 12.421875 36.488281 12.421875 36.011719 C 12.421875 35.660156 12.785156 35.277344 13.359375 35.089844 Z M 14.925781 41.632812 L 14.925781 39.519531 C 15.707031 39.902344 15.867188 40.234375 15.867188 40.710938 C 15.867188 41.0625 15.503906 41.445312 14.925781 41.632812 Z M 14.925781 41.632812 "/>
<path style=" stroke:none;fill-rule:nonzero;fill:rgb(0%,0%,0%);fill-opacity:1;" d="M 25.835938 34.238281 L 19.988281 34.238281 C 19.558594 34.238281 19.207031 34.589844 19.207031 35.019531 C 19.207031 35.453125 19.558594 35.804688 19.988281 35.804688 L 25.835938 35.804688 C 26.265625 35.804688 26.617188 35.453125 26.617188 35.019531 C 26.617188 34.589844 26.265625 34.238281 25.835938 34.238281 Z M 25.835938 34.238281 "/>
<path style=" stroke:none;fill-rule:nonzero;fill:rgb(0%,0%,0%);fill-opacity:1;" d="M 23.328125 40.917969 L 19.988281 40.917969 C 19.558594 40.917969 19.207031 41.269531 19.207031 41.703125 C 19.207031 42.132812 19.558594 42.484375 19.988281 42.484375 L 23.328125 42.484375 C 23.761719 42.484375 24.113281 42.132812 24.113281 41.703125 C 24.113281 41.269531 23.761719 40.917969 23.328125 40.917969 Z M 23.328125 40.917969 "/>
<path style=" stroke:none;fill-rule:nonzero;fill:rgb(0%,0%,0%);fill-opacity:1;" d="M 28.339844 40.917969 L 26.671875 40.917969 C 26.238281 40.917969 25.886719 41.269531 25.886719 41.703125 C 25.886719 42.132812 26.238281 42.484375 26.671875 42.484375 L 28.339844 42.484375 C 28.773438 42.484375 29.125 42.132812 29.125 41.703125 C 29.125 41.269531 28.773438 40.917969 28.339844 40.917969 Z M 28.339844 40.917969 "/>
<path style=" stroke:none;fill-rule:nonzero;fill:rgb(0%,0%,0%);fill-opacity:1;" d="M 30.84375 37.578125 L 19.988281 37.578125 C 19.558594 37.578125 19.207031 37.929688 19.207031 38.359375 C 19.207031 38.792969 19.558594 39.144531 19.988281 39.144531 L 30.84375 39.144531 C 31.277344 39.144531 31.628906 38.792969 31.628906 38.359375 C 31.628906 37.929688 31.277344 37.578125 30.84375 37.578125 Z M 30.84375 37.578125 "/>
<path style=" stroke:none;fill-rule:nonzero;fill:rgb(0%,0%,0%);fill-opacity:1;" d="M 27.453125 25 C 27.453125 25.433594 27.101562 25.78125 26.671875 25.78125 C 26.238281 25.78125 25.886719 25.433594 25.886719 25 C 25.886719 24.566406 26.238281 24.21875 26.671875 24.21875 C 27.101562 24.21875 27.453125 24.566406 27.453125 25 Z M 27.453125 25 "/>
<path style=" stroke:none;fill-rule:nonzero;fill:rgb(0%,0%,0%);fill-opacity:1;" d="M 30.792969 25 C 30.792969 25.433594 30.441406 25.78125 30.011719 25.78125 C 29.578125 25.78125 29.226562 25.433594 29.226562 25 C 29.226562 24.566406 29.578125 24.21875 30.011719 24.21875 C 30.441406 24.21875 30.792969 24.566406 30.792969 25 Z M 30.792969 25 "/>
<path style=" stroke:none;fill-rule:nonzero;fill:rgb(0%,0%,0%);fill-opacity:1;" d="M 34.132812 25 C 34.132812 25.433594 33.78125 25.78125 33.351562 25.78125 C 32.917969 25.78125 32.566406 25.433594 32.566406 25 C 32.566406 24.566406 32.917969 24.21875 33.351562 24.21875 C 33.78125 24.21875 34.132812 24.566406 34.132812 25 Z M 34.132812 25 "/>
<path style=" stroke:none;fill-rule:nonzero;fill:rgb(0%,0%,0%);fill-opacity:1;" d="M 30.792969 21.660156 C 30.792969 22.09375 30.441406 22.441406 30.011719 22.441406 C 29.578125 22.441406 29.226562 22.09375 29.226562 21.660156 C 29.226562 21.226562 29.578125 20.875 30.011719 20.875 C 30.441406 20.875 30.792969 21.226562 30.792969 21.660156 Z M 30.792969 21.660156 "/>
<path style=" stroke:none;fill-rule:nonzero;fill:rgb(0%,0%,0%);fill-opacity:1;" d="M 34.132812 21.660156 C 34.132812 22.09375 33.78125 22.441406 33.351562 22.441406 C 32.917969 22.441406 32.566406 22.09375 32.566406 21.660156 C 32.566406 21.226562 32.917969 20.875 33.351562 20.875 C 33.78125 20.875 34.132812 21.226562 34.132812 21.660156 Z M 34.132812 21.660156 "/>
<path style=" stroke:none;fill-rule:nonzero;fill:rgb(0%,0%,0%);fill-opacity:1;" d="M 30.792969 28.339844 C 30.792969 28.773438 30.441406 29.125 30.011719 29.125 C 29.578125 29.125 29.226562 28.773438 29.226562 28.339844 C 29.226562 27.90625 29.578125 27.558594 30.011719 27.558594 C 30.441406 27.558594 30.792969 27.90625 30.792969 28.339844 Z M 30.792969 28.339844 "/>
<path style=" stroke:none;fill-rule:nonzero;fill:rgb(0%,0%,0%);fill-opacity:1;" d="M 34.132812 28.339844 C 34.132812 28.773438 33.78125 29.125 33.351562 29.125 C 32.917969 29.125 32.566406 28.773438 32.566406 28.339844 C 32.566406 27.90625 32.917969 27.558594 33.351562 27.558594 C 33.78125 27.558594 34.132812 27.90625 34.132812 28.339844 Z M 34.132812 28.339844 "/>
</g>
</svg>
