<!-- Generator: Adobe Illustrator 19.0.0, SVG Export Plug-In . SVG Version: 6.00 Build 0)  -->
<svg xmlns="http://www.w3.org/2000/svg" xmlns:xlink="http://www.w3.org/1999/xlink" width="50px" height="50px" viewBox="0 0 50 50" version="1.1">
<g id="surface1">
<path style=" stroke:none;fill-rule:nonzero;fill:rgb(0%,0%,0%);fill-opacity:1;" d="M 44.421875 42.03125 L 43.601562 41.703125 C 47.734375 37.105469 50 31.203125 50 25 C 50 19.925781 48.464844 15.042969 45.671875 10.9375 C 45.636719 10.871094 45.59375 10.808594 45.546875 10.757812 C 44.320312 8.992188 42.863281 7.371094 41.191406 5.949219 C 40.859375 5.667969 40.359375 5.707031 40.078125 6.039062 C 39.792969 6.371094 39.835938 6.871094 40.167969 7.152344 C 41.507812 8.292969 42.703125 9.570312 43.738281 10.953125 C 42.070312 11.605469 40.0625 12.15625 37.824219 12.59375 C 37.207031 10.753906 36.445312 9.035156 35.550781 7.488281 C 34.347656 5.398438 32.964844 3.714844 31.453125 2.480469 C 33.804688 3.152344 36.039062 4.191406 38.09375 5.578125 C 38.457031 5.824219 38.945312 5.726562 39.191406 5.367188 C 39.433594 5.003906 39.339844 4.515625 38.976562 4.269531 C 34.84375 1.476562 30.007812 0 25 0 C 18.320312 0 12.042969 2.601562 7.324219 7.324219 C 2.601562 12.042969 0 18.324219 0 25 C 0 31.210938 2.269531 37.117188 6.410156 41.710938 L 5.597656 42.03125 C 5.296875 42.136719 2.757812 43.152344 2.757812 46.382812 L 2.757812 49.210938 C 2.757812 49.644531 3.113281 50 3.546875 50 L 15.167969 50 C 15.207031 50 15.242188 49.996094 15.28125 49.992188 C 15.316406 49.996094 15.355469 50 15.390625 50 L 18.605469 50 C 19.039062 50 19.394531 49.648438 19.394531 49.210938 C 19.394531 48.773438 19.039062 48.421875 18.605469 48.421875 L 16.183594 48.421875 L 16.183594 45.671875 C 16.183594 42.769531 18.460938 41.9375 18.550781 41.902344 C 18.566406 41.898438 18.578125 41.894531 18.589844 41.890625 L 22.433594 40.386719 C 22.441406 40.394531 22.449219 40.402344 22.457031 40.410156 L 24.5 42.402344 C 24.648438 42.546875 24.847656 42.625 25.050781 42.625 C 25.054688 42.625 25.058594 42.625 25.066406 42.625 C 25.273438 42.621094 25.476562 42.535156 25.621094 42.382812 L 27.582031 40.347656 L 31.421875 41.886719 C 31.4375 41.894531 31.445312 41.898438 31.460938 41.902344 C 31.554688 41.9375 33.835938 42.769531 33.835938 45.671875 L 33.835938 48.421875 L 21.070312 48.421875 C 20.636719 48.421875 20.28125 48.773438 20.28125 49.210938 C 20.28125 49.648438 20.636719 50 21.070312 50 L 46.46875 50 C 46.90625 50 47.257812 49.640625 47.257812 49.203125 L 47.257812 46.382812 C 47.257812 43.164062 44.738281 42.144531 44.421875 42.03125 Z M 42.035156 41.074219 L 41.253906 40.761719 L 41.253906 40.3125 C 42.117188 39.808594 42.777344 39 43.089844 38.035156 C 44.238281 37.945312 45.148438 36.984375 45.148438 35.8125 C 45.148438 35.117188 44.824219 34.492188 44.324219 34.082031 L 44.324219 32.679688 C 44.324219 29.976562 42.292969 27.734375 39.675781 27.402344 C 39.707031 26.867188 39.726562 26.328125 39.738281 25.789062 L 48.40625 25.789062 C 48.214844 31.503906 45.972656 36.902344 42.035156 41.074219 Z M 39.183594 39.296875 L 38.464844 39.296875 C 37.070312 39.296875 35.933594 38.160156 35.933594 36.765625 L 35.933594 34.675781 C 36.960938 34.566406 38.785156 34.207031 40.1875 33.035156 C 40.5 33.574219 40.988281 34.15625 41.714844 34.496094 L 41.714844 36.765625 C 41.714844 38.160156 40.578125 39.296875 39.183594 39.296875 Z M 39.675781 40.84375 L 39.675781 41.28125 L 38.796875 42.195312 L 37.96875 41.390625 L 37.96875 40.84375 C 38.132812 40.863281 38.296875 40.875 38.464844 40.875 L 39.183594 40.875 C 39.351562 40.875 39.515625 40.863281 39.675781 40.84375 Z M 35.148438 33.148438 C 35.144531 33.148438 35.144531 33.148438 35.144531 33.148438 C 35.117188 33.148438 35.089844 33.152344 35.0625 33.152344 C 35.054688 33.15625 35.046875 33.15625 35.039062 33.15625 C 35.019531 33.160156 35.003906 33.164062 34.984375 33.164062 C 34.972656 33.167969 34.960938 33.171875 34.949219 33.175781 C 34.9375 33.179688 34.921875 33.179688 34.910156 33.183594 C 34.902344 33.1875 34.894531 33.191406 34.886719 33.195312 L 34.886719 32.679688 C 34.886719 30.617188 36.5625 28.9375 38.625 28.9375 L 39.003906 28.9375 C 41.066406 28.9375 42.746094 30.617188 42.746094 32.679688 L 42.746094 33.1875 C 42.730469 33.183594 42.714844 33.179688 42.699219 33.175781 C 42.691406 33.171875 42.683594 33.171875 42.679688 33.167969 C 41.578125 32.917969 41.21875 31.449219 41.214844 31.4375 C 41.148438 31.136719 40.90625 30.902344 40.601562 30.839844 C 40.300781 30.777344 39.988281 30.898438 39.804688 31.152344 C 38.375 33.128906 35.1875 33.148438 35.148438 33.148438 Z M 43.292969 36.34375 L 43.292969 35.28125 C 43.457031 35.398438 43.566406 35.59375 43.566406 35.8125 C 43.566406 36.03125 43.457031 36.226562 43.292969 36.34375 Z M 44.667969 12.28125 C 46.953125 15.8125 48.261719 19.925781 48.40625 24.210938 L 39.738281 24.210938 C 39.671875 20.65625 39.175781 17.230469 38.292969 14.109375 C 40.71875 13.625 42.882812 13.007812 44.667969 12.28125 Z M 38.160156 24.210938 L 30.078125 24.210938 C 30.078125 24.210938 30.078125 24.210938 30.074219 24.210938 C 29 23.019531 27.484375 22.234375 25.789062 22.101562 L 25.789062 15.3125 C 29.664062 15.273438 33.402344 14.953125 36.734375 14.394531 C 37.605469 17.410156 38.09375 20.746094 38.160156 24.210938 Z M 31.195312 32.453125 C 31.195312 32.917969 30.878906 33.308594 30.453125 33.429688 L 30.453125 31.476562 C 30.878906 31.597656 31.195312 31.992188 31.195312 32.453125 Z M 25.789062 1.621094 C 28.929688 1.957031 31.886719 4.289062 34.183594 8.273438 C 34.992188 9.671875 35.683594 11.21875 36.253906 12.875 C 33.070312 13.398438 29.5 13.695312 25.789062 13.734375 Z M 25.289062 23.660156 C 27.976562 23.660156 30.164062 25.847656 30.164062 28.539062 L 30.164062 29.503906 C 30.160156 29.496094 30.15625 29.492188 30.148438 29.488281 C 30.136719 29.480469 30.125 29.472656 30.113281 29.464844 C 30.105469 29.457031 30.09375 29.453125 30.085938 29.445312 C 30.074219 29.4375 30.0625 29.429688 30.050781 29.421875 C 30.039062 29.417969 30.027344 29.410156 30.015625 29.40625 C 30.003906 29.402344 29.992188 29.394531 29.984375 29.390625 C 29.96875 29.382812 29.953125 29.378906 29.941406 29.375 C 29.929688 29.371094 29.921875 29.367188 29.910156 29.363281 C 29.894531 29.355469 29.878906 29.351562 29.863281 29.347656 C 29.855469 29.347656 29.847656 29.34375 29.839844 29.34375 C 28.339844 29 27.867188 27.046875 27.859375 27.027344 C 27.792969 26.726562 27.554688 26.492188 27.25 26.429688 C 26.945312 26.367188 26.632812 26.488281 26.453125 26.742188 C 24.601562 29.296875 20.519531 29.324219 20.464844 29.324219 C 20.464844 29.324219 20.464844 29.324219 20.460938 29.324219 C 20.433594 29.324219 20.40625 29.324219 20.382812 29.328125 C 20.375 29.328125 20.363281 29.328125 20.355469 29.332031 C 20.339844 29.332031 20.320312 29.335938 20.304688 29.339844 C 20.292969 29.339844 20.28125 29.34375 20.269531 29.347656 C 20.253906 29.351562 20.242188 29.355469 20.226562 29.359375 C 20.214844 29.363281 20.203125 29.367188 20.191406 29.371094 C 20.179688 29.375 20.167969 29.378906 20.15625 29.382812 C 20.140625 29.390625 20.128906 29.398438 20.113281 29.40625 C 20.105469 29.410156 20.09375 29.414062 20.085938 29.417969 C 20.074219 29.425781 20.058594 29.433594 20.046875 29.441406 C 20.039062 29.449219 20.03125 29.453125 20.023438 29.457031 C 20.007812 29.464844 19.996094 29.476562 19.984375 29.484375 C 19.976562 29.492188 19.96875 29.496094 19.960938 29.503906 C 19.953125 29.507812 19.945312 29.515625 19.941406 29.519531 L 19.941406 28.539062 C 19.941406 25.847656 22.128906 23.660156 24.816406 23.660156 Z M 11.839844 24.210938 C 11.90625 20.746094 12.394531 17.410156 13.265625 14.390625 C 16.601562 14.953125 20.34375 15.273438 24.210938 15.3125 L 24.210938 22.109375 C 22.554688 22.265625 21.082031 23.046875 20.023438 24.214844 C 19.996094 24.210938 19.96875 24.210938 19.9375 24.210938 Z M 19.671875 31.46875 L 19.671875 33.4375 C 19.230469 33.328125 18.902344 32.929688 18.902344 32.453125 C 18.898438 31.980469 19.230469 31.578125 19.671875 31.46875 Z M 24.210938 1.621094 L 24.210938 13.734375 C 20.511719 13.695312 16.933594 13.394531 13.746094 12.875 C 14.316406 11.21875 15.007812 9.671875 15.816406 8.273438 C 18.113281 4.289062 21.070312 1.957031 24.210938 1.621094 Z M 18.535156 2.488281 C 17.03125 3.722656 15.648438 5.402344 14.449219 7.484375 C 13.554688 9.035156 12.796875 10.75 12.175781 12.59375 C 9.941406 12.15625 7.9375 11.605469 6.269531 10.953125 C 9.292969 6.933594 13.582031 3.910156 18.535156 2.488281 Z M 5.339844 12.285156 C 7.121094 13.011719 9.285156 13.625 11.710938 14.105469 C 10.824219 17.226562 10.328125 20.65625 10.261719 24.210938 L 1.59375 24.210938 C 1.738281 19.824219 3.097656 15.742188 5.339844 12.285156 Z M 10.429688 40.84375 C 10.589844 40.863281 10.753906 40.875 10.921875 40.875 L 11.640625 40.875 C 11.808594 40.875 11.972656 40.863281 12.132812 40.84375 L 12.132812 41.28125 L 11.253906 42.195312 L 10.429688 41.390625 Z M 11.640625 39.296875 L 10.921875 39.296875 C 9.527344 39.296875 8.390625 38.160156 8.390625 36.765625 L 8.390625 34.679688 C 9.417969 34.566406 11.242188 34.207031 12.644531 33.035156 C 12.960938 33.574219 13.445312 34.15625 14.171875 34.496094 L 14.171875 36.765625 C 14.171875 38.160156 13.035156 39.296875 11.640625 39.296875 Z M 13.671875 31.4375 C 13.605469 31.136719 13.363281 30.902344 13.0625 30.839844 C 12.757812 30.777344 12.445312 30.898438 12.261719 31.152344 C 10.832031 33.128906 7.644531 33.148438 7.605469 33.148438 C 7.605469 33.148438 7.601562 33.148438 7.601562 33.148438 C 7.574219 33.148438 7.546875 33.152344 7.519531 33.152344 C 7.511719 33.15625 7.503906 33.15625 7.496094 33.15625 C 7.480469 33.160156 7.460938 33.164062 7.441406 33.164062 C 7.433594 33.167969 7.421875 33.171875 7.410156 33.175781 C 7.394531 33.179688 7.382812 33.179688 7.367188 33.183594 C 7.359375 33.1875 7.351562 33.191406 7.34375 33.195312 L 7.34375 32.679688 C 7.34375 30.617188 9.019531 28.9375 11.085938 28.9375 L 11.460938 28.9375 C 13.523438 28.9375 15.203125 30.617188 15.203125 32.679688 L 15.203125 33.1875 C 15.1875 33.183594 15.171875 33.179688 15.15625 33.175781 C 15.148438 33.171875 15.144531 33.171875 15.136719 33.167969 C 14.035156 32.917969 13.675781 31.449219 13.671875 31.4375 Z M 1.59375 25.789062 L 10.261719 25.789062 C 10.273438 26.332031 10.292969 26.875 10.324219 27.414062 C 7.75 27.785156 5.761719 30.003906 5.761719 32.679688 L 5.761719 34.078125 C 5.257812 34.488281 4.933594 35.113281 4.933594 35.8125 C 4.933594 36.992188 5.855469 37.960938 7.015625 38.039062 C 7.328125 39 7.988281 39.808594 8.847656 40.3125 L 8.847656 40.757812 L 7.988281 41.09375 C 4.035156 36.917969 1.785156 31.515625 1.59375 25.789062 Z M 6.8125 35.261719 L 6.8125 36.363281 C 6.632812 36.246094 6.511719 36.042969 6.511719 35.8125 C 6.511719 35.582031 6.632812 35.378906 6.8125 35.261719 Z M 14.601562 45.671875 L 14.601562 48.421875 L 4.335938 48.421875 L 4.335938 46.382812 C 4.335938 44.179688 6.058594 43.542969 6.125 43.519531 C 6.136719 43.515625 6.148438 43.507812 6.160156 43.503906 L 9.140625 42.339844 L 10.722656 43.878906 C 10.867188 44.023438 11.066406 44.105469 11.273438 44.105469 C 11.277344 44.105469 11.28125 44.105469 11.285156 44.105469 C 11.496094 44.101562 11.695312 44.011719 11.839844 43.863281 L 13.335938 42.3125 L 15.183594 43.050781 C 14.832031 43.769531 14.601562 44.636719 14.601562 45.671875 Z M 22.21875 38.773438 L 18.03125 40.414062 C 17.496094 40.597656 16.757812 41.019531 16.101562 41.71875 L 13.714844 40.761719 L 13.714844 40.3125 C 14.574219 39.808594 15.234375 39 15.546875 38.035156 C 16.695312 37.945312 17.605469 36.984375 17.605469 35.8125 C 17.605469 35.117188 17.28125 34.492188 16.78125 34.082031 L 16.78125 32.679688 C 16.78125 29.894531 14.628906 27.605469 11.902344 27.378906 C 11.871094 26.851562 11.851562 26.320312 11.839844 25.789062 L 18.976562 25.789062 C 18.582031 26.625 18.359375 27.554688 18.359375 28.535156 L 18.359375 30.378906 C 17.730469 30.851562 17.320312 31.605469 17.320312 32.453125 C 17.320312 33.871094 18.464844 35.027344 19.875 35.046875 C 20.246094 36.300781 21.101562 37.34375 22.21875 37.96875 Z M 15.75 36.34375 L 15.75 35.28125 C 15.917969 35.398438 16.023438 35.59375 16.023438 35.8125 C 16.023438 36.03125 15.917969 36.226562 15.75 36.34375 Z M 26.328125 39.324219 C 26.328125 39.324219 26.328125 39.328125 26.328125 39.328125 L 26.328125 39.375 L 25.035156 40.71875 L 23.796875 39.511719 L 23.796875 38.519531 C 24.0625 38.5625 24.335938 38.589844 24.613281 38.589844 L 25.515625 38.589844 C 25.792969 38.589844 26.0625 38.5625 26.328125 38.519531 Z M 25.515625 37.007812 L 24.613281 37.007812 C 22.757812 37.007812 21.25 35.5 21.25 33.648438 L 21.25 30.859375 C 22.511719 30.746094 25.003906 30.304688 26.824219 28.671875 C 27.207031 29.398438 27.851562 30.242188 28.875 30.679688 L 28.875 33.648438 C 28.875 35.5 27.367188 37.007812 25.515625 37.007812 Z M 33.917969 41.726562 C 33.265625 41.023438 32.523438 40.601562 31.992188 40.414062 L 27.90625 38.777344 L 27.90625 37.96875 C 29.027344 37.34375 29.878906 36.300781 30.25 35.046875 C 31.648438 35.007812 32.773438 33.859375 32.773438 32.453125 C 32.773438 31.613281 32.367188 30.863281 31.746094 30.386719 L 31.746094 28.539062 C 31.746094 27.554688 31.523438 26.625 31.128906 25.789062 L 38.160156 25.789062 C 38.148438 26.324219 38.128906 26.855469 38.097656 27.386719 C 35.410156 27.652344 33.304688 29.925781 33.304688 32.679688 L 33.304688 34.078125 C 32.800781 34.488281 32.476562 35.113281 32.476562 35.8125 C 32.476562 36.992188 33.394531 37.960938 34.558594 38.039062 C 34.871094 39 35.53125 39.808594 36.390625 40.3125 L 36.390625 40.757812 Z M 34.355469 35.261719 L 34.355469 36.363281 C 34.175781 36.246094 34.054688 36.042969 34.054688 35.8125 C 34.054688 35.582031 34.175781 35.378906 34.355469 35.261719 Z M 45.679688 48.421875 L 35.414062 48.421875 L 35.414062 45.671875 C 35.414062 44.640625 35.1875 43.777344 34.839844 43.0625 L 36.683594 42.339844 L 38.265625 43.878906 C 38.410156 44.023438 38.609375 44.105469 38.816406 44.105469 C 38.820312 44.105469 38.824219 44.105469 38.828125 44.105469 C 39.039062 44.101562 39.238281 44.011719 39.382812 43.863281 L 40.878906 42.3125 L 43.847656 43.503906 C 43.863281 43.507812 43.871094 43.511719 43.886719 43.515625 C 43.957031 43.542969 45.679688 44.179688 45.679688 46.382812 Z M 45.679688 48.421875 "/>
</g>
</svg>
