<!-- Generator: Adobe Illustrator 19.0.0, SVG Export Plug-In . SVG Version: 6.00 Build 0)  -->
<svg xmlns="http://www.w3.org/2000/svg" xmlns:xlink="http://www.w3.org/1999/xlink" width="50px" height="50px" viewBox="0 0 50 50" version="1.1">
<g id="surface1">
<path style=" stroke:none;fill-rule:nonzero;fill:rgb(0%,0%,0%);fill-opacity:1;" d="M 47.148438 37.757812 C 46.113281 37.023438 44.914062 36.632812 43.703125 36.570312 C 39.140625 33.582031 36.152344 31.339844 34.40625 29.59375 L 29.046875 24.234375 L 32.300781 20.59375 C 32.914062 20.941406 33.578125 21.167969 34.238281 21.265625 C 34.738281 21.347656 35.074219 21.347656 35.40625 21.347656 C 36.074219 21.347656 36.238281 21.347656 36.90625 21.929688 C 36.570312 22.179688 36.40625 22.597656 36.40625 23.011719 C 36.40625 23.429688 36.570312 23.929688 36.90625 24.261719 L 39.820312 27.179688 C 40.238281 27.675781 40.902344 27.925781 41.570312 27.925781 C 42.234375 27.925781 42.902344 27.675781 43.320312 27.09375 L 49.230469 21.179688 C 49.730469 20.765625 49.980469 20.097656 49.980469 19.433594 C 49.980469 18.765625 49.730469 18.183594 49.230469 17.683594 L 46.316406 14.765625 C 45.984375 14.433594 45.566406 14.269531 45.152344 14.269531 C 44.734375 14.269531 44.316406 14.519531 43.984375 14.765625 C 43.320312 14.183594 43.320312 14.019531 43.320312 13.351562 C 43.320312 13.019531 43.320312 12.601562 43.152344 12.101562 C 42.984375 10.9375 42.402344 9.769531 41.484375 8.855469 L 38.488281 5.855469 C 36.738281 4.105469 35.90625 3.273438 33.65625 2.273438 C 28.824219 0.0234375 23.910156 0.441406 16.75 3.691406 C 16.332031 3.855469 16.164062 4.191406 16.25 4.605469 C 16.332031 5.023438 16.664062 5.273438 17.082031 5.273438 L 18.164062 5.273438 C 21.828125 5.273438 23.746094 5.273438 27.078125 8.605469 C 28.535156 10.0625 28.578125 12.300781 27.269531 13.945312 C 27.09375 13.972656 26.960938 14.050781 26.828125 14.183594 L 23.125 18.3125 L 20.328125 15.515625 C 17.257812 12.441406 15.09375 9.535156 13.429688 6.296875 C 13.34375 4.65625 12.683594 3.125 11.5 1.941406 C 10.085938 0.523438 8.085938 -0.140625 6.085938 0.0234375 C 5.835938 0.109375 5.585938 0.273438 5.503906 0.441406 C 5.335938 0.691406 5.335938 1.023438 5.503906 1.273438 L 7.835938 5.4375 C 7.335938 6.523438 6.171875 7.1875 5.003906 7.105469 L 2.589844 3.105469 C 2.503906 2.855469 2.171875 2.691406 1.921875 2.691406 C 1.671875 2.605469 1.421875 2.773438 1.257812 3.023438 C -0.742188 6.023438 0.0078125 10.019531 3.003906 12.101562 C 4.039062 12.839844 5.203125 13.25 6.382812 13.335938 C 6.394531 13.339844 6.40625 13.347656 6.421875 13.351562 C 9.667969 15.015625 12.582031 17.183594 15.664062 20.265625 L 18.710938 23.242188 L 1.007812 43.003906 C 0.339844 43.667969 0.0078125 44.585938 0.0078125 45.503906 C 0.0078125 46.417969 0.339844 47.25 1.007812 47.917969 L 2.171875 49.082031 C 2.839844 49.667969 3.671875 50 4.503906 50 C 5.335938 50 6.253906 49.667969 6.921875 49 L 24.605469 29.203125 L 29.742188 34.339844 C 31.488281 36.089844 33.734375 39.167969 36.730469 43.65625 C 36.835938 45.261719 37.492188 46.757812 38.65625 47.917969 C 39.902344 49.167969 41.570312 49.832031 43.320312 49.832031 C 43.570312 49.832031 43.820312 49.832031 43.984375 49.832031 C 44.234375 49.832031 44.484375 49.667969 44.652344 49.417969 C 44.816406 49.167969 44.816406 48.832031 44.652344 48.585938 L 42.234375 44.503906 C 42.820312 43.421875 43.902344 42.753906 45.152344 42.835938 L 47.484375 46.835938 C 47.566406 47.085938 47.898438 47.25 48.148438 47.25 C 48.484375 47.167969 48.734375 47.085938 48.898438 46.835938 C 50.898438 43.835938 50.066406 39.839844 47.148438 37.757812 Z M 28.160156 7.269531 C 25.496094 4.6875 23.496094 3.855469 21.246094 3.605469 C 25.992188 2.105469 29.492188 2.191406 32.992188 3.773438 C 34.988281 4.605469 35.65625 5.273438 37.40625 7.023438 L 40.402344 10.019531 C 41.070312 10.6875 41.484375 11.519531 41.570312 12.351562 C 41.652344 12.769531 41.652344 13.101562 41.652344 13.351562 C 41.652344 14.269531 41.734375 14.933594 42.734375 15.933594 C 43.070312 16.265625 43.570312 16.433594 43.984375 16.433594 C 44.484375 16.433594 44.902344 16.265625 45.152344 15.933594 L 48.066406 18.847656 C 48.234375 19.015625 48.316406 19.183594 48.316406 19.433594 C 48.316406 19.683594 48.234375 19.847656 48.066406 20.015625 L 42.152344 25.929688 C 41.820312 26.261719 41.320312 26.261719 40.988281 25.929688 L 38.070312 23.011719 C 38.40625 22.761719 38.570312 22.347656 38.488281 21.847656 C 38.488281 21.429688 38.320312 20.929688 37.988281 20.597656 C 36.988281 19.597656 36.320312 19.515625 35.40625 19.515625 C 35.15625 19.515625 34.824219 19.515625 34.40625 19.433594 C 33.488281 19.347656 32.742188 18.933594 32.074219 18.265625 L 28.492188 14.683594 C 30.324219 12.4375 30.160156 9.269531 28.160156 7.269531 Z M 2.007812 5.273438 L 3.753906 8.269531 C 3.921875 8.519531 4.171875 8.6875 4.421875 8.6875 L 4.839844 8.6875 C 6.753906 8.769531 8.503906 7.769531 9.335938 6.105469 L 9.503906 5.6875 C 9.667969 5.4375 9.667969 5.1875 9.503906 4.9375 L 7.667969 1.773438 C 8.667969 1.941406 9.585938 2.441406 10.335938 3.191406 C 11.195312 4.121094 11.742188 5.296875 11.777344 6.5625 C 11.761719 6.625 11.75 6.695312 11.75 6.773438 C 11.75 7.15625 11.703125 7.535156 11.617188 7.898438 C 11.304688 9.101562 10.550781 10.152344 9.503906 10.851562 C 7.835938 11.9375 5.585938 11.9375 3.921875 10.769531 C 2.171875 9.519531 1.421875 7.269531 2.007812 5.273438 Z M 16.832031 19.097656 C 14.332031 16.515625 11.835938 14.519531 9.167969 12.933594 C 9.585938 12.769531 10.085938 12.519531 10.5 12.269531 C 11.75 11.4375 12.582031 10.351562 13.082031 9.019531 C 14.667969 11.6875 16.664062 14.183594 19.164062 16.683594 L 22.023438 19.542969 L 19.78125 22.046875 Z M 5.753906 47.75 C 5.085938 48.417969 4.003906 48.5 3.339844 47.835938 L 2.171875 46.75 C 1.839844 46.417969 1.671875 46.003906 1.671875 45.585938 C 1.671875 45.085938 1.839844 44.667969 2.253906 44.253906 L 2.726562 43.726562 L 3.921875 44.917969 C 4.089844 45.085938 4.253906 45.167969 4.503906 45.167969 C 4.753906 45.167969 4.921875 45.085938 5.085938 44.917969 C 5.421875 44.585938 5.421875 44.085938 5.085938 43.753906 L 3.828125 42.492188 L 4.929688 41.261719 L 6.253906 42.585938 C 6.421875 42.753906 6.585938 42.835938 6.835938 42.835938 C 7.085938 42.835938 7.253906 42.753906 7.417969 42.585938 C 7.753906 42.253906 7.753906 41.753906 7.417969 41.421875 L 6.03125 40.03125 L 27.453125 16.0625 L 30.953125 19.558594 L 27.515625 23.40625 C 27.417969 23.445312 27.328125 23.511719 27.242188 23.597656 L 23.910156 27.34375 C 23.816406 27.441406 23.75 27.546875 23.707031 27.664062 Z M 25.746094 27.929688 L 28.023438 25.378906 L 33.40625 30.757812 C 34.90625 32.34375 37.488281 34.339844 41.234375 36.839844 C 40.738281 37.007812 40.238281 37.257812 39.738281 37.589844 C 38.703125 38.234375 37.972656 39.132812 37.460938 40.125 C 37.453125 40.136719 37.449219 40.152344 37.441406 40.167969 C 37.410156 40.226562 37.378906 40.285156 37.351562 40.347656 C 37.308594 40.429688 37.269531 40.519531 37.234375 40.605469 C 37.207031 40.664062 37.183594 40.722656 37.160156 40.78125 C 37.15625 40.792969 37.152344 40.800781 37.148438 40.808594 C 37.121094 40.875 37.097656 40.9375 37.070312 41.003906 C 36.597656 40.3125 36.144531 39.65625 35.707031 39.039062 L 36.820312 37.921875 C 37.15625 37.589844 37.15625 37.089844 36.820312 36.757812 C 36.488281 36.421875 35.988281 36.421875 35.65625 36.757812 L 34.726562 37.683594 C 34.382812 37.214844 34.046875 36.773438 33.722656 36.355469 L 34.488281 35.589844 C 34.824219 35.257812 34.824219 34.757812 34.488281 34.425781 C 34.15625 34.089844 33.65625 34.089844 33.324219 34.425781 L 32.6875 35.058594 C 32.074219 34.324219 31.511719 33.695312 30.992188 33.175781 Z M 48.066406 44.585938 L 46.316406 41.585938 C 46.152344 41.335938 45.902344 41.171875 45.652344 41.171875 L 45.234375 41.171875 C 43.320312 41.003906 41.570312 42.085938 40.738281 43.753906 L 40.570312 44.167969 C 40.402344 44.417969 40.402344 44.667969 40.570312 44.917969 L 42.402344 48.085938 C 41.402344 47.917969 40.488281 47.417969 39.738281 46.667969 C 38.894531 45.753906 38.351562 44.605469 38.296875 43.371094 C 38.3125 43.308594 38.320312 43.242188 38.320312 43.171875 C 38.320312 42.113281 38.65625 41.128906 39.238281 40.289062 C 39.597656 39.792969 40.046875 39.355469 40.570312 39.003906 C 41.402344 38.421875 42.320312 38.171875 43.320312 38.171875 C 44.316406 38.171875 45.316406 38.503906 46.148438 39.089844 C 47.898438 40.339844 48.648438 42.585938 48.066406 44.585938 Z M 48.066406 44.585938 "/>
</g>
</svg>
