<!-- Generator: Adobe Illustrator 19.0.0, SVG Export Plug-In . SVG Version: 6.00 Build 0)  -->
<svg xmlns="http://www.w3.org/2000/svg" xmlns:xlink="http://www.w3.org/1999/xlink" width="50px" height="50px" viewBox="0 0 50 50" version="1.1">
<g id="surface1">
<path style=" stroke:none;fill-rule:nonzero;fill:rgb(0%,0%,0%);fill-opacity:1;" d="M 49.128906 33.1875 C 48.445312 32.613281 47.445312 32.351562 46.503906 32.515625 L 26.109375 36.597656 L 22.253906 32.746094 C 22.101562 32.585938 21.886719 32.5 21.667969 32.5 L 0.832031 32.5 C 0.371094 32.5 0 32.875 0 33.332031 L 0 45.832031 C 0 46.292969 0.371094 46.667969 0.832031 46.667969 L 12.5 46.667969 C 12.960938 46.667969 13.332031 46.292969 13.332031 45.832031 L 13.332031 45 L 15.621094 45 L 24.601562 49.898438 C 24.722656 49.964844 24.859375 50 25 50 L 27.5 50 C 27.652344 50 27.800781 49.960938 27.929688 49.878906 L 48.753906 37.386719 C 49.546875 36.925781 50 36.054688 50 35 C 50 34.304688 49.691406 33.660156 49.128906 33.1875 Z M 8.332031 45 L 1.667969 45 L 1.667969 34.167969 L 8.332031 34.167969 Z M 11.667969 45 L 10 45 L 10 34.167969 L 11.667969 34.167969 Z M 47.902344 35.953125 L 27.269531 48.332031 L 25.210938 48.332031 L 16.234375 43.433594 C 16.109375 43.367188 15.972656 43.332031 15.832031 43.332031 L 13.332031 43.332031 L 13.332031 34.167969 L 21.320312 34.167969 L 28.578125 41.421875 C 28.945312 41.789062 29.167969 42.195312 29.167969 42.5 C 29.167969 43.339844 28.339844 44.167969 27.5 44.167969 C 27.195312 44.167969 26.792969 43.945312 26.421875 43.578125 L 21.421875 38.578125 L 20.246094 39.753906 L 25.246094 44.757812 C 25.941406 45.449219 26.742188 45.832031 27.5 45.832031 C 29.277344 45.832031 30.832031 44.277344 30.832031 42.5 C 30.832031 41.738281 30.449219 40.9375 29.753906 40.246094 L 27.523438 38.011719 L 46.808594 34.152344 C 47.246094 34.074219 47.75 34.203125 48.058594 34.464844 C 48.332031 34.695312 48.332031 34.925781 48.332031 35 C 48.332031 35.210938 48.292969 35.726562 47.902344 35.953125 Z M 47.902344 35.953125 "/>
<path style=" stroke:none;fill-rule:nonzero;fill:rgb(0%,0%,0%);fill-opacity:1;" d="M 25 20.832031 C 24.539062 20.832031 24.167969 20.460938 24.167969 20 C 24.167969 19.539062 24.539062 19.167969 25 19.167969 C 25.460938 19.167969 25.832031 19.539062 25.832031 20 C 25.832031 20.460938 26.207031 20.832031 26.667969 20.832031 C 27.128906 20.832031 27.5 20.460938 27.5 20 C 27.5 18.914062 26.800781 18 25.832031 17.652344 L 25.832031 16.667969 L 24.167969 16.667969 L 24.167969 17.652344 C 23.199219 18 22.5 18.914062 22.5 20 C 22.5 21.378906 23.621094 22.5 25 22.5 C 25.460938 22.5 25.832031 22.875 25.832031 23.332031 C 25.832031 23.792969 25.460938 24.167969 25 24.167969 C 24.539062 24.167969 24.167969 23.792969 24.167969 23.332031 L 22.5 23.332031 C 22.5 24.417969 23.199219 25.335938 24.167969 25.679688 L 24.167969 26.667969 L 25.832031 26.667969 L 25.832031 25.679688 C 26.800781 25.335938 27.5 24.417969 27.5 23.332031 C 27.5 21.953125 26.378906 20.832031 25 20.832031 Z M 25 20.832031 "/>
<path style=" stroke:none;fill-rule:nonzero;fill:rgb(0%,0%,0%);fill-opacity:1;" d="M 45.515625 16.011719 L 25.515625 0.179688 C 25.214844 -0.0585938 24.785156 -0.0585938 24.484375 0.179688 L 16.667969 6.367188 L 16.667969 4.167969 C 16.667969 3.707031 16.292969 3.332031 15.832031 3.332031 L 10.832031 3.332031 C 10.371094 3.332031 10 3.707031 10 4.167969 L 10 11.644531 L 4.484375 16.011719 C 4.285156 16.171875 4.167969 16.410156 4.167969 16.667969 L 4.167969 22.5 C 4.167969 22.820312 4.351562 23.109375 4.636719 23.25 C 4.925781 23.386719 5.265625 23.351562 5.515625 23.152344 L 9.167969 20.265625 L 9.167969 30 C 9.167969 30.460938 9.539062 30.832031 10 30.832031 L 40 30.832031 C 40.460938 30.832031 40.832031 30.460938 40.832031 30 L 40.832031 20.265625 L 44.484375 23.152344 C 44.632812 23.273438 44.816406 23.332031 45 23.332031 C 45.125 23.332031 45.246094 23.304688 45.363281 23.25 C 45.648438 23.109375 45.832031 22.820312 45.832031 22.5 L 45.832031 16.667969 C 45.832031 16.410156 45.714844 16.171875 45.515625 16.011719 Z M 11.667969 5 L 15 5 L 15 7.6875 L 11.667969 10.324219 Z M 29.167969 29.167969 L 20.832031 29.167969 L 20.832031 18.332031 C 20.832031 16.035156 22.703125 14.167969 25 14.167969 C 27.296875 14.167969 29.167969 16.035156 29.167969 18.332031 Z M 39.167969 29.167969 L 30.832031 29.167969 L 30.832031 18.332031 C 30.832031 15.117188 28.214844 12.5 25 12.5 C 21.785156 12.5 19.167969 15.117188 19.167969 18.332031 L 19.167969 29.167969 L 10.832031 29.167969 L 10.832031 18.945312 L 25 7.730469 L 39.167969 18.945312 Z M 44.167969 20.777344 L 40.519531 17.886719 L 40.515625 17.886719 L 25.515625 6.011719 C 25.214844 5.773438 24.785156 5.773438 24.484375 6.011719 L 9.484375 17.886719 L 9.480469 17.886719 L 5.832031 20.777344 L 5.832031 17.070312 L 11.347656 12.703125 C 11.351562 12.703125 11.351562 12.703125 11.351562 12.703125 L 16.351562 8.746094 C 16.351562 8.746094 16.351562 8.742188 16.351562 8.742188 L 25 1.894531 L 44.167969 17.070312 Z M 44.167969 20.777344 "/>
<path style=" stroke:none;fill-rule:nonzero;fill:rgb(0%,0%,0%);fill-opacity:1;" d="M 16.667969 19.167969 L 13.332031 19.167969 C 12.871094 19.167969 12.5 19.539062 12.5 20 L 12.5 23.332031 C 12.5 23.792969 12.871094 24.167969 13.332031 24.167969 L 16.667969 24.167969 C 17.128906 24.167969 17.5 23.792969 17.5 23.332031 L 17.5 20 C 17.5 19.539062 17.128906 19.167969 16.667969 19.167969 Z M 15.832031 22.5 L 14.167969 22.5 L 14.167969 20.832031 L 15.832031 20.832031 Z M 15.832031 22.5 "/>
<path style=" stroke:none;fill-rule:nonzero;fill:rgb(0%,0%,0%);fill-opacity:1;" d="M 36.667969 19.167969 L 33.332031 19.167969 C 32.871094 19.167969 32.5 19.539062 32.5 20 L 32.5 23.332031 C 32.5 23.792969 32.871094 24.167969 33.332031 24.167969 L 36.667969 24.167969 C 37.128906 24.167969 37.5 23.792969 37.5 23.332031 L 37.5 20 C 37.5 19.539062 37.128906 19.167969 36.667969 19.167969 Z M 35.832031 22.5 L 34.167969 22.5 L 34.167969 20.832031 L 35.832031 20.832031 Z M 35.832031 22.5 "/>
</g>
</svg>
