<!-- Generator: Adobe Illustrator 19.0.0, SVG Export Plug-In . SVG Version: 6.00 Build 0)  -->
<svg xmlns="http://www.w3.org/2000/svg" xmlns:xlink="http://www.w3.org/1999/xlink" width="50px" height="50px" viewBox="0 0 50 50" version="1.1">
<g id="surface1">
<path style=" stroke:none;fill-rule:nonzero;fill:rgb(13.333333%,16.470588%,18.823529%);fill-opacity:1;" d="M 49.671875 10.191406 L 39.710938 10.191406 L 39.710938 11.890625 L 40.707031 11.890625 C 41.484375 11.890625 42.1875 12.292969 42.585938 12.960938 C 42.984375 13.628906 43 14.4375 42.625 15.121094 L 31.910156 34.789062 L 27.03125 23.15625 L 31.628906 14.722656 C 32.578125 12.976562 34.40625 11.890625 36.390625 11.890625 L 36.9375 11.890625 L 36.9375 10.191406 L 26.648438 10.191406 L 26.648438 11.890625 L 27.644531 11.890625 C 28.421875 11.890625 29.125 12.292969 29.523438 12.960938 C 29.917969 13.628906 29.933594 14.4375 29.5625 15.121094 L 26.226562 21.242188 L 23.257812 14.160156 C 23.042969 13.644531 23.09375 13.085938 23.402344 12.621094 C 23.710938 12.15625 24.207031 11.890625 24.765625 11.890625 L 25.851562 11.890625 L 25.851562 10.191406 L 13.675781 10.191406 L 13.675781 11.890625 L 14.160156 11.890625 C 16.433594 11.890625 18.472656 13.246094 19.351562 15.34375 L 23.742188 25.808594 L 18.847656 34.789062 L 10.195312 14.160156 C 9.976562 13.644531 10.03125 13.085938 10.339844 12.621094 C 10.648438 12.15625 11.144531 11.890625 11.703125 11.890625 L 13.199219 11.890625 L 13.199219 10.191406 L 0 10.191406 L 0 11.890625 L 1.097656 11.890625 C 3.371094 11.890625 5.40625 13.246094 6.285156 15.34375 L 16.261719 39.125 C 16.4375 39.542969 16.84375 39.808594 17.292969 39.808594 C 17.707031 39.808594 18.074219 39.59375 18.273438 39.226562 L 19.574219 36.839844 L 24.542969 27.722656 L 29.328125 39.125 C 29.5 39.542969 29.90625 39.808594 30.355469 39.808594 C 30.773438 39.808594 31.136719 39.59375 31.335938 39.226562 L 32.636719 36.839844 L 44.691406 14.722656 C 45.640625 12.976562 47.46875 11.890625 49.457031 11.890625 L 50 11.890625 L 50 10.191406 Z M 49.671875 10.191406 "/>
</g>
</svg>
