<!-- Generator: Adobe Illustrator 19.0.0, SVG Export Plug-In . SVG Version: 6.00 Build 0)  -->
<svg xmlns="http://www.w3.org/2000/svg" xmlns:xlink="http://www.w3.org/1999/xlink" width="50px" height="50px" viewBox="0 0 50 50" version="1.1">
<g id="surface1">
<path style=" stroke:none;fill-rule:nonzero;fill:rgb(0%,46.27451%,61.568627%);fill-opacity:1;" d="M 15 15.429688 L 12.238281 15.429688 L 19.765625 36.710938 L 23.980469 24.667969 L 20.710938 15.429688 L 17.796875 15.429688 L 17.796875 13.402344 L 30.699219 13.402344 L 30.699219 15.429688 L 27.679688 15.429688 L 35.207031 36.710938 L 37.910156 28.976562 C 41.460938 19.070312 35.003906 15.984375 35.003906 13.773438 C 35.003906 11.5625 36.796875 9.769531 39.007812 9.769531 C 39.125 9.769531 39.242188 9.777344 39.355469 9.785156 C 35.609375 6.25 30.558594 4.082031 25 4.082031 C 17.738281 4.082031 11.339844 7.785156 7.589844 13.402344 L 15 13.402344 Z M 15 15.429688 "/>
<path style=" stroke:none;fill-rule:nonzero;fill:rgb(0%,46.27451%,61.568627%);fill-opacity:1;" d="M 4.082031 25 C 4.082031 33.007812 8.582031 39.964844 15.191406 43.480469 L 5.753906 16.796875 C 4.679688 19.316406 4.082031 22.085938 4.082031 25 Z M 4.082031 25 "/>
<path style=" stroke:none;fill-rule:nonzero;fill:rgb(0%,46.27451%,61.568627%);fill-opacity:1;" d="M 43.203125 14.691406 C 43.503906 16.453125 43.414062 18.433594 42.953125 20.421875 L 43.039062 20.421875 L 42.722656 21.324219 C 42.535156 21.976562 42.296875 22.644531 42.03125 23.300781 L 34.832031 43.464844 C 41.429688 39.945312 45.917969 33 45.917969 25 C 45.917969 21.253906 44.929688 17.734375 43.203125 14.691406 Z M 43.203125 14.691406 "/>
<path style=" stroke:none;fill-rule:nonzero;fill:rgb(0%,46.27451%,61.568627%);fill-opacity:1;" d="M 18.546875 44.902344 C 20.582031 45.5625 22.75 45.917969 25 45.917969 C 27.148438 45.917969 29.21875 45.59375 31.167969 44.992188 L 25.050781 27.695312 Z M 18.546875 44.902344 "/>
<path style=" stroke:none;fill-rule:nonzero;fill:rgb(0%,46.27451%,61.568627%);fill-opacity:1;" d="M 42.675781 7.324219 C 37.957031 2.601562 31.675781 0 25 0 C 18.320312 0 12.042969 2.601562 7.324219 7.324219 C 2.601562 12.042969 0 18.320312 0 25 C 0 31.679688 2.601562 37.957031 7.324219 42.675781 C 12.042969 47.398438 18.320312 50 25 50 C 31.679688 50 37.957031 47.398438 42.675781 42.675781 C 47.398438 37.957031 50 31.675781 50 25 C 50 18.320312 47.398438 12.042969 42.675781 7.324219 Z M 25 48.238281 C 12.1875 48.238281 1.761719 37.8125 1.761719 25 C 1.761719 12.1875 12.1875 1.761719 25 1.761719 C 37.8125 1.761719 48.234375 12.1875 48.234375 25 C 48.234375 37.8125 37.8125 48.238281 25 48.238281 Z M 25 48.238281 "/>
</g>
</svg>
