<?xml version="1.0" encoding="UTF-8" standalone="no"?>
<!-- Created with Inkscape (http://www.inkscape.org/) -->

<svg
   xmlns:dc="http://purl.org/dc/elements/1.1/"
   xmlns:cc="http://creativecommons.org/ns#"
   xmlns:rdf="http://www.w3.org/1999/02/22-rdf-syntax-ns#"
   xmlns:svg="http://www.w3.org/2000/svg"
   xmlns="http://www.w3.org/2000/svg"
   xmlns:sodipodi="http://sodipodi.sourceforge.net/DTD/sodipodi-0.dtd"
   xmlns:inkscape="http://www.inkscape.org/namespaces/inkscape"
   id="svg4136"
   version="1.1"
   inkscape:version="0.91 r13725"
   width="360"
   height="75"
   viewBox="0 0 360 75"
   sodipodi:docname="resonance.svg">
  <metadata
     id="metadata4142">
    <rdf:RDF>
      <cc:Work
         rdf:about="">
        <dc:format>image/svg+xml</dc:format>
        <dc:type
           rdf:resource="http://purl.org/dc/dcmitype/StillImage" />
        <dc:title></dc:title>
      </cc:Work>
    </rdf:RDF>
  </metadata>
  <defs
     id="defs4140" />
  <sodipodi:namedview
     pagecolor="#ffffff"
     bordercolor="#666666"
     borderopacity="1"
     objecttolerance="10"
     gridtolerance="10"
     guidetolerance="10"
     inkscape:pageopacity="0"
     inkscape:pageshadow="2"
     inkscape:window-width="1875"
     inkscape:window-height="1056"
     id="namedview4138"
     showgrid="false"
     inkscape:zoom="3.3944444"
     inkscape:cx="180"
     inkscape:cy="37.5"
     inkscape:window-x="45"
     inkscape:window-y="24"
     inkscape:window-maximized="1"
     inkscape:current-layer="svg4136" />
  <g
     id="g4480">
    <path
       style="fill:#39c3ce"
       d="m 321.69129,70.513188 c -1.80954,-1.103337 -1.55325,-3.910122 0.40182,-4.400817 0.45534,-0.114279 1.4709,0.0189 2.41596,0.316794 2.10999,0.665112 2.60922,0.360882 3.96855,-2.418396 1.7427,-3.563127 1.7436,-3.557784 -1.92453,-11.392911 -4.40091,-9.400293 -4.84314,-10.199526 -5.88183,-10.629765 C 320.19207,41.789607 319.8,41.508585 319.8,41.363604 319.8,41.218623 321.8925,41.1 324.45,41.1 c 4.41567,0 5.89548,0.299574 3.60366,0.729522 -1.08621,0.203772 -1.67655,0.893652 -1.42944,1.670478 0.5154,1.620387 5.31156,11.382384 5.4972,11.188893 0.12606,-0.131391 1.00032,-2.263893 1.94277,-4.738893 2.85084,-7.486611 2.89467,-7.757619 1.31076,-8.105505 C 333.58725,41.451852 334.59156,41.1 337.5,41.1 c 1.97121,0 3,0.112509 3,0.328086 0,0.180447 -0.2754,0.400107 -0.612,0.48813 -0.83694,0.218862 -0.90882,0.37989 -5.39706,12.090747 -5.11713,13.351704 -6.20988,15.515172 -8.41179,16.653813 -1.1976,0.619308 -3.24297,0.550512 -4.38786,-0.147588 z M 55.465521,61.086114 c -3.731814,-1.333605 -5.857161,-5.25789 -5.609028,-10.35663 0.156108,-3.207825 1.081164,-5.395713 3.160512,-7.475061 2.968488,-2.968488 7.690677,-3.336504 10.950417,-0.853404 1.586808,1.208745 2.600367,2.988312 2.836218,4.979721 l 0.179934,1.51926 -6.941787,0 c -7.895037,0 -7.247256,-0.270714 -6.604824,2.760234 0.460974,2.174844 1.200399,3.532671 2.62431,4.819089 1.403547,1.268022 3.254148,1.854945 5.065794,1.606629 2.091684,-0.286695 3.464943,-1.19979 5.237424,-3.482412 0.599433,-0.771957 0.900666,-0.958383 1.148355,-0.710694 0.247689,0.247689 0.161427,0.679584 -0.328854,1.64646 -1.90977,3.766236 -5.119041,5.971089 -8.656908,5.947527 -1.087398,-0.0072 -2.4651,-0.187566 -3.061563,-0.400719 z M 62.051325,46.125 C 61.530036,43.792065 60.550278,42.736824 58.627902,42.437823 56.313177,42.077796 54.159114,43.67523 53.453643,46.275 l -0.30528,1.125 4.59393,0 4.59393,0 -0.284898,-1.275 z M 70.8,57.878004 c 0,-3.142533 0.06277,-3.609159 0.474174,-3.525 0.267747,0.05477 0.723369,0.815304 1.046592,1.746996 0.363987,1.049193 0.992874,2.047044 1.727118,2.740401 C 76.692324,61.337589 81,60.360708 81,57.263823 c 0,-1.560342 -1.001274,-2.595978 -4.2,-4.34415 -4.29762,-2.348739 -5.398056,-3.455091 -5.853999,-5.885487 -0.403818,-2.152521 1.046154,-4.650327 3.291588,-5.670288 1.512894,-0.68721 3.811146,-0.715314 5.705724,-0.06976 1.346628,0.458841 1.476,0.458841 1.811514,0 C 82.560369,40.192488 82.8,40.767015 82.8,43.8 c 0,2.345454 -0.09,3 -0.4125,3 -0.226875,0 -0.491637,-0.37125 -0.588357,-0.825 -0.44352,-2.080692 -2.63514,-3.949536 -4.653804,-3.968412 -1.092876,-0.01023 -2.626182,0.843264 -3.003771,1.671984 -0.912432,2.002566 0.04165,3.377439 3.630834,5.232195 1.362678,0.704181 3.06468,1.697292 3.782223,2.206914 3.313947,2.353662 3.691182,6.417168 0.815766,8.787327 -1.956117,1.612398 -4.955874,2.030832 -8.258406,1.151961 -1.435932,-0.382128 -1.697922,-0.38169 -2.123622,0.0036 C 70.943706,62.005932 70.8,61.621074 70.8,57.878004 Z m 23.7,3.341457 C 91.884312,60.420921 89.28315,58.118082 88.09914,55.552701 87.566367,54.398346 87.451593,53.592294 87.450873,51 c -9e-4,-2.73948 0.0952,-3.345486 0.736296,-4.65 1.077477,-2.19246 3.155226,-4.134672 5.280564,-4.936101 1.459293,-0.550275 2.217183,-0.649203 4.182267,-0.545907 3.99844,0.210177 6.77896,1.908807 8.48253,5.182008 1.13008,2.171304 1.30721,6.447252 0.37016,8.935374 -0.92345,2.451987 -3.42072,5.091186 -5.58285,5.900145 -1.688546,0.631767 -4.897526,0.798687 -6.41984,0.333942 z m 5.95927,-1.727064 c 0.4349,-0.315471 1.12823,-1.241565 1.54073,-2.057988 1.09995,-2.17704 1.23612,-6.823062 0.28653,-9.776295 -0.85493,-2.658825 -2.07994,-4.34802 -3.68004,-5.074479 -1.643991,-0.746385 -2.495895,-0.727449 -4.109811,0.09136 -2.01768,1.02366 -2.816982,2.810256 -2.949894,6.593598 -0.228102,6.49284 2.793513,11.341185 6.812487,10.931004 0.720099,-0.07349 1.665098,-0.391737 2.099998,-0.707205 z m 34.66412,1.440318 c -2.7996,-1.707177 -3.2216,-4.928916 -0.99821,-7.62075 0.99059,-1.199292 3.79621,-2.750664 7.7381,-4.278786 l 2.21328,-0.858006 -0.17603,-2.099631 c -0.11372,-1.356483 -0.37414,-2.364984 -0.73577,-2.849343 -1.0335,-1.38426 -3.93598,-1.554981 -5.18593,-0.305031 -0.46508,0.465084 -0.57306,0.9375 -0.51755,2.264238 0.0567,1.355424 -0.0396,1.756791 -0.5029,2.095563 -1.38859,1.015365 -3.45838,0.05101 -3.45838,-1.61133 0,-1.206192 1.29521,-2.92395 2.92869,-3.884157 1.30075,-0.764613 1.67764,-0.835482 4.44322,-0.835482 2.76984,0 3.12252,0.06658 4.22811,0.798228 2.14279,1.418031 2.3293,2.159493 2.49998,9.938232 0.1235,5.628528 0.22951,6.888696 0.6,7.132101 0.45465,0.298695 1.21329,0.24216 2.175,-0.162078 0.39606,-0.166479 0.525,-0.07686 0.525,0.364923 0,1.115958 -2.27206,2.478594 -4.13281,2.478594 -1.31346,0 -2.28779,-0.806367 -2.62733,-2.174424 l -0.20462,-0.824424 -0.94262,0.795975 c -2.4489,2.067912 -5.96262,2.798226 -7.86923,1.635588 z m 7.39864,-2.643453 C 143.75581,57.560451 144,56.700762 144,53.085885 c 0,-3.649725 0.0134,-3.630825 -1.98836,-2.808927 -1.95702,0.803532 -3.96339,2.224152 -4.60312,3.25926 -0.67466,1.091628 -0.78875,2.739996 -0.26864,3.881511 0.74065,1.625553 3.38172,2.053221 5.38216,0.871533 z m 37.88958,2.847216 c -1.78049,-0.573531 -3.79784,-2.398815 -4.80807,-4.350321 -3.5481,-6.854004 0.85913,-15.452994 8.16025,-15.921549 2.40231,-0.154173 3.90212,0.206247 5.58913,1.343127 2.59524,1.74894 2.52042,4.892265 -0.11645,4.892265 -1.09856,0 -1.8954,-0.743583 -2.30874,-2.154435 -0.55967,-1.910328 -1.10326,-2.595027 -2.22769,-2.805972 -3.19984,-0.600294 -6.09294,2.17074 -6.64588,6.365466 -0.43715,3.31638 1.26922,7.41231 3.63047,8.714484 2.97519,1.640748 5.70738,1.117479 8.15638,-1.562112 1.95012,-2.133744 2.53829,-1.80432 1.08958,0.61026 -2.18092,3.634965 -4.59922,5.255061 -7.76449,5.201682 -0.99886,-0.01686 -2.23837,-0.166647 -2.75449,-0.332895 z m 19.35391,-0.05036 c -3.73181,-1.333605 -5.85716,-5.25789 -5.60903,-10.35663 0.15611,-3.207825 1.08117,-5.395713 3.16051,-7.475061 2.96849,-2.968488 7.69068,-3.336504 10.95042,-0.853404 1.58681,1.208745 2.60037,2.988312 2.83622,4.979721 l 0.17993,1.51926 -6.94178,0 c -7.89504,0 -7.24726,-0.270714 -6.60483,2.760234 0.46098,2.174844 1.2004,3.532671 2.62431,4.819089 1.40355,1.268022 3.25415,1.854945 5.0658,1.606629 2.09168,-0.286695 3.46494,-1.19979 5.23742,-3.482412 0.59943,-0.771957 0.90067,-0.958383 1.14836,-0.710694 0.24769,0.247689 0.16142,0.679584 -0.32886,1.64646 -1.90977,3.766236 -5.11904,5.971089 -8.65691,5.947527 -1.08739,-0.0072 -2.4651,-0.187566 -3.06156,-0.400719 z M 206.35132,46.125 c -0.52128,-2.332935 -1.50104,-3.388176 -3.42342,-3.687177 -2.31472,-0.360027 -4.46879,1.237407 -5.17426,3.837177 l -0.30528,1.125 4.59393,0 4.59393,0 -0.2849,-1.275 z m 54.6142,14.961114 c -2.46423,-0.88062 -4.38108,-3.121326 -5.26175,-6.150747 -0.65797,-2.263332 -0.44071,-6.277428 0.44715,-8.261469 2.03923,-4.556949 6.44637,-6.801684 10.9165,-5.560215 2.66895,0.741231 4.8977,3.408747 5.23622,6.267057 l 0.17993,1.51926 -6.94178,0 c -7.89504,0 -7.24726,-0.270714 -6.60483,2.760234 0.46098,2.174844 1.2004,3.532671 2.62431,4.819089 1.40355,1.268022 3.25415,1.854945 5.0658,1.606629 2.09168,-0.286695 3.46494,-1.19979 5.23742,-3.482412 0.59943,-0.771957 0.90067,-0.958383 1.14836,-0.710694 0.24769,0.247689 0.16142,0.679584 -0.32886,1.64646 -1.90977,3.766236 -5.11904,5.971089 -8.65691,5.947527 -1.08739,-0.0072 -2.4651,-0.187566 -3.06156,-0.400719 z M 267.55133,46.125 c -0.52129,-2.332935 -1.50105,-3.388176 -3.42343,-3.687177 -2.31472,-0.360027 -4.46879,1.237407 -5.17426,3.837177 l -0.30528,1.125 4.59393,0 4.59393,0 -0.2849,-1.275 z m 10.67206,14.807715 c -2.7996,-1.707177 -3.2216,-4.928916 -0.99821,-7.62075 0.99059,-1.199292 3.79621,-2.750664 7.7381,-4.278786 l 2.21328,-0.858006 -0.17603,-2.099631 c -0.11372,-1.356483 -0.37414,-2.364984 -0.73577,-2.849343 -1.0335,-1.38426 -3.93598,-1.554981 -5.18593,-0.305031 -0.46508,0.465084 -0.57306,0.9375 -0.51755,2.264238 0.0567,1.355424 -0.0396,1.756791 -0.5029,2.095563 -1.38859,1.015365 -3.45838,0.05101 -3.45838,-1.61133 0,-1.206192 1.29521,-2.92395 2.92869,-3.884157 C 280.82758,41.021958 281.20838,40.95 283.95,40.95 c 2.60894,0 3.14467,0.08996 4.10988,0.690123 0.61043,0.379566 1.42043,1.189566 1.8,1.8 0.65519,1.053699 0.69771,1.463499 0.84012,8.096322 0.12371,5.761977 0.22887,7.038261 0.6,7.282101 0.45464,0.29871 1.21328,0.242181 2.175,-0.162063 0.39606,-0.166479 0.525,-0.07686 0.525,0.364923 0,1.115958 -2.27206,2.478594 -4.13281,2.478594 -1.31346,0 -2.28779,-0.806367 -2.62733,-2.174424 l -0.20462,-0.824424 -0.94262,0.795975 c -2.4489,2.067912 -5.96262,2.798226 -7.86923,1.635588 z m 7.39864,-2.643453 c 1.23378,-0.728811 1.47797,-1.5885 1.47797,-5.203377 0,-3.649725 0.0134,-3.630825 -1.98836,-2.808927 -1.95702,0.803532 -3.96339,2.224152 -4.60312,3.25926 -0.67466,1.091628 -0.78875,2.739996 -0.26864,3.881511 0.74065,1.625553 3.38172,2.053221 5.38215,0.871533 z M 311.24409,60.525 C 309.80814,59.1879 309.6,57.786993 309.6,49.459053 l 0,-6.859053 -1.2,0 c -0.66,0 -1.2,-0.127356 -1.2,-0.283017 0,-0.155658 0.70875,-0.954477 1.575,-1.775151 0.86625,-0.820674 2.1825,-2.307888 2.925,-3.30492 0.7425,-0.997029 1.45125,-1.818213 1.575,-1.824849 0.12375,-0.0066 0.225,1.270437 0.225,2.837937 l 0,2.85 2.25,0 c 2.19999,0 2.25,0.01668 2.25,0.75 0,0.733332 -0.05,0.75 -2.25,0.75 l -2.25,0 0.003,6.825 c 0.003,7.184703 0.22326,8.853156 1.24809,9.40164 0.82596,0.442038 2.30445,0.120963 3.16479,-0.687282 0.49005,-0.460392 0.78699,-0.557811 1.01259,-0.332214 0.43452,0.434541 -1.26216,2.345466 -2.7618,3.110529 C 315.53136,61.24179 314.41938,61.5 313.65888,61.5 c -1.12677,0 -1.55001,-0.170982 -2.41347,-0.975 z M 19.2,60.903546 c 0,-0.16305 0.567843,-0.387258 1.261873,-0.498237 0.699984,-0.111933 1.568282,-0.508191 1.95,-0.889908 L 23.1,58.827273 23.1,46.35 l 0,-12.477273 -0.688127,-0.688128 c -0.381718,-0.381717 -1.250016,-0.777975 -1.95,-0.889908 C 19.767843,32.183712 19.2,31.959504 19.2,31.796454 19.2,31.608915 22.016376,31.5 26.865778,31.5 c 8.574053,0 10.772825,0.301377 13.136894,1.800627 2.152908,1.365333 3.02757,2.944449 3.144693,5.677437 0.08307,1.938348 -0.0084,2.470155 -0.623031,3.621936 -0.892089,1.671747 -2.604516,2.906883 -5.192982,3.74559 l -1.98438,0.642972 5.077056,6.280719 c 4.81122,5.951856 5.593128,6.731712 7.200972,7.182081 C 49.246872,60.905658 48.054174,61.2 44.59146,61.2 l -3.708543,0 -5.517699,-6.825 c -4.941639,-6.112452 -5.619365,-6.834816 -6.49146,-6.919008 L 27.9,47.361984 l 0,5.224242 c 0,2.921379 0.140824,5.628207 0.319471,6.140676 0.324898,0.932004 1.045883,1.360836 2.905529,1.728177 0.53625,0.105927 0.975,0.316869 0.975,0.468759 C 32.1,61.083492 29.378853,61.2 25.65,61.2 21.601423,61.2 19.2,61.089627 19.2,60.903546 Z M 33.543054,45.264381 c 1.82535,-0.360264 3.515664,-1.65297 4.151634,-3.175059 0.524046,-1.254219 0.520713,-4.33776 -0.006,-5.573958 -0.515844,-1.210632 -1.527903,-2.153463 -2.948919,-2.747199 -1.478718,-0.61785 -4.972539,-0.910995 -6.014745,-0.504663 l -0.825,0.321648 0,6.187686 0,6.187689 2.025,-0.190863 c 1.11375,-0.104976 2.741874,-0.332352 3.618054,-0.505281 z M 109.2,60.947487 c 0,-0.138882 0.52736,-0.410517 1.17192,-0.60363 1.69985,-0.509289 1.82881,-1.136088 1.82366,-8.863623 -0.005,-7.606767 -0.11229,-8.076348 -1.87748,-8.223345 -0.61496,-0.05121 -1.1181,-0.214242 -1.1181,-0.362295 0,-0.148053 0.97875,-0.552195 2.175,-0.898092 1.19625,-0.3459 2.56639,-0.756615 3.04477,-0.912705 1.33966,-0.437118 1.38023,-0.395829 1.38023,1.404651 l 0,1.688448 0.975,-0.788727 c 2.38132,-1.926366 3.5732,-2.438169 5.678,-2.438169 2.44101,0 3.3578,0.559845 4.447,2.715591 0.72094,1.426899 0.75581,1.758711 0.9,8.564445 0.1621,7.651458 0.21068,7.870893 1.82073,8.224518 2.0894,0.45891 0.58234,0.745446 -3.92073,0.745446 -2.64,0 -4.8,-0.104745 -4.8,-0.232764 0,-0.128019 0.57017,-0.499269 1.26704,-0.825 1.69589,-0.792681 1.79723,-1.316514 1.6795,-8.681481 -0.0833,-5.20854 -0.17091,-6.152577 -0.63723,-6.863376 -1.13865,-1.735614 -3.48228,-1.739337 -5.74826,-0.0091 l -1.36105,1.039254 0,6.41673 c 0,3.5292 0.1289,6.755769 0.28645,7.170156 0.19688,0.517827 0.66594,0.867126 1.5,1.117017 0.66745,0.199971 1.21355,0.477219 1.21355,0.616101 0,0.138882 -2.2275,0.252513 -4.95,0.252513 -2.7225,0 -4.95,-0.113631 -4.95,-0.252513 z m 42.3,0 c 0,-0.138882 0.5461,-0.41613 1.21355,-0.616101 0.83406,-0.249891 1.30312,-0.59919 1.5,-1.117017 0.15755,-0.414387 0.28446,-3.815889 0.28203,-7.558899 -0.005,-7.796742 -0.10664,-8.251113 -1.87748,-8.398581 -0.61496,-0.05121 -1.1181,-0.214242 -1.1181,-0.362295 0,-0.148053 0.97875,-0.552195 2.175,-0.898092 1.19625,-0.3459 2.56639,-0.756615 3.04477,-0.912705 1.33966,-0.437118 1.38023,-0.395829 1.38023,1.404651 l 0,1.688448 0.975,-0.788727 c 2.38132,-1.926366 3.5732,-2.438169 5.678,-2.438169 2.44101,0 3.3578,0.559845 4.447,2.715591 0.72094,1.426899 0.75581,1.758711 0.9,8.564445 0.16211,7.651458 0.21068,7.870893 1.82073,8.224518 C 174.01013,60.913464 172.50307,61.2 168,61.2 c -2.64,0 -4.8,-0.104745 -4.8,-0.232764 0,-0.128019 0.57017,-0.499269 1.26704,-0.825 1.69589,-0.792681 1.79723,-1.316514 1.6795,-8.681481 -0.0833,-5.20854 -0.17091,-6.152577 -0.63723,-6.863376 -1.13865,-1.735614 -3.48228,-1.739337 -5.74826,-0.0091 l -1.36105,1.039254 0,6.41673 c 0,3.5292 0.1289,6.755769 0.28645,7.170156 0.19688,0.517827 0.66594,0.867126 1.5,1.117017 0.66745,0.199971 1.21355,0.477219 1.21355,0.616101 0,0.138882 -2.2275,0.252513 -4.95,0.252513 -2.7225,0 -4.95,-0.113631 -4.95,-0.252513 z m 73.2,-0.04394 c 0,-0.16305 0.56784,-0.387258 1.26187,-0.498237 0.69999,-0.111933 1.56828,-0.508191 1.95,-0.889908 L 228.6,58.827273 228.6,46.35 l 0,-12.477273 -0.68813,-0.688128 c -0.38172,-0.381717 -1.25001,-0.777975 -1.95,-0.889908 C 225.26784,32.183712 224.7,31.959504 224.7,31.796454 224.7,31.608915 227.51638,31.5 232.36578,31.5 c 8.57405,0 10.77282,0.301377 13.13689,1.800627 2.15291,1.365333 3.02757,2.944449 3.14469,5.677437 0.0831,1.938348 -0.008,2.470155 -0.62303,3.621936 -0.89209,1.671747 -2.60451,2.906883 -5.19298,3.74559 l -1.98438,0.642972 5.07706,6.280719 c 4.81122,5.951856 5.59313,6.731712 7.20097,7.182081 1.62152,0.454197 0.42944,0.748638 -3.03098,0.748638 l -3.70598,0 -5.51902,-6.825 c -4.94565,-6.11595 -5.62031,-6.834765 -6.49402,-6.919008 l -0.975,-0.09401 0,5.224242 c 0,2.921379 0.14082,5.628207 0.31947,6.140676 0.3249,0.932004 1.04588,1.360836 2.90553,1.728177 0.53625,0.105927 0.975,0.316869 0.975,0.468759 0,0.159654 -2.72115,0.276162 -6.45,0.276162 -4.04858,0 -6.45,-0.110373 -6.45,-0.296454 z m 14.49865,-15.655938 c 1.67506,-0.355524 3.39194,-1.712469 3.99604,-3.158286 0.52404,-1.254219 0.52071,-4.33776 -0.006,-5.573958 -0.51585,-1.210632 -1.52791,-2.153463 -2.94892,-2.747199 -1.47872,-0.61785 -4.97254,-0.910995 -6.01475,-0.504663 l -0.825,0.321648 0,6.196188 0,6.196188 2.175,-0.211221 c 1.19625,-0.116172 2.8269,-0.349587 3.62366,-0.518697 z M 295.2,60.932097 c 0,-0.324975 0.74074,-0.632097 1.52454,-0.632097 0.3165,0 0.84546,-0.27 1.17546,-0.6 0.58115,-0.581151 0.6,-0.999999 0.6,-13.33299 l 0,-12.732987 -0.65847,-0.461208 c -0.45464,-0.318444 -1.01181,-0.404703 -1.8,-0.27867 -1.51027,0.241503 -1.5235,-0.371043 -0.0165,-0.765468 2.6319,-0.688854 6.03804,-1.528677 6.19998,-1.528677 0.0963,0 0.17577,6.10875 0.1767,13.575 0,8.349936 0.12009,14.001375 0.30933,14.682747 0.3072,1.106082 0.47895,1.22436 2.31399,1.593693 2.3193,0.466794 0.65367,0.74856 -4.425,0.74856 -2.97,0 -5.4,-0.120558 -5.4,-0.267903 z M 48.995271,35.329797 c 0.629901,-0.37389 2.519901,-1.514376 4.2,-2.534421 C 54.875373,31.775334 56.8575,30.584913 57.6,30.15 c 0.7425,-0.434915 2.7675,-1.649915 4.5,-2.7 1.7325,-1.050086 3.7575,-2.265086 4.5,-2.7 0.7425,-0.434915 2.7675,-1.662018 4.5,-2.726896 1.7325,-1.064879 3.69,-2.073843 4.35,-2.242144 0.66,-0.1683 1.47,-0.431678 1.8,-0.585283 0.33,-0.153606 1.68,-0.554932 3,-0.891835 1.32,-0.336904 2.94,-0.808347 3.6,-1.04765 0.66,-0.239304 1.77375,-0.580047 2.475,-0.757208 l 1.275,-0.32211 0,-2.396903 0,-2.396903 4.125,0.08347 4.125,0.08347 -0.04424,0.975 c -0.03213,0.70818 0.08578,0.975 0.430866,0.975 0.603228,0 4.865159,-1.139624 5.463369,-1.460884 0.2475,-0.132917 1.7325,-0.552423 3.3,-0.932235 1.5675,-0.379812 2.985,-0.794658 3.15,-0.921879 0.57753,-0.4452926 2.48558,-0.6405911 3.09131,-0.3164105 0.33247,0.1779325 4.17872,4.6790405 8.54722,10.0024615 4.36851,5.323421 8.47746,10.252697 9.13102,10.953947 l 1.18828,1.275 41.14609,0 41.14608,0 0,0.867903 c 0,0.514668 -0.19314,0.942018 -0.47454,1.05 C 211.66447,34.118058 192.90968,34.2 170.24815,34.2 l -41.20277,0 -1.78516,-2.025 c -0.98184,-1.11375 -4.98324,-5.94 -8.89199,-10.725 -3.90876,-4.785 -7.2023,-8.734718 -7.31898,-8.777152 -0.11669,-0.04243 -5.00176,3.436413 -10.85571,7.730769 -5.853944,4.294356 -11.927354,8.739776 -13.496462,9.878713 l -2.852919,2.070792 -3.147081,0.178371 C 78.966186,32.629596 73.9725,33.105237 69.6,33.588468 c -4.3725,0.483234 -9.435,1.028316 -11.25,1.211292 -1.815,0.182979 -3.975,0.45183 -4.8,0.59745 -0.825,0.145617 -2.445,0.342975 -3.6,0.43857 l -2.1,0.173811 1.145271,-0.679794 z M 102,26.7 l 0,-5.7 7.35,0 7.35,0 0,5.7 0,5.7 -7.35,0 -7.35,0 0,-5.7 z m 8.33762,2.775 -0.0876,-2.325 -3,-0.06807 c -4.46959,-0.101418 -4.35,-0.163932 -4.35,2.273787 0,1.124357 0.09,2.134286 0.2,2.244284 C 103.21,31.71 104.90318,31.8 106.86262,31.8 l 3.56262,0 -0.0876,-2.325 z M 115.8,29.582097 C 115.8,27.087929 115.72338,27 113.55,27 c -2.1464,0 -2.25,0.109684 -2.25,2.382097 0,1.109846 0.09,2.107904 0.2,2.217902 C 111.61,31.71 112.6225,31.8 113.75,31.8 l 2.05,0 0,-2.217903 z M 110.4,24.15 l 0,-2.25 -3.75,0 -3.75,0 0,2.05 c 0,1.1275 0.09,2.14 0.2,2.25 0.11,0.11 1.7975,0.2 3.75,0.2 l 3.55,0 0,-2.25 z m 5.33814,-0.075 0.0881,-2.175 -2.26315,0 -2.26314,0 0,2.05 c 0,1.1275 0.0955,2.145529 0.21229,2.262287 0.11676,0.116758 1.09551,0.173008 2.175,0.125 L 115.65,26.25 l 0.0881,-2.175 z"
       id="path4486"
       inkscape:connector-curvature="0" />
    <path
       style="fill:#31b4c6"
       d="m 321.69129,70.513188 c -1.80954,-1.103337 -1.55325,-3.910122 0.40182,-4.400817 0.45534,-0.114279 1.4709,0.0189 2.41596,0.316794 2.10999,0.665112 2.60922,0.360882 3.96855,-2.418396 1.7427,-3.563127 1.7436,-3.557784 -1.92453,-11.392911 -4.40091,-9.400293 -4.84314,-10.199526 -5.88183,-10.629765 C 320.19207,41.789607 319.8,41.508585 319.8,41.363604 319.8,41.218623 321.8925,41.1 324.45,41.1 c 4.41567,0 5.89548,0.299574 3.60366,0.729522 -1.08621,0.203772 -1.67655,0.893652 -1.42944,1.670478 0.5154,1.620387 5.31156,11.382384 5.4972,11.188893 0.12606,-0.131391 1.00032,-2.263893 1.94277,-4.738893 2.85084,-7.486611 2.89467,-7.757619 1.31076,-8.105505 C 333.58725,41.451852 334.59156,41.1 337.5,41.1 c 1.97121,0 3,0.112509 3,0.328086 0,0.180447 -0.2754,0.400107 -0.612,0.48813 -0.83694,0.218862 -0.90882,0.37989 -5.39706,12.090747 -5.11713,13.351704 -6.20988,15.515172 -8.41179,16.653813 -1.1976,0.619308 -3.24297,0.550512 -4.38786,-0.147588 z M 55.465521,61.086114 c -3.731814,-1.333605 -5.857161,-5.25789 -5.609028,-10.35663 0.156108,-3.207825 1.081164,-5.395713 3.160512,-7.475061 2.968488,-2.968488 7.690677,-3.336504 10.950417,-0.853404 1.586808,1.208745 2.600367,2.988312 2.836218,4.979721 l 0.179934,1.51926 -6.941787,0 c -7.895037,0 -7.247256,-0.270714 -6.604824,2.760234 0.460974,2.174844 1.200399,3.532671 2.62431,4.819089 1.403547,1.268022 3.254148,1.854945 5.065794,1.606629 2.091684,-0.286695 3.464943,-1.19979 5.237424,-3.482412 0.599433,-0.771957 0.900666,-0.958383 1.148355,-0.710694 0.247689,0.247689 0.161427,0.679584 -0.328854,1.64646 -1.90977,3.766236 -5.119041,5.971089 -8.656908,5.947527 -1.087398,-0.0072 -2.4651,-0.187566 -3.061563,-0.400719 z M 62.051325,46.125 C 61.530036,43.792065 60.550278,42.736824 58.627902,42.437823 56.313177,42.077796 54.159114,43.67523 53.453643,46.275 l -0.30528,1.125 4.59393,0 4.59393,0 -0.284898,-1.275 z M 70.8,57.878004 c 0,-3.142533 0.06277,-3.609159 0.474174,-3.525 0.267747,0.05477 0.723369,0.815304 1.046592,1.746996 0.363987,1.049193 0.992874,2.047044 1.727118,2.740401 C 76.692324,61.337589 81,60.360708 81,57.263823 c 0,-1.560342 -1.001274,-2.595978 -4.2,-4.34415 -4.29762,-2.348739 -5.398056,-3.455091 -5.853999,-5.885487 -0.403818,-2.152521 1.046154,-4.650327 3.291588,-5.670288 1.512894,-0.68721 3.811146,-0.715314 5.705724,-0.06976 1.346628,0.458841 1.476,0.458841 1.811514,0 C 82.560369,40.192488 82.8,40.767015 82.8,43.8 c 0,2.345454 -0.09,3 -0.4125,3 -0.226875,0 -0.491637,-0.37125 -0.588357,-0.825 -0.44352,-2.080692 -2.63514,-3.949536 -4.653804,-3.968412 -1.092876,-0.01023 -2.626182,0.843264 -3.003771,1.671984 -0.912432,2.002566 0.04165,3.377439 3.630834,5.232195 1.362678,0.704181 3.06468,1.697292 3.782223,2.206914 3.313947,2.353662 3.691182,6.417168 0.815766,8.787327 -1.956117,1.612398 -4.955874,2.030832 -8.258406,1.151961 -1.435932,-0.382128 -1.697922,-0.38169 -2.123622,0.0036 C 70.943706,62.005932 70.8,61.621074 70.8,57.878004 Z m 23.7,3.341457 C 91.884312,60.420921 89.28315,58.118082 88.09914,55.552701 87.566367,54.398346 87.451593,53.592294 87.450873,51 c -9e-4,-2.73948 0.0952,-3.345486 0.736296,-4.65 1.077477,-2.19246 3.155226,-4.134672 5.280564,-4.936101 1.459293,-0.550275 2.217183,-0.649203 4.182267,-0.545907 3.99844,0.210177 6.77896,1.908807 8.48253,5.182008 1.13008,2.171304 1.30721,6.447252 0.37016,8.935374 -0.92345,2.451987 -3.42072,5.091186 -5.58285,5.900145 -1.688546,0.631767 -4.897526,0.798687 -6.41984,0.333942 z m 5.95927,-1.727064 c 0.4349,-0.315471 1.12823,-1.241565 1.54073,-2.057988 1.09995,-2.17704 1.23612,-6.823062 0.28653,-9.776295 -0.85493,-2.658825 -2.07994,-4.34802 -3.68004,-5.074479 -1.643991,-0.746385 -2.495895,-0.727449 -4.109811,0.09136 -2.01768,1.02366 -2.816982,2.810256 -2.949894,6.593598 -0.228102,6.49284 2.793513,11.341185 6.812487,10.931004 0.720099,-0.07349 1.665098,-0.391737 2.099998,-0.707205 z m 34.66412,1.440318 c -2.7996,-1.707177 -3.2216,-4.928916 -0.99821,-7.62075 0.99059,-1.199292 3.79621,-2.750664 7.7381,-4.278786 l 2.21328,-0.858006 -0.17603,-2.099631 c -0.11372,-1.356483 -0.37414,-2.364984 -0.73577,-2.849343 -1.0335,-1.38426 -3.93598,-1.554981 -5.18593,-0.305031 -0.46508,0.465084 -0.57306,0.9375 -0.51755,2.264238 0.0567,1.355424 -0.0396,1.756791 -0.5029,2.095563 -1.38859,1.015365 -3.45838,0.05101 -3.45838,-1.61133 0,-1.206192 1.29521,-2.92395 2.92869,-3.884157 1.30075,-0.764613 1.67764,-0.835482 4.44322,-0.835482 2.76984,0 3.12252,0.06658 4.22811,0.798228 2.14279,1.418031 2.3293,2.159493 2.49998,9.938232 0.1235,5.628528 0.22951,6.888696 0.6,7.132101 0.45465,0.298695 1.21329,0.24216 2.175,-0.162078 0.39606,-0.166479 0.525,-0.07686 0.525,0.364923 0,1.115958 -2.27206,2.478594 -4.13281,2.478594 -1.31346,0 -2.28779,-0.806367 -2.62733,-2.174424 l -0.20462,-0.824424 -0.94262,0.795975 c -2.4489,2.067912 -5.96262,2.798226 -7.86923,1.635588 z m 7.39864,-2.643453 C 143.75581,57.560451 144,56.700762 144,53.085885 c 0,-3.649725 0.0134,-3.630825 -1.98836,-2.808927 -1.95702,0.803532 -3.96339,2.224152 -4.60312,3.25926 -0.67466,1.091628 -0.78875,2.739996 -0.26864,3.881511 0.74065,1.625553 3.38172,2.053221 5.38216,0.871533 z m 37.88958,2.847216 c -1.78049,-0.573531 -3.79784,-2.398815 -4.80807,-4.350321 -3.5481,-6.854004 0.85913,-15.452994 8.16025,-15.921549 2.40231,-0.154173 3.90212,0.206247 5.58913,1.343127 2.59524,1.74894 2.52042,4.892265 -0.11645,4.892265 -1.09856,0 -1.8954,-0.743583 -2.30874,-2.154435 -0.55967,-1.910328 -1.10326,-2.595027 -2.22769,-2.805972 -3.19984,-0.600294 -6.09294,2.17074 -6.64588,6.365466 -0.43715,3.31638 1.26922,7.41231 3.63047,8.714484 2.97519,1.640748 5.70738,1.117479 8.15638,-1.562112 1.95012,-2.133744 2.53829,-1.80432 1.08958,0.61026 -2.18092,3.634965 -4.59922,5.255061 -7.76449,5.201682 -0.99886,-0.01686 -2.23837,-0.166647 -2.75449,-0.332895 z m 19.35391,-0.05036 c -3.73181,-1.333605 -5.85716,-5.25789 -5.60903,-10.35663 0.15611,-3.207825 1.08117,-5.395713 3.16051,-7.475061 2.96849,-2.968488 7.69068,-3.336504 10.95042,-0.853404 1.58681,1.208745 2.60037,2.988312 2.83622,4.979721 l 0.17993,1.51926 -6.94178,0 c -7.89504,0 -7.24726,-0.270714 -6.60483,2.760234 0.46098,2.174844 1.2004,3.532671 2.62431,4.819089 1.40355,1.268022 3.25415,1.854945 5.0658,1.606629 2.09168,-0.286695 3.46494,-1.19979 5.23742,-3.482412 0.59943,-0.771957 0.90067,-0.958383 1.14836,-0.710694 0.24769,0.247689 0.16142,0.679584 -0.32886,1.64646 -1.90977,3.766236 -5.11904,5.971089 -8.65691,5.947527 -1.08739,-0.0072 -2.4651,-0.187566 -3.06156,-0.400719 z M 206.35132,46.125 c -0.52128,-2.332935 -1.50104,-3.388176 -3.42342,-3.687177 -2.31472,-0.360027 -4.46879,1.237407 -5.17426,3.837177 l -0.30528,1.125 4.59393,0 4.59393,0 -0.2849,-1.275 z m 54.6142,14.961114 c -2.46423,-0.88062 -4.38108,-3.121326 -5.26175,-6.150747 -0.65797,-2.263332 -0.44071,-6.277428 0.44715,-8.261469 2.03923,-4.556949 6.44637,-6.801684 10.9165,-5.560215 2.66895,0.741231 4.8977,3.408747 5.23622,6.267057 l 0.17993,1.51926 -6.94178,0 c -7.89504,0 -7.24726,-0.270714 -6.60483,2.760234 0.46098,2.174844 1.2004,3.532671 2.62431,4.819089 1.40355,1.268022 3.25415,1.854945 5.0658,1.606629 2.09168,-0.286695 3.46494,-1.19979 5.23742,-3.482412 0.59943,-0.771957 0.90067,-0.958383 1.14836,-0.710694 0.24769,0.247689 0.16142,0.679584 -0.32886,1.64646 -1.90977,3.766236 -5.11904,5.971089 -8.65691,5.947527 -1.08739,-0.0072 -2.4651,-0.187566 -3.06156,-0.400719 z M 267.55133,46.125 c -0.52129,-2.332935 -1.50105,-3.388176 -3.42343,-3.687177 -2.31472,-0.360027 -4.46879,1.237407 -5.17426,3.837177 l -0.30528,1.125 4.59393,0 4.59393,0 -0.2849,-1.275 z m 10.67206,14.807715 c -2.7996,-1.707177 -3.2216,-4.928916 -0.99821,-7.62075 0.99059,-1.199292 3.79621,-2.750664 7.7381,-4.278786 l 2.21328,-0.858006 -0.17603,-2.099631 c -0.11372,-1.356483 -0.37414,-2.364984 -0.73577,-2.849343 -1.0335,-1.38426 -3.93598,-1.554981 -5.18593,-0.305031 -0.46508,0.465084 -0.57306,0.9375 -0.51755,2.264238 0.0567,1.355424 -0.0396,1.756791 -0.5029,2.095563 -1.38859,1.015365 -3.45838,0.05101 -3.45838,-1.61133 0,-1.206192 1.29521,-2.92395 2.92869,-3.884157 C 280.82758,41.021958 281.20838,40.95 283.95,40.95 c 2.60894,0 3.14467,0.08996 4.10988,0.690123 0.61043,0.379566 1.42043,1.189566 1.8,1.8 0.65519,1.053699 0.69771,1.463499 0.84012,8.096322 0.12371,5.761977 0.22887,7.038261 0.6,7.282101 0.45464,0.29871 1.21328,0.242181 2.175,-0.162063 0.39606,-0.166479 0.525,-0.07686 0.525,0.364923 0,1.115958 -2.27206,2.478594 -4.13281,2.478594 -1.31346,0 -2.28779,-0.806367 -2.62733,-2.174424 l -0.20462,-0.824424 -0.94262,0.795975 c -2.4489,2.067912 -5.96262,2.798226 -7.86923,1.635588 z m 7.39864,-2.643453 c 1.23378,-0.728811 1.47797,-1.5885 1.47797,-5.203377 0,-3.649725 0.0134,-3.630825 -1.98836,-2.808927 -1.95702,0.803532 -3.96339,2.224152 -4.60312,3.25926 -0.67466,1.091628 -0.78875,2.739996 -0.26864,3.881511 0.74065,1.625553 3.38172,2.053221 5.38215,0.871533 z M 311.24409,60.525 C 309.80814,59.1879 309.6,57.786993 309.6,49.459053 l 0,-6.859053 -1.2,0 c -0.66,0 -1.2,-0.127356 -1.2,-0.283017 0,-0.155658 0.70875,-0.954477 1.575,-1.775151 0.86625,-0.820674 2.1825,-2.307888 2.925,-3.30492 0.7425,-0.997029 1.45125,-1.818213 1.575,-1.824849 0.12375,-0.0066 0.225,1.270437 0.225,2.837937 l 0,2.85 2.25,0 c 2.19999,0 2.25,0.01668 2.25,0.75 0,0.733332 -0.05,0.75 -2.25,0.75 l -2.25,0 0.003,6.825 c 0.003,7.184703 0.22326,8.853156 1.24809,9.40164 0.82596,0.442038 2.30445,0.120963 3.16479,-0.687282 0.49005,-0.460392 0.78699,-0.557811 1.01259,-0.332214 0.43452,0.434541 -1.26216,2.345466 -2.7618,3.110529 C 315.53136,61.24179 314.41938,61.5 313.65888,61.5 c -1.12677,0 -1.55001,-0.170982 -2.41347,-0.975 z M 19.2,60.903546 c 0,-0.16305 0.567843,-0.387258 1.261873,-0.498237 0.699984,-0.111933 1.568282,-0.508191 1.95,-0.889908 L 23.1,58.827273 23.1,46.35 l 0,-12.477273 -0.688127,-0.688128 c -0.381718,-0.381717 -1.250016,-0.777975 -1.95,-0.889908 C 19.767843,32.183712 19.2,31.959504 19.2,31.796454 19.2,31.608915 22.016376,31.5 26.865778,31.5 c 8.574053,0 10.772825,0.301377 13.136894,1.800627 2.152908,1.365333 3.02757,2.944449 3.144693,5.677437 0.08307,1.938348 -0.0084,2.470155 -0.623031,3.621936 -0.892089,1.671747 -2.604516,2.906883 -5.192982,3.74559 l -1.98438,0.642972 5.077056,6.280719 c 4.81122,5.951856 5.593128,6.731712 7.200972,7.182081 C 49.246872,60.905658 48.054174,61.2 44.59146,61.2 l -3.708543,0 -5.517699,-6.825 c -4.941639,-6.112452 -5.619365,-6.834816 -6.49146,-6.919008 L 27.9,47.361984 l 0,5.224242 c 0,2.921379 0.140824,5.628207 0.319471,6.140676 0.324898,0.932004 1.045883,1.360836 2.905529,1.728177 0.53625,0.105927 0.975,0.316869 0.975,0.468759 C 32.1,61.083492 29.378853,61.2 25.65,61.2 21.601423,61.2 19.2,61.089627 19.2,60.903546 Z M 33.543054,45.264381 c 1.82535,-0.360264 3.515664,-1.65297 4.151634,-3.175059 0.524046,-1.254219 0.520713,-4.33776 -0.006,-5.573958 -0.515844,-1.210632 -1.527903,-2.153463 -2.948919,-2.747199 -1.478718,-0.61785 -4.972539,-0.910995 -6.014745,-0.504663 l -0.825,0.321648 0,6.187686 0,6.187689 2.025,-0.190863 c 1.11375,-0.104976 2.741874,-0.332352 3.618054,-0.505281 z M 109.2,60.947487 c 0,-0.138882 0.52736,-0.410517 1.17192,-0.60363 1.69985,-0.509289 1.82881,-1.136088 1.82366,-8.863623 -0.005,-7.606767 -0.11229,-8.076348 -1.87748,-8.223345 -0.61496,-0.05121 -1.1181,-0.214242 -1.1181,-0.362295 0,-0.148053 0.97875,-0.552195 2.175,-0.898092 1.19625,-0.3459 2.56639,-0.756615 3.04477,-0.912705 1.33966,-0.437118 1.38023,-0.395829 1.38023,1.404651 l 0,1.688448 0.975,-0.788727 c 2.38132,-1.926366 3.5732,-2.438169 5.678,-2.438169 2.44101,0 3.3578,0.559845 4.447,2.715591 0.72094,1.426899 0.75581,1.758711 0.9,8.564445 0.1621,7.651458 0.21068,7.870893 1.82073,8.224518 2.0894,0.45891 0.58234,0.745446 -3.92073,0.745446 -2.64,0 -4.8,-0.104745 -4.8,-0.232764 0,-0.128019 0.57017,-0.499269 1.26704,-0.825 1.69589,-0.792681 1.79723,-1.316514 1.6795,-8.681481 -0.0833,-5.20854 -0.17091,-6.152577 -0.63723,-6.863376 -1.13865,-1.735614 -3.48228,-1.739337 -5.74826,-0.0091 l -1.36105,1.039254 0,6.41673 c 0,3.5292 0.1289,6.755769 0.28645,7.170156 0.19688,0.517827 0.66594,0.867126 1.5,1.117017 0.66745,0.199971 1.21355,0.477219 1.21355,0.616101 0,0.138882 -2.2275,0.252513 -4.95,0.252513 -2.7225,0 -4.95,-0.113631 -4.95,-0.252513 z m 42.3,0 c 0,-0.138882 0.5461,-0.41613 1.21355,-0.616101 0.83406,-0.249891 1.30312,-0.59919 1.5,-1.117017 0.15755,-0.414387 0.28446,-3.815889 0.28203,-7.558899 -0.005,-7.796742 -0.10664,-8.251113 -1.87748,-8.398581 -0.61496,-0.05121 -1.1181,-0.214242 -1.1181,-0.362295 0,-0.148053 0.97875,-0.552195 2.175,-0.898092 1.19625,-0.3459 2.56639,-0.756615 3.04477,-0.912705 1.33966,-0.437118 1.38023,-0.395829 1.38023,1.404651 l 0,1.688448 0.975,-0.788727 c 2.38132,-1.926366 3.5732,-2.438169 5.678,-2.438169 2.44101,0 3.3578,0.559845 4.447,2.715591 0.72094,1.426899 0.75581,1.758711 0.9,8.564445 0.16211,7.651458 0.21068,7.870893 1.82073,8.224518 C 174.01013,60.913464 172.50307,61.2 168,61.2 c -2.64,0 -4.8,-0.104745 -4.8,-0.232764 0,-0.128019 0.57017,-0.499269 1.26704,-0.825 1.69589,-0.792681 1.79723,-1.316514 1.6795,-8.681481 -0.0833,-5.20854 -0.17091,-6.152577 -0.63723,-6.863376 -1.13865,-1.735614 -3.48228,-1.739337 -5.74826,-0.0091 l -1.36105,1.039254 0,6.41673 c 0,3.5292 0.1289,6.755769 0.28645,7.170156 0.19688,0.517827 0.66594,0.867126 1.5,1.117017 0.66745,0.199971 1.21355,0.477219 1.21355,0.616101 0,0.138882 -2.2275,0.252513 -4.95,0.252513 -2.7225,0 -4.95,-0.113631 -4.95,-0.252513 z m 73.2,-0.04394 c 0,-0.16305 0.56784,-0.387258 1.26187,-0.498237 0.69999,-0.111933 1.56828,-0.508191 1.95,-0.889908 L 228.6,58.827273 228.6,46.35 l 0,-12.477273 -0.68813,-0.688128 c -0.38172,-0.381717 -1.25001,-0.777975 -1.95,-0.889908 C 225.26784,32.183712 224.7,31.959504 224.7,31.796454 224.7,31.608915 227.51638,31.5 232.36578,31.5 c 8.57405,0 10.77282,0.301377 13.13689,1.800627 2.15291,1.365333 3.02757,2.944449 3.14469,5.677437 0.0831,1.938348 -0.008,2.470155 -0.62303,3.621936 -0.89209,1.671747 -2.60451,2.906883 -5.19298,3.74559 l -1.98438,0.642972 5.07706,6.280719 c 4.81122,5.951856 5.59313,6.731712 7.20097,7.182081 1.62152,0.454197 0.42944,0.748638 -3.03098,0.748638 l -3.70598,0 -5.51902,-6.825 c -4.94565,-6.11595 -5.62031,-6.834765 -6.49402,-6.919008 l -0.975,-0.09401 0,5.224242 c 0,2.921379 0.14082,5.628207 0.31947,6.140676 0.3249,0.932004 1.04588,1.360836 2.90553,1.728177 0.53625,0.105927 0.975,0.316869 0.975,0.468759 0,0.159654 -2.72115,0.276162 -6.45,0.276162 -4.04858,0 -6.45,-0.110373 -6.45,-0.296454 z m 14.49865,-15.655938 c 1.67506,-0.355524 3.39194,-1.712469 3.99604,-3.158286 0.52404,-1.254219 0.52071,-4.33776 -0.006,-5.573958 -0.51585,-1.210632 -1.52791,-2.153463 -2.94892,-2.747199 -1.47872,-0.61785 -4.97254,-0.910995 -6.01475,-0.504663 l -0.825,0.321648 0,6.196188 0,6.196188 2.175,-0.211221 c 1.19625,-0.116172 2.8269,-0.349587 3.62366,-0.518697 z M 295.2,60.932097 c 0,-0.324975 0.74074,-0.632097 1.52454,-0.632097 0.3165,0 0.84546,-0.27 1.17546,-0.6 0.58115,-0.581151 0.6,-0.999999 0.6,-13.33299 l 0,-12.732987 -0.65847,-0.461208 c -0.45464,-0.318444 -1.01181,-0.404703 -1.8,-0.27867 -1.51027,0.241503 -1.5235,-0.371043 -0.0165,-0.765468 2.6319,-0.688854 6.03804,-1.528677 6.19998,-1.528677 0.0963,0 0.17577,6.10875 0.1767,13.575 0,8.349936 0.12009,14.001375 0.30933,14.682747 0.3072,1.106082 0.47895,1.22436 2.31399,1.593693 2.3193,0.466794 0.65367,0.74856 -4.425,0.74856 -2.97,0 -5.4,-0.120558 -5.4,-0.267903 z m -246.9,-25.05 c 0,-0.284589 0.898014,-0.428016 1.058097,-0.168996 C 49.455621,35.870895 49.257444,36 48.917706,36 48.577968,36 48.3,35.946942 48.3,35.882097 Z m 1.599825,-0.400911 c 0.102051,-0.165123 0.695088,-0.380727 1.317861,-0.479121 C 53.01981,34.717344 62.292198,33.13164 69.15,31.935399 76.5174,30.650265 82.213221,29.711133 82.679685,29.70461 83.26488,29.696427 90.62562,24.051244 90.307473,23.854619 90.138363,23.750103 90,23.824087 90,24.019028 c 0,0.254201 -0.135822,0.241716 -0.480264,-0.04415 -0.702777,-0.583254 -1.31631,-0.593912 -1.343421,-0.02334 -0.01956,0.411921 -0.05342,0.420333 -0.194982,0.04846 C 87.71643,23.304106 87.288213,23.139636 86.200746,23.316107 85.650336,23.405426 85.2,23.355894 85.2,23.206035 c 0,-0.149859 -0.77625,-0.242329 -1.725,-0.205489 -1.120689,0.04352 -1.964439,-0.08934 -2.408475,-0.37925 -0.375909,-0.245428 -0.796032,-0.376667 -0.933603,-0.291644 -0.137571,0.08502 -1.517508,-0.05874 -3.066525,-0.319467 -1.54902,-0.26073 -2.962647,-0.482184 -3.141396,-0.49212 -0.65328,-0.03631 -0.300588,-0.74802 0.6,-1.210758 C 75.03375,20.045901 76.665,19.499111 78.15,19.092218 c 5.781261,-1.584079 8.71536,-2.45216 9.075,-2.684923 0.244656,-0.158346 0.375,-1.018607 0.375,-2.475 l 0,-2.232295 4.05,0 4.05,0 0,1.05 c 0,1.208902 0.169602,1.252182 2.277321,0.581134 1.482771,-0.472078 6.235479,-1.833437 9.572679,-2.741983 0.99,-0.269526 1.845,-0.6023451 1.9,-0.739599 0.13645,-0.3405057 1.16814,-0.3144699 1.84262,0.046501 0.30425,0.1628294 4.12741,4.6515794 8.49591,9.9750004 4.36851,5.323421 8.47746,10.252697 9.13102,10.953947 l 1.18828,1.275 41.14609,0 41.14608,0 0,0.867903 c 0,0.514668 -0.19314,0.942018 -0.47454,1.05 C 211.66447,34.118058 192.90968,34.2 170.24815,34.2 l -41.20277,0 -1.78516,-2.025 c -0.98184,-1.11375 -4.98324,-5.94 -8.89199,-10.725 -3.90876,-4.785 -7.2023,-8.734718 -7.31898,-8.777152 -0.11669,-0.04243 -5.00176,3.436413 -10.85571,7.730769 -5.853944,4.294356 -11.927354,8.739776 -13.496462,9.878713 l -2.852919,2.070792 -3.147081,0.178371 c -2.809755,0.159252 -11.311749,1.044069 -23.547078,2.45058 -6.793389,0.780936 -7.45239,0.826302 -7.250175,0.499113 z M 86.318751,22.61875 c -0.09969,-0.09969 -0.35844,-0.110346 -0.575001,-0.02368 -0.239319,0.09577 -0.168234,0.166855 0.181251,0.18125 0.316248,0.01303 0.493437,-0.05788 0.39375,-0.157566 z m -9.681564,-1.298021 c 0.09493,-0.153598 0.0579,-0.35016 -0.08229,-0.436803 -0.140193,-0.08664 -0.254895,0.03903 -0.254895,0.279271 0,0.50585 0.0946,0.550047 0.337188,0.157532 z M 102.3,26.694471 l 0,-5.705529 6.975,0.08053 6.975,0.08053 0.0816,5.625 c 0.0449,3.09375 -0.0226,5.62515 -0.15,5.625333 -0.12739,1.83e-4 -0.23162,-1.181067 -0.23162,-2.624999 l 0,-2.625334 -2.4,0 -2.4,0 0,2.625371 c 0,1.443955 -0.12115,2.584819 -0.26923,2.535256 -0.14807,-0.04956 -0.24088,-1.268706 -0.20623,-2.709208 l 0.063,-2.619095 -3.99376,0.08384 -3.99376,0.08384 0,2.625334 c 0,1.443932 -0.10125,2.625182 -0.225,2.624999 -0.12375,-1.83e-4 -0.225,-2.567821 -0.225,-5.705862 z m 8.33728,-2.628264 0.0873,-2.483793 -3.98727,0.08379 -3.98728,0.08379 -0.0893,2.052004 c -0.1269,2.915226 -0.1008,2.932581 4.25842,2.831876 L 110.55,26.55 l 0.0873,-2.483793 z m 5.10184,2.377765 c 0.27583,-0.174968 0.36318,-0.894267 0.3,-2.470406 L 115.95,21.75 l -2.4,0 -2.4,0 -0.0893,2.052004 c -0.0546,1.254561 0.0471,2.216386 0.26173,2.475 0.3883,0.467873 3.74247,0.594674 4.41671,0.166968 z"
       id="path4484"
       inkscape:connector-curvature="0" />
    <path
       style="fill:#ae0909"
       d="m 321.69129,70.513188 c -1.80954,-1.103337 -1.55325,-3.910122 0.40182,-4.400817 0.45534,-0.114279 1.4709,0.0189 2.41596,0.316794 2.10999,0.665112 2.60922,0.360882 3.96855,-2.418396 1.7427,-3.563127 1.7436,-3.557784 -1.92453,-11.392911 -4.40091,-9.400293 -4.84314,-10.199526 -5.88183,-10.629765 C 320.19207,41.789607 319.8,41.508585 319.8,41.363604 319.8,41.218623 321.8925,41.1 324.45,41.1 c 4.41567,0 5.89548,0.299574 3.60366,0.729522 -1.08621,0.203772 -1.67655,0.893652 -1.42944,1.670478 0.5154,1.620387 5.31156,11.382384 5.4972,11.188893 0.12606,-0.131391 1.00032,-2.263893 1.94277,-4.738893 2.85084,-7.486611 2.89467,-7.757619 1.31076,-8.105505 C 333.58725,41.451852 334.59156,41.1 337.5,41.1 c 1.97121,0 3,0.112509 3,0.328086 0,0.180447 -0.2754,0.400107 -0.612,0.48813 -0.83694,0.218862 -0.90882,0.37989 -5.39706,12.090747 -5.11713,13.351704 -6.20988,15.515172 -8.41179,16.653813 -1.1976,0.619308 -3.24297,0.550512 -4.38786,-0.147588 z M 55.465521,61.086114 c -3.731814,-1.333605 -5.857161,-5.25789 -5.609028,-10.35663 0.156108,-3.207825 1.081164,-5.395713 3.160512,-7.475061 2.968488,-2.968488 7.690677,-3.336504 10.950417,-0.853404 1.586808,1.208745 2.600367,2.988312 2.836218,4.979721 l 0.179934,1.51926 -6.941787,0 c -7.895037,0 -7.247256,-0.270714 -6.604824,2.760234 0.460974,2.174844 1.200399,3.532671 2.62431,4.819089 1.403547,1.268022 3.254148,1.854945 5.065794,1.606629 2.091684,-0.286695 3.464943,-1.19979 5.237424,-3.482412 0.599433,-0.771957 0.900666,-0.958383 1.148355,-0.710694 0.247689,0.247689 0.161427,0.679584 -0.328854,1.64646 -1.90977,3.766236 -5.119041,5.971089 -8.656908,5.947527 -1.087398,-0.0072 -2.4651,-0.187566 -3.061563,-0.400719 z M 62.051325,46.125 C 61.530036,43.792065 60.550278,42.736824 58.627902,42.437823 56.313177,42.077796 54.159114,43.67523 53.453643,46.275 l -0.30528,1.125 4.59393,0 4.59393,0 -0.284898,-1.275 z M 70.8,57.878004 c 0,-3.142533 0.06277,-3.609159 0.474174,-3.525 0.267747,0.05477 0.723369,0.815304 1.046592,1.746996 0.363987,1.049193 0.992874,2.047044 1.727118,2.740401 C 76.692324,61.337589 81,60.360708 81,57.263823 c 0,-1.560342 -1.001274,-2.595978 -4.2,-4.34415 -4.29762,-2.348739 -5.398056,-3.455091 -5.853999,-5.885487 -0.403818,-2.152521 1.046154,-4.650327 3.291588,-5.670288 1.512894,-0.68721 3.811146,-0.715314 5.705724,-0.06976 1.346628,0.458841 1.476,0.458841 1.811514,0 C 82.560369,40.192488 82.8,40.767015 82.8,43.8 c 0,2.345454 -0.09,3 -0.4125,3 -0.226875,0 -0.491637,-0.37125 -0.588357,-0.825 -0.44352,-2.080692 -2.63514,-3.949536 -4.653804,-3.968412 -1.092876,-0.01023 -2.626182,0.843264 -3.003771,1.671984 -0.912432,2.002566 0.04165,3.377439 3.630834,5.232195 1.362678,0.704181 3.06468,1.697292 3.782223,2.206914 3.313947,2.353662 3.691182,6.417168 0.815766,8.787327 -1.956117,1.612398 -4.955874,2.030832 -8.258406,1.151961 -1.435932,-0.382128 -1.697922,-0.38169 -2.123622,0.0036 C 70.943706,62.005932 70.8,61.621074 70.8,57.878004 Z m 23.7,3.341457 C 91.884312,60.420921 89.28315,58.118082 88.09914,55.552701 87.566367,54.398346 87.451593,53.592294 87.450873,51 c -9e-4,-2.73948 0.0952,-3.345486 0.736296,-4.65 1.077477,-2.19246 3.155226,-4.134672 5.280564,-4.936101 1.459293,-0.550275 2.217183,-0.649203 4.182267,-0.545907 3.99844,0.210177 6.77896,1.908807 8.48253,5.182008 1.13008,2.171304 1.30721,6.447252 0.37016,8.935374 -0.92345,2.451987 -3.42072,5.091186 -5.58285,5.900145 -1.688546,0.631767 -4.897526,0.798687 -6.41984,0.333942 z m 5.95927,-1.727064 c 0.4349,-0.315471 1.12823,-1.241565 1.54073,-2.057988 1.09995,-2.17704 1.23612,-6.823062 0.28653,-9.776295 -0.85493,-2.658825 -2.07994,-4.34802 -3.68004,-5.074479 -1.643991,-0.746385 -2.495895,-0.727449 -4.109811,0.09136 -2.01768,1.02366 -2.816982,2.810256 -2.949894,6.593598 -0.228102,6.49284 2.793513,11.341185 6.812487,10.931004 0.720099,-0.07349 1.665098,-0.391737 2.099998,-0.707205 z m 34.66412,1.440318 c -2.7996,-1.707177 -3.2216,-4.928916 -0.99821,-7.62075 0.99059,-1.199292 3.79621,-2.750664 7.7381,-4.278786 l 2.21328,-0.858006 -0.17603,-2.099631 c -0.11372,-1.356483 -0.37414,-2.364984 -0.73577,-2.849343 -1.0335,-1.38426 -3.93598,-1.554981 -5.18593,-0.305031 -0.46508,0.465084 -0.57306,0.9375 -0.51755,2.264238 0.0567,1.355424 -0.0396,1.756791 -0.5029,2.095563 -1.38859,1.015365 -3.45838,0.05101 -3.45838,-1.61133 0,-1.206192 1.29521,-2.92395 2.92869,-3.884157 1.30075,-0.764613 1.67764,-0.835482 4.44322,-0.835482 2.76984,0 3.12252,0.06658 4.22811,0.798228 2.14279,1.418031 2.3293,2.159493 2.49998,9.938232 0.1235,5.628528 0.22951,6.888696 0.6,7.132101 0.45465,0.298695 1.21329,0.24216 2.175,-0.162078 0.39606,-0.166479 0.525,-0.07686 0.525,0.364923 0,1.115958 -2.27206,2.478594 -4.13281,2.478594 -1.31346,0 -2.28779,-0.806367 -2.62733,-2.174424 l -0.20462,-0.824424 -0.94262,0.795975 c -2.4489,2.067912 -5.96262,2.798226 -7.86923,1.635588 z m 7.39864,-2.643453 C 143.75581,57.560451 144,56.700762 144,53.085885 c 0,-3.649725 0.0134,-3.630825 -1.98836,-2.808927 -1.95702,0.803532 -3.96339,2.224152 -4.60312,3.25926 -0.67466,1.091628 -0.78875,2.739996 -0.26864,3.881511 0.74065,1.625553 3.38172,2.053221 5.38216,0.871533 z m 37.88958,2.847216 c -1.78049,-0.573531 -3.79784,-2.398815 -4.80807,-4.350321 -3.5481,-6.854004 0.85913,-15.452994 8.16025,-15.921549 2.40231,-0.154173 3.90212,0.206247 5.58913,1.343127 2.59524,1.74894 2.52042,4.892265 -0.11645,4.892265 -1.09856,0 -1.8954,-0.743583 -2.30874,-2.154435 -0.55967,-1.910328 -1.10326,-2.595027 -2.22769,-2.805972 -3.19984,-0.600294 -6.09294,2.17074 -6.64588,6.365466 -0.43715,3.31638 1.26922,7.41231 3.63047,8.714484 2.97519,1.640748 5.70738,1.117479 8.15638,-1.562112 1.95012,-2.133744 2.53829,-1.80432 1.08958,0.61026 -2.18092,3.634965 -4.59922,5.255061 -7.76449,5.201682 -0.99886,-0.01686 -2.23837,-0.166647 -2.75449,-0.332895 z m 19.35391,-0.05036 c -3.73181,-1.333605 -5.85716,-5.25789 -5.60903,-10.35663 0.15611,-3.207825 1.08117,-5.395713 3.16051,-7.475061 2.96849,-2.968488 7.69068,-3.336504 10.95042,-0.853404 1.58681,1.208745 2.60037,2.988312 2.83622,4.979721 l 0.17993,1.51926 -6.94178,0 c -7.89504,0 -7.24726,-0.270714 -6.60483,2.760234 0.46098,2.174844 1.2004,3.532671 2.62431,4.819089 1.40355,1.268022 3.25415,1.854945 5.0658,1.606629 2.09168,-0.286695 3.46494,-1.19979 5.23742,-3.482412 0.59943,-0.771957 0.90067,-0.958383 1.14836,-0.710694 0.24769,0.247689 0.16142,0.679584 -0.32886,1.64646 -1.90977,3.766236 -5.11904,5.971089 -8.65691,5.947527 -1.08739,-0.0072 -2.4651,-0.187566 -3.06156,-0.400719 z M 206.35132,46.125 c -0.52128,-2.332935 -1.50104,-3.388176 -3.42342,-3.687177 -2.31472,-0.360027 -4.46879,1.237407 -5.17426,3.837177 l -0.30528,1.125 4.59393,0 4.59393,0 -0.2849,-1.275 z m 54.6142,14.961114 c -2.46423,-0.88062 -4.38108,-3.121326 -5.26175,-6.150747 -0.65797,-2.263332 -0.44071,-6.277428 0.44715,-8.261469 2.03923,-4.556949 6.44637,-6.801684 10.9165,-5.560215 2.66895,0.741231 4.8977,3.408747 5.23622,6.267057 l 0.17993,1.51926 -6.94178,0 c -7.89504,0 -7.24726,-0.270714 -6.60483,2.760234 0.46098,2.174844 1.2004,3.532671 2.62431,4.819089 1.40355,1.268022 3.25415,1.854945 5.0658,1.606629 2.09168,-0.286695 3.46494,-1.19979 5.23742,-3.482412 0.59943,-0.771957 0.90067,-0.958383 1.14836,-0.710694 0.24769,0.247689 0.16142,0.679584 -0.32886,1.64646 -1.90977,3.766236 -5.11904,5.971089 -8.65691,5.947527 -1.08739,-0.0072 -2.4651,-0.187566 -3.06156,-0.400719 z M 267.55133,46.125 c -0.52129,-2.332935 -1.50105,-3.388176 -3.42343,-3.687177 -2.31472,-0.360027 -4.46879,1.237407 -5.17426,3.837177 l -0.30528,1.125 4.59393,0 4.59393,0 -0.2849,-1.275 z m 10.67206,14.807715 c -2.7996,-1.707177 -3.2216,-4.928916 -0.99821,-7.62075 0.99059,-1.199292 3.79621,-2.750664 7.7381,-4.278786 l 2.21328,-0.858006 -0.17603,-2.099631 c -0.11372,-1.356483 -0.37414,-2.364984 -0.73577,-2.849343 -1.0335,-1.38426 -3.93598,-1.554981 -5.18593,-0.305031 -0.46508,0.465084 -0.57306,0.9375 -0.51755,2.264238 0.0567,1.355424 -0.0396,1.756791 -0.5029,2.095563 -1.38859,1.015365 -3.45838,0.05101 -3.45838,-1.61133 0,-1.206192 1.29521,-2.92395 2.92869,-3.884157 C 280.82758,41.021958 281.20838,40.95 283.95,40.95 c 2.60894,0 3.14467,0.08996 4.10988,0.690123 0.61043,0.379566 1.42043,1.189566 1.8,1.8 0.65519,1.053699 0.69771,1.463499 0.84012,8.096322 0.12371,5.761977 0.22887,7.038261 0.6,7.282101 0.45464,0.29871 1.21328,0.242181 2.175,-0.162063 0.39606,-0.166479 0.525,-0.07686 0.525,0.364923 0,1.115958 -2.27206,2.478594 -4.13281,2.478594 -1.31346,0 -2.28779,-0.806367 -2.62733,-2.174424 l -0.20462,-0.824424 -0.94262,0.795975 c -2.4489,2.067912 -5.96262,2.798226 -7.86923,1.635588 z m 7.39864,-2.643453 c 1.23378,-0.728811 1.47797,-1.5885 1.47797,-5.203377 0,-3.649725 0.0134,-3.630825 -1.98836,-2.808927 -1.95702,0.803532 -3.96339,2.224152 -4.60312,3.25926 -0.67466,1.091628 -0.78875,2.739996 -0.26864,3.881511 0.74065,1.625553 3.38172,2.053221 5.38215,0.871533 z M 311.24409,60.525 C 309.80814,59.1879 309.6,57.786993 309.6,49.459053 l 0,-6.859053 -1.2,0 c -0.66,0 -1.2,-0.127356 -1.2,-0.283017 0,-0.155658 0.70875,-0.954477 1.575,-1.775151 0.86625,-0.820674 2.1825,-2.307888 2.925,-3.30492 0.7425,-0.997029 1.45125,-1.818213 1.575,-1.824849 0.12375,-0.0066 0.225,1.270437 0.225,2.837937 l 0,2.85 2.25,0 c 2.19999,0 2.25,0.01668 2.25,0.75 0,0.733332 -0.05,0.75 -2.25,0.75 l -2.25,0 0.003,6.825 c 0.003,7.184703 0.22326,8.853156 1.24809,9.40164 0.82596,0.442038 2.30445,0.120963 3.16479,-0.687282 0.49005,-0.460392 0.78699,-0.557811 1.01259,-0.332214 0.43452,0.434541 -1.26216,2.345466 -2.7618,3.110529 C 315.53136,61.24179 314.41938,61.5 313.65888,61.5 c -1.12677,0 -1.55001,-0.170982 -2.41347,-0.975 z M 19.2,60.903546 c 0,-0.16305 0.567843,-0.387258 1.261873,-0.498237 0.699984,-0.111933 1.568282,-0.508191 1.95,-0.889908 L 23.1,58.827273 23.1,46.35 l 0,-12.477273 -0.688127,-0.688128 c -0.381718,-0.381717 -1.250016,-0.777975 -1.95,-0.889908 C 19.767843,32.183712 19.2,31.959504 19.2,31.796454 19.2,31.608915 22.016376,31.5 26.865778,31.5 c 8.574053,0 10.772825,0.301377 13.136894,1.800627 2.152908,1.365333 3.02757,2.944449 3.144693,5.677437 0.08307,1.938348 -0.0084,2.470155 -0.623031,3.621936 -0.892089,1.671747 -2.604516,2.906883 -5.192982,3.74559 l -1.98438,0.642972 5.077056,6.280719 c 4.81122,5.951856 5.593128,6.731712 7.200972,7.182081 C 49.246872,60.905658 48.054174,61.2 44.59146,61.2 l -3.708543,0 -5.517699,-6.825 c -4.941639,-6.112452 -5.619365,-6.834816 -6.49146,-6.919008 L 27.9,47.361984 l 0,5.224242 c 0,2.921379 0.140824,5.628207 0.319471,6.140676 0.324898,0.932004 1.045883,1.360836 2.905529,1.728177 0.53625,0.105927 0.975,0.316869 0.975,0.468759 C 32.1,61.083492 29.378853,61.2 25.65,61.2 21.601423,61.2 19.2,61.089627 19.2,60.903546 Z M 33.543054,45.264381 c 1.82535,-0.360264 3.515664,-1.65297 4.151634,-3.175059 0.524046,-1.254219 0.520713,-4.33776 -0.006,-5.573958 -0.515844,-1.210632 -1.527903,-2.153463 -2.948919,-2.747199 -1.478718,-0.61785 -4.972539,-0.910995 -6.014745,-0.504663 l -0.825,0.321648 0,6.187686 0,6.187689 2.025,-0.190863 c 1.11375,-0.104976 2.741874,-0.332352 3.618054,-0.505281 z M 109.2,60.947487 c 0,-0.138882 0.52736,-0.410517 1.17192,-0.60363 1.69985,-0.509289 1.82881,-1.136088 1.82366,-8.863623 -0.005,-7.606767 -0.11229,-8.076348 -1.87748,-8.223345 -0.61496,-0.05121 -1.1181,-0.214242 -1.1181,-0.362295 0,-0.148053 0.97875,-0.552195 2.175,-0.898092 1.19625,-0.3459 2.56639,-0.756615 3.04477,-0.912705 1.33966,-0.437118 1.38023,-0.395829 1.38023,1.404651 l 0,1.688448 0.975,-0.788727 c 2.38132,-1.926366 3.5732,-2.438169 5.678,-2.438169 2.44101,0 3.3578,0.559845 4.447,2.715591 0.72094,1.426899 0.75581,1.758711 0.9,8.564445 0.1621,7.651458 0.21068,7.870893 1.82073,8.224518 2.0894,0.45891 0.58234,0.745446 -3.92073,0.745446 -2.64,0 -4.8,-0.104745 -4.8,-0.232764 0,-0.128019 0.57017,-0.499269 1.26704,-0.825 1.69589,-0.792681 1.79723,-1.316514 1.6795,-8.681481 -0.0833,-5.20854 -0.17091,-6.152577 -0.63723,-6.863376 -1.13865,-1.735614 -3.48228,-1.739337 -5.74826,-0.0091 l -1.36105,1.039254 0,6.41673 c 0,3.5292 0.1289,6.755769 0.28645,7.170156 0.19688,0.517827 0.66594,0.867126 1.5,1.117017 0.66745,0.199971 1.21355,0.477219 1.21355,0.616101 0,0.138882 -2.2275,0.252513 -4.95,0.252513 -2.7225,0 -4.95,-0.113631 -4.95,-0.252513 z m 42.3,0 c 0,-0.138882 0.5461,-0.41613 1.21355,-0.616101 0.83406,-0.249891 1.30312,-0.59919 1.5,-1.117017 0.15755,-0.414387 0.28446,-3.815889 0.28203,-7.558899 -0.005,-7.796742 -0.10664,-8.251113 -1.87748,-8.398581 -0.61496,-0.05121 -1.1181,-0.214242 -1.1181,-0.362295 0,-0.148053 0.97875,-0.552195 2.175,-0.898092 1.19625,-0.3459 2.56639,-0.756615 3.04477,-0.912705 1.33966,-0.437118 1.38023,-0.395829 1.38023,1.404651 l 0,1.688448 0.975,-0.788727 c 2.38132,-1.926366 3.5732,-2.438169 5.678,-2.438169 2.44101,0 3.3578,0.559845 4.447,2.715591 0.72094,1.426899 0.75581,1.758711 0.9,8.564445 0.16211,7.651458 0.21068,7.870893 1.82073,8.224518 C 174.01013,60.913464 172.50307,61.2 168,61.2 c -2.64,0 -4.8,-0.104745 -4.8,-0.232764 0,-0.128019 0.57017,-0.499269 1.26704,-0.825 1.69589,-0.792681 1.79723,-1.316514 1.6795,-8.681481 -0.0833,-5.20854 -0.17091,-6.152577 -0.63723,-6.863376 -1.13865,-1.735614 -3.48228,-1.739337 -5.74826,-0.0091 l -1.36105,1.039254 0,6.41673 c 0,3.5292 0.1289,6.755769 0.28645,7.170156 0.19688,0.517827 0.66594,0.867126 1.5,1.117017 0.66745,0.199971 1.21355,0.477219 1.21355,0.616101 0,0.138882 -2.2275,0.252513 -4.95,0.252513 -2.7225,0 -4.95,-0.113631 -4.95,-0.252513 z m 73.2,-0.04394 c 0,-0.16305 0.56784,-0.387258 1.26187,-0.498237 0.69999,-0.111933 1.56828,-0.508191 1.95,-0.889908 L 228.6,58.827273 228.6,46.35 l 0,-12.477273 -0.68813,-0.688128 c -0.38172,-0.381717 -1.25001,-0.777975 -1.95,-0.889908 C 225.26784,32.183712 224.7,31.959504 224.7,31.796454 224.7,31.608915 227.51638,31.5 232.36578,31.5 c 8.57405,0 10.77282,0.301377 13.13689,1.800627 2.15291,1.365333 3.02757,2.944449 3.14469,5.677437 0.0831,1.938348 -0.008,2.470155 -0.62303,3.621936 -0.89209,1.671747 -2.60451,2.906883 -5.19298,3.74559 l -1.98438,0.642972 5.07706,6.280719 c 4.81122,5.951856 5.59313,6.731712 7.20097,7.182081 1.62152,0.454197 0.42944,0.748638 -3.03098,0.748638 l -3.70598,0 -5.51902,-6.825 c -4.94565,-6.11595 -5.62031,-6.834765 -6.49402,-6.919008 l -0.975,-0.09401 0,5.224242 c 0,2.921379 0.14082,5.628207 0.31947,6.140676 0.3249,0.932004 1.04588,1.360836 2.90553,1.728177 0.53625,0.105927 0.975,0.316869 0.975,0.468759 0,0.159654 -2.72115,0.276162 -6.45,0.276162 -4.04858,0 -6.45,-0.110373 -6.45,-0.296454 z m 14.49865,-15.655938 c 1.67506,-0.355524 3.39194,-1.712469 3.99604,-3.158286 0.52404,-1.254219 0.52071,-4.33776 -0.006,-5.573958 -0.51585,-1.210632 -1.52791,-2.153463 -2.94892,-2.747199 -1.47872,-0.61785 -4.97254,-0.910995 -6.01475,-0.504663 l -0.825,0.321648 0,6.196188 0,6.196188 2.175,-0.211221 c 1.19625,-0.116172 2.8269,-0.349587 3.62366,-0.518697 z M 295.2,60.932097 c 0,-0.324975 0.74074,-0.632097 1.52454,-0.632097 0.3165,0 0.84546,-0.27 1.17546,-0.6 0.58115,-0.581151 0.6,-0.999999 0.6,-13.33299 l 0,-12.732987 -0.65847,-0.461208 c -0.45464,-0.318444 -1.01181,-0.404703 -1.8,-0.27867 -1.51027,0.241503 -1.5235,-0.371043 -0.0165,-0.765468 2.6319,-0.688854 6.03804,-1.528677 6.19998,-1.528677 0.0963,0 0.17577,6.10875 0.1767,13.575 0,8.349936 0.12009,14.001375 0.30933,14.682747 0.3072,1.106082 0.47895,1.22436 2.31399,1.593693 2.3193,0.466794 0.65367,0.74856 -4.425,0.74856 -2.97,0 -5.4,-0.120558 -5.4,-0.267903 z M 51.487455,35.487456 c -0.120531,-0.120531 5.086734,-1.12551 11.571699,-2.23329 6.484965,-1.10778 13.707153,-2.358294 16.049304,-2.778918 l 4.258458,-0.764771 7.441542,-5.451011 c 8.399727,-6.152892 16.305762,-11.919481 18.548042,-13.528774 1.12445,-0.8070274 1.63252,-1.0106857 2.00348,-0.8030869 0.27335,0.1529719 4.06871,4.6305909 8.43414,9.9502629 4.36543,5.319673 8.47187,10.245882 9.12543,10.947132 l 1.18828,1.275 41.14609,0 41.14608,0 0,0.867903 c 0,0.514668 -0.19314,0.942018 -0.47454,1.05 C 211.66447,34.118058 192.90968,34.2 170.24815,34.2 l -41.20277,0 -1.78516,-2.025 c -0.98184,-1.11375 -4.98324,-5.94 -8.89199,-10.725 -3.90876,-4.785 -7.2023,-8.734718 -7.31898,-8.777152 -0.11669,-0.04243 -5.00176,3.436413 -10.85571,7.730769 -5.853944,4.294356 -11.927354,8.739776 -13.496462,9.878713 l -2.852919,2.070792 -3.147081,0.178371 C 78.966186,32.629596 73.905,33.11268 69.45,33.605013 64.995,34.097346 59.3925,34.708872 57,34.963962 c -2.3925,0.255087 -4.562265,0.526536 -4.821699,0.603216 -0.259437,0.07668 -0.570318,0.04081 -0.690846,-0.07972 z"
       id="path4482"
       inkscape:connector-curvature="0" />
  </g>
  <path
     style="fill:#ae0909"
     d="m 321.69129,70.513188 c -1.80954,-1.103337 -1.55325,-3.910122 0.40182,-4.400817 0.45534,-0.114279 1.4709,0.0189 2.41596,0.316794 2.10999,0.665112 2.60922,0.360882 3.96855,-2.418396 1.7427,-3.563127 1.7436,-3.557784 -1.92453,-11.392911 -4.40091,-9.400293 -4.84314,-10.199526 -5.88183,-10.629765 C 320.19207,41.789607 319.8,41.508585 319.8,41.363604 319.8,41.218623 321.8925,41.1 324.45,41.1 c 4.41567,0 5.89548,0.299574 3.60366,0.729522 -1.08621,0.203772 -1.67655,0.893652 -1.42944,1.670478 0.5154,1.620387 5.31156,11.382384 5.4972,11.188893 0.12606,-0.131391 1.00032,-2.263893 1.94277,-4.738893 2.85084,-7.486611 2.89467,-7.757619 1.31076,-8.105505 C 333.58725,41.451852 334.59156,41.1 337.5,41.1 c 1.97121,0 3,0.112509 3,0.328086 0,0.180447 -0.2754,0.400107 -0.612,0.48813 -0.83694,0.218862 -0.90882,0.37989 -5.39706,12.090747 -5.11713,13.351704 -6.20988,15.515172 -8.41179,16.653813 -1.1976,0.619308 -3.24297,0.550512 -4.38786,-0.147588 z M 55.465521,61.086114 c -3.731814,-1.333605 -5.857161,-5.25789 -5.609028,-10.35663 0.156108,-3.207825 1.081164,-5.395713 3.160512,-7.475061 2.968488,-2.968488 7.690677,-3.336504 10.950417,-0.853404 1.586808,1.208745 2.600367,2.988312 2.836218,4.979721 l 0.179934,1.51926 -6.941787,0 c -7.895037,0 -7.247256,-0.270714 -6.604824,2.760234 0.460974,2.174844 1.200399,3.532671 2.62431,4.819089 1.403547,1.268022 3.254148,1.854945 5.065794,1.606629 2.091684,-0.286695 3.464943,-1.19979 5.237424,-3.482412 0.599433,-0.771957 0.900666,-0.958383 1.148355,-0.710694 0.247689,0.247689 0.161427,0.679584 -0.328854,1.64646 -1.90977,3.766236 -5.119041,5.971089 -8.656908,5.947527 -1.087398,-0.0072 -2.4651,-0.187566 -3.061563,-0.400719 z M 62.051325,46.125 C 61.530036,43.792065 60.550278,42.736824 58.627902,42.437823 56.313177,42.077796 54.159114,43.67523 53.453643,46.275 l -0.30528,1.125 4.59393,0 4.59393,0 -0.284898,-1.275 z M 70.8,57.878004 c 0,-3.142533 0.06277,-3.609159 0.474174,-3.525 0.267747,0.05477 0.723369,0.815304 1.046592,1.746996 0.363987,1.049193 0.992874,2.047044 1.727118,2.740401 C 76.692324,61.337589 81,60.360708 81,57.263823 c 0,-1.560342 -1.001274,-2.595978 -4.2,-4.34415 -4.29762,-2.348739 -5.398056,-3.455091 -5.853999,-5.885487 -0.403818,-2.152521 1.046154,-4.650327 3.291588,-5.670288 1.512894,-0.68721 3.811146,-0.715314 5.705724,-0.06976 1.346628,0.458841 1.476,0.458841 1.811514,0 C 82.560369,40.192488 82.8,40.767015 82.8,43.8 c 0,2.345454 -0.09,3 -0.4125,3 -0.226875,0 -0.491637,-0.37125 -0.588357,-0.825 -0.44352,-2.080692 -2.63514,-3.949536 -4.653804,-3.968412 -1.092876,-0.01023 -2.626182,0.843264 -3.003771,1.671984 -0.912432,2.002566 0.04165,3.377439 3.630834,5.232195 1.362678,0.704181 3.06468,1.697292 3.782223,2.206914 3.313947,2.353662 3.691182,6.417168 0.815766,8.787327 -1.956117,1.612398 -4.955874,2.030832 -8.258406,1.151961 -1.435932,-0.382128 -1.697922,-0.38169 -2.123622,0.0036 C 70.943706,62.005932 70.8,61.621074 70.8,57.878004 Z m 23.7,3.341457 C 91.884312,60.420921 89.28315,58.118082 88.09914,55.552701 87.566367,54.398346 87.451593,53.592294 87.450873,51 c -9e-4,-2.73948 0.0952,-3.345486 0.736296,-4.65 1.077477,-2.19246 3.155226,-4.134672 5.280564,-4.936101 1.459293,-0.550275 2.217183,-0.649203 4.182267,-0.545907 3.99844,0.210177 6.77896,1.908807 8.48253,5.182008 1.13008,2.171304 1.30721,6.447252 0.37016,8.935374 -0.92345,2.451987 -3.42072,5.091186 -5.58285,5.900145 -1.688546,0.631767 -4.897526,0.798687 -6.41984,0.333942 z m 5.95927,-1.727064 c 0.4349,-0.315471 1.12823,-1.241565 1.54073,-2.057988 1.09995,-2.17704 1.23612,-6.823062 0.28653,-9.776295 -0.85493,-2.658825 -2.07994,-4.34802 -3.68004,-5.074479 -1.643991,-0.746385 -2.495895,-0.727449 -4.109811,0.09136 -2.01768,1.02366 -2.816982,2.810256 -2.949894,6.593598 -0.228102,6.49284 2.793513,11.341185 6.812487,10.931004 0.720099,-0.07349 1.665098,-0.391737 2.099998,-0.707205 z m 34.66412,1.440318 c -2.7996,-1.707177 -3.2216,-4.928916 -0.99821,-7.62075 0.99059,-1.199292 3.79621,-2.750664 7.7381,-4.278786 l 2.21328,-0.858006 -0.17603,-2.099631 c -0.11372,-1.356483 -0.37414,-2.364984 -0.73577,-2.849343 -1.0335,-1.38426 -3.93598,-1.554981 -5.18593,-0.305031 -0.46508,0.465084 -0.57306,0.9375 -0.51755,2.264238 0.0567,1.355424 -0.0396,1.756791 -0.5029,2.095563 -1.38859,1.015365 -3.45838,0.05101 -3.45838,-1.61133 0,-1.206192 1.29521,-2.92395 2.92869,-3.884157 1.30075,-0.764613 1.67764,-0.835482 4.44322,-0.835482 2.76984,0 3.12252,0.06658 4.22811,0.798228 2.14279,1.418031 2.3293,2.159493 2.49998,9.938232 0.1235,5.628528 0.22951,6.888696 0.6,7.132101 0.45465,0.298695 1.21329,0.24216 2.175,-0.162078 0.39606,-0.166479 0.525,-0.07686 0.525,0.364923 0,1.115958 -2.27206,2.478594 -4.13281,2.478594 -1.31346,0 -2.28779,-0.806367 -2.62733,-2.174424 l -0.20462,-0.824424 -0.94262,0.795975 c -2.4489,2.067912 -5.96262,2.798226 -7.86923,1.635588 z m 7.39864,-2.643453 C 143.75581,57.560451 144,56.700762 144,53.085885 c 0,-3.649725 0.0134,-3.630825 -1.98836,-2.808927 -1.95702,0.803532 -3.96339,2.224152 -4.60312,3.25926 -0.67466,1.091628 -0.78875,2.739996 -0.26864,3.881511 0.74065,1.625553 3.38172,2.053221 5.38216,0.871533 z m 37.88958,2.847216 c -1.78049,-0.573531 -3.79784,-2.398815 -4.80807,-4.350321 -3.5481,-6.854004 0.85913,-15.452994 8.16025,-15.921549 2.40231,-0.154173 3.90212,0.206247 5.58913,1.343127 2.59524,1.74894 2.52042,4.892265 -0.11645,4.892265 -1.09856,0 -1.8954,-0.743583 -2.30874,-2.154435 -0.55967,-1.910328 -1.10326,-2.595027 -2.22769,-2.805972 -3.19984,-0.600294 -6.09294,2.17074 -6.64588,6.365466 -0.43715,3.31638 1.26922,7.41231 3.63047,8.714484 2.97519,1.640748 5.70738,1.117479 8.15638,-1.562112 1.95012,-2.133744 2.53829,-1.80432 1.08958,0.61026 -2.18092,3.634965 -4.59922,5.255061 -7.76449,5.201682 -0.99886,-0.01686 -2.23837,-0.166647 -2.75449,-0.332895 z m 19.35391,-0.05036 c -3.73181,-1.333605 -5.85716,-5.25789 -5.60903,-10.35663 0.15611,-3.207825 1.08117,-5.395713 3.16051,-7.475061 2.96849,-2.968488 7.69068,-3.336504 10.95042,-0.853404 1.58681,1.208745 2.60037,2.988312 2.83622,4.979721 l 0.17993,1.51926 -6.94178,0 c -7.89504,0 -7.24726,-0.270714 -6.60483,2.760234 0.46098,2.174844 1.2004,3.532671 2.62431,4.819089 1.40355,1.268022 3.25415,1.854945 5.0658,1.606629 2.09168,-0.286695 3.46494,-1.19979 5.23742,-3.482412 0.59943,-0.771957 0.90067,-0.958383 1.14836,-0.710694 0.24769,0.247689 0.16142,0.679584 -0.32886,1.64646 -1.90977,3.766236 -5.11904,5.971089 -8.65691,5.947527 -1.08739,-0.0072 -2.4651,-0.187566 -3.06156,-0.400719 z M 206.35132,46.125 c -0.52128,-2.332935 -1.50104,-3.388176 -3.42342,-3.687177 -2.31472,-0.360027 -4.46879,1.237407 -5.17426,3.837177 l -0.30528,1.125 4.59393,0 4.59393,0 -0.2849,-1.275 z m 54.6142,14.961114 c -2.46423,-0.88062 -4.38108,-3.121326 -5.26175,-6.150747 -0.65797,-2.263332 -0.44071,-6.277428 0.44715,-8.261469 2.03923,-4.556949 6.44637,-6.801684 10.9165,-5.560215 2.66895,0.741231 4.8977,3.408747 5.23622,6.267057 l 0.17993,1.51926 -6.94178,0 c -7.89504,0 -7.24726,-0.270714 -6.60483,2.760234 0.46098,2.174844 1.2004,3.532671 2.62431,4.819089 1.40355,1.268022 3.25415,1.854945 5.0658,1.606629 2.09168,-0.286695 3.46494,-1.19979 5.23742,-3.482412 0.59943,-0.771957 0.90067,-0.958383 1.14836,-0.710694 0.24769,0.247689 0.16142,0.679584 -0.32886,1.64646 -1.90977,3.766236 -5.11904,5.971089 -8.65691,5.947527 -1.08739,-0.0072 -2.4651,-0.187566 -3.06156,-0.400719 z M 267.55133,46.125 c -0.52129,-2.332935 -1.50105,-3.388176 -3.42343,-3.687177 -2.31472,-0.360027 -4.46879,1.237407 -5.17426,3.837177 l -0.30528,1.125 4.59393,0 4.59393,0 -0.2849,-1.275 z m 10.67206,14.807715 c -2.7996,-1.707177 -3.2216,-4.928916 -0.99821,-7.62075 0.99059,-1.199292 3.79621,-2.750664 7.7381,-4.278786 l 2.21328,-0.858006 -0.17603,-2.099631 c -0.11372,-1.356483 -0.37414,-2.364984 -0.73577,-2.849343 -1.0335,-1.38426 -3.93598,-1.554981 -5.18593,-0.305031 -0.46508,0.465084 -0.57306,0.9375 -0.51755,2.264238 0.0567,1.355424 -0.0396,1.756791 -0.5029,2.095563 -1.38859,1.015365 -3.45838,0.05101 -3.45838,-1.61133 0,-1.206192 1.29521,-2.92395 2.92869,-3.884157 C 280.82758,41.021958 281.20838,40.95 283.95,40.95 c 2.60894,0 3.14467,0.08996 4.10988,0.690123 0.61043,0.379566 1.42043,1.189566 1.8,1.8 0.65519,1.053699 0.69771,1.463499 0.84012,8.096322 0.12371,5.761977 0.22887,7.038261 0.6,7.282101 0.45464,0.29871 1.21328,0.242181 2.175,-0.162063 0.39606,-0.166479 0.525,-0.07686 0.525,0.364923 0,1.115958 -2.27206,2.478594 -4.13281,2.478594 -1.31346,0 -2.28779,-0.806367 -2.62733,-2.174424 l -0.20462,-0.824424 -0.94262,0.795975 c -2.4489,2.067912 -5.96262,2.798226 -7.86923,1.635588 z m 7.39864,-2.643453 c 1.23378,-0.728811 1.47797,-1.5885 1.47797,-5.203377 0,-3.649725 0.0134,-3.630825 -1.98836,-2.808927 -1.95702,0.803532 -3.96339,2.224152 -4.60312,3.25926 -0.67466,1.091628 -0.78875,2.739996 -0.26864,3.881511 0.74065,1.625553 3.38172,2.053221 5.38215,0.871533 z M 311.24409,60.525 C 309.80814,59.1879 309.6,57.786993 309.6,49.459053 l 0,-6.859053 -1.2,0 c -0.66,0 -1.2,-0.127356 -1.2,-0.283017 0,-0.155658 0.70875,-0.954477 1.575,-1.775151 0.86625,-0.820674 2.1825,-2.307888 2.925,-3.30492 0.7425,-0.997029 1.45125,-1.818213 1.575,-1.824849 0.12375,-0.0066 0.225,1.270437 0.225,2.837937 l 0,2.85 2.25,0 c 2.19999,0 2.25,0.01668 2.25,0.75 0,0.733332 -0.05,0.75 -2.25,0.75 l -2.25,0 0.003,6.825 c 0.003,7.184703 0.22326,8.853156 1.24809,9.40164 0.82596,0.442038 2.30445,0.120963 3.16479,-0.687282 0.49005,-0.460392 0.78699,-0.557811 1.01259,-0.332214 0.43452,0.434541 -1.26216,2.345466 -2.7618,3.110529 C 315.53136,61.24179 314.41938,61.5 313.65888,61.5 c -1.12677,0 -1.55001,-0.170982 -2.41347,-0.975 z M 19.2,60.903546 c 0,-0.16305 0.567843,-0.387258 1.261873,-0.498237 0.699984,-0.111933 1.568282,-0.508191 1.95,-0.889908 L 23.1,58.827273 23.1,46.35 l 0,-12.477273 -0.688127,-0.688128 c -0.381718,-0.381717 -1.250016,-0.777975 -1.95,-0.889908 C 19.767843,32.183712 19.2,31.959504 19.2,31.796454 19.2,31.608915 22.016376,31.5 26.865778,31.5 c 8.574053,0 10.772825,0.301377 13.136894,1.800627 2.152908,1.365333 3.02757,2.944449 3.144693,5.677437 0.08307,1.938348 -0.0084,2.470155 -0.623031,3.621936 -0.892089,1.671747 -2.604516,2.906883 -5.192982,3.74559 l -1.98438,0.642972 5.077056,6.280719 c 4.81122,5.951856 5.593128,6.731712 7.200972,7.182081 C 49.246872,60.905658 48.054174,61.2 44.59146,61.2 l -3.708543,0 -5.517699,-6.825 c -4.941639,-6.112452 -5.619365,-6.834816 -6.49146,-6.919008 L 27.9,47.361984 l 0,5.224242 c 0,2.921379 0.140824,5.628207 0.319471,6.140676 0.324898,0.932004 1.045883,1.360836 2.905529,1.728177 0.53625,0.105927 0.975,0.316869 0.975,0.468759 C 32.1,61.083492 29.378853,61.2 25.65,61.2 21.601423,61.2 19.2,61.089627 19.2,60.903546 Z M 33.543054,45.264381 c 1.82535,-0.360264 3.515664,-1.65297 4.151634,-3.175059 0.524046,-1.254219 0.520713,-4.33776 -0.006,-5.573958 -0.515844,-1.210632 -1.527903,-2.153463 -2.948919,-2.747199 -1.478718,-0.61785 -4.972539,-0.910995 -6.014745,-0.504663 l -0.825,0.321648 0,6.187686 0,6.187689 2.025,-0.190863 c 1.11375,-0.104976 2.741874,-0.332352 3.618054,-0.505281 z M 109.2,60.947487 c 0,-0.138882 0.52736,-0.410517 1.17192,-0.60363 1.69985,-0.509289 1.82881,-1.136088 1.82366,-8.863623 -0.005,-7.606767 -0.11229,-8.076348 -1.87748,-8.223345 -0.61496,-0.05121 -1.1181,-0.214242 -1.1181,-0.362295 0,-0.148053 0.97875,-0.552195 2.175,-0.898092 1.19625,-0.3459 2.56639,-0.756615 3.04477,-0.912705 1.33966,-0.437118 1.38023,-0.395829 1.38023,1.404651 l 0,1.688448 0.975,-0.788727 c 2.38132,-1.926366 3.5732,-2.438169 5.678,-2.438169 2.44101,0 3.3578,0.559845 4.447,2.715591 0.72094,1.426899 0.75581,1.758711 0.9,8.564445 0.1621,7.651458 0.21068,7.870893 1.82073,8.224518 2.0894,0.45891 0.58234,0.745446 -3.92073,0.745446 -2.64,0 -4.8,-0.104745 -4.8,-0.232764 0,-0.128019 0.57017,-0.499269 1.26704,-0.825 1.69589,-0.792681 1.79723,-1.316514 1.6795,-8.681481 -0.0833,-5.20854 -0.17091,-6.152577 -0.63723,-6.863376 -1.13865,-1.735614 -3.48228,-1.739337 -5.74826,-0.0091 l -1.36105,1.039254 0,6.41673 c 0,3.5292 0.1289,6.755769 0.28645,7.170156 0.19688,0.517827 0.66594,0.867126 1.5,1.117017 0.66745,0.199971 1.21355,0.477219 1.21355,0.616101 0,0.138882 -2.2275,0.252513 -4.95,0.252513 -2.7225,0 -4.95,-0.113631 -4.95,-0.252513 z m 42.3,0 c 0,-0.138882 0.5461,-0.41613 1.21355,-0.616101 0.83406,-0.249891 1.30312,-0.59919 1.5,-1.117017 0.15755,-0.414387 0.28446,-3.815889 0.28203,-7.558899 -0.005,-7.796742 -0.10664,-8.251113 -1.87748,-8.398581 -0.61496,-0.05121 -1.1181,-0.214242 -1.1181,-0.362295 0,-0.148053 0.97875,-0.552195 2.175,-0.898092 1.19625,-0.3459 2.56639,-0.756615 3.04477,-0.912705 1.33966,-0.437118 1.38023,-0.395829 1.38023,1.404651 l 0,1.688448 0.975,-0.788727 c 2.38132,-1.926366 3.5732,-2.438169 5.678,-2.438169 2.44101,0 3.3578,0.559845 4.447,2.715591 0.72094,1.426899 0.75581,1.758711 0.9,8.564445 0.16211,7.651458 0.21068,7.870893 1.82073,8.224518 C 174.01013,60.913464 172.50307,61.2 168,61.2 c -2.64,0 -4.8,-0.104745 -4.8,-0.232764 0,-0.128019 0.57017,-0.499269 1.26704,-0.825 1.69589,-0.792681 1.79723,-1.316514 1.6795,-8.681481 -0.0833,-5.20854 -0.17091,-6.152577 -0.63723,-6.863376 -1.13865,-1.735614 -3.48228,-1.739337 -5.74826,-0.0091 l -1.36105,1.039254 0,6.41673 c 0,3.5292 0.1289,6.755769 0.28645,7.170156 0.19688,0.517827 0.66594,0.867126 1.5,1.117017 0.66745,0.199971 1.21355,0.477219 1.21355,0.616101 0,0.138882 -2.2275,0.252513 -4.95,0.252513 -2.7225,0 -4.95,-0.113631 -4.95,-0.252513 z m 73.2,-0.04394 c 0,-0.16305 0.56784,-0.387258 1.26187,-0.498237 0.69999,-0.111933 1.56828,-0.508191 1.95,-0.889908 L 228.6,58.827273 228.6,46.35 l 0,-12.477273 -0.68813,-0.688128 c -0.38172,-0.381717 -1.25001,-0.777975 -1.95,-0.889908 C 225.26784,32.183712 224.7,31.959504 224.7,31.796454 224.7,31.608915 227.51638,31.5 232.36578,31.5 c 8.57405,0 10.77282,0.301377 13.13689,1.800627 2.15291,1.365333 3.02757,2.944449 3.14469,5.677437 0.0831,1.938348 -0.008,2.470155 -0.62303,3.621936 -0.89209,1.671747 -2.60451,2.906883 -5.19298,3.74559 l -1.98438,0.642972 5.07706,6.280719 c 4.81122,5.951856 5.59313,6.731712 7.20097,7.182081 1.62152,0.454197 0.42944,0.748638 -3.03098,0.748638 l -3.70598,0 -5.51902,-6.825 c -4.94565,-6.11595 -5.62031,-6.834765 -6.49402,-6.919008 l -0.975,-0.09401 0,5.224242 c 0,2.921379 0.14082,5.628207 0.31947,6.140676 0.3249,0.932004 1.04588,1.360836 2.90553,1.728177 0.53625,0.105927 0.975,0.316869 0.975,0.468759 0,0.159654 -2.72115,0.276162 -6.45,0.276162 -4.04858,0 -6.45,-0.110373 -6.45,-0.296454 z m 14.49865,-15.655938 c 1.67506,-0.355524 3.39194,-1.712469 3.99604,-3.158286 0.52404,-1.254219 0.52071,-4.33776 -0.006,-5.573958 -0.51585,-1.210632 -1.52791,-2.153463 -2.94892,-2.747199 -1.47872,-0.61785 -4.97254,-0.910995 -6.01475,-0.504663 l -0.825,0.321648 0,6.196188 0,6.196188 2.175,-0.211221 c 1.19625,-0.116172 2.8269,-0.349587 3.62366,-0.518697 z M 295.2,60.932097 c 0,-0.324975 0.74074,-0.632097 1.52454,-0.632097 0.3165,0 0.84546,-0.27 1.17546,-0.6 0.58115,-0.581151 0.6,-0.999999 0.6,-13.33299 l 0,-12.732987 -0.65847,-0.461208 c -0.45464,-0.318444 -1.01181,-0.404703 -1.8,-0.27867 -1.51027,0.241503 -1.5235,-0.371043 -0.0165,-0.765468 2.6319,-0.688854 6.03804,-1.528677 6.19998,-1.528677 0.0963,0 0.17577,6.10875 0.1767,13.575 0,8.349936 0.12009,14.001375 0.30933,14.682747 0.3072,1.106082 0.47895,1.22436 2.31399,1.593693 2.3193,0.466794 0.65367,0.74856 -4.425,0.74856 -2.97,0 -5.4,-0.120558 -5.4,-0.267903 z M 49.849938,35.562279 C 50.037864,35.362872 54.733833,34.488432 61.2,33.448782 c 1.5675,-0.252027 4.6725,-0.782028 6.9,-1.177779 2.2275,-0.395751 6.5475,-1.154028 9.6,-1.685061 l 5.55,-0.965511 5.801229,-4.235216 c 3.190677,-2.329368 7.308177,-5.347221 9.15,-6.70634 1.841821,-1.359118 4.740901,-3.451618 6.442401,-4.65 1.7015,-1.198381 3.76146,-2.689225 4.5777,-3.312985 1.20047,-0.9173815 1.59304,-1.0757935 2.05427,-0.8289475 0.31361,0.1678395 4.14443,4.6606895 8.51293,9.9841105 4.36851,5.323421 8.47746,10.252697 9.13102,10.953947 l 1.18828,1.275 41.14609,0 41.14608,0 0,0.867903 c 0,0.514668 -0.19314,0.942018 -0.47454,1.05 C 211.66447,34.118058 192.90968,34.2 170.24815,34.2 l -41.20277,0 -1.78516,-2.025 c -0.98184,-1.11375 -4.98324,-5.94 -8.89199,-10.725 -3.90876,-4.785 -7.2023,-8.734718 -7.31898,-8.777152 -0.11669,-0.04243 -5.00176,3.436413 -10.85571,7.730769 -5.853944,4.294356 -11.927354,8.739776 -13.496462,9.878713 l -2.852919,2.070792 -3.147081,0.178371 C 77.887323,32.690745 69.385329,33.575562 57.15,34.982073 50.988762,35.69034 49.627275,35.79855 49.849938,35.562279 Z"
     id="path4478"
     inkscape:connector-curvature="0" />
</svg>
